G04 #@! TF.GenerationSoftware,KiCad,Pcbnew,5.1.2-f72e74a~84~ubuntu18.04.1*
G04 #@! TF.CreationDate,2019-05-05T21:55:27+02:00*
G04 #@! TF.ProjectId,f-91w,662d3931-772e-46b6-9963-61645f706362,2*
G04 #@! TF.SameCoordinates,Original*
G04 #@! TF.FileFunction,Soldermask,Bot*
G04 #@! TF.FilePolarity,Negative*
%FSLAX46Y46*%
G04 Gerber Fmt 4.6, Leading zero omitted, Abs format (unit mm)*
G04 Created by KiCad (PCBNEW 5.1.2-f72e74a~84~ubuntu18.04.1) date 2019-05-05 21:55:27*
%MOMM*%
%LPD*%
G04 APERTURE LIST*
%ADD10C,0.100000*%
G04 APERTURE END LIST*
D10*
G36*
X31738400Y-45500000D02*
G01*
X30038400Y-45500000D01*
X29538400Y-45200000D01*
X29538400Y-44149999D01*
X29537439Y-44140245D01*
X29534594Y-44130865D01*
X29529974Y-44122221D01*
X29523756Y-44114644D01*
X29516179Y-44108426D01*
X29507535Y-44103806D01*
X29498155Y-44100961D01*
X29488401Y-44100000D01*
X28938400Y-44100000D01*
X28938400Y-42600000D01*
X31738400Y-42600000D01*
X31738400Y-45500000D01*
X31738400Y-45500000D01*
G37*
G36*
X32841535Y-44365175D02*
G01*
X32841538Y-44365176D01*
X32841537Y-44365176D01*
X32937081Y-44404751D01*
X33023068Y-44462206D01*
X33096194Y-44535332D01*
X33153649Y-44621319D01*
X33186434Y-44700471D01*
X33193225Y-44716865D01*
X33213400Y-44818291D01*
X33213400Y-44921709D01*
X33193225Y-45023135D01*
X33193224Y-45023137D01*
X33153649Y-45118681D01*
X33096194Y-45204668D01*
X33023068Y-45277794D01*
X32937081Y-45335249D01*
X32857929Y-45368034D01*
X32841535Y-45374825D01*
X32740109Y-45395000D01*
X32636691Y-45395000D01*
X32535265Y-45374825D01*
X32518871Y-45368034D01*
X32439719Y-45335249D01*
X32353732Y-45277794D01*
X32280606Y-45204668D01*
X32223151Y-45118681D01*
X32183576Y-45023137D01*
X32183575Y-45023135D01*
X32163400Y-44921709D01*
X32163400Y-44818291D01*
X32183575Y-44716865D01*
X32190366Y-44700471D01*
X32223151Y-44621319D01*
X32280606Y-44535332D01*
X32353732Y-44462206D01*
X32439719Y-44404751D01*
X32535263Y-44365176D01*
X32535262Y-44365176D01*
X32535265Y-44365175D01*
X32636691Y-44345000D01*
X32740109Y-44345000D01*
X32841535Y-44365175D01*
X32841535Y-44365175D01*
G37*
G36*
X41812165Y-40664821D02*
G01*
X41948657Y-40721358D01*
X42071496Y-40803436D01*
X42175964Y-40907904D01*
X42258042Y-41030743D01*
X42314579Y-41167235D01*
X42343400Y-41312130D01*
X42343400Y-41459870D01*
X42314579Y-41604765D01*
X42258042Y-41741257D01*
X42175964Y-41864096D01*
X42071496Y-41968564D01*
X41948657Y-42050642D01*
X41812165Y-42107179D01*
X41667270Y-42136000D01*
X41519530Y-42136000D01*
X41374635Y-42107179D01*
X41238143Y-42050642D01*
X41115304Y-41968564D01*
X41010836Y-41864096D01*
X40928758Y-41741257D01*
X40872221Y-41604765D01*
X40843400Y-41459870D01*
X40843400Y-41312130D01*
X40872221Y-41167235D01*
X40928758Y-41030743D01*
X41010836Y-40907904D01*
X41115304Y-40803436D01*
X41238143Y-40721358D01*
X41374635Y-40664821D01*
X41519530Y-40636000D01*
X41667270Y-40636000D01*
X41812165Y-40664821D01*
X41812165Y-40664821D01*
G37*
G36*
X28011165Y-40624821D02*
G01*
X28147657Y-40681358D01*
X28270496Y-40763436D01*
X28374964Y-40867904D01*
X28457042Y-40990743D01*
X28513579Y-41127235D01*
X28542400Y-41272130D01*
X28542400Y-41419870D01*
X28513579Y-41564765D01*
X28457042Y-41701257D01*
X28374964Y-41824096D01*
X28270496Y-41928564D01*
X28147657Y-42010642D01*
X28011165Y-42067179D01*
X27866270Y-42096000D01*
X27718530Y-42096000D01*
X27573635Y-42067179D01*
X27437143Y-42010642D01*
X27314304Y-41928564D01*
X27209836Y-41824096D01*
X27127758Y-41701257D01*
X27071221Y-41564765D01*
X27042400Y-41419870D01*
X27042400Y-41272130D01*
X27071221Y-41127235D01*
X27127758Y-40990743D01*
X27209836Y-40867904D01*
X27314304Y-40763436D01*
X27437143Y-40681358D01*
X27573635Y-40624821D01*
X27718530Y-40596000D01*
X27866270Y-40596000D01*
X28011165Y-40624821D01*
X28011165Y-40624821D01*
G37*
G36*
X44201147Y-37806374D02*
G01*
X44210297Y-37809874D01*
X44216432Y-37811147D01*
X44386197Y-37835400D01*
X44558400Y-37860000D01*
X44559802Y-37860701D01*
X44856197Y-38008898D01*
X44856201Y-38008900D01*
X44858400Y-38010000D01*
X45108400Y-38260000D01*
X45108400Y-38310000D01*
X45079527Y-38512110D01*
X45058903Y-38656479D01*
X45058400Y-38663550D01*
X45058400Y-38950371D01*
X45059361Y-38960125D01*
X45061976Y-38968940D01*
X45256467Y-39455166D01*
X45261288Y-39464331D01*
X45352377Y-39600965D01*
X45358400Y-39610000D01*
X45258400Y-39860000D01*
X44958400Y-40210000D01*
X44658400Y-40410000D01*
X44540734Y-40449222D01*
X44210735Y-40559222D01*
X44210732Y-40559223D01*
X44208400Y-40560000D01*
X43958400Y-40560000D01*
X43956913Y-40559504D01*
X43956908Y-40559503D01*
X43808145Y-40509915D01*
X43658400Y-40460000D01*
X43308400Y-40310000D01*
X43058400Y-40060000D01*
X42979829Y-39950000D01*
X42809827Y-39711998D01*
X42809826Y-39711997D01*
X42808400Y-39710000D01*
X42738379Y-39499938D01*
X42709177Y-39412332D01*
X42708400Y-39410000D01*
X42708400Y-38860000D01*
X42712686Y-38850000D01*
X42857496Y-38512110D01*
X42858400Y-38510000D01*
X43058400Y-38210000D01*
X43358400Y-38010000D01*
X43608400Y-37860000D01*
X43610198Y-37859640D01*
X43610203Y-37859639D01*
X43876540Y-37806372D01*
X44108400Y-37760000D01*
X44201147Y-37806374D01*
X44201147Y-37806374D01*
G37*
G36*
X26188400Y-37750000D02*
G01*
X26438400Y-37900000D01*
X26738400Y-38100000D01*
X26739777Y-38102066D01*
X26739779Y-38102068D01*
X26771797Y-38150095D01*
X26938400Y-38400000D01*
X27088400Y-38750000D01*
X27088400Y-39300000D01*
X27087904Y-39301487D01*
X27087903Y-39301492D01*
X27050955Y-39412335D01*
X26988400Y-39600000D01*
X26987665Y-39601029D01*
X26987660Y-39601037D01*
X26802686Y-39860000D01*
X26738400Y-39950000D01*
X26488400Y-40200000D01*
X26486284Y-40200907D01*
X26486280Y-40200909D01*
X26312815Y-40275251D01*
X26138400Y-40350000D01*
X25989076Y-40399775D01*
X25840732Y-40449223D01*
X25838400Y-40450000D01*
X25588400Y-40450000D01*
X25586913Y-40449504D01*
X25586908Y-40449503D01*
X25287176Y-40349592D01*
X25138400Y-40300000D01*
X24838400Y-40100000D01*
X24538400Y-39750000D01*
X24438400Y-39500000D01*
X24499001Y-39409098D01*
X24535512Y-39354331D01*
X24540333Y-39345166D01*
X24734824Y-38858940D01*
X24737555Y-38849527D01*
X24738400Y-38840371D01*
X24738400Y-38553550D01*
X24737897Y-38546479D01*
X24717273Y-38402110D01*
X24688400Y-38200000D01*
X24688400Y-38150000D01*
X24938400Y-37900000D01*
X25238400Y-37750000D01*
X25325058Y-37737620D01*
X25580368Y-37701147D01*
X25589888Y-37698817D01*
X25595650Y-37696375D01*
X25688400Y-37650000D01*
X26188400Y-37750000D01*
X26188400Y-37750000D01*
G37*
G36*
X34338400Y-33700000D02*
G01*
X30938400Y-33700000D01*
X30938400Y-30800000D01*
X34338400Y-30800000D01*
X34338400Y-33700000D01*
X34338400Y-33700000D01*
G37*
G36*
X38838400Y-33700000D02*
G01*
X35438400Y-33700000D01*
X35438400Y-30800000D01*
X38838400Y-30800000D01*
X38838400Y-33700000D01*
X38838400Y-33700000D01*
G37*
G36*
X27175208Y-31792489D02*
G01*
X27237998Y-31804979D01*
X27307291Y-31833682D01*
X27356289Y-31853977D01*
X27356290Y-31853978D01*
X27462751Y-31925112D01*
X27553288Y-32015649D01*
X27553289Y-32015651D01*
X27624423Y-32122111D01*
X27644718Y-32171109D01*
X27673421Y-32240402D01*
X27673421Y-32240404D01*
X27692357Y-32335598D01*
X27698400Y-32365981D01*
X27698400Y-32494019D01*
X27673421Y-32619598D01*
X27644718Y-32688891D01*
X27624423Y-32737889D01*
X27624422Y-32737890D01*
X27553288Y-32844351D01*
X27462751Y-32934888D01*
X27409160Y-32970696D01*
X27356289Y-33006023D01*
X27307291Y-33026318D01*
X27237998Y-33055021D01*
X27175208Y-33067511D01*
X27112421Y-33080000D01*
X26984379Y-33080000D01*
X26921592Y-33067511D01*
X26858802Y-33055021D01*
X26789509Y-33026318D01*
X26740511Y-33006023D01*
X26687640Y-32970696D01*
X26634049Y-32934888D01*
X26543512Y-32844351D01*
X26472378Y-32737890D01*
X26472377Y-32737889D01*
X26452082Y-32688891D01*
X26423379Y-32619598D01*
X26398400Y-32494019D01*
X26398400Y-32365981D01*
X26404444Y-32335598D01*
X26423379Y-32240404D01*
X26423379Y-32240402D01*
X26452082Y-32171109D01*
X26472377Y-32122111D01*
X26543511Y-32015651D01*
X26543512Y-32015649D01*
X26634049Y-31925112D01*
X26740510Y-31853978D01*
X26740511Y-31853977D01*
X26789509Y-31833682D01*
X26858802Y-31804979D01*
X26921592Y-31792489D01*
X26984379Y-31780000D01*
X27112421Y-31780000D01*
X27175208Y-31792489D01*
X27175208Y-31792489D01*
G37*
G36*
X42947208Y-31508489D02*
G01*
X43009998Y-31520979D01*
X43079291Y-31549682D01*
X43128289Y-31569977D01*
X43128290Y-31569978D01*
X43234751Y-31641112D01*
X43325288Y-31731649D01*
X43325289Y-31731651D01*
X43396423Y-31838111D01*
X43402995Y-31853978D01*
X43445421Y-31956402D01*
X43445421Y-31956404D01*
X43470400Y-32081979D01*
X43470400Y-32210021D01*
X43464356Y-32240404D01*
X43445421Y-32335598D01*
X43416718Y-32404891D01*
X43396423Y-32453889D01*
X43396422Y-32453890D01*
X43325288Y-32560351D01*
X43234751Y-32650888D01*
X43181160Y-32686696D01*
X43128289Y-32722023D01*
X43089982Y-32737890D01*
X43009998Y-32771021D01*
X42947208Y-32783511D01*
X42884421Y-32796000D01*
X42756379Y-32796000D01*
X42693592Y-32783511D01*
X42630802Y-32771021D01*
X42550818Y-32737890D01*
X42512511Y-32722023D01*
X42459640Y-32686696D01*
X42406049Y-32650888D01*
X42315512Y-32560351D01*
X42244378Y-32453890D01*
X42244377Y-32453889D01*
X42224082Y-32404891D01*
X42195379Y-32335598D01*
X42176444Y-32240404D01*
X42170400Y-32210021D01*
X42170400Y-32081979D01*
X42195379Y-31956404D01*
X42195379Y-31956402D01*
X42237805Y-31853978D01*
X42244377Y-31838111D01*
X42315511Y-31731651D01*
X42315512Y-31731649D01*
X42406049Y-31641112D01*
X42512510Y-31569978D01*
X42512511Y-31569977D01*
X42561509Y-31549682D01*
X42630802Y-31520979D01*
X42693592Y-31508489D01*
X42756379Y-31496000D01*
X42884421Y-31496000D01*
X42947208Y-31508489D01*
X42947208Y-31508489D01*
G37*
G36*
X41679165Y-23097821D02*
G01*
X41815657Y-23154358D01*
X41938496Y-23236436D01*
X42042964Y-23340904D01*
X42125042Y-23463743D01*
X42181579Y-23600235D01*
X42210400Y-23745130D01*
X42210400Y-23892870D01*
X42181579Y-24037765D01*
X42125042Y-24174257D01*
X42042964Y-24297096D01*
X41938496Y-24401564D01*
X41815657Y-24483642D01*
X41679165Y-24540179D01*
X41534270Y-24569000D01*
X41386530Y-24569000D01*
X41241635Y-24540179D01*
X41105143Y-24483642D01*
X40982304Y-24401564D01*
X40877836Y-24297096D01*
X40795758Y-24174257D01*
X40739221Y-24037765D01*
X40710400Y-23892870D01*
X40710400Y-23745130D01*
X40739221Y-23600235D01*
X40795758Y-23463743D01*
X40877836Y-23340904D01*
X40982304Y-23236436D01*
X41105143Y-23154358D01*
X41241635Y-23097821D01*
X41386530Y-23069000D01*
X41534270Y-23069000D01*
X41679165Y-23097821D01*
X41679165Y-23097821D01*
G37*
G36*
X28705165Y-23028821D02*
G01*
X28841657Y-23085358D01*
X28964496Y-23167436D01*
X29068964Y-23271904D01*
X29151042Y-23394743D01*
X29207579Y-23531235D01*
X29236400Y-23676130D01*
X29236400Y-23823870D01*
X29207579Y-23968765D01*
X29151042Y-24105257D01*
X29068964Y-24228096D01*
X28964496Y-24332564D01*
X28841657Y-24414642D01*
X28705165Y-24471179D01*
X28560270Y-24500000D01*
X28412530Y-24500000D01*
X28267635Y-24471179D01*
X28131143Y-24414642D01*
X28008304Y-24332564D01*
X27903836Y-24228096D01*
X27821758Y-24105257D01*
X27765221Y-23968765D01*
X27736400Y-23823870D01*
X27736400Y-23676130D01*
X27765221Y-23531235D01*
X27821758Y-23394743D01*
X27903836Y-23271904D01*
X28008304Y-23167436D01*
X28131143Y-23085358D01*
X28267635Y-23028821D01*
X28412530Y-23000000D01*
X28560270Y-23000000D01*
X28705165Y-23028821D01*
X28705165Y-23028821D01*
G37*
M02*
