G04 #@! TF.GenerationSoftware,KiCad,Pcbnew,5.1.2-f72e74a~84~ubuntu18.04.1*
G04 #@! TF.CreationDate,2019-05-05T15:29:53+02:00*
G04 #@! TF.ProjectId,f-91w,662d3931-772e-46b6-9963-61645f706362,rev?*
G04 #@! TF.SameCoordinates,Original*
G04 #@! TF.FileFunction,Copper,L1,Top*
G04 #@! TF.FilePolarity,Positive*
%FSLAX46Y46*%
G04 Gerber Fmt 4.6, Leading zero omitted, Abs format (unit mm)*
G04 Created by KiCad (PCBNEW 5.1.2-f72e74a~84~ubuntu18.04.1) date 2019-05-05 15:29:53*
%MOMM*%
%LPD*%
G04 APERTURE LIST*
%ADD10C,0.100000*%
%ADD11C,0.590000*%
%ADD12R,0.600000X0.500000*%
%ADD13C,0.250000*%
%ADD14C,7.300000*%
%ADD15R,0.350000X0.375000*%
%ADD16R,0.375000X0.350000*%
%ADD17R,0.373000X1.509000*%
%ADD18C,4.000000*%
%ADD19C,1.200000*%
%ADD20R,1.200000X0.800000*%
%ADD21R,1.100000X1.500000*%
%ADD22R,1.000000X2.250000*%
%ADD23R,0.350000X0.800000*%
%ADD24C,0.460000*%
%ADD25C,2.500000*%
%ADD26C,0.600000*%
%ADD27C,0.200000*%
%ADD28C,0.300000*%
G04 APERTURE END LIST*
D10*
G36*
X50396958Y-94180710D02*
G01*
X50411276Y-94182834D01*
X50425317Y-94186351D01*
X50438946Y-94191228D01*
X50452031Y-94197417D01*
X50464447Y-94204858D01*
X50476073Y-94213481D01*
X50486798Y-94223202D01*
X50496519Y-94233927D01*
X50505142Y-94245553D01*
X50512583Y-94257969D01*
X50518772Y-94271054D01*
X50523649Y-94284683D01*
X50527166Y-94298724D01*
X50529290Y-94313042D01*
X50530000Y-94327500D01*
X50530000Y-94672500D01*
X50529290Y-94686958D01*
X50527166Y-94701276D01*
X50523649Y-94715317D01*
X50518772Y-94728946D01*
X50512583Y-94742031D01*
X50505142Y-94754447D01*
X50496519Y-94766073D01*
X50486798Y-94776798D01*
X50476073Y-94786519D01*
X50464447Y-94795142D01*
X50452031Y-94802583D01*
X50438946Y-94808772D01*
X50425317Y-94813649D01*
X50411276Y-94817166D01*
X50396958Y-94819290D01*
X50382500Y-94820000D01*
X50087500Y-94820000D01*
X50073042Y-94819290D01*
X50058724Y-94817166D01*
X50044683Y-94813649D01*
X50031054Y-94808772D01*
X50017969Y-94802583D01*
X50005553Y-94795142D01*
X49993927Y-94786519D01*
X49983202Y-94776798D01*
X49973481Y-94766073D01*
X49964858Y-94754447D01*
X49957417Y-94742031D01*
X49951228Y-94728946D01*
X49946351Y-94715317D01*
X49942834Y-94701276D01*
X49940710Y-94686958D01*
X49940000Y-94672500D01*
X49940000Y-94327500D01*
X49940710Y-94313042D01*
X49942834Y-94298724D01*
X49946351Y-94284683D01*
X49951228Y-94271054D01*
X49957417Y-94257969D01*
X49964858Y-94245553D01*
X49973481Y-94233927D01*
X49983202Y-94223202D01*
X49993927Y-94213481D01*
X50005553Y-94204858D01*
X50017969Y-94197417D01*
X50031054Y-94191228D01*
X50044683Y-94186351D01*
X50058724Y-94182834D01*
X50073042Y-94180710D01*
X50087500Y-94180000D01*
X50382500Y-94180000D01*
X50396958Y-94180710D01*
X50396958Y-94180710D01*
G37*
D11*
X50235000Y-94500000D03*
D10*
G36*
X49426958Y-94180710D02*
G01*
X49441276Y-94182834D01*
X49455317Y-94186351D01*
X49468946Y-94191228D01*
X49482031Y-94197417D01*
X49494447Y-94204858D01*
X49506073Y-94213481D01*
X49516798Y-94223202D01*
X49526519Y-94233927D01*
X49535142Y-94245553D01*
X49542583Y-94257969D01*
X49548772Y-94271054D01*
X49553649Y-94284683D01*
X49557166Y-94298724D01*
X49559290Y-94313042D01*
X49560000Y-94327500D01*
X49560000Y-94672500D01*
X49559290Y-94686958D01*
X49557166Y-94701276D01*
X49553649Y-94715317D01*
X49548772Y-94728946D01*
X49542583Y-94742031D01*
X49535142Y-94754447D01*
X49526519Y-94766073D01*
X49516798Y-94776798D01*
X49506073Y-94786519D01*
X49494447Y-94795142D01*
X49482031Y-94802583D01*
X49468946Y-94808772D01*
X49455317Y-94813649D01*
X49441276Y-94817166D01*
X49426958Y-94819290D01*
X49412500Y-94820000D01*
X49117500Y-94820000D01*
X49103042Y-94819290D01*
X49088724Y-94817166D01*
X49074683Y-94813649D01*
X49061054Y-94808772D01*
X49047969Y-94802583D01*
X49035553Y-94795142D01*
X49023927Y-94786519D01*
X49013202Y-94776798D01*
X49003481Y-94766073D01*
X48994858Y-94754447D01*
X48987417Y-94742031D01*
X48981228Y-94728946D01*
X48976351Y-94715317D01*
X48972834Y-94701276D01*
X48970710Y-94686958D01*
X48970000Y-94672500D01*
X48970000Y-94327500D01*
X48970710Y-94313042D01*
X48972834Y-94298724D01*
X48976351Y-94284683D01*
X48981228Y-94271054D01*
X48987417Y-94257969D01*
X48994858Y-94245553D01*
X49003481Y-94233927D01*
X49013202Y-94223202D01*
X49023927Y-94213481D01*
X49035553Y-94204858D01*
X49047969Y-94197417D01*
X49061054Y-94191228D01*
X49074683Y-94186351D01*
X49088724Y-94182834D01*
X49103042Y-94180710D01*
X49117500Y-94180000D01*
X49412500Y-94180000D01*
X49426958Y-94180710D01*
X49426958Y-94180710D01*
G37*
D11*
X49265000Y-94500000D03*
D10*
G36*
X56692458Y-104581710D02*
G01*
X56706776Y-104583834D01*
X56720817Y-104587351D01*
X56734446Y-104592228D01*
X56747531Y-104598417D01*
X56759947Y-104605858D01*
X56771573Y-104614481D01*
X56782298Y-104624202D01*
X56792019Y-104634927D01*
X56800642Y-104646553D01*
X56808083Y-104658969D01*
X56814272Y-104672054D01*
X56819149Y-104685683D01*
X56822666Y-104699724D01*
X56824790Y-104714042D01*
X56825500Y-104728500D01*
X56825500Y-105023500D01*
X56824790Y-105037958D01*
X56822666Y-105052276D01*
X56819149Y-105066317D01*
X56814272Y-105079946D01*
X56808083Y-105093031D01*
X56800642Y-105105447D01*
X56792019Y-105117073D01*
X56782298Y-105127798D01*
X56771573Y-105137519D01*
X56759947Y-105146142D01*
X56747531Y-105153583D01*
X56734446Y-105159772D01*
X56720817Y-105164649D01*
X56706776Y-105168166D01*
X56692458Y-105170290D01*
X56678000Y-105171000D01*
X56333000Y-105171000D01*
X56318542Y-105170290D01*
X56304224Y-105168166D01*
X56290183Y-105164649D01*
X56276554Y-105159772D01*
X56263469Y-105153583D01*
X56251053Y-105146142D01*
X56239427Y-105137519D01*
X56228702Y-105127798D01*
X56218981Y-105117073D01*
X56210358Y-105105447D01*
X56202917Y-105093031D01*
X56196728Y-105079946D01*
X56191851Y-105066317D01*
X56188334Y-105052276D01*
X56186210Y-105037958D01*
X56185500Y-105023500D01*
X56185500Y-104728500D01*
X56186210Y-104714042D01*
X56188334Y-104699724D01*
X56191851Y-104685683D01*
X56196728Y-104672054D01*
X56202917Y-104658969D01*
X56210358Y-104646553D01*
X56218981Y-104634927D01*
X56228702Y-104624202D01*
X56239427Y-104614481D01*
X56251053Y-104605858D01*
X56263469Y-104598417D01*
X56276554Y-104592228D01*
X56290183Y-104587351D01*
X56304224Y-104583834D01*
X56318542Y-104581710D01*
X56333000Y-104581000D01*
X56678000Y-104581000D01*
X56692458Y-104581710D01*
X56692458Y-104581710D01*
G37*
D11*
X56505500Y-104876000D03*
D10*
G36*
X56692458Y-103611710D02*
G01*
X56706776Y-103613834D01*
X56720817Y-103617351D01*
X56734446Y-103622228D01*
X56747531Y-103628417D01*
X56759947Y-103635858D01*
X56771573Y-103644481D01*
X56782298Y-103654202D01*
X56792019Y-103664927D01*
X56800642Y-103676553D01*
X56808083Y-103688969D01*
X56814272Y-103702054D01*
X56819149Y-103715683D01*
X56822666Y-103729724D01*
X56824790Y-103744042D01*
X56825500Y-103758500D01*
X56825500Y-104053500D01*
X56824790Y-104067958D01*
X56822666Y-104082276D01*
X56819149Y-104096317D01*
X56814272Y-104109946D01*
X56808083Y-104123031D01*
X56800642Y-104135447D01*
X56792019Y-104147073D01*
X56782298Y-104157798D01*
X56771573Y-104167519D01*
X56759947Y-104176142D01*
X56747531Y-104183583D01*
X56734446Y-104189772D01*
X56720817Y-104194649D01*
X56706776Y-104198166D01*
X56692458Y-104200290D01*
X56678000Y-104201000D01*
X56333000Y-104201000D01*
X56318542Y-104200290D01*
X56304224Y-104198166D01*
X56290183Y-104194649D01*
X56276554Y-104189772D01*
X56263469Y-104183583D01*
X56251053Y-104176142D01*
X56239427Y-104167519D01*
X56228702Y-104157798D01*
X56218981Y-104147073D01*
X56210358Y-104135447D01*
X56202917Y-104123031D01*
X56196728Y-104109946D01*
X56191851Y-104096317D01*
X56188334Y-104082276D01*
X56186210Y-104067958D01*
X56185500Y-104053500D01*
X56185500Y-103758500D01*
X56186210Y-103744042D01*
X56188334Y-103729724D01*
X56191851Y-103715683D01*
X56196728Y-103702054D01*
X56202917Y-103688969D01*
X56210358Y-103676553D01*
X56218981Y-103664927D01*
X56228702Y-103654202D01*
X56239427Y-103644481D01*
X56251053Y-103635858D01*
X56263469Y-103628417D01*
X56276554Y-103622228D01*
X56290183Y-103617351D01*
X56304224Y-103613834D01*
X56318542Y-103611710D01*
X56333000Y-103611000D01*
X56678000Y-103611000D01*
X56692458Y-103611710D01*
X56692458Y-103611710D01*
G37*
D11*
X56505500Y-103906000D03*
D10*
G36*
X49426958Y-92930710D02*
G01*
X49441276Y-92932834D01*
X49455317Y-92936351D01*
X49468946Y-92941228D01*
X49482031Y-92947417D01*
X49494447Y-92954858D01*
X49506073Y-92963481D01*
X49516798Y-92973202D01*
X49526519Y-92983927D01*
X49535142Y-92995553D01*
X49542583Y-93007969D01*
X49548772Y-93021054D01*
X49553649Y-93034683D01*
X49557166Y-93048724D01*
X49559290Y-93063042D01*
X49560000Y-93077500D01*
X49560000Y-93422500D01*
X49559290Y-93436958D01*
X49557166Y-93451276D01*
X49553649Y-93465317D01*
X49548772Y-93478946D01*
X49542583Y-93492031D01*
X49535142Y-93504447D01*
X49526519Y-93516073D01*
X49516798Y-93526798D01*
X49506073Y-93536519D01*
X49494447Y-93545142D01*
X49482031Y-93552583D01*
X49468946Y-93558772D01*
X49455317Y-93563649D01*
X49441276Y-93567166D01*
X49426958Y-93569290D01*
X49412500Y-93570000D01*
X49117500Y-93570000D01*
X49103042Y-93569290D01*
X49088724Y-93567166D01*
X49074683Y-93563649D01*
X49061054Y-93558772D01*
X49047969Y-93552583D01*
X49035553Y-93545142D01*
X49023927Y-93536519D01*
X49013202Y-93526798D01*
X49003481Y-93516073D01*
X48994858Y-93504447D01*
X48987417Y-93492031D01*
X48981228Y-93478946D01*
X48976351Y-93465317D01*
X48972834Y-93451276D01*
X48970710Y-93436958D01*
X48970000Y-93422500D01*
X48970000Y-93077500D01*
X48970710Y-93063042D01*
X48972834Y-93048724D01*
X48976351Y-93034683D01*
X48981228Y-93021054D01*
X48987417Y-93007969D01*
X48994858Y-92995553D01*
X49003481Y-92983927D01*
X49013202Y-92973202D01*
X49023927Y-92963481D01*
X49035553Y-92954858D01*
X49047969Y-92947417D01*
X49061054Y-92941228D01*
X49074683Y-92936351D01*
X49088724Y-92932834D01*
X49103042Y-92930710D01*
X49117500Y-92930000D01*
X49412500Y-92930000D01*
X49426958Y-92930710D01*
X49426958Y-92930710D01*
G37*
D11*
X49265000Y-93250000D03*
D10*
G36*
X50396958Y-92930710D02*
G01*
X50411276Y-92932834D01*
X50425317Y-92936351D01*
X50438946Y-92941228D01*
X50452031Y-92947417D01*
X50464447Y-92954858D01*
X50476073Y-92963481D01*
X50486798Y-92973202D01*
X50496519Y-92983927D01*
X50505142Y-92995553D01*
X50512583Y-93007969D01*
X50518772Y-93021054D01*
X50523649Y-93034683D01*
X50527166Y-93048724D01*
X50529290Y-93063042D01*
X50530000Y-93077500D01*
X50530000Y-93422500D01*
X50529290Y-93436958D01*
X50527166Y-93451276D01*
X50523649Y-93465317D01*
X50518772Y-93478946D01*
X50512583Y-93492031D01*
X50505142Y-93504447D01*
X50496519Y-93516073D01*
X50486798Y-93526798D01*
X50476073Y-93536519D01*
X50464447Y-93545142D01*
X50452031Y-93552583D01*
X50438946Y-93558772D01*
X50425317Y-93563649D01*
X50411276Y-93567166D01*
X50396958Y-93569290D01*
X50382500Y-93570000D01*
X50087500Y-93570000D01*
X50073042Y-93569290D01*
X50058724Y-93567166D01*
X50044683Y-93563649D01*
X50031054Y-93558772D01*
X50017969Y-93552583D01*
X50005553Y-93545142D01*
X49993927Y-93536519D01*
X49983202Y-93526798D01*
X49973481Y-93516073D01*
X49964858Y-93504447D01*
X49957417Y-93492031D01*
X49951228Y-93478946D01*
X49946351Y-93465317D01*
X49942834Y-93451276D01*
X49940710Y-93436958D01*
X49940000Y-93422500D01*
X49940000Y-93077500D01*
X49940710Y-93063042D01*
X49942834Y-93048724D01*
X49946351Y-93034683D01*
X49951228Y-93021054D01*
X49957417Y-93007969D01*
X49964858Y-92995553D01*
X49973481Y-92983927D01*
X49983202Y-92973202D01*
X49993927Y-92963481D01*
X50005553Y-92954858D01*
X50017969Y-92947417D01*
X50031054Y-92941228D01*
X50044683Y-92936351D01*
X50058724Y-92932834D01*
X50073042Y-92930710D01*
X50087500Y-92930000D01*
X50382500Y-92930000D01*
X50396958Y-92930710D01*
X50396958Y-92930710D01*
G37*
D11*
X50235000Y-93250000D03*
D12*
X54255500Y-104691000D03*
X55555500Y-104191000D03*
X55555500Y-105191000D03*
D10*
G36*
X62818626Y-94625301D02*
G01*
X62824693Y-94626201D01*
X62830643Y-94627691D01*
X62836418Y-94629758D01*
X62841962Y-94632380D01*
X62847223Y-94635533D01*
X62852150Y-94639187D01*
X62856694Y-94643306D01*
X62860813Y-94647850D01*
X62864467Y-94652777D01*
X62867620Y-94658038D01*
X62870242Y-94663582D01*
X62872309Y-94669357D01*
X62873799Y-94675307D01*
X62874699Y-94681374D01*
X62875000Y-94687500D01*
X62875000Y-94812500D01*
X62874699Y-94818626D01*
X62873799Y-94824693D01*
X62872309Y-94830643D01*
X62870242Y-94836418D01*
X62867620Y-94841962D01*
X62864467Y-94847223D01*
X62860813Y-94852150D01*
X62856694Y-94856694D01*
X62852150Y-94860813D01*
X62847223Y-94864467D01*
X62841962Y-94867620D01*
X62836418Y-94870242D01*
X62830643Y-94872309D01*
X62824693Y-94873799D01*
X62818626Y-94874699D01*
X62812500Y-94875000D01*
X62062500Y-94875000D01*
X62056374Y-94874699D01*
X62050307Y-94873799D01*
X62044357Y-94872309D01*
X62038582Y-94870242D01*
X62033038Y-94867620D01*
X62027777Y-94864467D01*
X62022850Y-94860813D01*
X62018306Y-94856694D01*
X62014187Y-94852150D01*
X62010533Y-94847223D01*
X62007380Y-94841962D01*
X62004758Y-94836418D01*
X62002691Y-94830643D01*
X62001201Y-94824693D01*
X62000301Y-94818626D01*
X62000000Y-94812500D01*
X62000000Y-94687500D01*
X62000301Y-94681374D01*
X62001201Y-94675307D01*
X62002691Y-94669357D01*
X62004758Y-94663582D01*
X62007380Y-94658038D01*
X62010533Y-94652777D01*
X62014187Y-94647850D01*
X62018306Y-94643306D01*
X62022850Y-94639187D01*
X62027777Y-94635533D01*
X62033038Y-94632380D01*
X62038582Y-94629758D01*
X62044357Y-94627691D01*
X62050307Y-94626201D01*
X62056374Y-94625301D01*
X62062500Y-94625000D01*
X62812500Y-94625000D01*
X62818626Y-94625301D01*
X62818626Y-94625301D01*
G37*
D13*
X62437500Y-94750000D03*
D10*
G36*
X62818626Y-95125301D02*
G01*
X62824693Y-95126201D01*
X62830643Y-95127691D01*
X62836418Y-95129758D01*
X62841962Y-95132380D01*
X62847223Y-95135533D01*
X62852150Y-95139187D01*
X62856694Y-95143306D01*
X62860813Y-95147850D01*
X62864467Y-95152777D01*
X62867620Y-95158038D01*
X62870242Y-95163582D01*
X62872309Y-95169357D01*
X62873799Y-95175307D01*
X62874699Y-95181374D01*
X62875000Y-95187500D01*
X62875000Y-95312500D01*
X62874699Y-95318626D01*
X62873799Y-95324693D01*
X62872309Y-95330643D01*
X62870242Y-95336418D01*
X62867620Y-95341962D01*
X62864467Y-95347223D01*
X62860813Y-95352150D01*
X62856694Y-95356694D01*
X62852150Y-95360813D01*
X62847223Y-95364467D01*
X62841962Y-95367620D01*
X62836418Y-95370242D01*
X62830643Y-95372309D01*
X62824693Y-95373799D01*
X62818626Y-95374699D01*
X62812500Y-95375000D01*
X62062500Y-95375000D01*
X62056374Y-95374699D01*
X62050307Y-95373799D01*
X62044357Y-95372309D01*
X62038582Y-95370242D01*
X62033038Y-95367620D01*
X62027777Y-95364467D01*
X62022850Y-95360813D01*
X62018306Y-95356694D01*
X62014187Y-95352150D01*
X62010533Y-95347223D01*
X62007380Y-95341962D01*
X62004758Y-95336418D01*
X62002691Y-95330643D01*
X62001201Y-95324693D01*
X62000301Y-95318626D01*
X62000000Y-95312500D01*
X62000000Y-95187500D01*
X62000301Y-95181374D01*
X62001201Y-95175307D01*
X62002691Y-95169357D01*
X62004758Y-95163582D01*
X62007380Y-95158038D01*
X62010533Y-95152777D01*
X62014187Y-95147850D01*
X62018306Y-95143306D01*
X62022850Y-95139187D01*
X62027777Y-95135533D01*
X62033038Y-95132380D01*
X62038582Y-95129758D01*
X62044357Y-95127691D01*
X62050307Y-95126201D01*
X62056374Y-95125301D01*
X62062500Y-95125000D01*
X62812500Y-95125000D01*
X62818626Y-95125301D01*
X62818626Y-95125301D01*
G37*
D13*
X62437500Y-95250000D03*
D10*
G36*
X62818626Y-95625301D02*
G01*
X62824693Y-95626201D01*
X62830643Y-95627691D01*
X62836418Y-95629758D01*
X62841962Y-95632380D01*
X62847223Y-95635533D01*
X62852150Y-95639187D01*
X62856694Y-95643306D01*
X62860813Y-95647850D01*
X62864467Y-95652777D01*
X62867620Y-95658038D01*
X62870242Y-95663582D01*
X62872309Y-95669357D01*
X62873799Y-95675307D01*
X62874699Y-95681374D01*
X62875000Y-95687500D01*
X62875000Y-95812500D01*
X62874699Y-95818626D01*
X62873799Y-95824693D01*
X62872309Y-95830643D01*
X62870242Y-95836418D01*
X62867620Y-95841962D01*
X62864467Y-95847223D01*
X62860813Y-95852150D01*
X62856694Y-95856694D01*
X62852150Y-95860813D01*
X62847223Y-95864467D01*
X62841962Y-95867620D01*
X62836418Y-95870242D01*
X62830643Y-95872309D01*
X62824693Y-95873799D01*
X62818626Y-95874699D01*
X62812500Y-95875000D01*
X62062500Y-95875000D01*
X62056374Y-95874699D01*
X62050307Y-95873799D01*
X62044357Y-95872309D01*
X62038582Y-95870242D01*
X62033038Y-95867620D01*
X62027777Y-95864467D01*
X62022850Y-95860813D01*
X62018306Y-95856694D01*
X62014187Y-95852150D01*
X62010533Y-95847223D01*
X62007380Y-95841962D01*
X62004758Y-95836418D01*
X62002691Y-95830643D01*
X62001201Y-95824693D01*
X62000301Y-95818626D01*
X62000000Y-95812500D01*
X62000000Y-95687500D01*
X62000301Y-95681374D01*
X62001201Y-95675307D01*
X62002691Y-95669357D01*
X62004758Y-95663582D01*
X62007380Y-95658038D01*
X62010533Y-95652777D01*
X62014187Y-95647850D01*
X62018306Y-95643306D01*
X62022850Y-95639187D01*
X62027777Y-95635533D01*
X62033038Y-95632380D01*
X62038582Y-95629758D01*
X62044357Y-95627691D01*
X62050307Y-95626201D01*
X62056374Y-95625301D01*
X62062500Y-95625000D01*
X62812500Y-95625000D01*
X62818626Y-95625301D01*
X62818626Y-95625301D01*
G37*
D13*
X62437500Y-95750000D03*
D10*
G36*
X62818626Y-96125301D02*
G01*
X62824693Y-96126201D01*
X62830643Y-96127691D01*
X62836418Y-96129758D01*
X62841962Y-96132380D01*
X62847223Y-96135533D01*
X62852150Y-96139187D01*
X62856694Y-96143306D01*
X62860813Y-96147850D01*
X62864467Y-96152777D01*
X62867620Y-96158038D01*
X62870242Y-96163582D01*
X62872309Y-96169357D01*
X62873799Y-96175307D01*
X62874699Y-96181374D01*
X62875000Y-96187500D01*
X62875000Y-96312500D01*
X62874699Y-96318626D01*
X62873799Y-96324693D01*
X62872309Y-96330643D01*
X62870242Y-96336418D01*
X62867620Y-96341962D01*
X62864467Y-96347223D01*
X62860813Y-96352150D01*
X62856694Y-96356694D01*
X62852150Y-96360813D01*
X62847223Y-96364467D01*
X62841962Y-96367620D01*
X62836418Y-96370242D01*
X62830643Y-96372309D01*
X62824693Y-96373799D01*
X62818626Y-96374699D01*
X62812500Y-96375000D01*
X62062500Y-96375000D01*
X62056374Y-96374699D01*
X62050307Y-96373799D01*
X62044357Y-96372309D01*
X62038582Y-96370242D01*
X62033038Y-96367620D01*
X62027777Y-96364467D01*
X62022850Y-96360813D01*
X62018306Y-96356694D01*
X62014187Y-96352150D01*
X62010533Y-96347223D01*
X62007380Y-96341962D01*
X62004758Y-96336418D01*
X62002691Y-96330643D01*
X62001201Y-96324693D01*
X62000301Y-96318626D01*
X62000000Y-96312500D01*
X62000000Y-96187500D01*
X62000301Y-96181374D01*
X62001201Y-96175307D01*
X62002691Y-96169357D01*
X62004758Y-96163582D01*
X62007380Y-96158038D01*
X62010533Y-96152777D01*
X62014187Y-96147850D01*
X62018306Y-96143306D01*
X62022850Y-96139187D01*
X62027777Y-96135533D01*
X62033038Y-96132380D01*
X62038582Y-96129758D01*
X62044357Y-96127691D01*
X62050307Y-96126201D01*
X62056374Y-96125301D01*
X62062500Y-96125000D01*
X62812500Y-96125000D01*
X62818626Y-96125301D01*
X62818626Y-96125301D01*
G37*
D13*
X62437500Y-96250000D03*
D10*
G36*
X62818626Y-96625301D02*
G01*
X62824693Y-96626201D01*
X62830643Y-96627691D01*
X62836418Y-96629758D01*
X62841962Y-96632380D01*
X62847223Y-96635533D01*
X62852150Y-96639187D01*
X62856694Y-96643306D01*
X62860813Y-96647850D01*
X62864467Y-96652777D01*
X62867620Y-96658038D01*
X62870242Y-96663582D01*
X62872309Y-96669357D01*
X62873799Y-96675307D01*
X62874699Y-96681374D01*
X62875000Y-96687500D01*
X62875000Y-96812500D01*
X62874699Y-96818626D01*
X62873799Y-96824693D01*
X62872309Y-96830643D01*
X62870242Y-96836418D01*
X62867620Y-96841962D01*
X62864467Y-96847223D01*
X62860813Y-96852150D01*
X62856694Y-96856694D01*
X62852150Y-96860813D01*
X62847223Y-96864467D01*
X62841962Y-96867620D01*
X62836418Y-96870242D01*
X62830643Y-96872309D01*
X62824693Y-96873799D01*
X62818626Y-96874699D01*
X62812500Y-96875000D01*
X62062500Y-96875000D01*
X62056374Y-96874699D01*
X62050307Y-96873799D01*
X62044357Y-96872309D01*
X62038582Y-96870242D01*
X62033038Y-96867620D01*
X62027777Y-96864467D01*
X62022850Y-96860813D01*
X62018306Y-96856694D01*
X62014187Y-96852150D01*
X62010533Y-96847223D01*
X62007380Y-96841962D01*
X62004758Y-96836418D01*
X62002691Y-96830643D01*
X62001201Y-96824693D01*
X62000301Y-96818626D01*
X62000000Y-96812500D01*
X62000000Y-96687500D01*
X62000301Y-96681374D01*
X62001201Y-96675307D01*
X62002691Y-96669357D01*
X62004758Y-96663582D01*
X62007380Y-96658038D01*
X62010533Y-96652777D01*
X62014187Y-96647850D01*
X62018306Y-96643306D01*
X62022850Y-96639187D01*
X62027777Y-96635533D01*
X62033038Y-96632380D01*
X62038582Y-96629758D01*
X62044357Y-96627691D01*
X62050307Y-96626201D01*
X62056374Y-96625301D01*
X62062500Y-96625000D01*
X62812500Y-96625000D01*
X62818626Y-96625301D01*
X62818626Y-96625301D01*
G37*
D13*
X62437500Y-96750000D03*
D10*
G36*
X62818626Y-97125301D02*
G01*
X62824693Y-97126201D01*
X62830643Y-97127691D01*
X62836418Y-97129758D01*
X62841962Y-97132380D01*
X62847223Y-97135533D01*
X62852150Y-97139187D01*
X62856694Y-97143306D01*
X62860813Y-97147850D01*
X62864467Y-97152777D01*
X62867620Y-97158038D01*
X62870242Y-97163582D01*
X62872309Y-97169357D01*
X62873799Y-97175307D01*
X62874699Y-97181374D01*
X62875000Y-97187500D01*
X62875000Y-97312500D01*
X62874699Y-97318626D01*
X62873799Y-97324693D01*
X62872309Y-97330643D01*
X62870242Y-97336418D01*
X62867620Y-97341962D01*
X62864467Y-97347223D01*
X62860813Y-97352150D01*
X62856694Y-97356694D01*
X62852150Y-97360813D01*
X62847223Y-97364467D01*
X62841962Y-97367620D01*
X62836418Y-97370242D01*
X62830643Y-97372309D01*
X62824693Y-97373799D01*
X62818626Y-97374699D01*
X62812500Y-97375000D01*
X62062500Y-97375000D01*
X62056374Y-97374699D01*
X62050307Y-97373799D01*
X62044357Y-97372309D01*
X62038582Y-97370242D01*
X62033038Y-97367620D01*
X62027777Y-97364467D01*
X62022850Y-97360813D01*
X62018306Y-97356694D01*
X62014187Y-97352150D01*
X62010533Y-97347223D01*
X62007380Y-97341962D01*
X62004758Y-97336418D01*
X62002691Y-97330643D01*
X62001201Y-97324693D01*
X62000301Y-97318626D01*
X62000000Y-97312500D01*
X62000000Y-97187500D01*
X62000301Y-97181374D01*
X62001201Y-97175307D01*
X62002691Y-97169357D01*
X62004758Y-97163582D01*
X62007380Y-97158038D01*
X62010533Y-97152777D01*
X62014187Y-97147850D01*
X62018306Y-97143306D01*
X62022850Y-97139187D01*
X62027777Y-97135533D01*
X62033038Y-97132380D01*
X62038582Y-97129758D01*
X62044357Y-97127691D01*
X62050307Y-97126201D01*
X62056374Y-97125301D01*
X62062500Y-97125000D01*
X62812500Y-97125000D01*
X62818626Y-97125301D01*
X62818626Y-97125301D01*
G37*
D13*
X62437500Y-97250000D03*
D10*
G36*
X62818626Y-97625301D02*
G01*
X62824693Y-97626201D01*
X62830643Y-97627691D01*
X62836418Y-97629758D01*
X62841962Y-97632380D01*
X62847223Y-97635533D01*
X62852150Y-97639187D01*
X62856694Y-97643306D01*
X62860813Y-97647850D01*
X62864467Y-97652777D01*
X62867620Y-97658038D01*
X62870242Y-97663582D01*
X62872309Y-97669357D01*
X62873799Y-97675307D01*
X62874699Y-97681374D01*
X62875000Y-97687500D01*
X62875000Y-97812500D01*
X62874699Y-97818626D01*
X62873799Y-97824693D01*
X62872309Y-97830643D01*
X62870242Y-97836418D01*
X62867620Y-97841962D01*
X62864467Y-97847223D01*
X62860813Y-97852150D01*
X62856694Y-97856694D01*
X62852150Y-97860813D01*
X62847223Y-97864467D01*
X62841962Y-97867620D01*
X62836418Y-97870242D01*
X62830643Y-97872309D01*
X62824693Y-97873799D01*
X62818626Y-97874699D01*
X62812500Y-97875000D01*
X62062500Y-97875000D01*
X62056374Y-97874699D01*
X62050307Y-97873799D01*
X62044357Y-97872309D01*
X62038582Y-97870242D01*
X62033038Y-97867620D01*
X62027777Y-97864467D01*
X62022850Y-97860813D01*
X62018306Y-97856694D01*
X62014187Y-97852150D01*
X62010533Y-97847223D01*
X62007380Y-97841962D01*
X62004758Y-97836418D01*
X62002691Y-97830643D01*
X62001201Y-97824693D01*
X62000301Y-97818626D01*
X62000000Y-97812500D01*
X62000000Y-97687500D01*
X62000301Y-97681374D01*
X62001201Y-97675307D01*
X62002691Y-97669357D01*
X62004758Y-97663582D01*
X62007380Y-97658038D01*
X62010533Y-97652777D01*
X62014187Y-97647850D01*
X62018306Y-97643306D01*
X62022850Y-97639187D01*
X62027777Y-97635533D01*
X62033038Y-97632380D01*
X62038582Y-97629758D01*
X62044357Y-97627691D01*
X62050307Y-97626201D01*
X62056374Y-97625301D01*
X62062500Y-97625000D01*
X62812500Y-97625000D01*
X62818626Y-97625301D01*
X62818626Y-97625301D01*
G37*
D13*
X62437500Y-97750000D03*
D10*
G36*
X62818626Y-98125301D02*
G01*
X62824693Y-98126201D01*
X62830643Y-98127691D01*
X62836418Y-98129758D01*
X62841962Y-98132380D01*
X62847223Y-98135533D01*
X62852150Y-98139187D01*
X62856694Y-98143306D01*
X62860813Y-98147850D01*
X62864467Y-98152777D01*
X62867620Y-98158038D01*
X62870242Y-98163582D01*
X62872309Y-98169357D01*
X62873799Y-98175307D01*
X62874699Y-98181374D01*
X62875000Y-98187500D01*
X62875000Y-98312500D01*
X62874699Y-98318626D01*
X62873799Y-98324693D01*
X62872309Y-98330643D01*
X62870242Y-98336418D01*
X62867620Y-98341962D01*
X62864467Y-98347223D01*
X62860813Y-98352150D01*
X62856694Y-98356694D01*
X62852150Y-98360813D01*
X62847223Y-98364467D01*
X62841962Y-98367620D01*
X62836418Y-98370242D01*
X62830643Y-98372309D01*
X62824693Y-98373799D01*
X62818626Y-98374699D01*
X62812500Y-98375000D01*
X62062500Y-98375000D01*
X62056374Y-98374699D01*
X62050307Y-98373799D01*
X62044357Y-98372309D01*
X62038582Y-98370242D01*
X62033038Y-98367620D01*
X62027777Y-98364467D01*
X62022850Y-98360813D01*
X62018306Y-98356694D01*
X62014187Y-98352150D01*
X62010533Y-98347223D01*
X62007380Y-98341962D01*
X62004758Y-98336418D01*
X62002691Y-98330643D01*
X62001201Y-98324693D01*
X62000301Y-98318626D01*
X62000000Y-98312500D01*
X62000000Y-98187500D01*
X62000301Y-98181374D01*
X62001201Y-98175307D01*
X62002691Y-98169357D01*
X62004758Y-98163582D01*
X62007380Y-98158038D01*
X62010533Y-98152777D01*
X62014187Y-98147850D01*
X62018306Y-98143306D01*
X62022850Y-98139187D01*
X62027777Y-98135533D01*
X62033038Y-98132380D01*
X62038582Y-98129758D01*
X62044357Y-98127691D01*
X62050307Y-98126201D01*
X62056374Y-98125301D01*
X62062500Y-98125000D01*
X62812500Y-98125000D01*
X62818626Y-98125301D01*
X62818626Y-98125301D01*
G37*
D13*
X62437500Y-98250000D03*
D10*
G36*
X62818626Y-98625301D02*
G01*
X62824693Y-98626201D01*
X62830643Y-98627691D01*
X62836418Y-98629758D01*
X62841962Y-98632380D01*
X62847223Y-98635533D01*
X62852150Y-98639187D01*
X62856694Y-98643306D01*
X62860813Y-98647850D01*
X62864467Y-98652777D01*
X62867620Y-98658038D01*
X62870242Y-98663582D01*
X62872309Y-98669357D01*
X62873799Y-98675307D01*
X62874699Y-98681374D01*
X62875000Y-98687500D01*
X62875000Y-98812500D01*
X62874699Y-98818626D01*
X62873799Y-98824693D01*
X62872309Y-98830643D01*
X62870242Y-98836418D01*
X62867620Y-98841962D01*
X62864467Y-98847223D01*
X62860813Y-98852150D01*
X62856694Y-98856694D01*
X62852150Y-98860813D01*
X62847223Y-98864467D01*
X62841962Y-98867620D01*
X62836418Y-98870242D01*
X62830643Y-98872309D01*
X62824693Y-98873799D01*
X62818626Y-98874699D01*
X62812500Y-98875000D01*
X62062500Y-98875000D01*
X62056374Y-98874699D01*
X62050307Y-98873799D01*
X62044357Y-98872309D01*
X62038582Y-98870242D01*
X62033038Y-98867620D01*
X62027777Y-98864467D01*
X62022850Y-98860813D01*
X62018306Y-98856694D01*
X62014187Y-98852150D01*
X62010533Y-98847223D01*
X62007380Y-98841962D01*
X62004758Y-98836418D01*
X62002691Y-98830643D01*
X62001201Y-98824693D01*
X62000301Y-98818626D01*
X62000000Y-98812500D01*
X62000000Y-98687500D01*
X62000301Y-98681374D01*
X62001201Y-98675307D01*
X62002691Y-98669357D01*
X62004758Y-98663582D01*
X62007380Y-98658038D01*
X62010533Y-98652777D01*
X62014187Y-98647850D01*
X62018306Y-98643306D01*
X62022850Y-98639187D01*
X62027777Y-98635533D01*
X62033038Y-98632380D01*
X62038582Y-98629758D01*
X62044357Y-98627691D01*
X62050307Y-98626201D01*
X62056374Y-98625301D01*
X62062500Y-98625000D01*
X62812500Y-98625000D01*
X62818626Y-98625301D01*
X62818626Y-98625301D01*
G37*
D13*
X62437500Y-98750000D03*
D10*
G36*
X62818626Y-99125301D02*
G01*
X62824693Y-99126201D01*
X62830643Y-99127691D01*
X62836418Y-99129758D01*
X62841962Y-99132380D01*
X62847223Y-99135533D01*
X62852150Y-99139187D01*
X62856694Y-99143306D01*
X62860813Y-99147850D01*
X62864467Y-99152777D01*
X62867620Y-99158038D01*
X62870242Y-99163582D01*
X62872309Y-99169357D01*
X62873799Y-99175307D01*
X62874699Y-99181374D01*
X62875000Y-99187500D01*
X62875000Y-99312500D01*
X62874699Y-99318626D01*
X62873799Y-99324693D01*
X62872309Y-99330643D01*
X62870242Y-99336418D01*
X62867620Y-99341962D01*
X62864467Y-99347223D01*
X62860813Y-99352150D01*
X62856694Y-99356694D01*
X62852150Y-99360813D01*
X62847223Y-99364467D01*
X62841962Y-99367620D01*
X62836418Y-99370242D01*
X62830643Y-99372309D01*
X62824693Y-99373799D01*
X62818626Y-99374699D01*
X62812500Y-99375000D01*
X62062500Y-99375000D01*
X62056374Y-99374699D01*
X62050307Y-99373799D01*
X62044357Y-99372309D01*
X62038582Y-99370242D01*
X62033038Y-99367620D01*
X62027777Y-99364467D01*
X62022850Y-99360813D01*
X62018306Y-99356694D01*
X62014187Y-99352150D01*
X62010533Y-99347223D01*
X62007380Y-99341962D01*
X62004758Y-99336418D01*
X62002691Y-99330643D01*
X62001201Y-99324693D01*
X62000301Y-99318626D01*
X62000000Y-99312500D01*
X62000000Y-99187500D01*
X62000301Y-99181374D01*
X62001201Y-99175307D01*
X62002691Y-99169357D01*
X62004758Y-99163582D01*
X62007380Y-99158038D01*
X62010533Y-99152777D01*
X62014187Y-99147850D01*
X62018306Y-99143306D01*
X62022850Y-99139187D01*
X62027777Y-99135533D01*
X62033038Y-99132380D01*
X62038582Y-99129758D01*
X62044357Y-99127691D01*
X62050307Y-99126201D01*
X62056374Y-99125301D01*
X62062500Y-99125000D01*
X62812500Y-99125000D01*
X62818626Y-99125301D01*
X62818626Y-99125301D01*
G37*
D13*
X62437500Y-99250000D03*
D10*
G36*
X62818626Y-99625301D02*
G01*
X62824693Y-99626201D01*
X62830643Y-99627691D01*
X62836418Y-99629758D01*
X62841962Y-99632380D01*
X62847223Y-99635533D01*
X62852150Y-99639187D01*
X62856694Y-99643306D01*
X62860813Y-99647850D01*
X62864467Y-99652777D01*
X62867620Y-99658038D01*
X62870242Y-99663582D01*
X62872309Y-99669357D01*
X62873799Y-99675307D01*
X62874699Y-99681374D01*
X62875000Y-99687500D01*
X62875000Y-99812500D01*
X62874699Y-99818626D01*
X62873799Y-99824693D01*
X62872309Y-99830643D01*
X62870242Y-99836418D01*
X62867620Y-99841962D01*
X62864467Y-99847223D01*
X62860813Y-99852150D01*
X62856694Y-99856694D01*
X62852150Y-99860813D01*
X62847223Y-99864467D01*
X62841962Y-99867620D01*
X62836418Y-99870242D01*
X62830643Y-99872309D01*
X62824693Y-99873799D01*
X62818626Y-99874699D01*
X62812500Y-99875000D01*
X62062500Y-99875000D01*
X62056374Y-99874699D01*
X62050307Y-99873799D01*
X62044357Y-99872309D01*
X62038582Y-99870242D01*
X62033038Y-99867620D01*
X62027777Y-99864467D01*
X62022850Y-99860813D01*
X62018306Y-99856694D01*
X62014187Y-99852150D01*
X62010533Y-99847223D01*
X62007380Y-99841962D01*
X62004758Y-99836418D01*
X62002691Y-99830643D01*
X62001201Y-99824693D01*
X62000301Y-99818626D01*
X62000000Y-99812500D01*
X62000000Y-99687500D01*
X62000301Y-99681374D01*
X62001201Y-99675307D01*
X62002691Y-99669357D01*
X62004758Y-99663582D01*
X62007380Y-99658038D01*
X62010533Y-99652777D01*
X62014187Y-99647850D01*
X62018306Y-99643306D01*
X62022850Y-99639187D01*
X62027777Y-99635533D01*
X62033038Y-99632380D01*
X62038582Y-99629758D01*
X62044357Y-99627691D01*
X62050307Y-99626201D01*
X62056374Y-99625301D01*
X62062500Y-99625000D01*
X62812500Y-99625000D01*
X62818626Y-99625301D01*
X62818626Y-99625301D01*
G37*
D13*
X62437500Y-99750000D03*
D10*
G36*
X62818626Y-100125301D02*
G01*
X62824693Y-100126201D01*
X62830643Y-100127691D01*
X62836418Y-100129758D01*
X62841962Y-100132380D01*
X62847223Y-100135533D01*
X62852150Y-100139187D01*
X62856694Y-100143306D01*
X62860813Y-100147850D01*
X62864467Y-100152777D01*
X62867620Y-100158038D01*
X62870242Y-100163582D01*
X62872309Y-100169357D01*
X62873799Y-100175307D01*
X62874699Y-100181374D01*
X62875000Y-100187500D01*
X62875000Y-100312500D01*
X62874699Y-100318626D01*
X62873799Y-100324693D01*
X62872309Y-100330643D01*
X62870242Y-100336418D01*
X62867620Y-100341962D01*
X62864467Y-100347223D01*
X62860813Y-100352150D01*
X62856694Y-100356694D01*
X62852150Y-100360813D01*
X62847223Y-100364467D01*
X62841962Y-100367620D01*
X62836418Y-100370242D01*
X62830643Y-100372309D01*
X62824693Y-100373799D01*
X62818626Y-100374699D01*
X62812500Y-100375000D01*
X62062500Y-100375000D01*
X62056374Y-100374699D01*
X62050307Y-100373799D01*
X62044357Y-100372309D01*
X62038582Y-100370242D01*
X62033038Y-100367620D01*
X62027777Y-100364467D01*
X62022850Y-100360813D01*
X62018306Y-100356694D01*
X62014187Y-100352150D01*
X62010533Y-100347223D01*
X62007380Y-100341962D01*
X62004758Y-100336418D01*
X62002691Y-100330643D01*
X62001201Y-100324693D01*
X62000301Y-100318626D01*
X62000000Y-100312500D01*
X62000000Y-100187500D01*
X62000301Y-100181374D01*
X62001201Y-100175307D01*
X62002691Y-100169357D01*
X62004758Y-100163582D01*
X62007380Y-100158038D01*
X62010533Y-100152777D01*
X62014187Y-100147850D01*
X62018306Y-100143306D01*
X62022850Y-100139187D01*
X62027777Y-100135533D01*
X62033038Y-100132380D01*
X62038582Y-100129758D01*
X62044357Y-100127691D01*
X62050307Y-100126201D01*
X62056374Y-100125301D01*
X62062500Y-100125000D01*
X62812500Y-100125000D01*
X62818626Y-100125301D01*
X62818626Y-100125301D01*
G37*
D13*
X62437500Y-100250000D03*
D10*
G36*
X62818626Y-100625301D02*
G01*
X62824693Y-100626201D01*
X62830643Y-100627691D01*
X62836418Y-100629758D01*
X62841962Y-100632380D01*
X62847223Y-100635533D01*
X62852150Y-100639187D01*
X62856694Y-100643306D01*
X62860813Y-100647850D01*
X62864467Y-100652777D01*
X62867620Y-100658038D01*
X62870242Y-100663582D01*
X62872309Y-100669357D01*
X62873799Y-100675307D01*
X62874699Y-100681374D01*
X62875000Y-100687500D01*
X62875000Y-100812500D01*
X62874699Y-100818626D01*
X62873799Y-100824693D01*
X62872309Y-100830643D01*
X62870242Y-100836418D01*
X62867620Y-100841962D01*
X62864467Y-100847223D01*
X62860813Y-100852150D01*
X62856694Y-100856694D01*
X62852150Y-100860813D01*
X62847223Y-100864467D01*
X62841962Y-100867620D01*
X62836418Y-100870242D01*
X62830643Y-100872309D01*
X62824693Y-100873799D01*
X62818626Y-100874699D01*
X62812500Y-100875000D01*
X62062500Y-100875000D01*
X62056374Y-100874699D01*
X62050307Y-100873799D01*
X62044357Y-100872309D01*
X62038582Y-100870242D01*
X62033038Y-100867620D01*
X62027777Y-100864467D01*
X62022850Y-100860813D01*
X62018306Y-100856694D01*
X62014187Y-100852150D01*
X62010533Y-100847223D01*
X62007380Y-100841962D01*
X62004758Y-100836418D01*
X62002691Y-100830643D01*
X62001201Y-100824693D01*
X62000301Y-100818626D01*
X62000000Y-100812500D01*
X62000000Y-100687500D01*
X62000301Y-100681374D01*
X62001201Y-100675307D01*
X62002691Y-100669357D01*
X62004758Y-100663582D01*
X62007380Y-100658038D01*
X62010533Y-100652777D01*
X62014187Y-100647850D01*
X62018306Y-100643306D01*
X62022850Y-100639187D01*
X62027777Y-100635533D01*
X62033038Y-100632380D01*
X62038582Y-100629758D01*
X62044357Y-100627691D01*
X62050307Y-100626201D01*
X62056374Y-100625301D01*
X62062500Y-100625000D01*
X62812500Y-100625000D01*
X62818626Y-100625301D01*
X62818626Y-100625301D01*
G37*
D13*
X62437500Y-100750000D03*
D10*
G36*
X62818626Y-101125301D02*
G01*
X62824693Y-101126201D01*
X62830643Y-101127691D01*
X62836418Y-101129758D01*
X62841962Y-101132380D01*
X62847223Y-101135533D01*
X62852150Y-101139187D01*
X62856694Y-101143306D01*
X62860813Y-101147850D01*
X62864467Y-101152777D01*
X62867620Y-101158038D01*
X62870242Y-101163582D01*
X62872309Y-101169357D01*
X62873799Y-101175307D01*
X62874699Y-101181374D01*
X62875000Y-101187500D01*
X62875000Y-101312500D01*
X62874699Y-101318626D01*
X62873799Y-101324693D01*
X62872309Y-101330643D01*
X62870242Y-101336418D01*
X62867620Y-101341962D01*
X62864467Y-101347223D01*
X62860813Y-101352150D01*
X62856694Y-101356694D01*
X62852150Y-101360813D01*
X62847223Y-101364467D01*
X62841962Y-101367620D01*
X62836418Y-101370242D01*
X62830643Y-101372309D01*
X62824693Y-101373799D01*
X62818626Y-101374699D01*
X62812500Y-101375000D01*
X62062500Y-101375000D01*
X62056374Y-101374699D01*
X62050307Y-101373799D01*
X62044357Y-101372309D01*
X62038582Y-101370242D01*
X62033038Y-101367620D01*
X62027777Y-101364467D01*
X62022850Y-101360813D01*
X62018306Y-101356694D01*
X62014187Y-101352150D01*
X62010533Y-101347223D01*
X62007380Y-101341962D01*
X62004758Y-101336418D01*
X62002691Y-101330643D01*
X62001201Y-101324693D01*
X62000301Y-101318626D01*
X62000000Y-101312500D01*
X62000000Y-101187500D01*
X62000301Y-101181374D01*
X62001201Y-101175307D01*
X62002691Y-101169357D01*
X62004758Y-101163582D01*
X62007380Y-101158038D01*
X62010533Y-101152777D01*
X62014187Y-101147850D01*
X62018306Y-101143306D01*
X62022850Y-101139187D01*
X62027777Y-101135533D01*
X62033038Y-101132380D01*
X62038582Y-101129758D01*
X62044357Y-101127691D01*
X62050307Y-101126201D01*
X62056374Y-101125301D01*
X62062500Y-101125000D01*
X62812500Y-101125000D01*
X62818626Y-101125301D01*
X62818626Y-101125301D01*
G37*
D13*
X62437500Y-101250000D03*
D10*
G36*
X62818626Y-101625301D02*
G01*
X62824693Y-101626201D01*
X62830643Y-101627691D01*
X62836418Y-101629758D01*
X62841962Y-101632380D01*
X62847223Y-101635533D01*
X62852150Y-101639187D01*
X62856694Y-101643306D01*
X62860813Y-101647850D01*
X62864467Y-101652777D01*
X62867620Y-101658038D01*
X62870242Y-101663582D01*
X62872309Y-101669357D01*
X62873799Y-101675307D01*
X62874699Y-101681374D01*
X62875000Y-101687500D01*
X62875000Y-101812500D01*
X62874699Y-101818626D01*
X62873799Y-101824693D01*
X62872309Y-101830643D01*
X62870242Y-101836418D01*
X62867620Y-101841962D01*
X62864467Y-101847223D01*
X62860813Y-101852150D01*
X62856694Y-101856694D01*
X62852150Y-101860813D01*
X62847223Y-101864467D01*
X62841962Y-101867620D01*
X62836418Y-101870242D01*
X62830643Y-101872309D01*
X62824693Y-101873799D01*
X62818626Y-101874699D01*
X62812500Y-101875000D01*
X62062500Y-101875000D01*
X62056374Y-101874699D01*
X62050307Y-101873799D01*
X62044357Y-101872309D01*
X62038582Y-101870242D01*
X62033038Y-101867620D01*
X62027777Y-101864467D01*
X62022850Y-101860813D01*
X62018306Y-101856694D01*
X62014187Y-101852150D01*
X62010533Y-101847223D01*
X62007380Y-101841962D01*
X62004758Y-101836418D01*
X62002691Y-101830643D01*
X62001201Y-101824693D01*
X62000301Y-101818626D01*
X62000000Y-101812500D01*
X62000000Y-101687500D01*
X62000301Y-101681374D01*
X62001201Y-101675307D01*
X62002691Y-101669357D01*
X62004758Y-101663582D01*
X62007380Y-101658038D01*
X62010533Y-101652777D01*
X62014187Y-101647850D01*
X62018306Y-101643306D01*
X62022850Y-101639187D01*
X62027777Y-101635533D01*
X62033038Y-101632380D01*
X62038582Y-101629758D01*
X62044357Y-101627691D01*
X62050307Y-101626201D01*
X62056374Y-101625301D01*
X62062500Y-101625000D01*
X62812500Y-101625000D01*
X62818626Y-101625301D01*
X62818626Y-101625301D01*
G37*
D13*
X62437500Y-101750000D03*
D10*
G36*
X62818626Y-102125301D02*
G01*
X62824693Y-102126201D01*
X62830643Y-102127691D01*
X62836418Y-102129758D01*
X62841962Y-102132380D01*
X62847223Y-102135533D01*
X62852150Y-102139187D01*
X62856694Y-102143306D01*
X62860813Y-102147850D01*
X62864467Y-102152777D01*
X62867620Y-102158038D01*
X62870242Y-102163582D01*
X62872309Y-102169357D01*
X62873799Y-102175307D01*
X62874699Y-102181374D01*
X62875000Y-102187500D01*
X62875000Y-102312500D01*
X62874699Y-102318626D01*
X62873799Y-102324693D01*
X62872309Y-102330643D01*
X62870242Y-102336418D01*
X62867620Y-102341962D01*
X62864467Y-102347223D01*
X62860813Y-102352150D01*
X62856694Y-102356694D01*
X62852150Y-102360813D01*
X62847223Y-102364467D01*
X62841962Y-102367620D01*
X62836418Y-102370242D01*
X62830643Y-102372309D01*
X62824693Y-102373799D01*
X62818626Y-102374699D01*
X62812500Y-102375000D01*
X62062500Y-102375000D01*
X62056374Y-102374699D01*
X62050307Y-102373799D01*
X62044357Y-102372309D01*
X62038582Y-102370242D01*
X62033038Y-102367620D01*
X62027777Y-102364467D01*
X62022850Y-102360813D01*
X62018306Y-102356694D01*
X62014187Y-102352150D01*
X62010533Y-102347223D01*
X62007380Y-102341962D01*
X62004758Y-102336418D01*
X62002691Y-102330643D01*
X62001201Y-102324693D01*
X62000301Y-102318626D01*
X62000000Y-102312500D01*
X62000000Y-102187500D01*
X62000301Y-102181374D01*
X62001201Y-102175307D01*
X62002691Y-102169357D01*
X62004758Y-102163582D01*
X62007380Y-102158038D01*
X62010533Y-102152777D01*
X62014187Y-102147850D01*
X62018306Y-102143306D01*
X62022850Y-102139187D01*
X62027777Y-102135533D01*
X62033038Y-102132380D01*
X62038582Y-102129758D01*
X62044357Y-102127691D01*
X62050307Y-102126201D01*
X62056374Y-102125301D01*
X62062500Y-102125000D01*
X62812500Y-102125000D01*
X62818626Y-102125301D01*
X62818626Y-102125301D01*
G37*
D13*
X62437500Y-102250000D03*
D10*
G36*
X61818626Y-102500301D02*
G01*
X61824693Y-102501201D01*
X61830643Y-102502691D01*
X61836418Y-102504758D01*
X61841962Y-102507380D01*
X61847223Y-102510533D01*
X61852150Y-102514187D01*
X61856694Y-102518306D01*
X61860813Y-102522850D01*
X61864467Y-102527777D01*
X61867620Y-102533038D01*
X61870242Y-102538582D01*
X61872309Y-102544357D01*
X61873799Y-102550307D01*
X61874699Y-102556374D01*
X61875000Y-102562500D01*
X61875000Y-103312500D01*
X61874699Y-103318626D01*
X61873799Y-103324693D01*
X61872309Y-103330643D01*
X61870242Y-103336418D01*
X61867620Y-103341962D01*
X61864467Y-103347223D01*
X61860813Y-103352150D01*
X61856694Y-103356694D01*
X61852150Y-103360813D01*
X61847223Y-103364467D01*
X61841962Y-103367620D01*
X61836418Y-103370242D01*
X61830643Y-103372309D01*
X61824693Y-103373799D01*
X61818626Y-103374699D01*
X61812500Y-103375000D01*
X61687500Y-103375000D01*
X61681374Y-103374699D01*
X61675307Y-103373799D01*
X61669357Y-103372309D01*
X61663582Y-103370242D01*
X61658038Y-103367620D01*
X61652777Y-103364467D01*
X61647850Y-103360813D01*
X61643306Y-103356694D01*
X61639187Y-103352150D01*
X61635533Y-103347223D01*
X61632380Y-103341962D01*
X61629758Y-103336418D01*
X61627691Y-103330643D01*
X61626201Y-103324693D01*
X61625301Y-103318626D01*
X61625000Y-103312500D01*
X61625000Y-102562500D01*
X61625301Y-102556374D01*
X61626201Y-102550307D01*
X61627691Y-102544357D01*
X61629758Y-102538582D01*
X61632380Y-102533038D01*
X61635533Y-102527777D01*
X61639187Y-102522850D01*
X61643306Y-102518306D01*
X61647850Y-102514187D01*
X61652777Y-102510533D01*
X61658038Y-102507380D01*
X61663582Y-102504758D01*
X61669357Y-102502691D01*
X61675307Y-102501201D01*
X61681374Y-102500301D01*
X61687500Y-102500000D01*
X61812500Y-102500000D01*
X61818626Y-102500301D01*
X61818626Y-102500301D01*
G37*
D13*
X61750000Y-102937500D03*
D10*
G36*
X61318626Y-102500301D02*
G01*
X61324693Y-102501201D01*
X61330643Y-102502691D01*
X61336418Y-102504758D01*
X61341962Y-102507380D01*
X61347223Y-102510533D01*
X61352150Y-102514187D01*
X61356694Y-102518306D01*
X61360813Y-102522850D01*
X61364467Y-102527777D01*
X61367620Y-102533038D01*
X61370242Y-102538582D01*
X61372309Y-102544357D01*
X61373799Y-102550307D01*
X61374699Y-102556374D01*
X61375000Y-102562500D01*
X61375000Y-103312500D01*
X61374699Y-103318626D01*
X61373799Y-103324693D01*
X61372309Y-103330643D01*
X61370242Y-103336418D01*
X61367620Y-103341962D01*
X61364467Y-103347223D01*
X61360813Y-103352150D01*
X61356694Y-103356694D01*
X61352150Y-103360813D01*
X61347223Y-103364467D01*
X61341962Y-103367620D01*
X61336418Y-103370242D01*
X61330643Y-103372309D01*
X61324693Y-103373799D01*
X61318626Y-103374699D01*
X61312500Y-103375000D01*
X61187500Y-103375000D01*
X61181374Y-103374699D01*
X61175307Y-103373799D01*
X61169357Y-103372309D01*
X61163582Y-103370242D01*
X61158038Y-103367620D01*
X61152777Y-103364467D01*
X61147850Y-103360813D01*
X61143306Y-103356694D01*
X61139187Y-103352150D01*
X61135533Y-103347223D01*
X61132380Y-103341962D01*
X61129758Y-103336418D01*
X61127691Y-103330643D01*
X61126201Y-103324693D01*
X61125301Y-103318626D01*
X61125000Y-103312500D01*
X61125000Y-102562500D01*
X61125301Y-102556374D01*
X61126201Y-102550307D01*
X61127691Y-102544357D01*
X61129758Y-102538582D01*
X61132380Y-102533038D01*
X61135533Y-102527777D01*
X61139187Y-102522850D01*
X61143306Y-102518306D01*
X61147850Y-102514187D01*
X61152777Y-102510533D01*
X61158038Y-102507380D01*
X61163582Y-102504758D01*
X61169357Y-102502691D01*
X61175307Y-102501201D01*
X61181374Y-102500301D01*
X61187500Y-102500000D01*
X61312500Y-102500000D01*
X61318626Y-102500301D01*
X61318626Y-102500301D01*
G37*
D13*
X61250000Y-102937500D03*
D10*
G36*
X60818626Y-102500301D02*
G01*
X60824693Y-102501201D01*
X60830643Y-102502691D01*
X60836418Y-102504758D01*
X60841962Y-102507380D01*
X60847223Y-102510533D01*
X60852150Y-102514187D01*
X60856694Y-102518306D01*
X60860813Y-102522850D01*
X60864467Y-102527777D01*
X60867620Y-102533038D01*
X60870242Y-102538582D01*
X60872309Y-102544357D01*
X60873799Y-102550307D01*
X60874699Y-102556374D01*
X60875000Y-102562500D01*
X60875000Y-103312500D01*
X60874699Y-103318626D01*
X60873799Y-103324693D01*
X60872309Y-103330643D01*
X60870242Y-103336418D01*
X60867620Y-103341962D01*
X60864467Y-103347223D01*
X60860813Y-103352150D01*
X60856694Y-103356694D01*
X60852150Y-103360813D01*
X60847223Y-103364467D01*
X60841962Y-103367620D01*
X60836418Y-103370242D01*
X60830643Y-103372309D01*
X60824693Y-103373799D01*
X60818626Y-103374699D01*
X60812500Y-103375000D01*
X60687500Y-103375000D01*
X60681374Y-103374699D01*
X60675307Y-103373799D01*
X60669357Y-103372309D01*
X60663582Y-103370242D01*
X60658038Y-103367620D01*
X60652777Y-103364467D01*
X60647850Y-103360813D01*
X60643306Y-103356694D01*
X60639187Y-103352150D01*
X60635533Y-103347223D01*
X60632380Y-103341962D01*
X60629758Y-103336418D01*
X60627691Y-103330643D01*
X60626201Y-103324693D01*
X60625301Y-103318626D01*
X60625000Y-103312500D01*
X60625000Y-102562500D01*
X60625301Y-102556374D01*
X60626201Y-102550307D01*
X60627691Y-102544357D01*
X60629758Y-102538582D01*
X60632380Y-102533038D01*
X60635533Y-102527777D01*
X60639187Y-102522850D01*
X60643306Y-102518306D01*
X60647850Y-102514187D01*
X60652777Y-102510533D01*
X60658038Y-102507380D01*
X60663582Y-102504758D01*
X60669357Y-102502691D01*
X60675307Y-102501201D01*
X60681374Y-102500301D01*
X60687500Y-102500000D01*
X60812500Y-102500000D01*
X60818626Y-102500301D01*
X60818626Y-102500301D01*
G37*
D13*
X60750000Y-102937500D03*
D10*
G36*
X60318626Y-102500301D02*
G01*
X60324693Y-102501201D01*
X60330643Y-102502691D01*
X60336418Y-102504758D01*
X60341962Y-102507380D01*
X60347223Y-102510533D01*
X60352150Y-102514187D01*
X60356694Y-102518306D01*
X60360813Y-102522850D01*
X60364467Y-102527777D01*
X60367620Y-102533038D01*
X60370242Y-102538582D01*
X60372309Y-102544357D01*
X60373799Y-102550307D01*
X60374699Y-102556374D01*
X60375000Y-102562500D01*
X60375000Y-103312500D01*
X60374699Y-103318626D01*
X60373799Y-103324693D01*
X60372309Y-103330643D01*
X60370242Y-103336418D01*
X60367620Y-103341962D01*
X60364467Y-103347223D01*
X60360813Y-103352150D01*
X60356694Y-103356694D01*
X60352150Y-103360813D01*
X60347223Y-103364467D01*
X60341962Y-103367620D01*
X60336418Y-103370242D01*
X60330643Y-103372309D01*
X60324693Y-103373799D01*
X60318626Y-103374699D01*
X60312500Y-103375000D01*
X60187500Y-103375000D01*
X60181374Y-103374699D01*
X60175307Y-103373799D01*
X60169357Y-103372309D01*
X60163582Y-103370242D01*
X60158038Y-103367620D01*
X60152777Y-103364467D01*
X60147850Y-103360813D01*
X60143306Y-103356694D01*
X60139187Y-103352150D01*
X60135533Y-103347223D01*
X60132380Y-103341962D01*
X60129758Y-103336418D01*
X60127691Y-103330643D01*
X60126201Y-103324693D01*
X60125301Y-103318626D01*
X60125000Y-103312500D01*
X60125000Y-102562500D01*
X60125301Y-102556374D01*
X60126201Y-102550307D01*
X60127691Y-102544357D01*
X60129758Y-102538582D01*
X60132380Y-102533038D01*
X60135533Y-102527777D01*
X60139187Y-102522850D01*
X60143306Y-102518306D01*
X60147850Y-102514187D01*
X60152777Y-102510533D01*
X60158038Y-102507380D01*
X60163582Y-102504758D01*
X60169357Y-102502691D01*
X60175307Y-102501201D01*
X60181374Y-102500301D01*
X60187500Y-102500000D01*
X60312500Y-102500000D01*
X60318626Y-102500301D01*
X60318626Y-102500301D01*
G37*
D13*
X60250000Y-102937500D03*
D10*
G36*
X59818626Y-102500301D02*
G01*
X59824693Y-102501201D01*
X59830643Y-102502691D01*
X59836418Y-102504758D01*
X59841962Y-102507380D01*
X59847223Y-102510533D01*
X59852150Y-102514187D01*
X59856694Y-102518306D01*
X59860813Y-102522850D01*
X59864467Y-102527777D01*
X59867620Y-102533038D01*
X59870242Y-102538582D01*
X59872309Y-102544357D01*
X59873799Y-102550307D01*
X59874699Y-102556374D01*
X59875000Y-102562500D01*
X59875000Y-103312500D01*
X59874699Y-103318626D01*
X59873799Y-103324693D01*
X59872309Y-103330643D01*
X59870242Y-103336418D01*
X59867620Y-103341962D01*
X59864467Y-103347223D01*
X59860813Y-103352150D01*
X59856694Y-103356694D01*
X59852150Y-103360813D01*
X59847223Y-103364467D01*
X59841962Y-103367620D01*
X59836418Y-103370242D01*
X59830643Y-103372309D01*
X59824693Y-103373799D01*
X59818626Y-103374699D01*
X59812500Y-103375000D01*
X59687500Y-103375000D01*
X59681374Y-103374699D01*
X59675307Y-103373799D01*
X59669357Y-103372309D01*
X59663582Y-103370242D01*
X59658038Y-103367620D01*
X59652777Y-103364467D01*
X59647850Y-103360813D01*
X59643306Y-103356694D01*
X59639187Y-103352150D01*
X59635533Y-103347223D01*
X59632380Y-103341962D01*
X59629758Y-103336418D01*
X59627691Y-103330643D01*
X59626201Y-103324693D01*
X59625301Y-103318626D01*
X59625000Y-103312500D01*
X59625000Y-102562500D01*
X59625301Y-102556374D01*
X59626201Y-102550307D01*
X59627691Y-102544357D01*
X59629758Y-102538582D01*
X59632380Y-102533038D01*
X59635533Y-102527777D01*
X59639187Y-102522850D01*
X59643306Y-102518306D01*
X59647850Y-102514187D01*
X59652777Y-102510533D01*
X59658038Y-102507380D01*
X59663582Y-102504758D01*
X59669357Y-102502691D01*
X59675307Y-102501201D01*
X59681374Y-102500301D01*
X59687500Y-102500000D01*
X59812500Y-102500000D01*
X59818626Y-102500301D01*
X59818626Y-102500301D01*
G37*
D13*
X59750000Y-102937500D03*
D10*
G36*
X59318626Y-102500301D02*
G01*
X59324693Y-102501201D01*
X59330643Y-102502691D01*
X59336418Y-102504758D01*
X59341962Y-102507380D01*
X59347223Y-102510533D01*
X59352150Y-102514187D01*
X59356694Y-102518306D01*
X59360813Y-102522850D01*
X59364467Y-102527777D01*
X59367620Y-102533038D01*
X59370242Y-102538582D01*
X59372309Y-102544357D01*
X59373799Y-102550307D01*
X59374699Y-102556374D01*
X59375000Y-102562500D01*
X59375000Y-103312500D01*
X59374699Y-103318626D01*
X59373799Y-103324693D01*
X59372309Y-103330643D01*
X59370242Y-103336418D01*
X59367620Y-103341962D01*
X59364467Y-103347223D01*
X59360813Y-103352150D01*
X59356694Y-103356694D01*
X59352150Y-103360813D01*
X59347223Y-103364467D01*
X59341962Y-103367620D01*
X59336418Y-103370242D01*
X59330643Y-103372309D01*
X59324693Y-103373799D01*
X59318626Y-103374699D01*
X59312500Y-103375000D01*
X59187500Y-103375000D01*
X59181374Y-103374699D01*
X59175307Y-103373799D01*
X59169357Y-103372309D01*
X59163582Y-103370242D01*
X59158038Y-103367620D01*
X59152777Y-103364467D01*
X59147850Y-103360813D01*
X59143306Y-103356694D01*
X59139187Y-103352150D01*
X59135533Y-103347223D01*
X59132380Y-103341962D01*
X59129758Y-103336418D01*
X59127691Y-103330643D01*
X59126201Y-103324693D01*
X59125301Y-103318626D01*
X59125000Y-103312500D01*
X59125000Y-102562500D01*
X59125301Y-102556374D01*
X59126201Y-102550307D01*
X59127691Y-102544357D01*
X59129758Y-102538582D01*
X59132380Y-102533038D01*
X59135533Y-102527777D01*
X59139187Y-102522850D01*
X59143306Y-102518306D01*
X59147850Y-102514187D01*
X59152777Y-102510533D01*
X59158038Y-102507380D01*
X59163582Y-102504758D01*
X59169357Y-102502691D01*
X59175307Y-102501201D01*
X59181374Y-102500301D01*
X59187500Y-102500000D01*
X59312500Y-102500000D01*
X59318626Y-102500301D01*
X59318626Y-102500301D01*
G37*
D13*
X59250000Y-102937500D03*
D10*
G36*
X58818626Y-102500301D02*
G01*
X58824693Y-102501201D01*
X58830643Y-102502691D01*
X58836418Y-102504758D01*
X58841962Y-102507380D01*
X58847223Y-102510533D01*
X58852150Y-102514187D01*
X58856694Y-102518306D01*
X58860813Y-102522850D01*
X58864467Y-102527777D01*
X58867620Y-102533038D01*
X58870242Y-102538582D01*
X58872309Y-102544357D01*
X58873799Y-102550307D01*
X58874699Y-102556374D01*
X58875000Y-102562500D01*
X58875000Y-103312500D01*
X58874699Y-103318626D01*
X58873799Y-103324693D01*
X58872309Y-103330643D01*
X58870242Y-103336418D01*
X58867620Y-103341962D01*
X58864467Y-103347223D01*
X58860813Y-103352150D01*
X58856694Y-103356694D01*
X58852150Y-103360813D01*
X58847223Y-103364467D01*
X58841962Y-103367620D01*
X58836418Y-103370242D01*
X58830643Y-103372309D01*
X58824693Y-103373799D01*
X58818626Y-103374699D01*
X58812500Y-103375000D01*
X58687500Y-103375000D01*
X58681374Y-103374699D01*
X58675307Y-103373799D01*
X58669357Y-103372309D01*
X58663582Y-103370242D01*
X58658038Y-103367620D01*
X58652777Y-103364467D01*
X58647850Y-103360813D01*
X58643306Y-103356694D01*
X58639187Y-103352150D01*
X58635533Y-103347223D01*
X58632380Y-103341962D01*
X58629758Y-103336418D01*
X58627691Y-103330643D01*
X58626201Y-103324693D01*
X58625301Y-103318626D01*
X58625000Y-103312500D01*
X58625000Y-102562500D01*
X58625301Y-102556374D01*
X58626201Y-102550307D01*
X58627691Y-102544357D01*
X58629758Y-102538582D01*
X58632380Y-102533038D01*
X58635533Y-102527777D01*
X58639187Y-102522850D01*
X58643306Y-102518306D01*
X58647850Y-102514187D01*
X58652777Y-102510533D01*
X58658038Y-102507380D01*
X58663582Y-102504758D01*
X58669357Y-102502691D01*
X58675307Y-102501201D01*
X58681374Y-102500301D01*
X58687500Y-102500000D01*
X58812500Y-102500000D01*
X58818626Y-102500301D01*
X58818626Y-102500301D01*
G37*
D13*
X58750000Y-102937500D03*
D10*
G36*
X58318626Y-102500301D02*
G01*
X58324693Y-102501201D01*
X58330643Y-102502691D01*
X58336418Y-102504758D01*
X58341962Y-102507380D01*
X58347223Y-102510533D01*
X58352150Y-102514187D01*
X58356694Y-102518306D01*
X58360813Y-102522850D01*
X58364467Y-102527777D01*
X58367620Y-102533038D01*
X58370242Y-102538582D01*
X58372309Y-102544357D01*
X58373799Y-102550307D01*
X58374699Y-102556374D01*
X58375000Y-102562500D01*
X58375000Y-103312500D01*
X58374699Y-103318626D01*
X58373799Y-103324693D01*
X58372309Y-103330643D01*
X58370242Y-103336418D01*
X58367620Y-103341962D01*
X58364467Y-103347223D01*
X58360813Y-103352150D01*
X58356694Y-103356694D01*
X58352150Y-103360813D01*
X58347223Y-103364467D01*
X58341962Y-103367620D01*
X58336418Y-103370242D01*
X58330643Y-103372309D01*
X58324693Y-103373799D01*
X58318626Y-103374699D01*
X58312500Y-103375000D01*
X58187500Y-103375000D01*
X58181374Y-103374699D01*
X58175307Y-103373799D01*
X58169357Y-103372309D01*
X58163582Y-103370242D01*
X58158038Y-103367620D01*
X58152777Y-103364467D01*
X58147850Y-103360813D01*
X58143306Y-103356694D01*
X58139187Y-103352150D01*
X58135533Y-103347223D01*
X58132380Y-103341962D01*
X58129758Y-103336418D01*
X58127691Y-103330643D01*
X58126201Y-103324693D01*
X58125301Y-103318626D01*
X58125000Y-103312500D01*
X58125000Y-102562500D01*
X58125301Y-102556374D01*
X58126201Y-102550307D01*
X58127691Y-102544357D01*
X58129758Y-102538582D01*
X58132380Y-102533038D01*
X58135533Y-102527777D01*
X58139187Y-102522850D01*
X58143306Y-102518306D01*
X58147850Y-102514187D01*
X58152777Y-102510533D01*
X58158038Y-102507380D01*
X58163582Y-102504758D01*
X58169357Y-102502691D01*
X58175307Y-102501201D01*
X58181374Y-102500301D01*
X58187500Y-102500000D01*
X58312500Y-102500000D01*
X58318626Y-102500301D01*
X58318626Y-102500301D01*
G37*
D13*
X58250000Y-102937500D03*
D10*
G36*
X57818626Y-102500301D02*
G01*
X57824693Y-102501201D01*
X57830643Y-102502691D01*
X57836418Y-102504758D01*
X57841962Y-102507380D01*
X57847223Y-102510533D01*
X57852150Y-102514187D01*
X57856694Y-102518306D01*
X57860813Y-102522850D01*
X57864467Y-102527777D01*
X57867620Y-102533038D01*
X57870242Y-102538582D01*
X57872309Y-102544357D01*
X57873799Y-102550307D01*
X57874699Y-102556374D01*
X57875000Y-102562500D01*
X57875000Y-103312500D01*
X57874699Y-103318626D01*
X57873799Y-103324693D01*
X57872309Y-103330643D01*
X57870242Y-103336418D01*
X57867620Y-103341962D01*
X57864467Y-103347223D01*
X57860813Y-103352150D01*
X57856694Y-103356694D01*
X57852150Y-103360813D01*
X57847223Y-103364467D01*
X57841962Y-103367620D01*
X57836418Y-103370242D01*
X57830643Y-103372309D01*
X57824693Y-103373799D01*
X57818626Y-103374699D01*
X57812500Y-103375000D01*
X57687500Y-103375000D01*
X57681374Y-103374699D01*
X57675307Y-103373799D01*
X57669357Y-103372309D01*
X57663582Y-103370242D01*
X57658038Y-103367620D01*
X57652777Y-103364467D01*
X57647850Y-103360813D01*
X57643306Y-103356694D01*
X57639187Y-103352150D01*
X57635533Y-103347223D01*
X57632380Y-103341962D01*
X57629758Y-103336418D01*
X57627691Y-103330643D01*
X57626201Y-103324693D01*
X57625301Y-103318626D01*
X57625000Y-103312500D01*
X57625000Y-102562500D01*
X57625301Y-102556374D01*
X57626201Y-102550307D01*
X57627691Y-102544357D01*
X57629758Y-102538582D01*
X57632380Y-102533038D01*
X57635533Y-102527777D01*
X57639187Y-102522850D01*
X57643306Y-102518306D01*
X57647850Y-102514187D01*
X57652777Y-102510533D01*
X57658038Y-102507380D01*
X57663582Y-102504758D01*
X57669357Y-102502691D01*
X57675307Y-102501201D01*
X57681374Y-102500301D01*
X57687500Y-102500000D01*
X57812500Y-102500000D01*
X57818626Y-102500301D01*
X57818626Y-102500301D01*
G37*
D13*
X57750000Y-102937500D03*
D10*
G36*
X57318626Y-102500301D02*
G01*
X57324693Y-102501201D01*
X57330643Y-102502691D01*
X57336418Y-102504758D01*
X57341962Y-102507380D01*
X57347223Y-102510533D01*
X57352150Y-102514187D01*
X57356694Y-102518306D01*
X57360813Y-102522850D01*
X57364467Y-102527777D01*
X57367620Y-102533038D01*
X57370242Y-102538582D01*
X57372309Y-102544357D01*
X57373799Y-102550307D01*
X57374699Y-102556374D01*
X57375000Y-102562500D01*
X57375000Y-103312500D01*
X57374699Y-103318626D01*
X57373799Y-103324693D01*
X57372309Y-103330643D01*
X57370242Y-103336418D01*
X57367620Y-103341962D01*
X57364467Y-103347223D01*
X57360813Y-103352150D01*
X57356694Y-103356694D01*
X57352150Y-103360813D01*
X57347223Y-103364467D01*
X57341962Y-103367620D01*
X57336418Y-103370242D01*
X57330643Y-103372309D01*
X57324693Y-103373799D01*
X57318626Y-103374699D01*
X57312500Y-103375000D01*
X57187500Y-103375000D01*
X57181374Y-103374699D01*
X57175307Y-103373799D01*
X57169357Y-103372309D01*
X57163582Y-103370242D01*
X57158038Y-103367620D01*
X57152777Y-103364467D01*
X57147850Y-103360813D01*
X57143306Y-103356694D01*
X57139187Y-103352150D01*
X57135533Y-103347223D01*
X57132380Y-103341962D01*
X57129758Y-103336418D01*
X57127691Y-103330643D01*
X57126201Y-103324693D01*
X57125301Y-103318626D01*
X57125000Y-103312500D01*
X57125000Y-102562500D01*
X57125301Y-102556374D01*
X57126201Y-102550307D01*
X57127691Y-102544357D01*
X57129758Y-102538582D01*
X57132380Y-102533038D01*
X57135533Y-102527777D01*
X57139187Y-102522850D01*
X57143306Y-102518306D01*
X57147850Y-102514187D01*
X57152777Y-102510533D01*
X57158038Y-102507380D01*
X57163582Y-102504758D01*
X57169357Y-102502691D01*
X57175307Y-102501201D01*
X57181374Y-102500301D01*
X57187500Y-102500000D01*
X57312500Y-102500000D01*
X57318626Y-102500301D01*
X57318626Y-102500301D01*
G37*
D13*
X57250000Y-102937500D03*
D10*
G36*
X56818626Y-102500301D02*
G01*
X56824693Y-102501201D01*
X56830643Y-102502691D01*
X56836418Y-102504758D01*
X56841962Y-102507380D01*
X56847223Y-102510533D01*
X56852150Y-102514187D01*
X56856694Y-102518306D01*
X56860813Y-102522850D01*
X56864467Y-102527777D01*
X56867620Y-102533038D01*
X56870242Y-102538582D01*
X56872309Y-102544357D01*
X56873799Y-102550307D01*
X56874699Y-102556374D01*
X56875000Y-102562500D01*
X56875000Y-103312500D01*
X56874699Y-103318626D01*
X56873799Y-103324693D01*
X56872309Y-103330643D01*
X56870242Y-103336418D01*
X56867620Y-103341962D01*
X56864467Y-103347223D01*
X56860813Y-103352150D01*
X56856694Y-103356694D01*
X56852150Y-103360813D01*
X56847223Y-103364467D01*
X56841962Y-103367620D01*
X56836418Y-103370242D01*
X56830643Y-103372309D01*
X56824693Y-103373799D01*
X56818626Y-103374699D01*
X56812500Y-103375000D01*
X56687500Y-103375000D01*
X56681374Y-103374699D01*
X56675307Y-103373799D01*
X56669357Y-103372309D01*
X56663582Y-103370242D01*
X56658038Y-103367620D01*
X56652777Y-103364467D01*
X56647850Y-103360813D01*
X56643306Y-103356694D01*
X56639187Y-103352150D01*
X56635533Y-103347223D01*
X56632380Y-103341962D01*
X56629758Y-103336418D01*
X56627691Y-103330643D01*
X56626201Y-103324693D01*
X56625301Y-103318626D01*
X56625000Y-103312500D01*
X56625000Y-102562500D01*
X56625301Y-102556374D01*
X56626201Y-102550307D01*
X56627691Y-102544357D01*
X56629758Y-102538582D01*
X56632380Y-102533038D01*
X56635533Y-102527777D01*
X56639187Y-102522850D01*
X56643306Y-102518306D01*
X56647850Y-102514187D01*
X56652777Y-102510533D01*
X56658038Y-102507380D01*
X56663582Y-102504758D01*
X56669357Y-102502691D01*
X56675307Y-102501201D01*
X56681374Y-102500301D01*
X56687500Y-102500000D01*
X56812500Y-102500000D01*
X56818626Y-102500301D01*
X56818626Y-102500301D01*
G37*
D13*
X56750000Y-102937500D03*
D10*
G36*
X56318626Y-102500301D02*
G01*
X56324693Y-102501201D01*
X56330643Y-102502691D01*
X56336418Y-102504758D01*
X56341962Y-102507380D01*
X56347223Y-102510533D01*
X56352150Y-102514187D01*
X56356694Y-102518306D01*
X56360813Y-102522850D01*
X56364467Y-102527777D01*
X56367620Y-102533038D01*
X56370242Y-102538582D01*
X56372309Y-102544357D01*
X56373799Y-102550307D01*
X56374699Y-102556374D01*
X56375000Y-102562500D01*
X56375000Y-103312500D01*
X56374699Y-103318626D01*
X56373799Y-103324693D01*
X56372309Y-103330643D01*
X56370242Y-103336418D01*
X56367620Y-103341962D01*
X56364467Y-103347223D01*
X56360813Y-103352150D01*
X56356694Y-103356694D01*
X56352150Y-103360813D01*
X56347223Y-103364467D01*
X56341962Y-103367620D01*
X56336418Y-103370242D01*
X56330643Y-103372309D01*
X56324693Y-103373799D01*
X56318626Y-103374699D01*
X56312500Y-103375000D01*
X56187500Y-103375000D01*
X56181374Y-103374699D01*
X56175307Y-103373799D01*
X56169357Y-103372309D01*
X56163582Y-103370242D01*
X56158038Y-103367620D01*
X56152777Y-103364467D01*
X56147850Y-103360813D01*
X56143306Y-103356694D01*
X56139187Y-103352150D01*
X56135533Y-103347223D01*
X56132380Y-103341962D01*
X56129758Y-103336418D01*
X56127691Y-103330643D01*
X56126201Y-103324693D01*
X56125301Y-103318626D01*
X56125000Y-103312500D01*
X56125000Y-102562500D01*
X56125301Y-102556374D01*
X56126201Y-102550307D01*
X56127691Y-102544357D01*
X56129758Y-102538582D01*
X56132380Y-102533038D01*
X56135533Y-102527777D01*
X56139187Y-102522850D01*
X56143306Y-102518306D01*
X56147850Y-102514187D01*
X56152777Y-102510533D01*
X56158038Y-102507380D01*
X56163582Y-102504758D01*
X56169357Y-102502691D01*
X56175307Y-102501201D01*
X56181374Y-102500301D01*
X56187500Y-102500000D01*
X56312500Y-102500000D01*
X56318626Y-102500301D01*
X56318626Y-102500301D01*
G37*
D13*
X56250000Y-102937500D03*
D10*
G36*
X55818626Y-102500301D02*
G01*
X55824693Y-102501201D01*
X55830643Y-102502691D01*
X55836418Y-102504758D01*
X55841962Y-102507380D01*
X55847223Y-102510533D01*
X55852150Y-102514187D01*
X55856694Y-102518306D01*
X55860813Y-102522850D01*
X55864467Y-102527777D01*
X55867620Y-102533038D01*
X55870242Y-102538582D01*
X55872309Y-102544357D01*
X55873799Y-102550307D01*
X55874699Y-102556374D01*
X55875000Y-102562500D01*
X55875000Y-103312500D01*
X55874699Y-103318626D01*
X55873799Y-103324693D01*
X55872309Y-103330643D01*
X55870242Y-103336418D01*
X55867620Y-103341962D01*
X55864467Y-103347223D01*
X55860813Y-103352150D01*
X55856694Y-103356694D01*
X55852150Y-103360813D01*
X55847223Y-103364467D01*
X55841962Y-103367620D01*
X55836418Y-103370242D01*
X55830643Y-103372309D01*
X55824693Y-103373799D01*
X55818626Y-103374699D01*
X55812500Y-103375000D01*
X55687500Y-103375000D01*
X55681374Y-103374699D01*
X55675307Y-103373799D01*
X55669357Y-103372309D01*
X55663582Y-103370242D01*
X55658038Y-103367620D01*
X55652777Y-103364467D01*
X55647850Y-103360813D01*
X55643306Y-103356694D01*
X55639187Y-103352150D01*
X55635533Y-103347223D01*
X55632380Y-103341962D01*
X55629758Y-103336418D01*
X55627691Y-103330643D01*
X55626201Y-103324693D01*
X55625301Y-103318626D01*
X55625000Y-103312500D01*
X55625000Y-102562500D01*
X55625301Y-102556374D01*
X55626201Y-102550307D01*
X55627691Y-102544357D01*
X55629758Y-102538582D01*
X55632380Y-102533038D01*
X55635533Y-102527777D01*
X55639187Y-102522850D01*
X55643306Y-102518306D01*
X55647850Y-102514187D01*
X55652777Y-102510533D01*
X55658038Y-102507380D01*
X55663582Y-102504758D01*
X55669357Y-102502691D01*
X55675307Y-102501201D01*
X55681374Y-102500301D01*
X55687500Y-102500000D01*
X55812500Y-102500000D01*
X55818626Y-102500301D01*
X55818626Y-102500301D01*
G37*
D13*
X55750000Y-102937500D03*
D10*
G36*
X55318626Y-102500301D02*
G01*
X55324693Y-102501201D01*
X55330643Y-102502691D01*
X55336418Y-102504758D01*
X55341962Y-102507380D01*
X55347223Y-102510533D01*
X55352150Y-102514187D01*
X55356694Y-102518306D01*
X55360813Y-102522850D01*
X55364467Y-102527777D01*
X55367620Y-102533038D01*
X55370242Y-102538582D01*
X55372309Y-102544357D01*
X55373799Y-102550307D01*
X55374699Y-102556374D01*
X55375000Y-102562500D01*
X55375000Y-103312500D01*
X55374699Y-103318626D01*
X55373799Y-103324693D01*
X55372309Y-103330643D01*
X55370242Y-103336418D01*
X55367620Y-103341962D01*
X55364467Y-103347223D01*
X55360813Y-103352150D01*
X55356694Y-103356694D01*
X55352150Y-103360813D01*
X55347223Y-103364467D01*
X55341962Y-103367620D01*
X55336418Y-103370242D01*
X55330643Y-103372309D01*
X55324693Y-103373799D01*
X55318626Y-103374699D01*
X55312500Y-103375000D01*
X55187500Y-103375000D01*
X55181374Y-103374699D01*
X55175307Y-103373799D01*
X55169357Y-103372309D01*
X55163582Y-103370242D01*
X55158038Y-103367620D01*
X55152777Y-103364467D01*
X55147850Y-103360813D01*
X55143306Y-103356694D01*
X55139187Y-103352150D01*
X55135533Y-103347223D01*
X55132380Y-103341962D01*
X55129758Y-103336418D01*
X55127691Y-103330643D01*
X55126201Y-103324693D01*
X55125301Y-103318626D01*
X55125000Y-103312500D01*
X55125000Y-102562500D01*
X55125301Y-102556374D01*
X55126201Y-102550307D01*
X55127691Y-102544357D01*
X55129758Y-102538582D01*
X55132380Y-102533038D01*
X55135533Y-102527777D01*
X55139187Y-102522850D01*
X55143306Y-102518306D01*
X55147850Y-102514187D01*
X55152777Y-102510533D01*
X55158038Y-102507380D01*
X55163582Y-102504758D01*
X55169357Y-102502691D01*
X55175307Y-102501201D01*
X55181374Y-102500301D01*
X55187500Y-102500000D01*
X55312500Y-102500000D01*
X55318626Y-102500301D01*
X55318626Y-102500301D01*
G37*
D13*
X55250000Y-102937500D03*
D10*
G36*
X54818626Y-102500301D02*
G01*
X54824693Y-102501201D01*
X54830643Y-102502691D01*
X54836418Y-102504758D01*
X54841962Y-102507380D01*
X54847223Y-102510533D01*
X54852150Y-102514187D01*
X54856694Y-102518306D01*
X54860813Y-102522850D01*
X54864467Y-102527777D01*
X54867620Y-102533038D01*
X54870242Y-102538582D01*
X54872309Y-102544357D01*
X54873799Y-102550307D01*
X54874699Y-102556374D01*
X54875000Y-102562500D01*
X54875000Y-103312500D01*
X54874699Y-103318626D01*
X54873799Y-103324693D01*
X54872309Y-103330643D01*
X54870242Y-103336418D01*
X54867620Y-103341962D01*
X54864467Y-103347223D01*
X54860813Y-103352150D01*
X54856694Y-103356694D01*
X54852150Y-103360813D01*
X54847223Y-103364467D01*
X54841962Y-103367620D01*
X54836418Y-103370242D01*
X54830643Y-103372309D01*
X54824693Y-103373799D01*
X54818626Y-103374699D01*
X54812500Y-103375000D01*
X54687500Y-103375000D01*
X54681374Y-103374699D01*
X54675307Y-103373799D01*
X54669357Y-103372309D01*
X54663582Y-103370242D01*
X54658038Y-103367620D01*
X54652777Y-103364467D01*
X54647850Y-103360813D01*
X54643306Y-103356694D01*
X54639187Y-103352150D01*
X54635533Y-103347223D01*
X54632380Y-103341962D01*
X54629758Y-103336418D01*
X54627691Y-103330643D01*
X54626201Y-103324693D01*
X54625301Y-103318626D01*
X54625000Y-103312500D01*
X54625000Y-102562500D01*
X54625301Y-102556374D01*
X54626201Y-102550307D01*
X54627691Y-102544357D01*
X54629758Y-102538582D01*
X54632380Y-102533038D01*
X54635533Y-102527777D01*
X54639187Y-102522850D01*
X54643306Y-102518306D01*
X54647850Y-102514187D01*
X54652777Y-102510533D01*
X54658038Y-102507380D01*
X54663582Y-102504758D01*
X54669357Y-102502691D01*
X54675307Y-102501201D01*
X54681374Y-102500301D01*
X54687500Y-102500000D01*
X54812500Y-102500000D01*
X54818626Y-102500301D01*
X54818626Y-102500301D01*
G37*
D13*
X54750000Y-102937500D03*
D10*
G36*
X54318626Y-102500301D02*
G01*
X54324693Y-102501201D01*
X54330643Y-102502691D01*
X54336418Y-102504758D01*
X54341962Y-102507380D01*
X54347223Y-102510533D01*
X54352150Y-102514187D01*
X54356694Y-102518306D01*
X54360813Y-102522850D01*
X54364467Y-102527777D01*
X54367620Y-102533038D01*
X54370242Y-102538582D01*
X54372309Y-102544357D01*
X54373799Y-102550307D01*
X54374699Y-102556374D01*
X54375000Y-102562500D01*
X54375000Y-103312500D01*
X54374699Y-103318626D01*
X54373799Y-103324693D01*
X54372309Y-103330643D01*
X54370242Y-103336418D01*
X54367620Y-103341962D01*
X54364467Y-103347223D01*
X54360813Y-103352150D01*
X54356694Y-103356694D01*
X54352150Y-103360813D01*
X54347223Y-103364467D01*
X54341962Y-103367620D01*
X54336418Y-103370242D01*
X54330643Y-103372309D01*
X54324693Y-103373799D01*
X54318626Y-103374699D01*
X54312500Y-103375000D01*
X54187500Y-103375000D01*
X54181374Y-103374699D01*
X54175307Y-103373799D01*
X54169357Y-103372309D01*
X54163582Y-103370242D01*
X54158038Y-103367620D01*
X54152777Y-103364467D01*
X54147850Y-103360813D01*
X54143306Y-103356694D01*
X54139187Y-103352150D01*
X54135533Y-103347223D01*
X54132380Y-103341962D01*
X54129758Y-103336418D01*
X54127691Y-103330643D01*
X54126201Y-103324693D01*
X54125301Y-103318626D01*
X54125000Y-103312500D01*
X54125000Y-102562500D01*
X54125301Y-102556374D01*
X54126201Y-102550307D01*
X54127691Y-102544357D01*
X54129758Y-102538582D01*
X54132380Y-102533038D01*
X54135533Y-102527777D01*
X54139187Y-102522850D01*
X54143306Y-102518306D01*
X54147850Y-102514187D01*
X54152777Y-102510533D01*
X54158038Y-102507380D01*
X54163582Y-102504758D01*
X54169357Y-102502691D01*
X54175307Y-102501201D01*
X54181374Y-102500301D01*
X54187500Y-102500000D01*
X54312500Y-102500000D01*
X54318626Y-102500301D01*
X54318626Y-102500301D01*
G37*
D13*
X54250000Y-102937500D03*
D10*
G36*
X53943626Y-102125301D02*
G01*
X53949693Y-102126201D01*
X53955643Y-102127691D01*
X53961418Y-102129758D01*
X53966962Y-102132380D01*
X53972223Y-102135533D01*
X53977150Y-102139187D01*
X53981694Y-102143306D01*
X53985813Y-102147850D01*
X53989467Y-102152777D01*
X53992620Y-102158038D01*
X53995242Y-102163582D01*
X53997309Y-102169357D01*
X53998799Y-102175307D01*
X53999699Y-102181374D01*
X54000000Y-102187500D01*
X54000000Y-102312500D01*
X53999699Y-102318626D01*
X53998799Y-102324693D01*
X53997309Y-102330643D01*
X53995242Y-102336418D01*
X53992620Y-102341962D01*
X53989467Y-102347223D01*
X53985813Y-102352150D01*
X53981694Y-102356694D01*
X53977150Y-102360813D01*
X53972223Y-102364467D01*
X53966962Y-102367620D01*
X53961418Y-102370242D01*
X53955643Y-102372309D01*
X53949693Y-102373799D01*
X53943626Y-102374699D01*
X53937500Y-102375000D01*
X53187500Y-102375000D01*
X53181374Y-102374699D01*
X53175307Y-102373799D01*
X53169357Y-102372309D01*
X53163582Y-102370242D01*
X53158038Y-102367620D01*
X53152777Y-102364467D01*
X53147850Y-102360813D01*
X53143306Y-102356694D01*
X53139187Y-102352150D01*
X53135533Y-102347223D01*
X53132380Y-102341962D01*
X53129758Y-102336418D01*
X53127691Y-102330643D01*
X53126201Y-102324693D01*
X53125301Y-102318626D01*
X53125000Y-102312500D01*
X53125000Y-102187500D01*
X53125301Y-102181374D01*
X53126201Y-102175307D01*
X53127691Y-102169357D01*
X53129758Y-102163582D01*
X53132380Y-102158038D01*
X53135533Y-102152777D01*
X53139187Y-102147850D01*
X53143306Y-102143306D01*
X53147850Y-102139187D01*
X53152777Y-102135533D01*
X53158038Y-102132380D01*
X53163582Y-102129758D01*
X53169357Y-102127691D01*
X53175307Y-102126201D01*
X53181374Y-102125301D01*
X53187500Y-102125000D01*
X53937500Y-102125000D01*
X53943626Y-102125301D01*
X53943626Y-102125301D01*
G37*
D13*
X53562500Y-102250000D03*
D10*
G36*
X53943626Y-101625301D02*
G01*
X53949693Y-101626201D01*
X53955643Y-101627691D01*
X53961418Y-101629758D01*
X53966962Y-101632380D01*
X53972223Y-101635533D01*
X53977150Y-101639187D01*
X53981694Y-101643306D01*
X53985813Y-101647850D01*
X53989467Y-101652777D01*
X53992620Y-101658038D01*
X53995242Y-101663582D01*
X53997309Y-101669357D01*
X53998799Y-101675307D01*
X53999699Y-101681374D01*
X54000000Y-101687500D01*
X54000000Y-101812500D01*
X53999699Y-101818626D01*
X53998799Y-101824693D01*
X53997309Y-101830643D01*
X53995242Y-101836418D01*
X53992620Y-101841962D01*
X53989467Y-101847223D01*
X53985813Y-101852150D01*
X53981694Y-101856694D01*
X53977150Y-101860813D01*
X53972223Y-101864467D01*
X53966962Y-101867620D01*
X53961418Y-101870242D01*
X53955643Y-101872309D01*
X53949693Y-101873799D01*
X53943626Y-101874699D01*
X53937500Y-101875000D01*
X53187500Y-101875000D01*
X53181374Y-101874699D01*
X53175307Y-101873799D01*
X53169357Y-101872309D01*
X53163582Y-101870242D01*
X53158038Y-101867620D01*
X53152777Y-101864467D01*
X53147850Y-101860813D01*
X53143306Y-101856694D01*
X53139187Y-101852150D01*
X53135533Y-101847223D01*
X53132380Y-101841962D01*
X53129758Y-101836418D01*
X53127691Y-101830643D01*
X53126201Y-101824693D01*
X53125301Y-101818626D01*
X53125000Y-101812500D01*
X53125000Y-101687500D01*
X53125301Y-101681374D01*
X53126201Y-101675307D01*
X53127691Y-101669357D01*
X53129758Y-101663582D01*
X53132380Y-101658038D01*
X53135533Y-101652777D01*
X53139187Y-101647850D01*
X53143306Y-101643306D01*
X53147850Y-101639187D01*
X53152777Y-101635533D01*
X53158038Y-101632380D01*
X53163582Y-101629758D01*
X53169357Y-101627691D01*
X53175307Y-101626201D01*
X53181374Y-101625301D01*
X53187500Y-101625000D01*
X53937500Y-101625000D01*
X53943626Y-101625301D01*
X53943626Y-101625301D01*
G37*
D13*
X53562500Y-101750000D03*
D10*
G36*
X53943626Y-101125301D02*
G01*
X53949693Y-101126201D01*
X53955643Y-101127691D01*
X53961418Y-101129758D01*
X53966962Y-101132380D01*
X53972223Y-101135533D01*
X53977150Y-101139187D01*
X53981694Y-101143306D01*
X53985813Y-101147850D01*
X53989467Y-101152777D01*
X53992620Y-101158038D01*
X53995242Y-101163582D01*
X53997309Y-101169357D01*
X53998799Y-101175307D01*
X53999699Y-101181374D01*
X54000000Y-101187500D01*
X54000000Y-101312500D01*
X53999699Y-101318626D01*
X53998799Y-101324693D01*
X53997309Y-101330643D01*
X53995242Y-101336418D01*
X53992620Y-101341962D01*
X53989467Y-101347223D01*
X53985813Y-101352150D01*
X53981694Y-101356694D01*
X53977150Y-101360813D01*
X53972223Y-101364467D01*
X53966962Y-101367620D01*
X53961418Y-101370242D01*
X53955643Y-101372309D01*
X53949693Y-101373799D01*
X53943626Y-101374699D01*
X53937500Y-101375000D01*
X53187500Y-101375000D01*
X53181374Y-101374699D01*
X53175307Y-101373799D01*
X53169357Y-101372309D01*
X53163582Y-101370242D01*
X53158038Y-101367620D01*
X53152777Y-101364467D01*
X53147850Y-101360813D01*
X53143306Y-101356694D01*
X53139187Y-101352150D01*
X53135533Y-101347223D01*
X53132380Y-101341962D01*
X53129758Y-101336418D01*
X53127691Y-101330643D01*
X53126201Y-101324693D01*
X53125301Y-101318626D01*
X53125000Y-101312500D01*
X53125000Y-101187500D01*
X53125301Y-101181374D01*
X53126201Y-101175307D01*
X53127691Y-101169357D01*
X53129758Y-101163582D01*
X53132380Y-101158038D01*
X53135533Y-101152777D01*
X53139187Y-101147850D01*
X53143306Y-101143306D01*
X53147850Y-101139187D01*
X53152777Y-101135533D01*
X53158038Y-101132380D01*
X53163582Y-101129758D01*
X53169357Y-101127691D01*
X53175307Y-101126201D01*
X53181374Y-101125301D01*
X53187500Y-101125000D01*
X53937500Y-101125000D01*
X53943626Y-101125301D01*
X53943626Y-101125301D01*
G37*
D13*
X53562500Y-101250000D03*
D10*
G36*
X53943626Y-100625301D02*
G01*
X53949693Y-100626201D01*
X53955643Y-100627691D01*
X53961418Y-100629758D01*
X53966962Y-100632380D01*
X53972223Y-100635533D01*
X53977150Y-100639187D01*
X53981694Y-100643306D01*
X53985813Y-100647850D01*
X53989467Y-100652777D01*
X53992620Y-100658038D01*
X53995242Y-100663582D01*
X53997309Y-100669357D01*
X53998799Y-100675307D01*
X53999699Y-100681374D01*
X54000000Y-100687500D01*
X54000000Y-100812500D01*
X53999699Y-100818626D01*
X53998799Y-100824693D01*
X53997309Y-100830643D01*
X53995242Y-100836418D01*
X53992620Y-100841962D01*
X53989467Y-100847223D01*
X53985813Y-100852150D01*
X53981694Y-100856694D01*
X53977150Y-100860813D01*
X53972223Y-100864467D01*
X53966962Y-100867620D01*
X53961418Y-100870242D01*
X53955643Y-100872309D01*
X53949693Y-100873799D01*
X53943626Y-100874699D01*
X53937500Y-100875000D01*
X53187500Y-100875000D01*
X53181374Y-100874699D01*
X53175307Y-100873799D01*
X53169357Y-100872309D01*
X53163582Y-100870242D01*
X53158038Y-100867620D01*
X53152777Y-100864467D01*
X53147850Y-100860813D01*
X53143306Y-100856694D01*
X53139187Y-100852150D01*
X53135533Y-100847223D01*
X53132380Y-100841962D01*
X53129758Y-100836418D01*
X53127691Y-100830643D01*
X53126201Y-100824693D01*
X53125301Y-100818626D01*
X53125000Y-100812500D01*
X53125000Y-100687500D01*
X53125301Y-100681374D01*
X53126201Y-100675307D01*
X53127691Y-100669357D01*
X53129758Y-100663582D01*
X53132380Y-100658038D01*
X53135533Y-100652777D01*
X53139187Y-100647850D01*
X53143306Y-100643306D01*
X53147850Y-100639187D01*
X53152777Y-100635533D01*
X53158038Y-100632380D01*
X53163582Y-100629758D01*
X53169357Y-100627691D01*
X53175307Y-100626201D01*
X53181374Y-100625301D01*
X53187500Y-100625000D01*
X53937500Y-100625000D01*
X53943626Y-100625301D01*
X53943626Y-100625301D01*
G37*
D13*
X53562500Y-100750000D03*
D10*
G36*
X53943626Y-100125301D02*
G01*
X53949693Y-100126201D01*
X53955643Y-100127691D01*
X53961418Y-100129758D01*
X53966962Y-100132380D01*
X53972223Y-100135533D01*
X53977150Y-100139187D01*
X53981694Y-100143306D01*
X53985813Y-100147850D01*
X53989467Y-100152777D01*
X53992620Y-100158038D01*
X53995242Y-100163582D01*
X53997309Y-100169357D01*
X53998799Y-100175307D01*
X53999699Y-100181374D01*
X54000000Y-100187500D01*
X54000000Y-100312500D01*
X53999699Y-100318626D01*
X53998799Y-100324693D01*
X53997309Y-100330643D01*
X53995242Y-100336418D01*
X53992620Y-100341962D01*
X53989467Y-100347223D01*
X53985813Y-100352150D01*
X53981694Y-100356694D01*
X53977150Y-100360813D01*
X53972223Y-100364467D01*
X53966962Y-100367620D01*
X53961418Y-100370242D01*
X53955643Y-100372309D01*
X53949693Y-100373799D01*
X53943626Y-100374699D01*
X53937500Y-100375000D01*
X53187500Y-100375000D01*
X53181374Y-100374699D01*
X53175307Y-100373799D01*
X53169357Y-100372309D01*
X53163582Y-100370242D01*
X53158038Y-100367620D01*
X53152777Y-100364467D01*
X53147850Y-100360813D01*
X53143306Y-100356694D01*
X53139187Y-100352150D01*
X53135533Y-100347223D01*
X53132380Y-100341962D01*
X53129758Y-100336418D01*
X53127691Y-100330643D01*
X53126201Y-100324693D01*
X53125301Y-100318626D01*
X53125000Y-100312500D01*
X53125000Y-100187500D01*
X53125301Y-100181374D01*
X53126201Y-100175307D01*
X53127691Y-100169357D01*
X53129758Y-100163582D01*
X53132380Y-100158038D01*
X53135533Y-100152777D01*
X53139187Y-100147850D01*
X53143306Y-100143306D01*
X53147850Y-100139187D01*
X53152777Y-100135533D01*
X53158038Y-100132380D01*
X53163582Y-100129758D01*
X53169357Y-100127691D01*
X53175307Y-100126201D01*
X53181374Y-100125301D01*
X53187500Y-100125000D01*
X53937500Y-100125000D01*
X53943626Y-100125301D01*
X53943626Y-100125301D01*
G37*
D13*
X53562500Y-100250000D03*
D10*
G36*
X53943626Y-99625301D02*
G01*
X53949693Y-99626201D01*
X53955643Y-99627691D01*
X53961418Y-99629758D01*
X53966962Y-99632380D01*
X53972223Y-99635533D01*
X53977150Y-99639187D01*
X53981694Y-99643306D01*
X53985813Y-99647850D01*
X53989467Y-99652777D01*
X53992620Y-99658038D01*
X53995242Y-99663582D01*
X53997309Y-99669357D01*
X53998799Y-99675307D01*
X53999699Y-99681374D01*
X54000000Y-99687500D01*
X54000000Y-99812500D01*
X53999699Y-99818626D01*
X53998799Y-99824693D01*
X53997309Y-99830643D01*
X53995242Y-99836418D01*
X53992620Y-99841962D01*
X53989467Y-99847223D01*
X53985813Y-99852150D01*
X53981694Y-99856694D01*
X53977150Y-99860813D01*
X53972223Y-99864467D01*
X53966962Y-99867620D01*
X53961418Y-99870242D01*
X53955643Y-99872309D01*
X53949693Y-99873799D01*
X53943626Y-99874699D01*
X53937500Y-99875000D01*
X53187500Y-99875000D01*
X53181374Y-99874699D01*
X53175307Y-99873799D01*
X53169357Y-99872309D01*
X53163582Y-99870242D01*
X53158038Y-99867620D01*
X53152777Y-99864467D01*
X53147850Y-99860813D01*
X53143306Y-99856694D01*
X53139187Y-99852150D01*
X53135533Y-99847223D01*
X53132380Y-99841962D01*
X53129758Y-99836418D01*
X53127691Y-99830643D01*
X53126201Y-99824693D01*
X53125301Y-99818626D01*
X53125000Y-99812500D01*
X53125000Y-99687500D01*
X53125301Y-99681374D01*
X53126201Y-99675307D01*
X53127691Y-99669357D01*
X53129758Y-99663582D01*
X53132380Y-99658038D01*
X53135533Y-99652777D01*
X53139187Y-99647850D01*
X53143306Y-99643306D01*
X53147850Y-99639187D01*
X53152777Y-99635533D01*
X53158038Y-99632380D01*
X53163582Y-99629758D01*
X53169357Y-99627691D01*
X53175307Y-99626201D01*
X53181374Y-99625301D01*
X53187500Y-99625000D01*
X53937500Y-99625000D01*
X53943626Y-99625301D01*
X53943626Y-99625301D01*
G37*
D13*
X53562500Y-99750000D03*
D10*
G36*
X53943626Y-99125301D02*
G01*
X53949693Y-99126201D01*
X53955643Y-99127691D01*
X53961418Y-99129758D01*
X53966962Y-99132380D01*
X53972223Y-99135533D01*
X53977150Y-99139187D01*
X53981694Y-99143306D01*
X53985813Y-99147850D01*
X53989467Y-99152777D01*
X53992620Y-99158038D01*
X53995242Y-99163582D01*
X53997309Y-99169357D01*
X53998799Y-99175307D01*
X53999699Y-99181374D01*
X54000000Y-99187500D01*
X54000000Y-99312500D01*
X53999699Y-99318626D01*
X53998799Y-99324693D01*
X53997309Y-99330643D01*
X53995242Y-99336418D01*
X53992620Y-99341962D01*
X53989467Y-99347223D01*
X53985813Y-99352150D01*
X53981694Y-99356694D01*
X53977150Y-99360813D01*
X53972223Y-99364467D01*
X53966962Y-99367620D01*
X53961418Y-99370242D01*
X53955643Y-99372309D01*
X53949693Y-99373799D01*
X53943626Y-99374699D01*
X53937500Y-99375000D01*
X53187500Y-99375000D01*
X53181374Y-99374699D01*
X53175307Y-99373799D01*
X53169357Y-99372309D01*
X53163582Y-99370242D01*
X53158038Y-99367620D01*
X53152777Y-99364467D01*
X53147850Y-99360813D01*
X53143306Y-99356694D01*
X53139187Y-99352150D01*
X53135533Y-99347223D01*
X53132380Y-99341962D01*
X53129758Y-99336418D01*
X53127691Y-99330643D01*
X53126201Y-99324693D01*
X53125301Y-99318626D01*
X53125000Y-99312500D01*
X53125000Y-99187500D01*
X53125301Y-99181374D01*
X53126201Y-99175307D01*
X53127691Y-99169357D01*
X53129758Y-99163582D01*
X53132380Y-99158038D01*
X53135533Y-99152777D01*
X53139187Y-99147850D01*
X53143306Y-99143306D01*
X53147850Y-99139187D01*
X53152777Y-99135533D01*
X53158038Y-99132380D01*
X53163582Y-99129758D01*
X53169357Y-99127691D01*
X53175307Y-99126201D01*
X53181374Y-99125301D01*
X53187500Y-99125000D01*
X53937500Y-99125000D01*
X53943626Y-99125301D01*
X53943626Y-99125301D01*
G37*
D13*
X53562500Y-99250000D03*
D10*
G36*
X53943626Y-98625301D02*
G01*
X53949693Y-98626201D01*
X53955643Y-98627691D01*
X53961418Y-98629758D01*
X53966962Y-98632380D01*
X53972223Y-98635533D01*
X53977150Y-98639187D01*
X53981694Y-98643306D01*
X53985813Y-98647850D01*
X53989467Y-98652777D01*
X53992620Y-98658038D01*
X53995242Y-98663582D01*
X53997309Y-98669357D01*
X53998799Y-98675307D01*
X53999699Y-98681374D01*
X54000000Y-98687500D01*
X54000000Y-98812500D01*
X53999699Y-98818626D01*
X53998799Y-98824693D01*
X53997309Y-98830643D01*
X53995242Y-98836418D01*
X53992620Y-98841962D01*
X53989467Y-98847223D01*
X53985813Y-98852150D01*
X53981694Y-98856694D01*
X53977150Y-98860813D01*
X53972223Y-98864467D01*
X53966962Y-98867620D01*
X53961418Y-98870242D01*
X53955643Y-98872309D01*
X53949693Y-98873799D01*
X53943626Y-98874699D01*
X53937500Y-98875000D01*
X53187500Y-98875000D01*
X53181374Y-98874699D01*
X53175307Y-98873799D01*
X53169357Y-98872309D01*
X53163582Y-98870242D01*
X53158038Y-98867620D01*
X53152777Y-98864467D01*
X53147850Y-98860813D01*
X53143306Y-98856694D01*
X53139187Y-98852150D01*
X53135533Y-98847223D01*
X53132380Y-98841962D01*
X53129758Y-98836418D01*
X53127691Y-98830643D01*
X53126201Y-98824693D01*
X53125301Y-98818626D01*
X53125000Y-98812500D01*
X53125000Y-98687500D01*
X53125301Y-98681374D01*
X53126201Y-98675307D01*
X53127691Y-98669357D01*
X53129758Y-98663582D01*
X53132380Y-98658038D01*
X53135533Y-98652777D01*
X53139187Y-98647850D01*
X53143306Y-98643306D01*
X53147850Y-98639187D01*
X53152777Y-98635533D01*
X53158038Y-98632380D01*
X53163582Y-98629758D01*
X53169357Y-98627691D01*
X53175307Y-98626201D01*
X53181374Y-98625301D01*
X53187500Y-98625000D01*
X53937500Y-98625000D01*
X53943626Y-98625301D01*
X53943626Y-98625301D01*
G37*
D13*
X53562500Y-98750000D03*
D10*
G36*
X53943626Y-98125301D02*
G01*
X53949693Y-98126201D01*
X53955643Y-98127691D01*
X53961418Y-98129758D01*
X53966962Y-98132380D01*
X53972223Y-98135533D01*
X53977150Y-98139187D01*
X53981694Y-98143306D01*
X53985813Y-98147850D01*
X53989467Y-98152777D01*
X53992620Y-98158038D01*
X53995242Y-98163582D01*
X53997309Y-98169357D01*
X53998799Y-98175307D01*
X53999699Y-98181374D01*
X54000000Y-98187500D01*
X54000000Y-98312500D01*
X53999699Y-98318626D01*
X53998799Y-98324693D01*
X53997309Y-98330643D01*
X53995242Y-98336418D01*
X53992620Y-98341962D01*
X53989467Y-98347223D01*
X53985813Y-98352150D01*
X53981694Y-98356694D01*
X53977150Y-98360813D01*
X53972223Y-98364467D01*
X53966962Y-98367620D01*
X53961418Y-98370242D01*
X53955643Y-98372309D01*
X53949693Y-98373799D01*
X53943626Y-98374699D01*
X53937500Y-98375000D01*
X53187500Y-98375000D01*
X53181374Y-98374699D01*
X53175307Y-98373799D01*
X53169357Y-98372309D01*
X53163582Y-98370242D01*
X53158038Y-98367620D01*
X53152777Y-98364467D01*
X53147850Y-98360813D01*
X53143306Y-98356694D01*
X53139187Y-98352150D01*
X53135533Y-98347223D01*
X53132380Y-98341962D01*
X53129758Y-98336418D01*
X53127691Y-98330643D01*
X53126201Y-98324693D01*
X53125301Y-98318626D01*
X53125000Y-98312500D01*
X53125000Y-98187500D01*
X53125301Y-98181374D01*
X53126201Y-98175307D01*
X53127691Y-98169357D01*
X53129758Y-98163582D01*
X53132380Y-98158038D01*
X53135533Y-98152777D01*
X53139187Y-98147850D01*
X53143306Y-98143306D01*
X53147850Y-98139187D01*
X53152777Y-98135533D01*
X53158038Y-98132380D01*
X53163582Y-98129758D01*
X53169357Y-98127691D01*
X53175307Y-98126201D01*
X53181374Y-98125301D01*
X53187500Y-98125000D01*
X53937500Y-98125000D01*
X53943626Y-98125301D01*
X53943626Y-98125301D01*
G37*
D13*
X53562500Y-98250000D03*
D10*
G36*
X53943626Y-97625301D02*
G01*
X53949693Y-97626201D01*
X53955643Y-97627691D01*
X53961418Y-97629758D01*
X53966962Y-97632380D01*
X53972223Y-97635533D01*
X53977150Y-97639187D01*
X53981694Y-97643306D01*
X53985813Y-97647850D01*
X53989467Y-97652777D01*
X53992620Y-97658038D01*
X53995242Y-97663582D01*
X53997309Y-97669357D01*
X53998799Y-97675307D01*
X53999699Y-97681374D01*
X54000000Y-97687500D01*
X54000000Y-97812500D01*
X53999699Y-97818626D01*
X53998799Y-97824693D01*
X53997309Y-97830643D01*
X53995242Y-97836418D01*
X53992620Y-97841962D01*
X53989467Y-97847223D01*
X53985813Y-97852150D01*
X53981694Y-97856694D01*
X53977150Y-97860813D01*
X53972223Y-97864467D01*
X53966962Y-97867620D01*
X53961418Y-97870242D01*
X53955643Y-97872309D01*
X53949693Y-97873799D01*
X53943626Y-97874699D01*
X53937500Y-97875000D01*
X53187500Y-97875000D01*
X53181374Y-97874699D01*
X53175307Y-97873799D01*
X53169357Y-97872309D01*
X53163582Y-97870242D01*
X53158038Y-97867620D01*
X53152777Y-97864467D01*
X53147850Y-97860813D01*
X53143306Y-97856694D01*
X53139187Y-97852150D01*
X53135533Y-97847223D01*
X53132380Y-97841962D01*
X53129758Y-97836418D01*
X53127691Y-97830643D01*
X53126201Y-97824693D01*
X53125301Y-97818626D01*
X53125000Y-97812500D01*
X53125000Y-97687500D01*
X53125301Y-97681374D01*
X53126201Y-97675307D01*
X53127691Y-97669357D01*
X53129758Y-97663582D01*
X53132380Y-97658038D01*
X53135533Y-97652777D01*
X53139187Y-97647850D01*
X53143306Y-97643306D01*
X53147850Y-97639187D01*
X53152777Y-97635533D01*
X53158038Y-97632380D01*
X53163582Y-97629758D01*
X53169357Y-97627691D01*
X53175307Y-97626201D01*
X53181374Y-97625301D01*
X53187500Y-97625000D01*
X53937500Y-97625000D01*
X53943626Y-97625301D01*
X53943626Y-97625301D01*
G37*
D13*
X53562500Y-97750000D03*
D10*
G36*
X53943626Y-97125301D02*
G01*
X53949693Y-97126201D01*
X53955643Y-97127691D01*
X53961418Y-97129758D01*
X53966962Y-97132380D01*
X53972223Y-97135533D01*
X53977150Y-97139187D01*
X53981694Y-97143306D01*
X53985813Y-97147850D01*
X53989467Y-97152777D01*
X53992620Y-97158038D01*
X53995242Y-97163582D01*
X53997309Y-97169357D01*
X53998799Y-97175307D01*
X53999699Y-97181374D01*
X54000000Y-97187500D01*
X54000000Y-97312500D01*
X53999699Y-97318626D01*
X53998799Y-97324693D01*
X53997309Y-97330643D01*
X53995242Y-97336418D01*
X53992620Y-97341962D01*
X53989467Y-97347223D01*
X53985813Y-97352150D01*
X53981694Y-97356694D01*
X53977150Y-97360813D01*
X53972223Y-97364467D01*
X53966962Y-97367620D01*
X53961418Y-97370242D01*
X53955643Y-97372309D01*
X53949693Y-97373799D01*
X53943626Y-97374699D01*
X53937500Y-97375000D01*
X53187500Y-97375000D01*
X53181374Y-97374699D01*
X53175307Y-97373799D01*
X53169357Y-97372309D01*
X53163582Y-97370242D01*
X53158038Y-97367620D01*
X53152777Y-97364467D01*
X53147850Y-97360813D01*
X53143306Y-97356694D01*
X53139187Y-97352150D01*
X53135533Y-97347223D01*
X53132380Y-97341962D01*
X53129758Y-97336418D01*
X53127691Y-97330643D01*
X53126201Y-97324693D01*
X53125301Y-97318626D01*
X53125000Y-97312500D01*
X53125000Y-97187500D01*
X53125301Y-97181374D01*
X53126201Y-97175307D01*
X53127691Y-97169357D01*
X53129758Y-97163582D01*
X53132380Y-97158038D01*
X53135533Y-97152777D01*
X53139187Y-97147850D01*
X53143306Y-97143306D01*
X53147850Y-97139187D01*
X53152777Y-97135533D01*
X53158038Y-97132380D01*
X53163582Y-97129758D01*
X53169357Y-97127691D01*
X53175307Y-97126201D01*
X53181374Y-97125301D01*
X53187500Y-97125000D01*
X53937500Y-97125000D01*
X53943626Y-97125301D01*
X53943626Y-97125301D01*
G37*
D13*
X53562500Y-97250000D03*
D10*
G36*
X53943626Y-96625301D02*
G01*
X53949693Y-96626201D01*
X53955643Y-96627691D01*
X53961418Y-96629758D01*
X53966962Y-96632380D01*
X53972223Y-96635533D01*
X53977150Y-96639187D01*
X53981694Y-96643306D01*
X53985813Y-96647850D01*
X53989467Y-96652777D01*
X53992620Y-96658038D01*
X53995242Y-96663582D01*
X53997309Y-96669357D01*
X53998799Y-96675307D01*
X53999699Y-96681374D01*
X54000000Y-96687500D01*
X54000000Y-96812500D01*
X53999699Y-96818626D01*
X53998799Y-96824693D01*
X53997309Y-96830643D01*
X53995242Y-96836418D01*
X53992620Y-96841962D01*
X53989467Y-96847223D01*
X53985813Y-96852150D01*
X53981694Y-96856694D01*
X53977150Y-96860813D01*
X53972223Y-96864467D01*
X53966962Y-96867620D01*
X53961418Y-96870242D01*
X53955643Y-96872309D01*
X53949693Y-96873799D01*
X53943626Y-96874699D01*
X53937500Y-96875000D01*
X53187500Y-96875000D01*
X53181374Y-96874699D01*
X53175307Y-96873799D01*
X53169357Y-96872309D01*
X53163582Y-96870242D01*
X53158038Y-96867620D01*
X53152777Y-96864467D01*
X53147850Y-96860813D01*
X53143306Y-96856694D01*
X53139187Y-96852150D01*
X53135533Y-96847223D01*
X53132380Y-96841962D01*
X53129758Y-96836418D01*
X53127691Y-96830643D01*
X53126201Y-96824693D01*
X53125301Y-96818626D01*
X53125000Y-96812500D01*
X53125000Y-96687500D01*
X53125301Y-96681374D01*
X53126201Y-96675307D01*
X53127691Y-96669357D01*
X53129758Y-96663582D01*
X53132380Y-96658038D01*
X53135533Y-96652777D01*
X53139187Y-96647850D01*
X53143306Y-96643306D01*
X53147850Y-96639187D01*
X53152777Y-96635533D01*
X53158038Y-96632380D01*
X53163582Y-96629758D01*
X53169357Y-96627691D01*
X53175307Y-96626201D01*
X53181374Y-96625301D01*
X53187500Y-96625000D01*
X53937500Y-96625000D01*
X53943626Y-96625301D01*
X53943626Y-96625301D01*
G37*
D13*
X53562500Y-96750000D03*
D10*
G36*
X53943626Y-96125301D02*
G01*
X53949693Y-96126201D01*
X53955643Y-96127691D01*
X53961418Y-96129758D01*
X53966962Y-96132380D01*
X53972223Y-96135533D01*
X53977150Y-96139187D01*
X53981694Y-96143306D01*
X53985813Y-96147850D01*
X53989467Y-96152777D01*
X53992620Y-96158038D01*
X53995242Y-96163582D01*
X53997309Y-96169357D01*
X53998799Y-96175307D01*
X53999699Y-96181374D01*
X54000000Y-96187500D01*
X54000000Y-96312500D01*
X53999699Y-96318626D01*
X53998799Y-96324693D01*
X53997309Y-96330643D01*
X53995242Y-96336418D01*
X53992620Y-96341962D01*
X53989467Y-96347223D01*
X53985813Y-96352150D01*
X53981694Y-96356694D01*
X53977150Y-96360813D01*
X53972223Y-96364467D01*
X53966962Y-96367620D01*
X53961418Y-96370242D01*
X53955643Y-96372309D01*
X53949693Y-96373799D01*
X53943626Y-96374699D01*
X53937500Y-96375000D01*
X53187500Y-96375000D01*
X53181374Y-96374699D01*
X53175307Y-96373799D01*
X53169357Y-96372309D01*
X53163582Y-96370242D01*
X53158038Y-96367620D01*
X53152777Y-96364467D01*
X53147850Y-96360813D01*
X53143306Y-96356694D01*
X53139187Y-96352150D01*
X53135533Y-96347223D01*
X53132380Y-96341962D01*
X53129758Y-96336418D01*
X53127691Y-96330643D01*
X53126201Y-96324693D01*
X53125301Y-96318626D01*
X53125000Y-96312500D01*
X53125000Y-96187500D01*
X53125301Y-96181374D01*
X53126201Y-96175307D01*
X53127691Y-96169357D01*
X53129758Y-96163582D01*
X53132380Y-96158038D01*
X53135533Y-96152777D01*
X53139187Y-96147850D01*
X53143306Y-96143306D01*
X53147850Y-96139187D01*
X53152777Y-96135533D01*
X53158038Y-96132380D01*
X53163582Y-96129758D01*
X53169357Y-96127691D01*
X53175307Y-96126201D01*
X53181374Y-96125301D01*
X53187500Y-96125000D01*
X53937500Y-96125000D01*
X53943626Y-96125301D01*
X53943626Y-96125301D01*
G37*
D13*
X53562500Y-96250000D03*
D10*
G36*
X53943626Y-95625301D02*
G01*
X53949693Y-95626201D01*
X53955643Y-95627691D01*
X53961418Y-95629758D01*
X53966962Y-95632380D01*
X53972223Y-95635533D01*
X53977150Y-95639187D01*
X53981694Y-95643306D01*
X53985813Y-95647850D01*
X53989467Y-95652777D01*
X53992620Y-95658038D01*
X53995242Y-95663582D01*
X53997309Y-95669357D01*
X53998799Y-95675307D01*
X53999699Y-95681374D01*
X54000000Y-95687500D01*
X54000000Y-95812500D01*
X53999699Y-95818626D01*
X53998799Y-95824693D01*
X53997309Y-95830643D01*
X53995242Y-95836418D01*
X53992620Y-95841962D01*
X53989467Y-95847223D01*
X53985813Y-95852150D01*
X53981694Y-95856694D01*
X53977150Y-95860813D01*
X53972223Y-95864467D01*
X53966962Y-95867620D01*
X53961418Y-95870242D01*
X53955643Y-95872309D01*
X53949693Y-95873799D01*
X53943626Y-95874699D01*
X53937500Y-95875000D01*
X53187500Y-95875000D01*
X53181374Y-95874699D01*
X53175307Y-95873799D01*
X53169357Y-95872309D01*
X53163582Y-95870242D01*
X53158038Y-95867620D01*
X53152777Y-95864467D01*
X53147850Y-95860813D01*
X53143306Y-95856694D01*
X53139187Y-95852150D01*
X53135533Y-95847223D01*
X53132380Y-95841962D01*
X53129758Y-95836418D01*
X53127691Y-95830643D01*
X53126201Y-95824693D01*
X53125301Y-95818626D01*
X53125000Y-95812500D01*
X53125000Y-95687500D01*
X53125301Y-95681374D01*
X53126201Y-95675307D01*
X53127691Y-95669357D01*
X53129758Y-95663582D01*
X53132380Y-95658038D01*
X53135533Y-95652777D01*
X53139187Y-95647850D01*
X53143306Y-95643306D01*
X53147850Y-95639187D01*
X53152777Y-95635533D01*
X53158038Y-95632380D01*
X53163582Y-95629758D01*
X53169357Y-95627691D01*
X53175307Y-95626201D01*
X53181374Y-95625301D01*
X53187500Y-95625000D01*
X53937500Y-95625000D01*
X53943626Y-95625301D01*
X53943626Y-95625301D01*
G37*
D13*
X53562500Y-95750000D03*
D10*
G36*
X53943626Y-95125301D02*
G01*
X53949693Y-95126201D01*
X53955643Y-95127691D01*
X53961418Y-95129758D01*
X53966962Y-95132380D01*
X53972223Y-95135533D01*
X53977150Y-95139187D01*
X53981694Y-95143306D01*
X53985813Y-95147850D01*
X53989467Y-95152777D01*
X53992620Y-95158038D01*
X53995242Y-95163582D01*
X53997309Y-95169357D01*
X53998799Y-95175307D01*
X53999699Y-95181374D01*
X54000000Y-95187500D01*
X54000000Y-95312500D01*
X53999699Y-95318626D01*
X53998799Y-95324693D01*
X53997309Y-95330643D01*
X53995242Y-95336418D01*
X53992620Y-95341962D01*
X53989467Y-95347223D01*
X53985813Y-95352150D01*
X53981694Y-95356694D01*
X53977150Y-95360813D01*
X53972223Y-95364467D01*
X53966962Y-95367620D01*
X53961418Y-95370242D01*
X53955643Y-95372309D01*
X53949693Y-95373799D01*
X53943626Y-95374699D01*
X53937500Y-95375000D01*
X53187500Y-95375000D01*
X53181374Y-95374699D01*
X53175307Y-95373799D01*
X53169357Y-95372309D01*
X53163582Y-95370242D01*
X53158038Y-95367620D01*
X53152777Y-95364467D01*
X53147850Y-95360813D01*
X53143306Y-95356694D01*
X53139187Y-95352150D01*
X53135533Y-95347223D01*
X53132380Y-95341962D01*
X53129758Y-95336418D01*
X53127691Y-95330643D01*
X53126201Y-95324693D01*
X53125301Y-95318626D01*
X53125000Y-95312500D01*
X53125000Y-95187500D01*
X53125301Y-95181374D01*
X53126201Y-95175307D01*
X53127691Y-95169357D01*
X53129758Y-95163582D01*
X53132380Y-95158038D01*
X53135533Y-95152777D01*
X53139187Y-95147850D01*
X53143306Y-95143306D01*
X53147850Y-95139187D01*
X53152777Y-95135533D01*
X53158038Y-95132380D01*
X53163582Y-95129758D01*
X53169357Y-95127691D01*
X53175307Y-95126201D01*
X53181374Y-95125301D01*
X53187500Y-95125000D01*
X53937500Y-95125000D01*
X53943626Y-95125301D01*
X53943626Y-95125301D01*
G37*
D13*
X53562500Y-95250000D03*
D10*
G36*
X53943626Y-94625301D02*
G01*
X53949693Y-94626201D01*
X53955643Y-94627691D01*
X53961418Y-94629758D01*
X53966962Y-94632380D01*
X53972223Y-94635533D01*
X53977150Y-94639187D01*
X53981694Y-94643306D01*
X53985813Y-94647850D01*
X53989467Y-94652777D01*
X53992620Y-94658038D01*
X53995242Y-94663582D01*
X53997309Y-94669357D01*
X53998799Y-94675307D01*
X53999699Y-94681374D01*
X54000000Y-94687500D01*
X54000000Y-94812500D01*
X53999699Y-94818626D01*
X53998799Y-94824693D01*
X53997309Y-94830643D01*
X53995242Y-94836418D01*
X53992620Y-94841962D01*
X53989467Y-94847223D01*
X53985813Y-94852150D01*
X53981694Y-94856694D01*
X53977150Y-94860813D01*
X53972223Y-94864467D01*
X53966962Y-94867620D01*
X53961418Y-94870242D01*
X53955643Y-94872309D01*
X53949693Y-94873799D01*
X53943626Y-94874699D01*
X53937500Y-94875000D01*
X53187500Y-94875000D01*
X53181374Y-94874699D01*
X53175307Y-94873799D01*
X53169357Y-94872309D01*
X53163582Y-94870242D01*
X53158038Y-94867620D01*
X53152777Y-94864467D01*
X53147850Y-94860813D01*
X53143306Y-94856694D01*
X53139187Y-94852150D01*
X53135533Y-94847223D01*
X53132380Y-94841962D01*
X53129758Y-94836418D01*
X53127691Y-94830643D01*
X53126201Y-94824693D01*
X53125301Y-94818626D01*
X53125000Y-94812500D01*
X53125000Y-94687500D01*
X53125301Y-94681374D01*
X53126201Y-94675307D01*
X53127691Y-94669357D01*
X53129758Y-94663582D01*
X53132380Y-94658038D01*
X53135533Y-94652777D01*
X53139187Y-94647850D01*
X53143306Y-94643306D01*
X53147850Y-94639187D01*
X53152777Y-94635533D01*
X53158038Y-94632380D01*
X53163582Y-94629758D01*
X53169357Y-94627691D01*
X53175307Y-94626201D01*
X53181374Y-94625301D01*
X53187500Y-94625000D01*
X53937500Y-94625000D01*
X53943626Y-94625301D01*
X53943626Y-94625301D01*
G37*
D13*
X53562500Y-94750000D03*
D10*
G36*
X54318626Y-93625301D02*
G01*
X54324693Y-93626201D01*
X54330643Y-93627691D01*
X54336418Y-93629758D01*
X54341962Y-93632380D01*
X54347223Y-93635533D01*
X54352150Y-93639187D01*
X54356694Y-93643306D01*
X54360813Y-93647850D01*
X54364467Y-93652777D01*
X54367620Y-93658038D01*
X54370242Y-93663582D01*
X54372309Y-93669357D01*
X54373799Y-93675307D01*
X54374699Y-93681374D01*
X54375000Y-93687500D01*
X54375000Y-94437500D01*
X54374699Y-94443626D01*
X54373799Y-94449693D01*
X54372309Y-94455643D01*
X54370242Y-94461418D01*
X54367620Y-94466962D01*
X54364467Y-94472223D01*
X54360813Y-94477150D01*
X54356694Y-94481694D01*
X54352150Y-94485813D01*
X54347223Y-94489467D01*
X54341962Y-94492620D01*
X54336418Y-94495242D01*
X54330643Y-94497309D01*
X54324693Y-94498799D01*
X54318626Y-94499699D01*
X54312500Y-94500000D01*
X54187500Y-94500000D01*
X54181374Y-94499699D01*
X54175307Y-94498799D01*
X54169357Y-94497309D01*
X54163582Y-94495242D01*
X54158038Y-94492620D01*
X54152777Y-94489467D01*
X54147850Y-94485813D01*
X54143306Y-94481694D01*
X54139187Y-94477150D01*
X54135533Y-94472223D01*
X54132380Y-94466962D01*
X54129758Y-94461418D01*
X54127691Y-94455643D01*
X54126201Y-94449693D01*
X54125301Y-94443626D01*
X54125000Y-94437500D01*
X54125000Y-93687500D01*
X54125301Y-93681374D01*
X54126201Y-93675307D01*
X54127691Y-93669357D01*
X54129758Y-93663582D01*
X54132380Y-93658038D01*
X54135533Y-93652777D01*
X54139187Y-93647850D01*
X54143306Y-93643306D01*
X54147850Y-93639187D01*
X54152777Y-93635533D01*
X54158038Y-93632380D01*
X54163582Y-93629758D01*
X54169357Y-93627691D01*
X54175307Y-93626201D01*
X54181374Y-93625301D01*
X54187500Y-93625000D01*
X54312500Y-93625000D01*
X54318626Y-93625301D01*
X54318626Y-93625301D01*
G37*
D13*
X54250000Y-94062500D03*
D10*
G36*
X54818626Y-93625301D02*
G01*
X54824693Y-93626201D01*
X54830643Y-93627691D01*
X54836418Y-93629758D01*
X54841962Y-93632380D01*
X54847223Y-93635533D01*
X54852150Y-93639187D01*
X54856694Y-93643306D01*
X54860813Y-93647850D01*
X54864467Y-93652777D01*
X54867620Y-93658038D01*
X54870242Y-93663582D01*
X54872309Y-93669357D01*
X54873799Y-93675307D01*
X54874699Y-93681374D01*
X54875000Y-93687500D01*
X54875000Y-94437500D01*
X54874699Y-94443626D01*
X54873799Y-94449693D01*
X54872309Y-94455643D01*
X54870242Y-94461418D01*
X54867620Y-94466962D01*
X54864467Y-94472223D01*
X54860813Y-94477150D01*
X54856694Y-94481694D01*
X54852150Y-94485813D01*
X54847223Y-94489467D01*
X54841962Y-94492620D01*
X54836418Y-94495242D01*
X54830643Y-94497309D01*
X54824693Y-94498799D01*
X54818626Y-94499699D01*
X54812500Y-94500000D01*
X54687500Y-94500000D01*
X54681374Y-94499699D01*
X54675307Y-94498799D01*
X54669357Y-94497309D01*
X54663582Y-94495242D01*
X54658038Y-94492620D01*
X54652777Y-94489467D01*
X54647850Y-94485813D01*
X54643306Y-94481694D01*
X54639187Y-94477150D01*
X54635533Y-94472223D01*
X54632380Y-94466962D01*
X54629758Y-94461418D01*
X54627691Y-94455643D01*
X54626201Y-94449693D01*
X54625301Y-94443626D01*
X54625000Y-94437500D01*
X54625000Y-93687500D01*
X54625301Y-93681374D01*
X54626201Y-93675307D01*
X54627691Y-93669357D01*
X54629758Y-93663582D01*
X54632380Y-93658038D01*
X54635533Y-93652777D01*
X54639187Y-93647850D01*
X54643306Y-93643306D01*
X54647850Y-93639187D01*
X54652777Y-93635533D01*
X54658038Y-93632380D01*
X54663582Y-93629758D01*
X54669357Y-93627691D01*
X54675307Y-93626201D01*
X54681374Y-93625301D01*
X54687500Y-93625000D01*
X54812500Y-93625000D01*
X54818626Y-93625301D01*
X54818626Y-93625301D01*
G37*
D13*
X54750000Y-94062500D03*
D10*
G36*
X55318626Y-93625301D02*
G01*
X55324693Y-93626201D01*
X55330643Y-93627691D01*
X55336418Y-93629758D01*
X55341962Y-93632380D01*
X55347223Y-93635533D01*
X55352150Y-93639187D01*
X55356694Y-93643306D01*
X55360813Y-93647850D01*
X55364467Y-93652777D01*
X55367620Y-93658038D01*
X55370242Y-93663582D01*
X55372309Y-93669357D01*
X55373799Y-93675307D01*
X55374699Y-93681374D01*
X55375000Y-93687500D01*
X55375000Y-94437500D01*
X55374699Y-94443626D01*
X55373799Y-94449693D01*
X55372309Y-94455643D01*
X55370242Y-94461418D01*
X55367620Y-94466962D01*
X55364467Y-94472223D01*
X55360813Y-94477150D01*
X55356694Y-94481694D01*
X55352150Y-94485813D01*
X55347223Y-94489467D01*
X55341962Y-94492620D01*
X55336418Y-94495242D01*
X55330643Y-94497309D01*
X55324693Y-94498799D01*
X55318626Y-94499699D01*
X55312500Y-94500000D01*
X55187500Y-94500000D01*
X55181374Y-94499699D01*
X55175307Y-94498799D01*
X55169357Y-94497309D01*
X55163582Y-94495242D01*
X55158038Y-94492620D01*
X55152777Y-94489467D01*
X55147850Y-94485813D01*
X55143306Y-94481694D01*
X55139187Y-94477150D01*
X55135533Y-94472223D01*
X55132380Y-94466962D01*
X55129758Y-94461418D01*
X55127691Y-94455643D01*
X55126201Y-94449693D01*
X55125301Y-94443626D01*
X55125000Y-94437500D01*
X55125000Y-93687500D01*
X55125301Y-93681374D01*
X55126201Y-93675307D01*
X55127691Y-93669357D01*
X55129758Y-93663582D01*
X55132380Y-93658038D01*
X55135533Y-93652777D01*
X55139187Y-93647850D01*
X55143306Y-93643306D01*
X55147850Y-93639187D01*
X55152777Y-93635533D01*
X55158038Y-93632380D01*
X55163582Y-93629758D01*
X55169357Y-93627691D01*
X55175307Y-93626201D01*
X55181374Y-93625301D01*
X55187500Y-93625000D01*
X55312500Y-93625000D01*
X55318626Y-93625301D01*
X55318626Y-93625301D01*
G37*
D13*
X55250000Y-94062500D03*
D10*
G36*
X55818626Y-93625301D02*
G01*
X55824693Y-93626201D01*
X55830643Y-93627691D01*
X55836418Y-93629758D01*
X55841962Y-93632380D01*
X55847223Y-93635533D01*
X55852150Y-93639187D01*
X55856694Y-93643306D01*
X55860813Y-93647850D01*
X55864467Y-93652777D01*
X55867620Y-93658038D01*
X55870242Y-93663582D01*
X55872309Y-93669357D01*
X55873799Y-93675307D01*
X55874699Y-93681374D01*
X55875000Y-93687500D01*
X55875000Y-94437500D01*
X55874699Y-94443626D01*
X55873799Y-94449693D01*
X55872309Y-94455643D01*
X55870242Y-94461418D01*
X55867620Y-94466962D01*
X55864467Y-94472223D01*
X55860813Y-94477150D01*
X55856694Y-94481694D01*
X55852150Y-94485813D01*
X55847223Y-94489467D01*
X55841962Y-94492620D01*
X55836418Y-94495242D01*
X55830643Y-94497309D01*
X55824693Y-94498799D01*
X55818626Y-94499699D01*
X55812500Y-94500000D01*
X55687500Y-94500000D01*
X55681374Y-94499699D01*
X55675307Y-94498799D01*
X55669357Y-94497309D01*
X55663582Y-94495242D01*
X55658038Y-94492620D01*
X55652777Y-94489467D01*
X55647850Y-94485813D01*
X55643306Y-94481694D01*
X55639187Y-94477150D01*
X55635533Y-94472223D01*
X55632380Y-94466962D01*
X55629758Y-94461418D01*
X55627691Y-94455643D01*
X55626201Y-94449693D01*
X55625301Y-94443626D01*
X55625000Y-94437500D01*
X55625000Y-93687500D01*
X55625301Y-93681374D01*
X55626201Y-93675307D01*
X55627691Y-93669357D01*
X55629758Y-93663582D01*
X55632380Y-93658038D01*
X55635533Y-93652777D01*
X55639187Y-93647850D01*
X55643306Y-93643306D01*
X55647850Y-93639187D01*
X55652777Y-93635533D01*
X55658038Y-93632380D01*
X55663582Y-93629758D01*
X55669357Y-93627691D01*
X55675307Y-93626201D01*
X55681374Y-93625301D01*
X55687500Y-93625000D01*
X55812500Y-93625000D01*
X55818626Y-93625301D01*
X55818626Y-93625301D01*
G37*
D13*
X55750000Y-94062500D03*
D10*
G36*
X56318626Y-93625301D02*
G01*
X56324693Y-93626201D01*
X56330643Y-93627691D01*
X56336418Y-93629758D01*
X56341962Y-93632380D01*
X56347223Y-93635533D01*
X56352150Y-93639187D01*
X56356694Y-93643306D01*
X56360813Y-93647850D01*
X56364467Y-93652777D01*
X56367620Y-93658038D01*
X56370242Y-93663582D01*
X56372309Y-93669357D01*
X56373799Y-93675307D01*
X56374699Y-93681374D01*
X56375000Y-93687500D01*
X56375000Y-94437500D01*
X56374699Y-94443626D01*
X56373799Y-94449693D01*
X56372309Y-94455643D01*
X56370242Y-94461418D01*
X56367620Y-94466962D01*
X56364467Y-94472223D01*
X56360813Y-94477150D01*
X56356694Y-94481694D01*
X56352150Y-94485813D01*
X56347223Y-94489467D01*
X56341962Y-94492620D01*
X56336418Y-94495242D01*
X56330643Y-94497309D01*
X56324693Y-94498799D01*
X56318626Y-94499699D01*
X56312500Y-94500000D01*
X56187500Y-94500000D01*
X56181374Y-94499699D01*
X56175307Y-94498799D01*
X56169357Y-94497309D01*
X56163582Y-94495242D01*
X56158038Y-94492620D01*
X56152777Y-94489467D01*
X56147850Y-94485813D01*
X56143306Y-94481694D01*
X56139187Y-94477150D01*
X56135533Y-94472223D01*
X56132380Y-94466962D01*
X56129758Y-94461418D01*
X56127691Y-94455643D01*
X56126201Y-94449693D01*
X56125301Y-94443626D01*
X56125000Y-94437500D01*
X56125000Y-93687500D01*
X56125301Y-93681374D01*
X56126201Y-93675307D01*
X56127691Y-93669357D01*
X56129758Y-93663582D01*
X56132380Y-93658038D01*
X56135533Y-93652777D01*
X56139187Y-93647850D01*
X56143306Y-93643306D01*
X56147850Y-93639187D01*
X56152777Y-93635533D01*
X56158038Y-93632380D01*
X56163582Y-93629758D01*
X56169357Y-93627691D01*
X56175307Y-93626201D01*
X56181374Y-93625301D01*
X56187500Y-93625000D01*
X56312500Y-93625000D01*
X56318626Y-93625301D01*
X56318626Y-93625301D01*
G37*
D13*
X56250000Y-94062500D03*
D10*
G36*
X56818626Y-93625301D02*
G01*
X56824693Y-93626201D01*
X56830643Y-93627691D01*
X56836418Y-93629758D01*
X56841962Y-93632380D01*
X56847223Y-93635533D01*
X56852150Y-93639187D01*
X56856694Y-93643306D01*
X56860813Y-93647850D01*
X56864467Y-93652777D01*
X56867620Y-93658038D01*
X56870242Y-93663582D01*
X56872309Y-93669357D01*
X56873799Y-93675307D01*
X56874699Y-93681374D01*
X56875000Y-93687500D01*
X56875000Y-94437500D01*
X56874699Y-94443626D01*
X56873799Y-94449693D01*
X56872309Y-94455643D01*
X56870242Y-94461418D01*
X56867620Y-94466962D01*
X56864467Y-94472223D01*
X56860813Y-94477150D01*
X56856694Y-94481694D01*
X56852150Y-94485813D01*
X56847223Y-94489467D01*
X56841962Y-94492620D01*
X56836418Y-94495242D01*
X56830643Y-94497309D01*
X56824693Y-94498799D01*
X56818626Y-94499699D01*
X56812500Y-94500000D01*
X56687500Y-94500000D01*
X56681374Y-94499699D01*
X56675307Y-94498799D01*
X56669357Y-94497309D01*
X56663582Y-94495242D01*
X56658038Y-94492620D01*
X56652777Y-94489467D01*
X56647850Y-94485813D01*
X56643306Y-94481694D01*
X56639187Y-94477150D01*
X56635533Y-94472223D01*
X56632380Y-94466962D01*
X56629758Y-94461418D01*
X56627691Y-94455643D01*
X56626201Y-94449693D01*
X56625301Y-94443626D01*
X56625000Y-94437500D01*
X56625000Y-93687500D01*
X56625301Y-93681374D01*
X56626201Y-93675307D01*
X56627691Y-93669357D01*
X56629758Y-93663582D01*
X56632380Y-93658038D01*
X56635533Y-93652777D01*
X56639187Y-93647850D01*
X56643306Y-93643306D01*
X56647850Y-93639187D01*
X56652777Y-93635533D01*
X56658038Y-93632380D01*
X56663582Y-93629758D01*
X56669357Y-93627691D01*
X56675307Y-93626201D01*
X56681374Y-93625301D01*
X56687500Y-93625000D01*
X56812500Y-93625000D01*
X56818626Y-93625301D01*
X56818626Y-93625301D01*
G37*
D13*
X56750000Y-94062500D03*
D10*
G36*
X57318626Y-93625301D02*
G01*
X57324693Y-93626201D01*
X57330643Y-93627691D01*
X57336418Y-93629758D01*
X57341962Y-93632380D01*
X57347223Y-93635533D01*
X57352150Y-93639187D01*
X57356694Y-93643306D01*
X57360813Y-93647850D01*
X57364467Y-93652777D01*
X57367620Y-93658038D01*
X57370242Y-93663582D01*
X57372309Y-93669357D01*
X57373799Y-93675307D01*
X57374699Y-93681374D01*
X57375000Y-93687500D01*
X57375000Y-94437500D01*
X57374699Y-94443626D01*
X57373799Y-94449693D01*
X57372309Y-94455643D01*
X57370242Y-94461418D01*
X57367620Y-94466962D01*
X57364467Y-94472223D01*
X57360813Y-94477150D01*
X57356694Y-94481694D01*
X57352150Y-94485813D01*
X57347223Y-94489467D01*
X57341962Y-94492620D01*
X57336418Y-94495242D01*
X57330643Y-94497309D01*
X57324693Y-94498799D01*
X57318626Y-94499699D01*
X57312500Y-94500000D01*
X57187500Y-94500000D01*
X57181374Y-94499699D01*
X57175307Y-94498799D01*
X57169357Y-94497309D01*
X57163582Y-94495242D01*
X57158038Y-94492620D01*
X57152777Y-94489467D01*
X57147850Y-94485813D01*
X57143306Y-94481694D01*
X57139187Y-94477150D01*
X57135533Y-94472223D01*
X57132380Y-94466962D01*
X57129758Y-94461418D01*
X57127691Y-94455643D01*
X57126201Y-94449693D01*
X57125301Y-94443626D01*
X57125000Y-94437500D01*
X57125000Y-93687500D01*
X57125301Y-93681374D01*
X57126201Y-93675307D01*
X57127691Y-93669357D01*
X57129758Y-93663582D01*
X57132380Y-93658038D01*
X57135533Y-93652777D01*
X57139187Y-93647850D01*
X57143306Y-93643306D01*
X57147850Y-93639187D01*
X57152777Y-93635533D01*
X57158038Y-93632380D01*
X57163582Y-93629758D01*
X57169357Y-93627691D01*
X57175307Y-93626201D01*
X57181374Y-93625301D01*
X57187500Y-93625000D01*
X57312500Y-93625000D01*
X57318626Y-93625301D01*
X57318626Y-93625301D01*
G37*
D13*
X57250000Y-94062500D03*
D10*
G36*
X57818626Y-93625301D02*
G01*
X57824693Y-93626201D01*
X57830643Y-93627691D01*
X57836418Y-93629758D01*
X57841962Y-93632380D01*
X57847223Y-93635533D01*
X57852150Y-93639187D01*
X57856694Y-93643306D01*
X57860813Y-93647850D01*
X57864467Y-93652777D01*
X57867620Y-93658038D01*
X57870242Y-93663582D01*
X57872309Y-93669357D01*
X57873799Y-93675307D01*
X57874699Y-93681374D01*
X57875000Y-93687500D01*
X57875000Y-94437500D01*
X57874699Y-94443626D01*
X57873799Y-94449693D01*
X57872309Y-94455643D01*
X57870242Y-94461418D01*
X57867620Y-94466962D01*
X57864467Y-94472223D01*
X57860813Y-94477150D01*
X57856694Y-94481694D01*
X57852150Y-94485813D01*
X57847223Y-94489467D01*
X57841962Y-94492620D01*
X57836418Y-94495242D01*
X57830643Y-94497309D01*
X57824693Y-94498799D01*
X57818626Y-94499699D01*
X57812500Y-94500000D01*
X57687500Y-94500000D01*
X57681374Y-94499699D01*
X57675307Y-94498799D01*
X57669357Y-94497309D01*
X57663582Y-94495242D01*
X57658038Y-94492620D01*
X57652777Y-94489467D01*
X57647850Y-94485813D01*
X57643306Y-94481694D01*
X57639187Y-94477150D01*
X57635533Y-94472223D01*
X57632380Y-94466962D01*
X57629758Y-94461418D01*
X57627691Y-94455643D01*
X57626201Y-94449693D01*
X57625301Y-94443626D01*
X57625000Y-94437500D01*
X57625000Y-93687500D01*
X57625301Y-93681374D01*
X57626201Y-93675307D01*
X57627691Y-93669357D01*
X57629758Y-93663582D01*
X57632380Y-93658038D01*
X57635533Y-93652777D01*
X57639187Y-93647850D01*
X57643306Y-93643306D01*
X57647850Y-93639187D01*
X57652777Y-93635533D01*
X57658038Y-93632380D01*
X57663582Y-93629758D01*
X57669357Y-93627691D01*
X57675307Y-93626201D01*
X57681374Y-93625301D01*
X57687500Y-93625000D01*
X57812500Y-93625000D01*
X57818626Y-93625301D01*
X57818626Y-93625301D01*
G37*
D13*
X57750000Y-94062500D03*
D10*
G36*
X58318626Y-93625301D02*
G01*
X58324693Y-93626201D01*
X58330643Y-93627691D01*
X58336418Y-93629758D01*
X58341962Y-93632380D01*
X58347223Y-93635533D01*
X58352150Y-93639187D01*
X58356694Y-93643306D01*
X58360813Y-93647850D01*
X58364467Y-93652777D01*
X58367620Y-93658038D01*
X58370242Y-93663582D01*
X58372309Y-93669357D01*
X58373799Y-93675307D01*
X58374699Y-93681374D01*
X58375000Y-93687500D01*
X58375000Y-94437500D01*
X58374699Y-94443626D01*
X58373799Y-94449693D01*
X58372309Y-94455643D01*
X58370242Y-94461418D01*
X58367620Y-94466962D01*
X58364467Y-94472223D01*
X58360813Y-94477150D01*
X58356694Y-94481694D01*
X58352150Y-94485813D01*
X58347223Y-94489467D01*
X58341962Y-94492620D01*
X58336418Y-94495242D01*
X58330643Y-94497309D01*
X58324693Y-94498799D01*
X58318626Y-94499699D01*
X58312500Y-94500000D01*
X58187500Y-94500000D01*
X58181374Y-94499699D01*
X58175307Y-94498799D01*
X58169357Y-94497309D01*
X58163582Y-94495242D01*
X58158038Y-94492620D01*
X58152777Y-94489467D01*
X58147850Y-94485813D01*
X58143306Y-94481694D01*
X58139187Y-94477150D01*
X58135533Y-94472223D01*
X58132380Y-94466962D01*
X58129758Y-94461418D01*
X58127691Y-94455643D01*
X58126201Y-94449693D01*
X58125301Y-94443626D01*
X58125000Y-94437500D01*
X58125000Y-93687500D01*
X58125301Y-93681374D01*
X58126201Y-93675307D01*
X58127691Y-93669357D01*
X58129758Y-93663582D01*
X58132380Y-93658038D01*
X58135533Y-93652777D01*
X58139187Y-93647850D01*
X58143306Y-93643306D01*
X58147850Y-93639187D01*
X58152777Y-93635533D01*
X58158038Y-93632380D01*
X58163582Y-93629758D01*
X58169357Y-93627691D01*
X58175307Y-93626201D01*
X58181374Y-93625301D01*
X58187500Y-93625000D01*
X58312500Y-93625000D01*
X58318626Y-93625301D01*
X58318626Y-93625301D01*
G37*
D13*
X58250000Y-94062500D03*
D10*
G36*
X58818626Y-93625301D02*
G01*
X58824693Y-93626201D01*
X58830643Y-93627691D01*
X58836418Y-93629758D01*
X58841962Y-93632380D01*
X58847223Y-93635533D01*
X58852150Y-93639187D01*
X58856694Y-93643306D01*
X58860813Y-93647850D01*
X58864467Y-93652777D01*
X58867620Y-93658038D01*
X58870242Y-93663582D01*
X58872309Y-93669357D01*
X58873799Y-93675307D01*
X58874699Y-93681374D01*
X58875000Y-93687500D01*
X58875000Y-94437500D01*
X58874699Y-94443626D01*
X58873799Y-94449693D01*
X58872309Y-94455643D01*
X58870242Y-94461418D01*
X58867620Y-94466962D01*
X58864467Y-94472223D01*
X58860813Y-94477150D01*
X58856694Y-94481694D01*
X58852150Y-94485813D01*
X58847223Y-94489467D01*
X58841962Y-94492620D01*
X58836418Y-94495242D01*
X58830643Y-94497309D01*
X58824693Y-94498799D01*
X58818626Y-94499699D01*
X58812500Y-94500000D01*
X58687500Y-94500000D01*
X58681374Y-94499699D01*
X58675307Y-94498799D01*
X58669357Y-94497309D01*
X58663582Y-94495242D01*
X58658038Y-94492620D01*
X58652777Y-94489467D01*
X58647850Y-94485813D01*
X58643306Y-94481694D01*
X58639187Y-94477150D01*
X58635533Y-94472223D01*
X58632380Y-94466962D01*
X58629758Y-94461418D01*
X58627691Y-94455643D01*
X58626201Y-94449693D01*
X58625301Y-94443626D01*
X58625000Y-94437500D01*
X58625000Y-93687500D01*
X58625301Y-93681374D01*
X58626201Y-93675307D01*
X58627691Y-93669357D01*
X58629758Y-93663582D01*
X58632380Y-93658038D01*
X58635533Y-93652777D01*
X58639187Y-93647850D01*
X58643306Y-93643306D01*
X58647850Y-93639187D01*
X58652777Y-93635533D01*
X58658038Y-93632380D01*
X58663582Y-93629758D01*
X58669357Y-93627691D01*
X58675307Y-93626201D01*
X58681374Y-93625301D01*
X58687500Y-93625000D01*
X58812500Y-93625000D01*
X58818626Y-93625301D01*
X58818626Y-93625301D01*
G37*
D13*
X58750000Y-94062500D03*
D10*
G36*
X59318626Y-93625301D02*
G01*
X59324693Y-93626201D01*
X59330643Y-93627691D01*
X59336418Y-93629758D01*
X59341962Y-93632380D01*
X59347223Y-93635533D01*
X59352150Y-93639187D01*
X59356694Y-93643306D01*
X59360813Y-93647850D01*
X59364467Y-93652777D01*
X59367620Y-93658038D01*
X59370242Y-93663582D01*
X59372309Y-93669357D01*
X59373799Y-93675307D01*
X59374699Y-93681374D01*
X59375000Y-93687500D01*
X59375000Y-94437500D01*
X59374699Y-94443626D01*
X59373799Y-94449693D01*
X59372309Y-94455643D01*
X59370242Y-94461418D01*
X59367620Y-94466962D01*
X59364467Y-94472223D01*
X59360813Y-94477150D01*
X59356694Y-94481694D01*
X59352150Y-94485813D01*
X59347223Y-94489467D01*
X59341962Y-94492620D01*
X59336418Y-94495242D01*
X59330643Y-94497309D01*
X59324693Y-94498799D01*
X59318626Y-94499699D01*
X59312500Y-94500000D01*
X59187500Y-94500000D01*
X59181374Y-94499699D01*
X59175307Y-94498799D01*
X59169357Y-94497309D01*
X59163582Y-94495242D01*
X59158038Y-94492620D01*
X59152777Y-94489467D01*
X59147850Y-94485813D01*
X59143306Y-94481694D01*
X59139187Y-94477150D01*
X59135533Y-94472223D01*
X59132380Y-94466962D01*
X59129758Y-94461418D01*
X59127691Y-94455643D01*
X59126201Y-94449693D01*
X59125301Y-94443626D01*
X59125000Y-94437500D01*
X59125000Y-93687500D01*
X59125301Y-93681374D01*
X59126201Y-93675307D01*
X59127691Y-93669357D01*
X59129758Y-93663582D01*
X59132380Y-93658038D01*
X59135533Y-93652777D01*
X59139187Y-93647850D01*
X59143306Y-93643306D01*
X59147850Y-93639187D01*
X59152777Y-93635533D01*
X59158038Y-93632380D01*
X59163582Y-93629758D01*
X59169357Y-93627691D01*
X59175307Y-93626201D01*
X59181374Y-93625301D01*
X59187500Y-93625000D01*
X59312500Y-93625000D01*
X59318626Y-93625301D01*
X59318626Y-93625301D01*
G37*
D13*
X59250000Y-94062500D03*
D10*
G36*
X59818626Y-93625301D02*
G01*
X59824693Y-93626201D01*
X59830643Y-93627691D01*
X59836418Y-93629758D01*
X59841962Y-93632380D01*
X59847223Y-93635533D01*
X59852150Y-93639187D01*
X59856694Y-93643306D01*
X59860813Y-93647850D01*
X59864467Y-93652777D01*
X59867620Y-93658038D01*
X59870242Y-93663582D01*
X59872309Y-93669357D01*
X59873799Y-93675307D01*
X59874699Y-93681374D01*
X59875000Y-93687500D01*
X59875000Y-94437500D01*
X59874699Y-94443626D01*
X59873799Y-94449693D01*
X59872309Y-94455643D01*
X59870242Y-94461418D01*
X59867620Y-94466962D01*
X59864467Y-94472223D01*
X59860813Y-94477150D01*
X59856694Y-94481694D01*
X59852150Y-94485813D01*
X59847223Y-94489467D01*
X59841962Y-94492620D01*
X59836418Y-94495242D01*
X59830643Y-94497309D01*
X59824693Y-94498799D01*
X59818626Y-94499699D01*
X59812500Y-94500000D01*
X59687500Y-94500000D01*
X59681374Y-94499699D01*
X59675307Y-94498799D01*
X59669357Y-94497309D01*
X59663582Y-94495242D01*
X59658038Y-94492620D01*
X59652777Y-94489467D01*
X59647850Y-94485813D01*
X59643306Y-94481694D01*
X59639187Y-94477150D01*
X59635533Y-94472223D01*
X59632380Y-94466962D01*
X59629758Y-94461418D01*
X59627691Y-94455643D01*
X59626201Y-94449693D01*
X59625301Y-94443626D01*
X59625000Y-94437500D01*
X59625000Y-93687500D01*
X59625301Y-93681374D01*
X59626201Y-93675307D01*
X59627691Y-93669357D01*
X59629758Y-93663582D01*
X59632380Y-93658038D01*
X59635533Y-93652777D01*
X59639187Y-93647850D01*
X59643306Y-93643306D01*
X59647850Y-93639187D01*
X59652777Y-93635533D01*
X59658038Y-93632380D01*
X59663582Y-93629758D01*
X59669357Y-93627691D01*
X59675307Y-93626201D01*
X59681374Y-93625301D01*
X59687500Y-93625000D01*
X59812500Y-93625000D01*
X59818626Y-93625301D01*
X59818626Y-93625301D01*
G37*
D13*
X59750000Y-94062500D03*
D10*
G36*
X60318626Y-93625301D02*
G01*
X60324693Y-93626201D01*
X60330643Y-93627691D01*
X60336418Y-93629758D01*
X60341962Y-93632380D01*
X60347223Y-93635533D01*
X60352150Y-93639187D01*
X60356694Y-93643306D01*
X60360813Y-93647850D01*
X60364467Y-93652777D01*
X60367620Y-93658038D01*
X60370242Y-93663582D01*
X60372309Y-93669357D01*
X60373799Y-93675307D01*
X60374699Y-93681374D01*
X60375000Y-93687500D01*
X60375000Y-94437500D01*
X60374699Y-94443626D01*
X60373799Y-94449693D01*
X60372309Y-94455643D01*
X60370242Y-94461418D01*
X60367620Y-94466962D01*
X60364467Y-94472223D01*
X60360813Y-94477150D01*
X60356694Y-94481694D01*
X60352150Y-94485813D01*
X60347223Y-94489467D01*
X60341962Y-94492620D01*
X60336418Y-94495242D01*
X60330643Y-94497309D01*
X60324693Y-94498799D01*
X60318626Y-94499699D01*
X60312500Y-94500000D01*
X60187500Y-94500000D01*
X60181374Y-94499699D01*
X60175307Y-94498799D01*
X60169357Y-94497309D01*
X60163582Y-94495242D01*
X60158038Y-94492620D01*
X60152777Y-94489467D01*
X60147850Y-94485813D01*
X60143306Y-94481694D01*
X60139187Y-94477150D01*
X60135533Y-94472223D01*
X60132380Y-94466962D01*
X60129758Y-94461418D01*
X60127691Y-94455643D01*
X60126201Y-94449693D01*
X60125301Y-94443626D01*
X60125000Y-94437500D01*
X60125000Y-93687500D01*
X60125301Y-93681374D01*
X60126201Y-93675307D01*
X60127691Y-93669357D01*
X60129758Y-93663582D01*
X60132380Y-93658038D01*
X60135533Y-93652777D01*
X60139187Y-93647850D01*
X60143306Y-93643306D01*
X60147850Y-93639187D01*
X60152777Y-93635533D01*
X60158038Y-93632380D01*
X60163582Y-93629758D01*
X60169357Y-93627691D01*
X60175307Y-93626201D01*
X60181374Y-93625301D01*
X60187500Y-93625000D01*
X60312500Y-93625000D01*
X60318626Y-93625301D01*
X60318626Y-93625301D01*
G37*
D13*
X60250000Y-94062500D03*
D10*
G36*
X60818626Y-93625301D02*
G01*
X60824693Y-93626201D01*
X60830643Y-93627691D01*
X60836418Y-93629758D01*
X60841962Y-93632380D01*
X60847223Y-93635533D01*
X60852150Y-93639187D01*
X60856694Y-93643306D01*
X60860813Y-93647850D01*
X60864467Y-93652777D01*
X60867620Y-93658038D01*
X60870242Y-93663582D01*
X60872309Y-93669357D01*
X60873799Y-93675307D01*
X60874699Y-93681374D01*
X60875000Y-93687500D01*
X60875000Y-94437500D01*
X60874699Y-94443626D01*
X60873799Y-94449693D01*
X60872309Y-94455643D01*
X60870242Y-94461418D01*
X60867620Y-94466962D01*
X60864467Y-94472223D01*
X60860813Y-94477150D01*
X60856694Y-94481694D01*
X60852150Y-94485813D01*
X60847223Y-94489467D01*
X60841962Y-94492620D01*
X60836418Y-94495242D01*
X60830643Y-94497309D01*
X60824693Y-94498799D01*
X60818626Y-94499699D01*
X60812500Y-94500000D01*
X60687500Y-94500000D01*
X60681374Y-94499699D01*
X60675307Y-94498799D01*
X60669357Y-94497309D01*
X60663582Y-94495242D01*
X60658038Y-94492620D01*
X60652777Y-94489467D01*
X60647850Y-94485813D01*
X60643306Y-94481694D01*
X60639187Y-94477150D01*
X60635533Y-94472223D01*
X60632380Y-94466962D01*
X60629758Y-94461418D01*
X60627691Y-94455643D01*
X60626201Y-94449693D01*
X60625301Y-94443626D01*
X60625000Y-94437500D01*
X60625000Y-93687500D01*
X60625301Y-93681374D01*
X60626201Y-93675307D01*
X60627691Y-93669357D01*
X60629758Y-93663582D01*
X60632380Y-93658038D01*
X60635533Y-93652777D01*
X60639187Y-93647850D01*
X60643306Y-93643306D01*
X60647850Y-93639187D01*
X60652777Y-93635533D01*
X60658038Y-93632380D01*
X60663582Y-93629758D01*
X60669357Y-93627691D01*
X60675307Y-93626201D01*
X60681374Y-93625301D01*
X60687500Y-93625000D01*
X60812500Y-93625000D01*
X60818626Y-93625301D01*
X60818626Y-93625301D01*
G37*
D13*
X60750000Y-94062500D03*
D10*
G36*
X61318626Y-93625301D02*
G01*
X61324693Y-93626201D01*
X61330643Y-93627691D01*
X61336418Y-93629758D01*
X61341962Y-93632380D01*
X61347223Y-93635533D01*
X61352150Y-93639187D01*
X61356694Y-93643306D01*
X61360813Y-93647850D01*
X61364467Y-93652777D01*
X61367620Y-93658038D01*
X61370242Y-93663582D01*
X61372309Y-93669357D01*
X61373799Y-93675307D01*
X61374699Y-93681374D01*
X61375000Y-93687500D01*
X61375000Y-94437500D01*
X61374699Y-94443626D01*
X61373799Y-94449693D01*
X61372309Y-94455643D01*
X61370242Y-94461418D01*
X61367620Y-94466962D01*
X61364467Y-94472223D01*
X61360813Y-94477150D01*
X61356694Y-94481694D01*
X61352150Y-94485813D01*
X61347223Y-94489467D01*
X61341962Y-94492620D01*
X61336418Y-94495242D01*
X61330643Y-94497309D01*
X61324693Y-94498799D01*
X61318626Y-94499699D01*
X61312500Y-94500000D01*
X61187500Y-94500000D01*
X61181374Y-94499699D01*
X61175307Y-94498799D01*
X61169357Y-94497309D01*
X61163582Y-94495242D01*
X61158038Y-94492620D01*
X61152777Y-94489467D01*
X61147850Y-94485813D01*
X61143306Y-94481694D01*
X61139187Y-94477150D01*
X61135533Y-94472223D01*
X61132380Y-94466962D01*
X61129758Y-94461418D01*
X61127691Y-94455643D01*
X61126201Y-94449693D01*
X61125301Y-94443626D01*
X61125000Y-94437500D01*
X61125000Y-93687500D01*
X61125301Y-93681374D01*
X61126201Y-93675307D01*
X61127691Y-93669357D01*
X61129758Y-93663582D01*
X61132380Y-93658038D01*
X61135533Y-93652777D01*
X61139187Y-93647850D01*
X61143306Y-93643306D01*
X61147850Y-93639187D01*
X61152777Y-93635533D01*
X61158038Y-93632380D01*
X61163582Y-93629758D01*
X61169357Y-93627691D01*
X61175307Y-93626201D01*
X61181374Y-93625301D01*
X61187500Y-93625000D01*
X61312500Y-93625000D01*
X61318626Y-93625301D01*
X61318626Y-93625301D01*
G37*
D13*
X61250000Y-94062500D03*
D10*
G36*
X61818626Y-93625301D02*
G01*
X61824693Y-93626201D01*
X61830643Y-93627691D01*
X61836418Y-93629758D01*
X61841962Y-93632380D01*
X61847223Y-93635533D01*
X61852150Y-93639187D01*
X61856694Y-93643306D01*
X61860813Y-93647850D01*
X61864467Y-93652777D01*
X61867620Y-93658038D01*
X61870242Y-93663582D01*
X61872309Y-93669357D01*
X61873799Y-93675307D01*
X61874699Y-93681374D01*
X61875000Y-93687500D01*
X61875000Y-94437500D01*
X61874699Y-94443626D01*
X61873799Y-94449693D01*
X61872309Y-94455643D01*
X61870242Y-94461418D01*
X61867620Y-94466962D01*
X61864467Y-94472223D01*
X61860813Y-94477150D01*
X61856694Y-94481694D01*
X61852150Y-94485813D01*
X61847223Y-94489467D01*
X61841962Y-94492620D01*
X61836418Y-94495242D01*
X61830643Y-94497309D01*
X61824693Y-94498799D01*
X61818626Y-94499699D01*
X61812500Y-94500000D01*
X61687500Y-94500000D01*
X61681374Y-94499699D01*
X61675307Y-94498799D01*
X61669357Y-94497309D01*
X61663582Y-94495242D01*
X61658038Y-94492620D01*
X61652777Y-94489467D01*
X61647850Y-94485813D01*
X61643306Y-94481694D01*
X61639187Y-94477150D01*
X61635533Y-94472223D01*
X61632380Y-94466962D01*
X61629758Y-94461418D01*
X61627691Y-94455643D01*
X61626201Y-94449693D01*
X61625301Y-94443626D01*
X61625000Y-94437500D01*
X61625000Y-93687500D01*
X61625301Y-93681374D01*
X61626201Y-93675307D01*
X61627691Y-93669357D01*
X61629758Y-93663582D01*
X61632380Y-93658038D01*
X61635533Y-93652777D01*
X61639187Y-93647850D01*
X61643306Y-93643306D01*
X61647850Y-93639187D01*
X61652777Y-93635533D01*
X61658038Y-93632380D01*
X61663582Y-93629758D01*
X61669357Y-93627691D01*
X61675307Y-93626201D01*
X61681374Y-93625301D01*
X61687500Y-93625000D01*
X61812500Y-93625000D01*
X61818626Y-93625301D01*
X61818626Y-93625301D01*
G37*
D13*
X61750000Y-94062500D03*
D10*
G36*
X61424502Y-94851204D02*
G01*
X61448770Y-94854804D01*
X61472569Y-94860765D01*
X61495669Y-94869030D01*
X61517848Y-94879520D01*
X61538891Y-94892133D01*
X61558597Y-94906748D01*
X61576776Y-94923224D01*
X61593252Y-94941403D01*
X61607867Y-94961109D01*
X61620480Y-94982152D01*
X61630970Y-95004331D01*
X61639235Y-95027431D01*
X61645196Y-95051230D01*
X61648796Y-95075498D01*
X61650000Y-95100003D01*
X61650000Y-101899997D01*
X61648796Y-101924502D01*
X61645196Y-101948770D01*
X61639235Y-101972569D01*
X61630970Y-101995669D01*
X61620480Y-102017848D01*
X61607867Y-102038891D01*
X61593252Y-102058597D01*
X61576776Y-102076776D01*
X61558597Y-102093252D01*
X61538891Y-102107867D01*
X61517848Y-102120480D01*
X61495669Y-102130970D01*
X61472569Y-102139235D01*
X61448770Y-102145196D01*
X61424502Y-102148796D01*
X61399997Y-102150000D01*
X54600003Y-102150000D01*
X54575498Y-102148796D01*
X54551230Y-102145196D01*
X54527431Y-102139235D01*
X54504331Y-102130970D01*
X54482152Y-102120480D01*
X54461109Y-102107867D01*
X54441403Y-102093252D01*
X54423224Y-102076776D01*
X54406748Y-102058597D01*
X54392133Y-102038891D01*
X54379520Y-102017848D01*
X54369030Y-101995669D01*
X54360765Y-101972569D01*
X54354804Y-101948770D01*
X54351204Y-101924502D01*
X54350000Y-101899997D01*
X54350000Y-95100003D01*
X54351204Y-95075498D01*
X54354804Y-95051230D01*
X54360765Y-95027431D01*
X54369030Y-95004331D01*
X54379520Y-94982152D01*
X54392133Y-94961109D01*
X54406748Y-94941403D01*
X54423224Y-94923224D01*
X54441403Y-94906748D01*
X54461109Y-94892133D01*
X54482152Y-94879520D01*
X54504331Y-94869030D01*
X54527431Y-94860765D01*
X54551230Y-94854804D01*
X54575498Y-94851204D01*
X54600003Y-94850000D01*
X61399997Y-94850000D01*
X61424502Y-94851204D01*
X61424502Y-94851204D01*
G37*
D14*
X58000000Y-98500000D03*
D10*
G36*
X57732458Y-104371710D02*
G01*
X57746776Y-104373834D01*
X57760817Y-104377351D01*
X57774446Y-104382228D01*
X57787531Y-104388417D01*
X57799947Y-104395858D01*
X57811573Y-104404481D01*
X57822298Y-104414202D01*
X57832019Y-104424927D01*
X57840642Y-104436553D01*
X57848083Y-104448969D01*
X57854272Y-104462054D01*
X57859149Y-104475683D01*
X57862666Y-104489724D01*
X57864790Y-104504042D01*
X57865500Y-104518500D01*
X57865500Y-104863500D01*
X57864790Y-104877958D01*
X57862666Y-104892276D01*
X57859149Y-104906317D01*
X57854272Y-104919946D01*
X57848083Y-104933031D01*
X57840642Y-104945447D01*
X57832019Y-104957073D01*
X57822298Y-104967798D01*
X57811573Y-104977519D01*
X57799947Y-104986142D01*
X57787531Y-104993583D01*
X57774446Y-104999772D01*
X57760817Y-105004649D01*
X57746776Y-105008166D01*
X57732458Y-105010290D01*
X57718000Y-105011000D01*
X57423000Y-105011000D01*
X57408542Y-105010290D01*
X57394224Y-105008166D01*
X57380183Y-105004649D01*
X57366554Y-104999772D01*
X57353469Y-104993583D01*
X57341053Y-104986142D01*
X57329427Y-104977519D01*
X57318702Y-104967798D01*
X57308981Y-104957073D01*
X57300358Y-104945447D01*
X57292917Y-104933031D01*
X57286728Y-104919946D01*
X57281851Y-104906317D01*
X57278334Y-104892276D01*
X57276210Y-104877958D01*
X57275500Y-104863500D01*
X57275500Y-104518500D01*
X57276210Y-104504042D01*
X57278334Y-104489724D01*
X57281851Y-104475683D01*
X57286728Y-104462054D01*
X57292917Y-104448969D01*
X57300358Y-104436553D01*
X57308981Y-104424927D01*
X57318702Y-104414202D01*
X57329427Y-104404481D01*
X57341053Y-104395858D01*
X57353469Y-104388417D01*
X57366554Y-104382228D01*
X57380183Y-104377351D01*
X57394224Y-104373834D01*
X57408542Y-104371710D01*
X57423000Y-104371000D01*
X57718000Y-104371000D01*
X57732458Y-104371710D01*
X57732458Y-104371710D01*
G37*
D11*
X57570500Y-104691000D03*
D10*
G36*
X58702458Y-104371710D02*
G01*
X58716776Y-104373834D01*
X58730817Y-104377351D01*
X58744446Y-104382228D01*
X58757531Y-104388417D01*
X58769947Y-104395858D01*
X58781573Y-104404481D01*
X58792298Y-104414202D01*
X58802019Y-104424927D01*
X58810642Y-104436553D01*
X58818083Y-104448969D01*
X58824272Y-104462054D01*
X58829149Y-104475683D01*
X58832666Y-104489724D01*
X58834790Y-104504042D01*
X58835500Y-104518500D01*
X58835500Y-104863500D01*
X58834790Y-104877958D01*
X58832666Y-104892276D01*
X58829149Y-104906317D01*
X58824272Y-104919946D01*
X58818083Y-104933031D01*
X58810642Y-104945447D01*
X58802019Y-104957073D01*
X58792298Y-104967798D01*
X58781573Y-104977519D01*
X58769947Y-104986142D01*
X58757531Y-104993583D01*
X58744446Y-104999772D01*
X58730817Y-105004649D01*
X58716776Y-105008166D01*
X58702458Y-105010290D01*
X58688000Y-105011000D01*
X58393000Y-105011000D01*
X58378542Y-105010290D01*
X58364224Y-105008166D01*
X58350183Y-105004649D01*
X58336554Y-104999772D01*
X58323469Y-104993583D01*
X58311053Y-104986142D01*
X58299427Y-104977519D01*
X58288702Y-104967798D01*
X58278981Y-104957073D01*
X58270358Y-104945447D01*
X58262917Y-104933031D01*
X58256728Y-104919946D01*
X58251851Y-104906317D01*
X58248334Y-104892276D01*
X58246210Y-104877958D01*
X58245500Y-104863500D01*
X58245500Y-104518500D01*
X58246210Y-104504042D01*
X58248334Y-104489724D01*
X58251851Y-104475683D01*
X58256728Y-104462054D01*
X58262917Y-104448969D01*
X58270358Y-104436553D01*
X58278981Y-104424927D01*
X58288702Y-104414202D01*
X58299427Y-104404481D01*
X58311053Y-104395858D01*
X58323469Y-104388417D01*
X58336554Y-104382228D01*
X58350183Y-104377351D01*
X58364224Y-104373834D01*
X58378542Y-104371710D01*
X58393000Y-104371000D01*
X58688000Y-104371000D01*
X58702458Y-104371710D01*
X58702458Y-104371710D01*
G37*
D11*
X58540500Y-104691000D03*
D10*
G36*
X64189189Y-100283989D02*
G01*
X64203507Y-100286113D01*
X64217548Y-100289630D01*
X64231177Y-100294507D01*
X64244262Y-100300696D01*
X64256678Y-100308137D01*
X64268304Y-100316760D01*
X64279029Y-100326481D01*
X64487625Y-100535077D01*
X64497346Y-100545802D01*
X64505969Y-100557428D01*
X64513410Y-100569844D01*
X64519599Y-100582929D01*
X64524476Y-100596558D01*
X64527993Y-100610599D01*
X64530117Y-100624917D01*
X64530827Y-100639375D01*
X64530117Y-100653833D01*
X64527993Y-100668151D01*
X64524476Y-100682192D01*
X64519599Y-100695821D01*
X64513410Y-100708906D01*
X64505969Y-100721322D01*
X64497346Y-100732948D01*
X64487625Y-100743673D01*
X64243673Y-100987625D01*
X64232948Y-100997346D01*
X64221322Y-101005969D01*
X64208906Y-101013410D01*
X64195821Y-101019599D01*
X64182192Y-101024476D01*
X64168151Y-101027993D01*
X64153833Y-101030117D01*
X64139375Y-101030827D01*
X64124917Y-101030117D01*
X64110599Y-101027993D01*
X64096558Y-101024476D01*
X64082929Y-101019599D01*
X64069844Y-101013410D01*
X64057428Y-101005969D01*
X64045802Y-100997346D01*
X64035077Y-100987625D01*
X63826481Y-100779029D01*
X63816760Y-100768304D01*
X63808137Y-100756678D01*
X63800696Y-100744262D01*
X63794507Y-100731177D01*
X63789630Y-100717548D01*
X63786113Y-100703507D01*
X63783989Y-100689189D01*
X63783279Y-100674731D01*
X63783989Y-100660273D01*
X63786113Y-100645955D01*
X63789630Y-100631914D01*
X63794507Y-100618285D01*
X63800696Y-100605200D01*
X63808137Y-100592784D01*
X63816760Y-100581158D01*
X63826481Y-100570433D01*
X64070433Y-100326481D01*
X64081158Y-100316760D01*
X64092784Y-100308137D01*
X64105200Y-100300696D01*
X64118285Y-100294507D01*
X64131914Y-100289630D01*
X64145955Y-100286113D01*
X64160273Y-100283989D01*
X64174731Y-100283279D01*
X64189189Y-100283989D01*
X64189189Y-100283989D01*
G37*
D11*
X64157053Y-100657053D03*
D10*
G36*
X64875083Y-100969883D02*
G01*
X64889401Y-100972007D01*
X64903442Y-100975524D01*
X64917071Y-100980401D01*
X64930156Y-100986590D01*
X64942572Y-100994031D01*
X64954198Y-101002654D01*
X64964923Y-101012375D01*
X65173519Y-101220971D01*
X65183240Y-101231696D01*
X65191863Y-101243322D01*
X65199304Y-101255738D01*
X65205493Y-101268823D01*
X65210370Y-101282452D01*
X65213887Y-101296493D01*
X65216011Y-101310811D01*
X65216721Y-101325269D01*
X65216011Y-101339727D01*
X65213887Y-101354045D01*
X65210370Y-101368086D01*
X65205493Y-101381715D01*
X65199304Y-101394800D01*
X65191863Y-101407216D01*
X65183240Y-101418842D01*
X65173519Y-101429567D01*
X64929567Y-101673519D01*
X64918842Y-101683240D01*
X64907216Y-101691863D01*
X64894800Y-101699304D01*
X64881715Y-101705493D01*
X64868086Y-101710370D01*
X64854045Y-101713887D01*
X64839727Y-101716011D01*
X64825269Y-101716721D01*
X64810811Y-101716011D01*
X64796493Y-101713887D01*
X64782452Y-101710370D01*
X64768823Y-101705493D01*
X64755738Y-101699304D01*
X64743322Y-101691863D01*
X64731696Y-101683240D01*
X64720971Y-101673519D01*
X64512375Y-101464923D01*
X64502654Y-101454198D01*
X64494031Y-101442572D01*
X64486590Y-101430156D01*
X64480401Y-101417071D01*
X64475524Y-101403442D01*
X64472007Y-101389401D01*
X64469883Y-101375083D01*
X64469173Y-101360625D01*
X64469883Y-101346167D01*
X64472007Y-101331849D01*
X64475524Y-101317808D01*
X64480401Y-101304179D01*
X64486590Y-101291094D01*
X64494031Y-101278678D01*
X64502654Y-101267052D01*
X64512375Y-101256327D01*
X64756327Y-101012375D01*
X64767052Y-101002654D01*
X64778678Y-100994031D01*
X64791094Y-100986590D01*
X64804179Y-100980401D01*
X64817808Y-100975524D01*
X64831849Y-100972007D01*
X64846167Y-100969883D01*
X64860625Y-100969173D01*
X64875083Y-100969883D01*
X64875083Y-100969883D01*
G37*
D11*
X64842947Y-101342947D03*
D10*
G36*
X63694689Y-102049989D02*
G01*
X63709007Y-102052113D01*
X63723048Y-102055630D01*
X63736677Y-102060507D01*
X63749762Y-102066696D01*
X63762178Y-102074137D01*
X63773804Y-102082760D01*
X63784529Y-102092481D01*
X63993125Y-102301077D01*
X64002846Y-102311802D01*
X64011469Y-102323428D01*
X64018910Y-102335844D01*
X64025099Y-102348929D01*
X64029976Y-102362558D01*
X64033493Y-102376599D01*
X64035617Y-102390917D01*
X64036327Y-102405375D01*
X64035617Y-102419833D01*
X64033493Y-102434151D01*
X64029976Y-102448192D01*
X64025099Y-102461821D01*
X64018910Y-102474906D01*
X64011469Y-102487322D01*
X64002846Y-102498948D01*
X63993125Y-102509673D01*
X63749173Y-102753625D01*
X63738448Y-102763346D01*
X63726822Y-102771969D01*
X63714406Y-102779410D01*
X63701321Y-102785599D01*
X63687692Y-102790476D01*
X63673651Y-102793993D01*
X63659333Y-102796117D01*
X63644875Y-102796827D01*
X63630417Y-102796117D01*
X63616099Y-102793993D01*
X63602058Y-102790476D01*
X63588429Y-102785599D01*
X63575344Y-102779410D01*
X63562928Y-102771969D01*
X63551302Y-102763346D01*
X63540577Y-102753625D01*
X63331981Y-102545029D01*
X63322260Y-102534304D01*
X63313637Y-102522678D01*
X63306196Y-102510262D01*
X63300007Y-102497177D01*
X63295130Y-102483548D01*
X63291613Y-102469507D01*
X63289489Y-102455189D01*
X63288779Y-102440731D01*
X63289489Y-102426273D01*
X63291613Y-102411955D01*
X63295130Y-102397914D01*
X63300007Y-102384285D01*
X63306196Y-102371200D01*
X63313637Y-102358784D01*
X63322260Y-102347158D01*
X63331981Y-102336433D01*
X63575933Y-102092481D01*
X63586658Y-102082760D01*
X63598284Y-102074137D01*
X63610700Y-102066696D01*
X63623785Y-102060507D01*
X63637414Y-102055630D01*
X63651455Y-102052113D01*
X63665773Y-102049989D01*
X63680231Y-102049279D01*
X63694689Y-102049989D01*
X63694689Y-102049989D01*
G37*
D11*
X63662553Y-102423053D03*
D10*
G36*
X64380583Y-102735883D02*
G01*
X64394901Y-102738007D01*
X64408942Y-102741524D01*
X64422571Y-102746401D01*
X64435656Y-102752590D01*
X64448072Y-102760031D01*
X64459698Y-102768654D01*
X64470423Y-102778375D01*
X64679019Y-102986971D01*
X64688740Y-102997696D01*
X64697363Y-103009322D01*
X64704804Y-103021738D01*
X64710993Y-103034823D01*
X64715870Y-103048452D01*
X64719387Y-103062493D01*
X64721511Y-103076811D01*
X64722221Y-103091269D01*
X64721511Y-103105727D01*
X64719387Y-103120045D01*
X64715870Y-103134086D01*
X64710993Y-103147715D01*
X64704804Y-103160800D01*
X64697363Y-103173216D01*
X64688740Y-103184842D01*
X64679019Y-103195567D01*
X64435067Y-103439519D01*
X64424342Y-103449240D01*
X64412716Y-103457863D01*
X64400300Y-103465304D01*
X64387215Y-103471493D01*
X64373586Y-103476370D01*
X64359545Y-103479887D01*
X64345227Y-103482011D01*
X64330769Y-103482721D01*
X64316311Y-103482011D01*
X64301993Y-103479887D01*
X64287952Y-103476370D01*
X64274323Y-103471493D01*
X64261238Y-103465304D01*
X64248822Y-103457863D01*
X64237196Y-103449240D01*
X64226471Y-103439519D01*
X64017875Y-103230923D01*
X64008154Y-103220198D01*
X63999531Y-103208572D01*
X63992090Y-103196156D01*
X63985901Y-103183071D01*
X63981024Y-103169442D01*
X63977507Y-103155401D01*
X63975383Y-103141083D01*
X63974673Y-103126625D01*
X63975383Y-103112167D01*
X63977507Y-103097849D01*
X63981024Y-103083808D01*
X63985901Y-103070179D01*
X63992090Y-103057094D01*
X63999531Y-103044678D01*
X64008154Y-103033052D01*
X64017875Y-103022327D01*
X64261827Y-102778375D01*
X64272552Y-102768654D01*
X64284178Y-102760031D01*
X64296594Y-102752590D01*
X64309679Y-102746401D01*
X64323308Y-102741524D01*
X64337349Y-102738007D01*
X64351667Y-102735883D01*
X64366125Y-102735173D01*
X64380583Y-102735883D01*
X64380583Y-102735883D01*
G37*
D11*
X64348447Y-103108947D03*
D10*
G36*
X58532458Y-105421710D02*
G01*
X58546776Y-105423834D01*
X58560817Y-105427351D01*
X58574446Y-105432228D01*
X58587531Y-105438417D01*
X58599947Y-105445858D01*
X58611573Y-105454481D01*
X58622298Y-105464202D01*
X58632019Y-105474927D01*
X58640642Y-105486553D01*
X58648083Y-105498969D01*
X58654272Y-105512054D01*
X58659149Y-105525683D01*
X58662666Y-105539724D01*
X58664790Y-105554042D01*
X58665500Y-105568500D01*
X58665500Y-105913500D01*
X58664790Y-105927958D01*
X58662666Y-105942276D01*
X58659149Y-105956317D01*
X58654272Y-105969946D01*
X58648083Y-105983031D01*
X58640642Y-105995447D01*
X58632019Y-106007073D01*
X58622298Y-106017798D01*
X58611573Y-106027519D01*
X58599947Y-106036142D01*
X58587531Y-106043583D01*
X58574446Y-106049772D01*
X58560817Y-106054649D01*
X58546776Y-106058166D01*
X58532458Y-106060290D01*
X58518000Y-106061000D01*
X58223000Y-106061000D01*
X58208542Y-106060290D01*
X58194224Y-106058166D01*
X58180183Y-106054649D01*
X58166554Y-106049772D01*
X58153469Y-106043583D01*
X58141053Y-106036142D01*
X58129427Y-106027519D01*
X58118702Y-106017798D01*
X58108981Y-106007073D01*
X58100358Y-105995447D01*
X58092917Y-105983031D01*
X58086728Y-105969946D01*
X58081851Y-105956317D01*
X58078334Y-105942276D01*
X58076210Y-105927958D01*
X58075500Y-105913500D01*
X58075500Y-105568500D01*
X58076210Y-105554042D01*
X58078334Y-105539724D01*
X58081851Y-105525683D01*
X58086728Y-105512054D01*
X58092917Y-105498969D01*
X58100358Y-105486553D01*
X58108981Y-105474927D01*
X58118702Y-105464202D01*
X58129427Y-105454481D01*
X58141053Y-105445858D01*
X58153469Y-105438417D01*
X58166554Y-105432228D01*
X58180183Y-105427351D01*
X58194224Y-105423834D01*
X58208542Y-105421710D01*
X58223000Y-105421000D01*
X58518000Y-105421000D01*
X58532458Y-105421710D01*
X58532458Y-105421710D01*
G37*
D11*
X58370500Y-105741000D03*
D10*
G36*
X59502458Y-105421710D02*
G01*
X59516776Y-105423834D01*
X59530817Y-105427351D01*
X59544446Y-105432228D01*
X59557531Y-105438417D01*
X59569947Y-105445858D01*
X59581573Y-105454481D01*
X59592298Y-105464202D01*
X59602019Y-105474927D01*
X59610642Y-105486553D01*
X59618083Y-105498969D01*
X59624272Y-105512054D01*
X59629149Y-105525683D01*
X59632666Y-105539724D01*
X59634790Y-105554042D01*
X59635500Y-105568500D01*
X59635500Y-105913500D01*
X59634790Y-105927958D01*
X59632666Y-105942276D01*
X59629149Y-105956317D01*
X59624272Y-105969946D01*
X59618083Y-105983031D01*
X59610642Y-105995447D01*
X59602019Y-106007073D01*
X59592298Y-106017798D01*
X59581573Y-106027519D01*
X59569947Y-106036142D01*
X59557531Y-106043583D01*
X59544446Y-106049772D01*
X59530817Y-106054649D01*
X59516776Y-106058166D01*
X59502458Y-106060290D01*
X59488000Y-106061000D01*
X59193000Y-106061000D01*
X59178542Y-106060290D01*
X59164224Y-106058166D01*
X59150183Y-106054649D01*
X59136554Y-106049772D01*
X59123469Y-106043583D01*
X59111053Y-106036142D01*
X59099427Y-106027519D01*
X59088702Y-106017798D01*
X59078981Y-106007073D01*
X59070358Y-105995447D01*
X59062917Y-105983031D01*
X59056728Y-105969946D01*
X59051851Y-105956317D01*
X59048334Y-105942276D01*
X59046210Y-105927958D01*
X59045500Y-105913500D01*
X59045500Y-105568500D01*
X59046210Y-105554042D01*
X59048334Y-105539724D01*
X59051851Y-105525683D01*
X59056728Y-105512054D01*
X59062917Y-105498969D01*
X59070358Y-105486553D01*
X59078981Y-105474927D01*
X59088702Y-105464202D01*
X59099427Y-105454481D01*
X59111053Y-105445858D01*
X59123469Y-105438417D01*
X59136554Y-105432228D01*
X59150183Y-105427351D01*
X59164224Y-105423834D01*
X59178542Y-105421710D01*
X59193000Y-105421000D01*
X59488000Y-105421000D01*
X59502458Y-105421710D01*
X59502458Y-105421710D01*
G37*
D11*
X59340500Y-105741000D03*
D10*
G36*
X67696458Y-92919710D02*
G01*
X67710776Y-92921834D01*
X67724817Y-92925351D01*
X67738446Y-92930228D01*
X67751531Y-92936417D01*
X67763947Y-92943858D01*
X67775573Y-92952481D01*
X67786298Y-92962202D01*
X67796019Y-92972927D01*
X67804642Y-92984553D01*
X67812083Y-92996969D01*
X67818272Y-93010054D01*
X67823149Y-93023683D01*
X67826666Y-93037724D01*
X67828790Y-93052042D01*
X67829500Y-93066500D01*
X67829500Y-93411500D01*
X67828790Y-93425958D01*
X67826666Y-93440276D01*
X67823149Y-93454317D01*
X67818272Y-93467946D01*
X67812083Y-93481031D01*
X67804642Y-93493447D01*
X67796019Y-93505073D01*
X67786298Y-93515798D01*
X67775573Y-93525519D01*
X67763947Y-93534142D01*
X67751531Y-93541583D01*
X67738446Y-93547772D01*
X67724817Y-93552649D01*
X67710776Y-93556166D01*
X67696458Y-93558290D01*
X67682000Y-93559000D01*
X67387000Y-93559000D01*
X67372542Y-93558290D01*
X67358224Y-93556166D01*
X67344183Y-93552649D01*
X67330554Y-93547772D01*
X67317469Y-93541583D01*
X67305053Y-93534142D01*
X67293427Y-93525519D01*
X67282702Y-93515798D01*
X67272981Y-93505073D01*
X67264358Y-93493447D01*
X67256917Y-93481031D01*
X67250728Y-93467946D01*
X67245851Y-93454317D01*
X67242334Y-93440276D01*
X67240210Y-93425958D01*
X67239500Y-93411500D01*
X67239500Y-93066500D01*
X67240210Y-93052042D01*
X67242334Y-93037724D01*
X67245851Y-93023683D01*
X67250728Y-93010054D01*
X67256917Y-92996969D01*
X67264358Y-92984553D01*
X67272981Y-92972927D01*
X67282702Y-92962202D01*
X67293427Y-92952481D01*
X67305053Y-92943858D01*
X67317469Y-92936417D01*
X67330554Y-92930228D01*
X67344183Y-92925351D01*
X67358224Y-92921834D01*
X67372542Y-92919710D01*
X67387000Y-92919000D01*
X67682000Y-92919000D01*
X67696458Y-92919710D01*
X67696458Y-92919710D01*
G37*
D11*
X67534500Y-93239000D03*
D10*
G36*
X68666458Y-92919710D02*
G01*
X68680776Y-92921834D01*
X68694817Y-92925351D01*
X68708446Y-92930228D01*
X68721531Y-92936417D01*
X68733947Y-92943858D01*
X68745573Y-92952481D01*
X68756298Y-92962202D01*
X68766019Y-92972927D01*
X68774642Y-92984553D01*
X68782083Y-92996969D01*
X68788272Y-93010054D01*
X68793149Y-93023683D01*
X68796666Y-93037724D01*
X68798790Y-93052042D01*
X68799500Y-93066500D01*
X68799500Y-93411500D01*
X68798790Y-93425958D01*
X68796666Y-93440276D01*
X68793149Y-93454317D01*
X68788272Y-93467946D01*
X68782083Y-93481031D01*
X68774642Y-93493447D01*
X68766019Y-93505073D01*
X68756298Y-93515798D01*
X68745573Y-93525519D01*
X68733947Y-93534142D01*
X68721531Y-93541583D01*
X68708446Y-93547772D01*
X68694817Y-93552649D01*
X68680776Y-93556166D01*
X68666458Y-93558290D01*
X68652000Y-93559000D01*
X68357000Y-93559000D01*
X68342542Y-93558290D01*
X68328224Y-93556166D01*
X68314183Y-93552649D01*
X68300554Y-93547772D01*
X68287469Y-93541583D01*
X68275053Y-93534142D01*
X68263427Y-93525519D01*
X68252702Y-93515798D01*
X68242981Y-93505073D01*
X68234358Y-93493447D01*
X68226917Y-93481031D01*
X68220728Y-93467946D01*
X68215851Y-93454317D01*
X68212334Y-93440276D01*
X68210210Y-93425958D01*
X68209500Y-93411500D01*
X68209500Y-93066500D01*
X68210210Y-93052042D01*
X68212334Y-93037724D01*
X68215851Y-93023683D01*
X68220728Y-93010054D01*
X68226917Y-92996969D01*
X68234358Y-92984553D01*
X68242981Y-92972927D01*
X68252702Y-92962202D01*
X68263427Y-92952481D01*
X68275053Y-92943858D01*
X68287469Y-92936417D01*
X68300554Y-92930228D01*
X68314183Y-92925351D01*
X68328224Y-92921834D01*
X68342542Y-92919710D01*
X68357000Y-92919000D01*
X68652000Y-92919000D01*
X68666458Y-92919710D01*
X68666458Y-92919710D01*
G37*
D11*
X68504500Y-93239000D03*
D10*
G36*
X68181458Y-96983710D02*
G01*
X68195776Y-96985834D01*
X68209817Y-96989351D01*
X68223446Y-96994228D01*
X68236531Y-97000417D01*
X68248947Y-97007858D01*
X68260573Y-97016481D01*
X68271298Y-97026202D01*
X68281019Y-97036927D01*
X68289642Y-97048553D01*
X68297083Y-97060969D01*
X68303272Y-97074054D01*
X68308149Y-97087683D01*
X68311666Y-97101724D01*
X68313790Y-97116042D01*
X68314500Y-97130500D01*
X68314500Y-97475500D01*
X68313790Y-97489958D01*
X68311666Y-97504276D01*
X68308149Y-97518317D01*
X68303272Y-97531946D01*
X68297083Y-97545031D01*
X68289642Y-97557447D01*
X68281019Y-97569073D01*
X68271298Y-97579798D01*
X68260573Y-97589519D01*
X68248947Y-97598142D01*
X68236531Y-97605583D01*
X68223446Y-97611772D01*
X68209817Y-97616649D01*
X68195776Y-97620166D01*
X68181458Y-97622290D01*
X68167000Y-97623000D01*
X67872000Y-97623000D01*
X67857542Y-97622290D01*
X67843224Y-97620166D01*
X67829183Y-97616649D01*
X67815554Y-97611772D01*
X67802469Y-97605583D01*
X67790053Y-97598142D01*
X67778427Y-97589519D01*
X67767702Y-97579798D01*
X67757981Y-97569073D01*
X67749358Y-97557447D01*
X67741917Y-97545031D01*
X67735728Y-97531946D01*
X67730851Y-97518317D01*
X67727334Y-97504276D01*
X67725210Y-97489958D01*
X67724500Y-97475500D01*
X67724500Y-97130500D01*
X67725210Y-97116042D01*
X67727334Y-97101724D01*
X67730851Y-97087683D01*
X67735728Y-97074054D01*
X67741917Y-97060969D01*
X67749358Y-97048553D01*
X67757981Y-97036927D01*
X67767702Y-97026202D01*
X67778427Y-97016481D01*
X67790053Y-97007858D01*
X67802469Y-97000417D01*
X67815554Y-96994228D01*
X67829183Y-96989351D01*
X67843224Y-96985834D01*
X67857542Y-96983710D01*
X67872000Y-96983000D01*
X68167000Y-96983000D01*
X68181458Y-96983710D01*
X68181458Y-96983710D01*
G37*
D11*
X68019500Y-97303000D03*
D10*
G36*
X67211458Y-96983710D02*
G01*
X67225776Y-96985834D01*
X67239817Y-96989351D01*
X67253446Y-96994228D01*
X67266531Y-97000417D01*
X67278947Y-97007858D01*
X67290573Y-97016481D01*
X67301298Y-97026202D01*
X67311019Y-97036927D01*
X67319642Y-97048553D01*
X67327083Y-97060969D01*
X67333272Y-97074054D01*
X67338149Y-97087683D01*
X67341666Y-97101724D01*
X67343790Y-97116042D01*
X67344500Y-97130500D01*
X67344500Y-97475500D01*
X67343790Y-97489958D01*
X67341666Y-97504276D01*
X67338149Y-97518317D01*
X67333272Y-97531946D01*
X67327083Y-97545031D01*
X67319642Y-97557447D01*
X67311019Y-97569073D01*
X67301298Y-97579798D01*
X67290573Y-97589519D01*
X67278947Y-97598142D01*
X67266531Y-97605583D01*
X67253446Y-97611772D01*
X67239817Y-97616649D01*
X67225776Y-97620166D01*
X67211458Y-97622290D01*
X67197000Y-97623000D01*
X66902000Y-97623000D01*
X66887542Y-97622290D01*
X66873224Y-97620166D01*
X66859183Y-97616649D01*
X66845554Y-97611772D01*
X66832469Y-97605583D01*
X66820053Y-97598142D01*
X66808427Y-97589519D01*
X66797702Y-97579798D01*
X66787981Y-97569073D01*
X66779358Y-97557447D01*
X66771917Y-97545031D01*
X66765728Y-97531946D01*
X66760851Y-97518317D01*
X66757334Y-97504276D01*
X66755210Y-97489958D01*
X66754500Y-97475500D01*
X66754500Y-97130500D01*
X66755210Y-97116042D01*
X66757334Y-97101724D01*
X66760851Y-97087683D01*
X66765728Y-97074054D01*
X66771917Y-97060969D01*
X66779358Y-97048553D01*
X66787981Y-97036927D01*
X66797702Y-97026202D01*
X66808427Y-97016481D01*
X66820053Y-97007858D01*
X66832469Y-97000417D01*
X66845554Y-96994228D01*
X66859183Y-96989351D01*
X66873224Y-96985834D01*
X66887542Y-96983710D01*
X66902000Y-96983000D01*
X67197000Y-96983000D01*
X67211458Y-96983710D01*
X67211458Y-96983710D01*
G37*
D11*
X67049500Y-97303000D03*
D10*
G36*
X69730458Y-95207710D02*
G01*
X69744776Y-95209834D01*
X69758817Y-95213351D01*
X69772446Y-95218228D01*
X69785531Y-95224417D01*
X69797947Y-95231858D01*
X69809573Y-95240481D01*
X69820298Y-95250202D01*
X69830019Y-95260927D01*
X69838642Y-95272553D01*
X69846083Y-95284969D01*
X69852272Y-95298054D01*
X69857149Y-95311683D01*
X69860666Y-95325724D01*
X69862790Y-95340042D01*
X69863500Y-95354500D01*
X69863500Y-95649500D01*
X69862790Y-95663958D01*
X69860666Y-95678276D01*
X69857149Y-95692317D01*
X69852272Y-95705946D01*
X69846083Y-95719031D01*
X69838642Y-95731447D01*
X69830019Y-95743073D01*
X69820298Y-95753798D01*
X69809573Y-95763519D01*
X69797947Y-95772142D01*
X69785531Y-95779583D01*
X69772446Y-95785772D01*
X69758817Y-95790649D01*
X69744776Y-95794166D01*
X69730458Y-95796290D01*
X69716000Y-95797000D01*
X69371000Y-95797000D01*
X69356542Y-95796290D01*
X69342224Y-95794166D01*
X69328183Y-95790649D01*
X69314554Y-95785772D01*
X69301469Y-95779583D01*
X69289053Y-95772142D01*
X69277427Y-95763519D01*
X69266702Y-95753798D01*
X69256981Y-95743073D01*
X69248358Y-95731447D01*
X69240917Y-95719031D01*
X69234728Y-95705946D01*
X69229851Y-95692317D01*
X69226334Y-95678276D01*
X69224210Y-95663958D01*
X69223500Y-95649500D01*
X69223500Y-95354500D01*
X69224210Y-95340042D01*
X69226334Y-95325724D01*
X69229851Y-95311683D01*
X69234728Y-95298054D01*
X69240917Y-95284969D01*
X69248358Y-95272553D01*
X69256981Y-95260927D01*
X69266702Y-95250202D01*
X69277427Y-95240481D01*
X69289053Y-95231858D01*
X69301469Y-95224417D01*
X69314554Y-95218228D01*
X69328183Y-95213351D01*
X69342224Y-95209834D01*
X69356542Y-95207710D01*
X69371000Y-95207000D01*
X69716000Y-95207000D01*
X69730458Y-95207710D01*
X69730458Y-95207710D01*
G37*
D11*
X69543500Y-95502000D03*
D10*
G36*
X69730458Y-94237710D02*
G01*
X69744776Y-94239834D01*
X69758817Y-94243351D01*
X69772446Y-94248228D01*
X69785531Y-94254417D01*
X69797947Y-94261858D01*
X69809573Y-94270481D01*
X69820298Y-94280202D01*
X69830019Y-94290927D01*
X69838642Y-94302553D01*
X69846083Y-94314969D01*
X69852272Y-94328054D01*
X69857149Y-94341683D01*
X69860666Y-94355724D01*
X69862790Y-94370042D01*
X69863500Y-94384500D01*
X69863500Y-94679500D01*
X69862790Y-94693958D01*
X69860666Y-94708276D01*
X69857149Y-94722317D01*
X69852272Y-94735946D01*
X69846083Y-94749031D01*
X69838642Y-94761447D01*
X69830019Y-94773073D01*
X69820298Y-94783798D01*
X69809573Y-94793519D01*
X69797947Y-94802142D01*
X69785531Y-94809583D01*
X69772446Y-94815772D01*
X69758817Y-94820649D01*
X69744776Y-94824166D01*
X69730458Y-94826290D01*
X69716000Y-94827000D01*
X69371000Y-94827000D01*
X69356542Y-94826290D01*
X69342224Y-94824166D01*
X69328183Y-94820649D01*
X69314554Y-94815772D01*
X69301469Y-94809583D01*
X69289053Y-94802142D01*
X69277427Y-94793519D01*
X69266702Y-94783798D01*
X69256981Y-94773073D01*
X69248358Y-94761447D01*
X69240917Y-94749031D01*
X69234728Y-94735946D01*
X69229851Y-94722317D01*
X69226334Y-94708276D01*
X69224210Y-94693958D01*
X69223500Y-94679500D01*
X69223500Y-94384500D01*
X69224210Y-94370042D01*
X69226334Y-94355724D01*
X69229851Y-94341683D01*
X69234728Y-94328054D01*
X69240917Y-94314969D01*
X69248358Y-94302553D01*
X69256981Y-94290927D01*
X69266702Y-94280202D01*
X69277427Y-94270481D01*
X69289053Y-94261858D01*
X69301469Y-94254417D01*
X69314554Y-94248228D01*
X69328183Y-94243351D01*
X69342224Y-94239834D01*
X69356542Y-94237710D01*
X69371000Y-94237000D01*
X69716000Y-94237000D01*
X69730458Y-94237710D01*
X69730458Y-94237710D01*
G37*
D11*
X69543500Y-94532000D03*
D15*
X68015500Y-96033500D03*
X67515500Y-96033500D03*
X67515500Y-94508500D03*
X68015500Y-94508500D03*
D16*
X67003000Y-96021000D03*
X68528000Y-96021000D03*
X67003000Y-94521000D03*
X68528000Y-94521000D03*
X67003000Y-95021000D03*
X67003000Y-95521000D03*
X68528000Y-95021000D03*
X68528000Y-95521000D03*
D17*
X48830000Y-90910000D03*
X49532000Y-90910000D03*
X50234000Y-90910000D03*
X50936000Y-90910000D03*
X51638000Y-90910000D03*
X52340000Y-90910000D03*
X53042000Y-90910000D03*
X53744000Y-90910000D03*
X54446000Y-90910000D03*
X55148000Y-90910000D03*
X55850000Y-90910000D03*
X56552000Y-90910000D03*
X57254000Y-90910000D03*
X57956000Y-90910000D03*
X58658000Y-90910000D03*
X59360000Y-90910000D03*
X60062000Y-90910000D03*
X60764000Y-90910000D03*
X61466000Y-90910000D03*
X62168000Y-90910000D03*
X62870000Y-90910000D03*
X63572000Y-90910000D03*
X64274000Y-90910000D03*
X64976000Y-90910000D03*
X65678000Y-90910000D03*
X66380000Y-90910000D03*
X67082000Y-90910000D03*
D18*
X70200000Y-102100000D03*
D19*
X66770000Y-104940000D03*
D20*
X64500000Y-106541000D03*
X64500000Y-107540000D03*
D21*
X56380000Y-106790000D03*
X51300000Y-106790000D03*
D19*
X49070000Y-104890000D03*
D18*
X45600000Y-101900000D03*
D22*
X46500000Y-98600000D03*
X46500000Y-95550000D03*
D18*
X45600000Y-92300000D03*
D19*
X53500000Y-85750000D03*
X55250000Y-85750000D03*
X57960000Y-88600000D03*
D23*
X51625000Y-102300000D03*
X48625000Y-102300000D03*
X51625000Y-98750000D03*
X48625000Y-98750000D03*
D24*
X59155500Y-103891000D03*
X59405500Y-92891000D03*
D25*
X57955500Y-99291000D03*
D26*
X53405500Y-103941000D03*
X55243750Y-101256250D03*
D24*
X58918750Y-95743750D03*
D26*
X59255500Y-89241000D03*
D24*
X56581250Y-95743750D03*
D26*
X69543500Y-93493000D03*
X69543500Y-96541000D03*
D24*
X47800000Y-94400000D03*
X48500009Y-93000000D03*
X49505500Y-92141000D03*
X52505500Y-102341000D03*
X52655500Y-102941000D03*
X48805500Y-92141000D03*
X52755500Y-101741000D03*
X50205500Y-92141000D03*
X50905500Y-92441000D03*
X52355500Y-101241000D03*
X52355500Y-100241000D03*
X52255500Y-92141000D03*
X52755500Y-100741000D03*
X51555500Y-92291000D03*
X58005500Y-93091000D03*
X55916192Y-93209160D03*
X58555500Y-92041000D03*
X55303850Y-93200018D03*
X57855500Y-92041000D03*
X54600000Y-93200000D03*
X57155500Y-92041000D03*
X53987597Y-93200000D03*
X56552000Y-89794500D03*
X52740965Y-98750006D03*
X55850000Y-89796500D03*
X52387362Y-99250005D03*
X55148000Y-89798500D03*
X52740965Y-99750006D03*
D19*
X51835500Y-108321000D03*
D24*
X46500000Y-95550000D03*
X48549999Y-93767768D03*
X52230500Y-104491000D03*
X59905500Y-105091000D03*
X47455500Y-99291000D03*
X50605500Y-102991000D03*
X66155500Y-104266000D03*
X62805500Y-105341000D03*
D26*
X49905500Y-103941000D03*
D24*
X53630022Y-93791000D03*
D26*
X62855500Y-93991000D03*
X53305500Y-105191000D03*
X62450000Y-102896500D03*
X58305500Y-103891000D03*
D24*
X65479500Y-94509000D03*
X63955500Y-98319000D03*
X65694391Y-100819891D03*
X63126659Y-103209231D03*
X63605500Y-103591000D03*
X67511500Y-96642600D03*
X63121298Y-105865698D03*
X50365321Y-98130000D03*
X50767590Y-94500000D03*
X51883039Y-103132099D03*
X47605500Y-98691000D03*
D27*
X59355500Y-104091000D02*
X59155500Y-103891000D01*
X59355500Y-105541000D02*
X59355500Y-104091000D01*
X59405500Y-105591000D02*
X59355500Y-105541000D01*
X59405500Y-105741000D02*
X59405500Y-105591000D01*
X59250000Y-93046500D02*
X59405500Y-92891000D01*
X59250000Y-94050000D02*
X59250000Y-93046500D01*
X58055500Y-99591000D02*
X58746500Y-99591000D01*
X58746500Y-99591000D02*
X58918750Y-99418750D01*
X58918750Y-99418750D02*
X57081250Y-99418750D01*
X53405500Y-103941000D02*
X51977986Y-103941000D01*
X51977986Y-103941000D02*
X51250000Y-103213014D01*
X51250000Y-103213014D02*
X51250000Y-102900000D01*
X51250000Y-102900000D02*
X51625000Y-102525000D01*
X51625000Y-102525000D02*
X51625000Y-102300000D01*
D28*
X50855500Y-102300000D02*
X51255500Y-102300000D01*
X50300000Y-102300000D02*
X50855500Y-102300000D01*
D27*
X55555500Y-104191000D02*
X55055500Y-104191000D01*
X54957910Y-104093410D02*
X53557910Y-104093410D01*
X53557910Y-104093410D02*
X53405500Y-103941000D01*
X55055500Y-104191000D02*
X54957910Y-104093410D01*
D28*
X62450000Y-101750000D02*
X63264500Y-101750000D01*
X63264500Y-101750000D02*
X63616591Y-102102091D01*
X63616591Y-102102091D02*
X63616591Y-102377091D01*
D27*
X53550000Y-94750000D02*
X53601000Y-94801000D01*
X53601000Y-94801000D02*
X54301000Y-94801000D01*
X54301000Y-94801000D02*
X55243750Y-95743750D01*
D28*
X53405500Y-103941000D02*
X53405500Y-103991000D01*
X57250000Y-102950000D02*
X57250000Y-104435500D01*
X57250000Y-104435500D02*
X57505500Y-104691000D01*
X57505500Y-104691000D02*
X57505500Y-104841000D01*
X57505500Y-104841000D02*
X58305500Y-105641000D01*
X58305500Y-105641000D02*
X58305500Y-105741000D01*
X58614500Y-88600000D02*
X59255500Y-89241000D01*
X57960000Y-88600000D02*
X58614500Y-88600000D01*
X50300000Y-102300000D02*
X48625000Y-102300000D01*
X51255500Y-102300000D02*
X51625000Y-102300000D01*
X62450000Y-101750000D02*
X61250000Y-101750000D01*
X61250000Y-101750000D02*
X61250000Y-100587500D01*
X61250000Y-100587500D02*
X61587500Y-100250000D01*
X61587500Y-100250000D02*
X62450000Y-100250000D01*
X61250000Y-101750000D02*
X60756250Y-101256250D01*
X62450000Y-100250000D02*
X61587500Y-100250000D01*
X61587500Y-100250000D02*
X60756250Y-99418750D01*
X57081250Y-101256250D02*
X55243750Y-101256250D01*
X55243750Y-99418750D02*
X55243750Y-101256250D01*
X57081250Y-97581250D02*
X57081250Y-95743750D01*
X55243750Y-97581250D02*
X57081250Y-97581250D01*
X55243750Y-99418750D02*
X55243750Y-97581250D01*
X57081250Y-99418750D02*
X55243750Y-99418750D01*
X58918750Y-99418750D02*
X58918750Y-101256250D01*
X60756250Y-99418750D02*
X58918750Y-99418750D01*
X58918750Y-97581250D02*
X58918750Y-99418750D01*
X60756250Y-97581250D02*
X58918750Y-97581250D01*
X60756250Y-95743750D02*
X60756250Y-97581250D01*
X58918750Y-95743750D02*
X58918750Y-97581250D01*
X55243750Y-95743750D02*
X55243750Y-97581250D01*
X56568000Y-101444000D02*
X56399250Y-101275250D01*
X56581250Y-101256250D02*
X56750000Y-101425000D01*
X58418750Y-95743750D02*
X56581250Y-95743750D01*
X58243000Y-95769000D02*
X58236750Y-95762750D01*
X61250000Y-101750000D02*
X60756250Y-101256250D01*
X63750000Y-100250000D02*
X62450000Y-100250000D01*
X64111091Y-100611091D02*
X63750000Y-100250000D01*
X62450000Y-95750000D02*
X60262500Y-95750000D01*
X61425000Y-98750000D02*
X60756250Y-99418750D01*
X62450000Y-98750000D02*
X61425000Y-98750000D01*
X61587500Y-100250000D02*
X60756250Y-99418750D01*
X57250000Y-101425000D02*
X57081250Y-101256250D01*
X57250000Y-102950000D02*
X57250000Y-101425000D01*
X68015500Y-95546000D02*
X68015500Y-96033500D01*
X68040500Y-95521000D02*
X68015500Y-95546000D01*
X68528000Y-95521000D02*
X68040500Y-95521000D01*
X68528000Y-95521000D02*
X68528000Y-95021000D01*
X69524500Y-95521000D02*
X69543500Y-95502000D01*
X68528000Y-95521000D02*
X69524500Y-95521000D01*
X68504500Y-93239000D02*
X69289500Y-93239000D01*
X69289500Y-93239000D02*
X69543500Y-93493000D01*
X69543500Y-96541000D02*
X69543500Y-95502000D01*
X68019500Y-96883000D02*
X68121100Y-96781400D01*
X68019500Y-97303000D02*
X68019500Y-96883000D01*
X68015500Y-96390401D02*
X68015500Y-96033500D01*
X68121100Y-96496001D02*
X68015500Y-96390401D01*
X68121100Y-96781400D02*
X68121100Y-96496001D01*
X67685332Y-97637168D02*
X68019500Y-97303000D01*
X65032610Y-100289890D02*
X67685332Y-97637168D01*
X64524216Y-100289890D02*
X65032610Y-100289890D01*
X64157053Y-100657053D02*
X64524216Y-100289890D01*
D27*
X48755500Y-96942767D02*
X48648309Y-96942767D01*
X53232401Y-89017599D02*
X54250000Y-88000000D01*
X54250000Y-88000000D02*
X54250000Y-86500000D01*
X54250000Y-86500000D02*
X53500000Y-85750000D01*
X47947590Y-89724036D02*
X48654027Y-89017599D01*
X48031553Y-93917599D02*
X47947590Y-93833636D01*
X48654027Y-89017599D02*
X53232401Y-89017599D01*
X48282401Y-96482401D02*
X48282401Y-94214124D01*
X47947590Y-93833636D02*
X47947590Y-89724036D01*
X48282401Y-94214124D02*
X48031553Y-93917599D01*
X48282401Y-96576859D02*
X48282401Y-96482401D01*
X48648309Y-96942767D02*
X48282401Y-96576859D01*
X53550000Y-95750000D02*
X51522002Y-95750000D01*
X51522002Y-95750000D02*
X50329235Y-96942767D01*
X50329235Y-96942767D02*
X48755500Y-96942767D01*
X48755500Y-96942767D02*
X48742767Y-96942767D01*
X48500009Y-93000000D02*
X48300000Y-92799991D01*
X48300000Y-92799991D02*
X48300000Y-89870009D01*
X48300000Y-89870009D02*
X48800000Y-89370009D01*
X47787591Y-96580421D02*
X47787591Y-94479999D01*
X48502348Y-97295178D02*
X47787591Y-96580421D01*
X51520386Y-96250000D02*
X50475208Y-97295178D01*
X50475208Y-97295178D02*
X48502348Y-97295178D01*
X53550000Y-96250000D02*
X51520386Y-96250000D01*
X47787591Y-94412409D02*
X47800000Y-94400000D01*
X47787591Y-94479999D02*
X47787591Y-94412409D01*
X49300000Y-93250000D02*
X48750009Y-93250000D01*
X48750009Y-93250000D02*
X48500009Y-93000000D01*
X54602410Y-86397590D02*
X55250000Y-85750000D01*
X48800000Y-89370009D02*
X53378374Y-89370009D01*
X53378374Y-89370009D02*
X54602410Y-88145973D01*
X54602410Y-88145973D02*
X54602410Y-86397590D01*
X49505500Y-92141000D02*
X49532000Y-92114500D01*
X49532000Y-92114500D02*
X49532000Y-90910000D01*
X52496500Y-102250000D02*
X52505500Y-102259000D01*
X52505500Y-102259000D02*
X52505500Y-102341000D01*
X53550000Y-102250000D02*
X52496500Y-102250000D01*
X52655500Y-102941000D02*
X54241000Y-102941000D01*
X54241000Y-102941000D02*
X54250000Y-102950000D01*
X48830000Y-92116500D02*
X48830000Y-90910000D01*
X48805500Y-92141000D02*
X48830000Y-92116500D01*
X53550000Y-101750000D02*
X52764500Y-101750000D01*
X52764500Y-101750000D02*
X52755500Y-101741000D01*
X50234000Y-92112500D02*
X50234000Y-90910000D01*
X50205500Y-92141000D02*
X50234000Y-92112500D01*
X50936000Y-92410500D02*
X50936000Y-90910000D01*
X50905500Y-92441000D02*
X50936000Y-92410500D01*
X52364500Y-101250000D02*
X52355500Y-101241000D01*
X53550000Y-101250000D02*
X52364500Y-101250000D01*
X53550000Y-100250000D02*
X52364500Y-100250000D01*
X52364500Y-100250000D02*
X52355500Y-100241000D01*
X52340000Y-92056500D02*
X52340000Y-90910000D01*
X52255500Y-92141000D02*
X52340000Y-92056500D01*
X52328525Y-90921475D02*
X52340000Y-90910000D01*
X51555500Y-92291000D02*
X51638000Y-92208500D01*
X51638000Y-92208500D02*
X51638000Y-90910000D01*
X53550000Y-100750000D02*
X52764500Y-100750000D01*
X52764500Y-100750000D02*
X52755500Y-100741000D01*
X57250000Y-93425000D02*
X57250000Y-94050000D01*
X57250000Y-92863956D02*
X57250000Y-93425000D01*
X54594276Y-92012776D02*
X56398820Y-92012776D01*
X56398820Y-92012776D02*
X57250000Y-92863956D01*
X54446000Y-90910000D02*
X54446000Y-91864500D01*
X54446000Y-91864500D02*
X54594276Y-92012776D01*
X56759793Y-92872133D02*
X56252847Y-92365187D01*
X53744000Y-91864500D02*
X53744000Y-90910000D01*
X56252847Y-92365187D02*
X54244687Y-92365187D01*
X54244687Y-92365187D02*
X53744000Y-91864500D01*
X56759793Y-94040207D02*
X56759793Y-92872133D01*
X56750000Y-94050000D02*
X56759793Y-94040207D01*
X56250000Y-93589327D02*
X56407382Y-93431945D01*
X53895098Y-92717598D02*
X53042000Y-91864500D01*
X56250000Y-94050000D02*
X56250000Y-93589327D01*
X56106875Y-92717599D02*
X53895098Y-92717598D01*
X53042000Y-91864500D02*
X53042000Y-90910000D01*
X56407382Y-93018106D02*
X56106875Y-92717599D01*
X56407382Y-93431945D02*
X56407382Y-93018106D01*
X59360000Y-90910000D02*
X59360000Y-91936500D01*
X59360000Y-91936500D02*
X58205500Y-93091000D01*
X58205500Y-93091000D02*
X58005500Y-93091000D01*
X55750000Y-94050000D02*
X55750000Y-93425000D01*
X55750000Y-93425000D02*
X55916192Y-93258808D01*
X55916192Y-93258808D02*
X55916192Y-93209160D01*
X58658000Y-90910000D02*
X58658000Y-91938500D01*
X58658000Y-91938500D02*
X58555500Y-92041000D01*
X55250000Y-93253868D02*
X55303850Y-93200018D01*
X55250000Y-94050000D02*
X55250000Y-93253868D01*
X57956000Y-90910000D02*
X57956000Y-91940500D01*
X57956000Y-91940500D02*
X57855500Y-92041000D01*
X54750000Y-94050000D02*
X54750000Y-93350000D01*
X54750000Y-94050000D02*
X54750006Y-94049994D01*
X54750006Y-94049994D02*
X54750006Y-93796208D01*
X54750000Y-93350000D02*
X54600000Y-93200000D01*
X57254000Y-90910000D02*
X57254000Y-91942500D01*
X57254000Y-91942500D02*
X57155500Y-92041000D01*
X54250000Y-94050000D02*
X54250000Y-93563954D01*
X54250000Y-93563954D02*
X53987597Y-93301551D01*
X53987597Y-93301551D02*
X53987597Y-93200000D01*
X54250000Y-94050000D02*
X54250000Y-93850000D01*
X56552000Y-90910000D02*
X56552000Y-89794500D01*
X53550000Y-98750000D02*
X52740971Y-98750000D01*
X52740971Y-98750000D02*
X52740965Y-98750006D01*
X55850000Y-90910000D02*
X55850000Y-89796500D01*
X53550000Y-99250000D02*
X52387367Y-99250000D01*
X52387367Y-99250000D02*
X52387362Y-99250005D01*
X55148000Y-90910000D02*
X55148000Y-89798500D01*
X53550000Y-99750000D02*
X52740971Y-99750000D01*
X52740971Y-99750000D02*
X52740965Y-99750006D01*
X61750000Y-94050000D02*
X61750000Y-92946500D01*
X62870000Y-91826500D02*
X62870000Y-90910000D01*
X61750000Y-92946500D02*
X62870000Y-91826500D01*
X59750000Y-94050000D02*
X59750000Y-93296500D01*
X59750000Y-93296500D02*
X60062000Y-92984500D01*
X60062000Y-92984500D02*
X60062000Y-90910000D01*
X60250000Y-94050000D02*
X60250000Y-93294872D01*
X60250000Y-93294872D02*
X60414402Y-93130470D01*
X60764000Y-91832500D02*
X60764000Y-90910000D01*
X60414402Y-92182098D02*
X60764000Y-91832500D01*
X60414402Y-93130470D02*
X60414402Y-92182098D01*
X60750000Y-94050000D02*
X60750000Y-93646500D01*
X60750000Y-93646500D02*
X60766804Y-93629696D01*
X60766804Y-93629696D02*
X60766804Y-92529696D01*
X60766804Y-92529696D02*
X61466000Y-91830500D01*
X61466000Y-91830500D02*
X61466000Y-90910000D01*
X61466000Y-91628872D02*
X61466000Y-90910000D01*
X61466000Y-91628872D02*
X61466000Y-90910000D01*
X61250000Y-94050000D02*
X61250000Y-92746500D01*
X62168000Y-91828500D02*
X62168000Y-90910000D01*
X61250000Y-92746500D02*
X62168000Y-91828500D01*
X62450000Y-94750000D02*
X62450000Y-94635500D01*
X62450000Y-94635500D02*
X62205500Y-94391000D01*
X63572000Y-91824500D02*
X63572000Y-90910000D01*
X62205500Y-93191000D02*
X63572000Y-91824500D01*
X62205500Y-94391000D02*
X62205500Y-93191000D01*
X62450000Y-94750000D02*
X62450000Y-94735500D01*
X62450000Y-98250000D02*
X63189988Y-98250000D01*
X67082000Y-91814500D02*
X67082000Y-90910000D01*
X64917510Y-93978990D02*
X67082000Y-91814500D01*
X64917510Y-96522478D02*
X64917510Y-93978990D01*
X63189988Y-98250000D02*
X64917510Y-96522478D01*
X62450000Y-97750000D02*
X63191616Y-97750000D01*
X66380000Y-91816500D02*
X66380000Y-90910000D01*
X64565108Y-93631392D02*
X66380000Y-91816500D01*
X64565108Y-96376508D02*
X64565108Y-93631392D01*
X63191616Y-97750000D02*
X64565108Y-96376508D01*
X62450000Y-97250000D02*
X63193244Y-97250000D01*
X65678000Y-91818500D02*
X65678000Y-90910000D01*
X64212706Y-93283794D02*
X65678000Y-91818500D01*
X64212706Y-96230538D02*
X64212706Y-93283794D01*
X63193244Y-97250000D02*
X64212706Y-96230538D01*
X62450000Y-96750000D02*
X63194872Y-96750000D01*
X64976000Y-91770500D02*
X64976000Y-90910000D01*
X63860304Y-92886196D02*
X64976000Y-91770500D01*
X63860304Y-96084568D02*
X63860304Y-92886196D01*
X63194872Y-96750000D02*
X63860304Y-96084568D01*
X64274000Y-91822500D02*
X64274000Y-90910000D01*
X63507902Y-92588598D02*
X64274000Y-91822500D01*
X62450000Y-96250000D02*
X63196500Y-96250000D01*
X63196500Y-96250000D02*
X63507902Y-95938598D01*
X63507902Y-95938598D02*
X63507902Y-92588598D01*
X55555500Y-105191000D02*
X56155500Y-105191000D01*
X56155500Y-105191000D02*
X56505500Y-104841000D01*
X56250000Y-102950000D02*
X56250000Y-103685500D01*
X56250000Y-103685500D02*
X56505500Y-103941000D01*
X53657902Y-104593402D02*
X53755500Y-104691000D01*
X53755500Y-104691000D02*
X54255500Y-104691000D01*
X51455500Y-106041000D02*
X52903098Y-104593402D01*
X52903098Y-104593402D02*
X53657902Y-104593402D01*
X51300000Y-106790000D02*
X51300000Y-107785500D01*
X51300000Y-107785500D02*
X51835500Y-108321000D01*
X51300000Y-106790000D02*
X51300000Y-106196500D01*
X51300000Y-106196500D02*
X51455500Y-106041000D01*
X51455500Y-106041000D02*
X51300000Y-106790000D01*
X54155500Y-104841000D02*
X54153098Y-104841000D01*
X51455500Y-106041000D02*
X51300000Y-106790000D01*
X53550000Y-98250000D02*
X52527017Y-98250000D01*
X52527017Y-98250000D02*
X52027017Y-98750000D01*
X52027017Y-98750000D02*
X51625000Y-98750000D01*
X48549999Y-93767768D02*
X48779998Y-93997767D01*
X48779998Y-93997767D02*
X48779998Y-94379998D01*
X48779998Y-94379998D02*
X48900000Y-94500000D01*
X49300000Y-94500000D02*
X48900000Y-94500000D01*
X46500000Y-95500000D02*
X46500000Y-96420678D01*
X51855500Y-104316897D02*
X52029603Y-104491000D01*
X59750000Y-104935500D02*
X59750000Y-102950000D01*
X59750000Y-104935500D02*
X59905500Y-105091000D01*
X52029603Y-104491000D02*
X52230500Y-104491000D01*
X50605500Y-102991000D02*
X50605500Y-103066897D01*
X50605500Y-103066897D02*
X50897590Y-103358987D01*
X51832013Y-104293410D02*
X51855500Y-104316897D01*
X51855500Y-104316897D02*
X50897590Y-103358987D01*
X47455500Y-99291000D02*
X47191000Y-99291000D01*
X46500000Y-98600000D02*
X47191000Y-99291000D01*
X46614500Y-98600000D02*
X46500000Y-98600000D01*
X66155500Y-104266000D02*
X66770000Y-104880500D01*
X66770000Y-104880500D02*
X66770000Y-104940000D01*
X66770000Y-104855500D02*
X66770000Y-104940000D01*
X62455500Y-105341000D02*
X62805500Y-105341000D01*
X61755500Y-104641000D02*
X62455500Y-105341000D01*
X60750000Y-103635500D02*
X61755500Y-104641000D01*
X60750000Y-102950000D02*
X60750000Y-103635500D01*
X60755500Y-102955500D02*
X60750000Y-102950000D01*
X66770000Y-104940000D02*
X66704500Y-104940000D01*
X66654500Y-104940000D02*
X66770000Y-104940000D01*
X66770000Y-104940000D02*
X67060000Y-104940000D01*
D28*
X49070000Y-104776500D02*
X49905500Y-103941000D01*
X56380000Y-106790000D02*
X54904500Y-106790000D01*
X54904500Y-106790000D02*
X53305500Y-105191000D01*
X53630022Y-93791000D02*
X52944500Y-93791000D01*
X52944500Y-93791000D02*
X52894500Y-93841000D01*
D27*
X62996500Y-95250000D02*
X63155492Y-95091008D01*
X63155492Y-95091008D02*
X63155492Y-94290992D01*
X62450000Y-95250000D02*
X62996500Y-95250000D01*
X63155492Y-94290992D02*
X62855500Y-93991000D01*
D28*
X52894500Y-93841000D02*
X52500000Y-94235500D01*
X52500000Y-94250000D02*
X52500000Y-94235500D01*
X52500000Y-94235500D02*
X51514500Y-93250000D01*
X51514500Y-93250000D02*
X50200000Y-93250000D01*
X52500000Y-94250000D02*
X52500000Y-94196500D01*
X56380000Y-106790000D02*
X55904500Y-106790000D01*
X53305500Y-105141000D02*
X53305500Y-105191000D01*
X49070000Y-104890000D02*
X49070000Y-104776500D01*
X57750000Y-103835500D02*
X58055500Y-104141000D01*
X58055500Y-104141000D02*
X58605500Y-104691000D01*
X58305500Y-103891000D02*
X58055500Y-104141000D01*
X57750000Y-102950000D02*
X57750000Y-103835500D01*
X62450000Y-102250000D02*
X62450000Y-102896500D01*
X52500000Y-94250000D02*
X52500000Y-95000000D01*
X52500000Y-95000000D02*
X52750000Y-95250000D01*
X52750000Y-95250000D02*
X53550000Y-95250000D01*
D27*
X68539000Y-94532000D02*
X68528000Y-94521000D01*
X69543500Y-94532000D02*
X68539000Y-94532000D01*
X63024500Y-99250000D02*
X62450000Y-99250000D01*
X67003000Y-94521000D02*
X65491500Y-94521000D01*
X65491500Y-94521000D02*
X65479500Y-94509000D01*
X63955500Y-98319000D02*
X63024500Y-99250000D01*
X65894794Y-100819891D02*
X65694391Y-100819891D01*
X68915500Y-97799185D02*
X65894794Y-100819891D01*
X68915500Y-96396000D02*
X68915500Y-97799185D01*
X68528000Y-96021000D02*
X68540500Y-96021000D01*
X68540500Y-96021000D02*
X68915500Y-96396000D01*
X63126659Y-103209231D02*
X62597300Y-103738590D01*
X61750000Y-103225000D02*
X61750000Y-102975000D01*
X62263590Y-103738590D02*
X61750000Y-103225000D01*
X62597300Y-103738590D02*
X62263590Y-103738590D01*
X63105500Y-104091000D02*
X63605500Y-103591000D01*
X63655500Y-103541000D02*
X63605500Y-103591000D01*
X61805500Y-104091000D02*
X63105500Y-104091000D01*
X61250000Y-103535500D02*
X61805500Y-104091000D01*
X61250000Y-102950000D02*
X61250000Y-103535500D01*
X67515500Y-96033500D02*
X67515500Y-96638600D01*
X67515500Y-96638600D02*
X67511500Y-96642600D01*
X63555500Y-104391000D02*
X64146922Y-103799578D01*
X64146922Y-103799578D02*
X64146922Y-103402396D01*
X64146922Y-103402396D02*
X64394409Y-103154909D01*
X62450000Y-101250000D02*
X63416118Y-101250000D01*
X63416118Y-101250000D02*
X64394409Y-102228291D01*
X64394409Y-102228291D02*
X64394409Y-103154909D01*
X64500000Y-106541000D02*
X64441000Y-106541000D01*
X64441000Y-106541000D02*
X63555500Y-105655500D01*
X64444409Y-103279909D02*
X64466591Y-103279909D01*
X63555500Y-104391000D02*
X63555500Y-105655500D01*
X64500000Y-107540000D02*
X65106500Y-107540000D01*
X65106500Y-107540000D02*
X65555500Y-107091000D01*
X65555500Y-107091000D02*
X65555500Y-102891000D01*
X65555500Y-102891000D02*
X65205500Y-102541000D01*
X65205500Y-102541000D02*
X64455500Y-101791000D01*
X64486818Y-101791000D02*
X64455500Y-101791000D01*
X64888909Y-101388909D02*
X64486818Y-101791000D01*
X63414500Y-100750000D02*
X64455500Y-101791000D01*
X62450000Y-100750000D02*
X63414500Y-100750000D01*
X65006500Y-107540000D02*
X64500000Y-107540000D01*
D28*
X67003000Y-95521000D02*
X67003000Y-96021000D01*
X67515500Y-94996000D02*
X67515500Y-94508500D01*
X67515500Y-95415322D02*
X67515500Y-94996000D01*
X67409822Y-95521000D02*
X67515500Y-95415322D01*
X67003000Y-95521000D02*
X67409822Y-95521000D01*
X67515500Y-93258000D02*
X67534500Y-93239000D01*
X67515500Y-94508500D02*
X67515500Y-93258000D01*
X67515500Y-94508500D02*
X68015500Y-94508500D01*
X66981499Y-96897001D02*
X66981499Y-96042501D01*
X66981499Y-96042501D02*
X67003000Y-96021000D01*
X67049500Y-96965002D02*
X66981499Y-96897001D01*
X67049500Y-97303000D02*
X67049500Y-96965002D01*
X64602500Y-99750000D02*
X67049500Y-97303000D01*
X62437500Y-99750000D02*
X64602500Y-99750000D01*
D27*
X45600000Y-92300000D02*
X47317599Y-94017599D01*
X47317599Y-94017599D02*
X47317599Y-96608812D01*
X47317599Y-96608812D02*
X48356376Y-97647589D01*
X48356376Y-97647589D02*
X50621181Y-97647589D01*
X50621181Y-97647589D02*
X51518770Y-96750000D01*
X51518770Y-96750000D02*
X53550000Y-96750000D01*
X53550000Y-97750000D02*
X51515533Y-97750000D01*
X51515533Y-97750000D02*
X47365533Y-101900000D01*
X47365533Y-101900000D02*
X45600000Y-101900000D01*
X46300000Y-101200000D02*
X45600000Y-101900000D01*
X45700000Y-101900000D02*
X46850000Y-100750000D01*
X63121298Y-105865698D02*
X62380198Y-105865698D01*
X62380198Y-105865698D02*
X60250000Y-103735500D01*
X60250000Y-103735500D02*
X60250000Y-102950000D01*
X63148099Y-105823401D02*
X63121298Y-105850202D01*
X63121298Y-105850202D02*
X63121298Y-105865698D01*
X50365321Y-98130000D02*
X50637151Y-98130000D01*
X50200000Y-94500000D02*
X50767590Y-94500000D01*
X50637151Y-98130000D02*
X51517151Y-97250000D01*
X51517151Y-97250000D02*
X51750000Y-97250000D01*
X51750000Y-97250000D02*
X53550000Y-97250000D01*
X52955500Y-103441000D02*
X52191940Y-103441000D01*
X52191940Y-103441000D02*
X51883039Y-103132099D01*
X53655500Y-103341000D02*
X54055500Y-103741000D01*
X54055500Y-103741000D02*
X54555500Y-103741000D01*
X53055500Y-103341000D02*
X53655500Y-103341000D01*
X52955500Y-103441000D02*
X53055500Y-103341000D01*
X54750000Y-103546500D02*
X54555500Y-103741000D01*
X54750000Y-103546500D02*
X54750000Y-102950000D01*
X48625000Y-98750000D02*
X47664500Y-98750000D01*
X47664500Y-98750000D02*
X47605500Y-98691000D01*
M02*
