G04 #@! TF.GenerationSoftware,KiCad,Pcbnew,5.1.2-f72e74a~84~ubuntu18.04.1*
G04 #@! TF.CreationDate,2019-05-05T19:34:44+02:00*
G04 #@! TF.ProjectId,f-91w,662d3931-772e-46b6-9963-61645f706362,2*
G04 #@! TF.SameCoordinates,Original*
G04 #@! TF.FileFunction,Copper,L1,Top*
G04 #@! TF.FilePolarity,Positive*
%FSLAX46Y46*%
G04 Gerber Fmt 4.6, Leading zero omitted, Abs format (unit mm)*
G04 Created by KiCad (PCBNEW 5.1.2-f72e74a~84~ubuntu18.04.1) date 2019-05-05 19:34:44*
%MOMM*%
%LPD*%
G04 APERTURE LIST*
%ADD10C,0.100000*%
%ADD11C,0.590000*%
%ADD12R,0.600000X0.500000*%
%ADD13C,0.250000*%
%ADD14C,7.300000*%
%ADD15R,0.350000X0.375000*%
%ADD16R,0.375000X0.350000*%
%ADD17R,0.373000X1.509000*%
%ADD18C,4.000000*%
%ADD19C,1.200000*%
%ADD20R,1.200000X0.800000*%
%ADD21R,1.100000X1.500000*%
%ADD22R,1.000000X2.250000*%
%ADD23R,0.350000X0.800000*%
%ADD24C,0.460000*%
%ADD25C,2.500000*%
%ADD26C,0.600000*%
%ADD27C,0.200000*%
%ADD28C,0.300000*%
G04 APERTURE END LIST*
D10*
G36*
X27435358Y-30680710D02*
G01*
X27449676Y-30682834D01*
X27463717Y-30686351D01*
X27477346Y-30691228D01*
X27490431Y-30697417D01*
X27502847Y-30704858D01*
X27514473Y-30713481D01*
X27525198Y-30723202D01*
X27534919Y-30733927D01*
X27543542Y-30745553D01*
X27550983Y-30757969D01*
X27557172Y-30771054D01*
X27562049Y-30784683D01*
X27565566Y-30798724D01*
X27567690Y-30813042D01*
X27568400Y-30827500D01*
X27568400Y-31172500D01*
X27567690Y-31186958D01*
X27565566Y-31201276D01*
X27562049Y-31215317D01*
X27557172Y-31228946D01*
X27550983Y-31242031D01*
X27543542Y-31254447D01*
X27534919Y-31266073D01*
X27525198Y-31276798D01*
X27514473Y-31286519D01*
X27502847Y-31295142D01*
X27490431Y-31302583D01*
X27477346Y-31308772D01*
X27463717Y-31313649D01*
X27449676Y-31317166D01*
X27435358Y-31319290D01*
X27420900Y-31320000D01*
X27125900Y-31320000D01*
X27111442Y-31319290D01*
X27097124Y-31317166D01*
X27083083Y-31313649D01*
X27069454Y-31308772D01*
X27056369Y-31302583D01*
X27043953Y-31295142D01*
X27032327Y-31286519D01*
X27021602Y-31276798D01*
X27011881Y-31266073D01*
X27003258Y-31254447D01*
X26995817Y-31242031D01*
X26989628Y-31228946D01*
X26984751Y-31215317D01*
X26981234Y-31201276D01*
X26979110Y-31186958D01*
X26978400Y-31172500D01*
X26978400Y-30827500D01*
X26979110Y-30813042D01*
X26981234Y-30798724D01*
X26984751Y-30784683D01*
X26989628Y-30771054D01*
X26995817Y-30757969D01*
X27003258Y-30745553D01*
X27011881Y-30733927D01*
X27021602Y-30723202D01*
X27032327Y-30713481D01*
X27043953Y-30704858D01*
X27056369Y-30697417D01*
X27069454Y-30691228D01*
X27083083Y-30686351D01*
X27097124Y-30682834D01*
X27111442Y-30680710D01*
X27125900Y-30680000D01*
X27420900Y-30680000D01*
X27435358Y-30680710D01*
X27435358Y-30680710D01*
G37*
D11*
X27273400Y-31000000D03*
D10*
G36*
X26465358Y-30680710D02*
G01*
X26479676Y-30682834D01*
X26493717Y-30686351D01*
X26507346Y-30691228D01*
X26520431Y-30697417D01*
X26532847Y-30704858D01*
X26544473Y-30713481D01*
X26555198Y-30723202D01*
X26564919Y-30733927D01*
X26573542Y-30745553D01*
X26580983Y-30757969D01*
X26587172Y-30771054D01*
X26592049Y-30784683D01*
X26595566Y-30798724D01*
X26597690Y-30813042D01*
X26598400Y-30827500D01*
X26598400Y-31172500D01*
X26597690Y-31186958D01*
X26595566Y-31201276D01*
X26592049Y-31215317D01*
X26587172Y-31228946D01*
X26580983Y-31242031D01*
X26573542Y-31254447D01*
X26564919Y-31266073D01*
X26555198Y-31276798D01*
X26544473Y-31286519D01*
X26532847Y-31295142D01*
X26520431Y-31302583D01*
X26507346Y-31308772D01*
X26493717Y-31313649D01*
X26479676Y-31317166D01*
X26465358Y-31319290D01*
X26450900Y-31320000D01*
X26155900Y-31320000D01*
X26141442Y-31319290D01*
X26127124Y-31317166D01*
X26113083Y-31313649D01*
X26099454Y-31308772D01*
X26086369Y-31302583D01*
X26073953Y-31295142D01*
X26062327Y-31286519D01*
X26051602Y-31276798D01*
X26041881Y-31266073D01*
X26033258Y-31254447D01*
X26025817Y-31242031D01*
X26019628Y-31228946D01*
X26014751Y-31215317D01*
X26011234Y-31201276D01*
X26009110Y-31186958D01*
X26008400Y-31172500D01*
X26008400Y-30827500D01*
X26009110Y-30813042D01*
X26011234Y-30798724D01*
X26014751Y-30784683D01*
X26019628Y-30771054D01*
X26025817Y-30757969D01*
X26033258Y-30745553D01*
X26041881Y-30733927D01*
X26051602Y-30723202D01*
X26062327Y-30713481D01*
X26073953Y-30704858D01*
X26086369Y-30697417D01*
X26099454Y-30691228D01*
X26113083Y-30686351D01*
X26127124Y-30682834D01*
X26141442Y-30680710D01*
X26155900Y-30680000D01*
X26450900Y-30680000D01*
X26465358Y-30680710D01*
X26465358Y-30680710D01*
G37*
D11*
X26303400Y-31000000D03*
D10*
G36*
X33730858Y-41081710D02*
G01*
X33745176Y-41083834D01*
X33759217Y-41087351D01*
X33772846Y-41092228D01*
X33785931Y-41098417D01*
X33798347Y-41105858D01*
X33809973Y-41114481D01*
X33820698Y-41124202D01*
X33830419Y-41134927D01*
X33839042Y-41146553D01*
X33846483Y-41158969D01*
X33852672Y-41172054D01*
X33857549Y-41185683D01*
X33861066Y-41199724D01*
X33863190Y-41214042D01*
X33863900Y-41228500D01*
X33863900Y-41523500D01*
X33863190Y-41537958D01*
X33861066Y-41552276D01*
X33857549Y-41566317D01*
X33852672Y-41579946D01*
X33846483Y-41593031D01*
X33839042Y-41605447D01*
X33830419Y-41617073D01*
X33820698Y-41627798D01*
X33809973Y-41637519D01*
X33798347Y-41646142D01*
X33785931Y-41653583D01*
X33772846Y-41659772D01*
X33759217Y-41664649D01*
X33745176Y-41668166D01*
X33730858Y-41670290D01*
X33716400Y-41671000D01*
X33371400Y-41671000D01*
X33356942Y-41670290D01*
X33342624Y-41668166D01*
X33328583Y-41664649D01*
X33314954Y-41659772D01*
X33301869Y-41653583D01*
X33289453Y-41646142D01*
X33277827Y-41637519D01*
X33267102Y-41627798D01*
X33257381Y-41617073D01*
X33248758Y-41605447D01*
X33241317Y-41593031D01*
X33235128Y-41579946D01*
X33230251Y-41566317D01*
X33226734Y-41552276D01*
X33224610Y-41537958D01*
X33223900Y-41523500D01*
X33223900Y-41228500D01*
X33224610Y-41214042D01*
X33226734Y-41199724D01*
X33230251Y-41185683D01*
X33235128Y-41172054D01*
X33241317Y-41158969D01*
X33248758Y-41146553D01*
X33257381Y-41134927D01*
X33267102Y-41124202D01*
X33277827Y-41114481D01*
X33289453Y-41105858D01*
X33301869Y-41098417D01*
X33314954Y-41092228D01*
X33328583Y-41087351D01*
X33342624Y-41083834D01*
X33356942Y-41081710D01*
X33371400Y-41081000D01*
X33716400Y-41081000D01*
X33730858Y-41081710D01*
X33730858Y-41081710D01*
G37*
D11*
X33543900Y-41376000D03*
D10*
G36*
X33730858Y-40111710D02*
G01*
X33745176Y-40113834D01*
X33759217Y-40117351D01*
X33772846Y-40122228D01*
X33785931Y-40128417D01*
X33798347Y-40135858D01*
X33809973Y-40144481D01*
X33820698Y-40154202D01*
X33830419Y-40164927D01*
X33839042Y-40176553D01*
X33846483Y-40188969D01*
X33852672Y-40202054D01*
X33857549Y-40215683D01*
X33861066Y-40229724D01*
X33863190Y-40244042D01*
X33863900Y-40258500D01*
X33863900Y-40553500D01*
X33863190Y-40567958D01*
X33861066Y-40582276D01*
X33857549Y-40596317D01*
X33852672Y-40609946D01*
X33846483Y-40623031D01*
X33839042Y-40635447D01*
X33830419Y-40647073D01*
X33820698Y-40657798D01*
X33809973Y-40667519D01*
X33798347Y-40676142D01*
X33785931Y-40683583D01*
X33772846Y-40689772D01*
X33759217Y-40694649D01*
X33745176Y-40698166D01*
X33730858Y-40700290D01*
X33716400Y-40701000D01*
X33371400Y-40701000D01*
X33356942Y-40700290D01*
X33342624Y-40698166D01*
X33328583Y-40694649D01*
X33314954Y-40689772D01*
X33301869Y-40683583D01*
X33289453Y-40676142D01*
X33277827Y-40667519D01*
X33267102Y-40657798D01*
X33257381Y-40647073D01*
X33248758Y-40635447D01*
X33241317Y-40623031D01*
X33235128Y-40609946D01*
X33230251Y-40596317D01*
X33226734Y-40582276D01*
X33224610Y-40567958D01*
X33223900Y-40553500D01*
X33223900Y-40258500D01*
X33224610Y-40244042D01*
X33226734Y-40229724D01*
X33230251Y-40215683D01*
X33235128Y-40202054D01*
X33241317Y-40188969D01*
X33248758Y-40176553D01*
X33257381Y-40164927D01*
X33267102Y-40154202D01*
X33277827Y-40144481D01*
X33289453Y-40135858D01*
X33301869Y-40128417D01*
X33314954Y-40122228D01*
X33328583Y-40117351D01*
X33342624Y-40113834D01*
X33356942Y-40111710D01*
X33371400Y-40111000D01*
X33716400Y-40111000D01*
X33730858Y-40111710D01*
X33730858Y-40111710D01*
G37*
D11*
X33543900Y-40406000D03*
D10*
G36*
X26465358Y-29430710D02*
G01*
X26479676Y-29432834D01*
X26493717Y-29436351D01*
X26507346Y-29441228D01*
X26520431Y-29447417D01*
X26532847Y-29454858D01*
X26544473Y-29463481D01*
X26555198Y-29473202D01*
X26564919Y-29483927D01*
X26573542Y-29495553D01*
X26580983Y-29507969D01*
X26587172Y-29521054D01*
X26592049Y-29534683D01*
X26595566Y-29548724D01*
X26597690Y-29563042D01*
X26598400Y-29577500D01*
X26598400Y-29922500D01*
X26597690Y-29936958D01*
X26595566Y-29951276D01*
X26592049Y-29965317D01*
X26587172Y-29978946D01*
X26580983Y-29992031D01*
X26573542Y-30004447D01*
X26564919Y-30016073D01*
X26555198Y-30026798D01*
X26544473Y-30036519D01*
X26532847Y-30045142D01*
X26520431Y-30052583D01*
X26507346Y-30058772D01*
X26493717Y-30063649D01*
X26479676Y-30067166D01*
X26465358Y-30069290D01*
X26450900Y-30070000D01*
X26155900Y-30070000D01*
X26141442Y-30069290D01*
X26127124Y-30067166D01*
X26113083Y-30063649D01*
X26099454Y-30058772D01*
X26086369Y-30052583D01*
X26073953Y-30045142D01*
X26062327Y-30036519D01*
X26051602Y-30026798D01*
X26041881Y-30016073D01*
X26033258Y-30004447D01*
X26025817Y-29992031D01*
X26019628Y-29978946D01*
X26014751Y-29965317D01*
X26011234Y-29951276D01*
X26009110Y-29936958D01*
X26008400Y-29922500D01*
X26008400Y-29577500D01*
X26009110Y-29563042D01*
X26011234Y-29548724D01*
X26014751Y-29534683D01*
X26019628Y-29521054D01*
X26025817Y-29507969D01*
X26033258Y-29495553D01*
X26041881Y-29483927D01*
X26051602Y-29473202D01*
X26062327Y-29463481D01*
X26073953Y-29454858D01*
X26086369Y-29447417D01*
X26099454Y-29441228D01*
X26113083Y-29436351D01*
X26127124Y-29432834D01*
X26141442Y-29430710D01*
X26155900Y-29430000D01*
X26450900Y-29430000D01*
X26465358Y-29430710D01*
X26465358Y-29430710D01*
G37*
D11*
X26303400Y-29750000D03*
D10*
G36*
X27435358Y-29430710D02*
G01*
X27449676Y-29432834D01*
X27463717Y-29436351D01*
X27477346Y-29441228D01*
X27490431Y-29447417D01*
X27502847Y-29454858D01*
X27514473Y-29463481D01*
X27525198Y-29473202D01*
X27534919Y-29483927D01*
X27543542Y-29495553D01*
X27550983Y-29507969D01*
X27557172Y-29521054D01*
X27562049Y-29534683D01*
X27565566Y-29548724D01*
X27567690Y-29563042D01*
X27568400Y-29577500D01*
X27568400Y-29922500D01*
X27567690Y-29936958D01*
X27565566Y-29951276D01*
X27562049Y-29965317D01*
X27557172Y-29978946D01*
X27550983Y-29992031D01*
X27543542Y-30004447D01*
X27534919Y-30016073D01*
X27525198Y-30026798D01*
X27514473Y-30036519D01*
X27502847Y-30045142D01*
X27490431Y-30052583D01*
X27477346Y-30058772D01*
X27463717Y-30063649D01*
X27449676Y-30067166D01*
X27435358Y-30069290D01*
X27420900Y-30070000D01*
X27125900Y-30070000D01*
X27111442Y-30069290D01*
X27097124Y-30067166D01*
X27083083Y-30063649D01*
X27069454Y-30058772D01*
X27056369Y-30052583D01*
X27043953Y-30045142D01*
X27032327Y-30036519D01*
X27021602Y-30026798D01*
X27011881Y-30016073D01*
X27003258Y-30004447D01*
X26995817Y-29992031D01*
X26989628Y-29978946D01*
X26984751Y-29965317D01*
X26981234Y-29951276D01*
X26979110Y-29936958D01*
X26978400Y-29922500D01*
X26978400Y-29577500D01*
X26979110Y-29563042D01*
X26981234Y-29548724D01*
X26984751Y-29534683D01*
X26989628Y-29521054D01*
X26995817Y-29507969D01*
X27003258Y-29495553D01*
X27011881Y-29483927D01*
X27021602Y-29473202D01*
X27032327Y-29463481D01*
X27043953Y-29454858D01*
X27056369Y-29447417D01*
X27069454Y-29441228D01*
X27083083Y-29436351D01*
X27097124Y-29432834D01*
X27111442Y-29430710D01*
X27125900Y-29430000D01*
X27420900Y-29430000D01*
X27435358Y-29430710D01*
X27435358Y-29430710D01*
G37*
D11*
X27273400Y-29750000D03*
D12*
X31293900Y-41191000D03*
X32593900Y-40691000D03*
X32593900Y-41691000D03*
D10*
G36*
X39857026Y-31125301D02*
G01*
X39863093Y-31126201D01*
X39869043Y-31127691D01*
X39874818Y-31129758D01*
X39880362Y-31132380D01*
X39885623Y-31135533D01*
X39890550Y-31139187D01*
X39895094Y-31143306D01*
X39899213Y-31147850D01*
X39902867Y-31152777D01*
X39906020Y-31158038D01*
X39908642Y-31163582D01*
X39910709Y-31169357D01*
X39912199Y-31175307D01*
X39913099Y-31181374D01*
X39913400Y-31187500D01*
X39913400Y-31312500D01*
X39913099Y-31318626D01*
X39912199Y-31324693D01*
X39910709Y-31330643D01*
X39908642Y-31336418D01*
X39906020Y-31341962D01*
X39902867Y-31347223D01*
X39899213Y-31352150D01*
X39895094Y-31356694D01*
X39890550Y-31360813D01*
X39885623Y-31364467D01*
X39880362Y-31367620D01*
X39874818Y-31370242D01*
X39869043Y-31372309D01*
X39863093Y-31373799D01*
X39857026Y-31374699D01*
X39850900Y-31375000D01*
X39100900Y-31375000D01*
X39094774Y-31374699D01*
X39088707Y-31373799D01*
X39082757Y-31372309D01*
X39076982Y-31370242D01*
X39071438Y-31367620D01*
X39066177Y-31364467D01*
X39061250Y-31360813D01*
X39056706Y-31356694D01*
X39052587Y-31352150D01*
X39048933Y-31347223D01*
X39045780Y-31341962D01*
X39043158Y-31336418D01*
X39041091Y-31330643D01*
X39039601Y-31324693D01*
X39038701Y-31318626D01*
X39038400Y-31312500D01*
X39038400Y-31187500D01*
X39038701Y-31181374D01*
X39039601Y-31175307D01*
X39041091Y-31169357D01*
X39043158Y-31163582D01*
X39045780Y-31158038D01*
X39048933Y-31152777D01*
X39052587Y-31147850D01*
X39056706Y-31143306D01*
X39061250Y-31139187D01*
X39066177Y-31135533D01*
X39071438Y-31132380D01*
X39076982Y-31129758D01*
X39082757Y-31127691D01*
X39088707Y-31126201D01*
X39094774Y-31125301D01*
X39100900Y-31125000D01*
X39850900Y-31125000D01*
X39857026Y-31125301D01*
X39857026Y-31125301D01*
G37*
D13*
X39475900Y-31250000D03*
D10*
G36*
X39857026Y-31625301D02*
G01*
X39863093Y-31626201D01*
X39869043Y-31627691D01*
X39874818Y-31629758D01*
X39880362Y-31632380D01*
X39885623Y-31635533D01*
X39890550Y-31639187D01*
X39895094Y-31643306D01*
X39899213Y-31647850D01*
X39902867Y-31652777D01*
X39906020Y-31658038D01*
X39908642Y-31663582D01*
X39910709Y-31669357D01*
X39912199Y-31675307D01*
X39913099Y-31681374D01*
X39913400Y-31687500D01*
X39913400Y-31812500D01*
X39913099Y-31818626D01*
X39912199Y-31824693D01*
X39910709Y-31830643D01*
X39908642Y-31836418D01*
X39906020Y-31841962D01*
X39902867Y-31847223D01*
X39899213Y-31852150D01*
X39895094Y-31856694D01*
X39890550Y-31860813D01*
X39885623Y-31864467D01*
X39880362Y-31867620D01*
X39874818Y-31870242D01*
X39869043Y-31872309D01*
X39863093Y-31873799D01*
X39857026Y-31874699D01*
X39850900Y-31875000D01*
X39100900Y-31875000D01*
X39094774Y-31874699D01*
X39088707Y-31873799D01*
X39082757Y-31872309D01*
X39076982Y-31870242D01*
X39071438Y-31867620D01*
X39066177Y-31864467D01*
X39061250Y-31860813D01*
X39056706Y-31856694D01*
X39052587Y-31852150D01*
X39048933Y-31847223D01*
X39045780Y-31841962D01*
X39043158Y-31836418D01*
X39041091Y-31830643D01*
X39039601Y-31824693D01*
X39038701Y-31818626D01*
X39038400Y-31812500D01*
X39038400Y-31687500D01*
X39038701Y-31681374D01*
X39039601Y-31675307D01*
X39041091Y-31669357D01*
X39043158Y-31663582D01*
X39045780Y-31658038D01*
X39048933Y-31652777D01*
X39052587Y-31647850D01*
X39056706Y-31643306D01*
X39061250Y-31639187D01*
X39066177Y-31635533D01*
X39071438Y-31632380D01*
X39076982Y-31629758D01*
X39082757Y-31627691D01*
X39088707Y-31626201D01*
X39094774Y-31625301D01*
X39100900Y-31625000D01*
X39850900Y-31625000D01*
X39857026Y-31625301D01*
X39857026Y-31625301D01*
G37*
D13*
X39475900Y-31750000D03*
D10*
G36*
X39857026Y-32125301D02*
G01*
X39863093Y-32126201D01*
X39869043Y-32127691D01*
X39874818Y-32129758D01*
X39880362Y-32132380D01*
X39885623Y-32135533D01*
X39890550Y-32139187D01*
X39895094Y-32143306D01*
X39899213Y-32147850D01*
X39902867Y-32152777D01*
X39906020Y-32158038D01*
X39908642Y-32163582D01*
X39910709Y-32169357D01*
X39912199Y-32175307D01*
X39913099Y-32181374D01*
X39913400Y-32187500D01*
X39913400Y-32312500D01*
X39913099Y-32318626D01*
X39912199Y-32324693D01*
X39910709Y-32330643D01*
X39908642Y-32336418D01*
X39906020Y-32341962D01*
X39902867Y-32347223D01*
X39899213Y-32352150D01*
X39895094Y-32356694D01*
X39890550Y-32360813D01*
X39885623Y-32364467D01*
X39880362Y-32367620D01*
X39874818Y-32370242D01*
X39869043Y-32372309D01*
X39863093Y-32373799D01*
X39857026Y-32374699D01*
X39850900Y-32375000D01*
X39100900Y-32375000D01*
X39094774Y-32374699D01*
X39088707Y-32373799D01*
X39082757Y-32372309D01*
X39076982Y-32370242D01*
X39071438Y-32367620D01*
X39066177Y-32364467D01*
X39061250Y-32360813D01*
X39056706Y-32356694D01*
X39052587Y-32352150D01*
X39048933Y-32347223D01*
X39045780Y-32341962D01*
X39043158Y-32336418D01*
X39041091Y-32330643D01*
X39039601Y-32324693D01*
X39038701Y-32318626D01*
X39038400Y-32312500D01*
X39038400Y-32187500D01*
X39038701Y-32181374D01*
X39039601Y-32175307D01*
X39041091Y-32169357D01*
X39043158Y-32163582D01*
X39045780Y-32158038D01*
X39048933Y-32152777D01*
X39052587Y-32147850D01*
X39056706Y-32143306D01*
X39061250Y-32139187D01*
X39066177Y-32135533D01*
X39071438Y-32132380D01*
X39076982Y-32129758D01*
X39082757Y-32127691D01*
X39088707Y-32126201D01*
X39094774Y-32125301D01*
X39100900Y-32125000D01*
X39850900Y-32125000D01*
X39857026Y-32125301D01*
X39857026Y-32125301D01*
G37*
D13*
X39475900Y-32250000D03*
D10*
G36*
X39857026Y-32625301D02*
G01*
X39863093Y-32626201D01*
X39869043Y-32627691D01*
X39874818Y-32629758D01*
X39880362Y-32632380D01*
X39885623Y-32635533D01*
X39890550Y-32639187D01*
X39895094Y-32643306D01*
X39899213Y-32647850D01*
X39902867Y-32652777D01*
X39906020Y-32658038D01*
X39908642Y-32663582D01*
X39910709Y-32669357D01*
X39912199Y-32675307D01*
X39913099Y-32681374D01*
X39913400Y-32687500D01*
X39913400Y-32812500D01*
X39913099Y-32818626D01*
X39912199Y-32824693D01*
X39910709Y-32830643D01*
X39908642Y-32836418D01*
X39906020Y-32841962D01*
X39902867Y-32847223D01*
X39899213Y-32852150D01*
X39895094Y-32856694D01*
X39890550Y-32860813D01*
X39885623Y-32864467D01*
X39880362Y-32867620D01*
X39874818Y-32870242D01*
X39869043Y-32872309D01*
X39863093Y-32873799D01*
X39857026Y-32874699D01*
X39850900Y-32875000D01*
X39100900Y-32875000D01*
X39094774Y-32874699D01*
X39088707Y-32873799D01*
X39082757Y-32872309D01*
X39076982Y-32870242D01*
X39071438Y-32867620D01*
X39066177Y-32864467D01*
X39061250Y-32860813D01*
X39056706Y-32856694D01*
X39052587Y-32852150D01*
X39048933Y-32847223D01*
X39045780Y-32841962D01*
X39043158Y-32836418D01*
X39041091Y-32830643D01*
X39039601Y-32824693D01*
X39038701Y-32818626D01*
X39038400Y-32812500D01*
X39038400Y-32687500D01*
X39038701Y-32681374D01*
X39039601Y-32675307D01*
X39041091Y-32669357D01*
X39043158Y-32663582D01*
X39045780Y-32658038D01*
X39048933Y-32652777D01*
X39052587Y-32647850D01*
X39056706Y-32643306D01*
X39061250Y-32639187D01*
X39066177Y-32635533D01*
X39071438Y-32632380D01*
X39076982Y-32629758D01*
X39082757Y-32627691D01*
X39088707Y-32626201D01*
X39094774Y-32625301D01*
X39100900Y-32625000D01*
X39850900Y-32625000D01*
X39857026Y-32625301D01*
X39857026Y-32625301D01*
G37*
D13*
X39475900Y-32750000D03*
D10*
G36*
X39857026Y-33125301D02*
G01*
X39863093Y-33126201D01*
X39869043Y-33127691D01*
X39874818Y-33129758D01*
X39880362Y-33132380D01*
X39885623Y-33135533D01*
X39890550Y-33139187D01*
X39895094Y-33143306D01*
X39899213Y-33147850D01*
X39902867Y-33152777D01*
X39906020Y-33158038D01*
X39908642Y-33163582D01*
X39910709Y-33169357D01*
X39912199Y-33175307D01*
X39913099Y-33181374D01*
X39913400Y-33187500D01*
X39913400Y-33312500D01*
X39913099Y-33318626D01*
X39912199Y-33324693D01*
X39910709Y-33330643D01*
X39908642Y-33336418D01*
X39906020Y-33341962D01*
X39902867Y-33347223D01*
X39899213Y-33352150D01*
X39895094Y-33356694D01*
X39890550Y-33360813D01*
X39885623Y-33364467D01*
X39880362Y-33367620D01*
X39874818Y-33370242D01*
X39869043Y-33372309D01*
X39863093Y-33373799D01*
X39857026Y-33374699D01*
X39850900Y-33375000D01*
X39100900Y-33375000D01*
X39094774Y-33374699D01*
X39088707Y-33373799D01*
X39082757Y-33372309D01*
X39076982Y-33370242D01*
X39071438Y-33367620D01*
X39066177Y-33364467D01*
X39061250Y-33360813D01*
X39056706Y-33356694D01*
X39052587Y-33352150D01*
X39048933Y-33347223D01*
X39045780Y-33341962D01*
X39043158Y-33336418D01*
X39041091Y-33330643D01*
X39039601Y-33324693D01*
X39038701Y-33318626D01*
X39038400Y-33312500D01*
X39038400Y-33187500D01*
X39038701Y-33181374D01*
X39039601Y-33175307D01*
X39041091Y-33169357D01*
X39043158Y-33163582D01*
X39045780Y-33158038D01*
X39048933Y-33152777D01*
X39052587Y-33147850D01*
X39056706Y-33143306D01*
X39061250Y-33139187D01*
X39066177Y-33135533D01*
X39071438Y-33132380D01*
X39076982Y-33129758D01*
X39082757Y-33127691D01*
X39088707Y-33126201D01*
X39094774Y-33125301D01*
X39100900Y-33125000D01*
X39850900Y-33125000D01*
X39857026Y-33125301D01*
X39857026Y-33125301D01*
G37*
D13*
X39475900Y-33250000D03*
D10*
G36*
X39857026Y-33625301D02*
G01*
X39863093Y-33626201D01*
X39869043Y-33627691D01*
X39874818Y-33629758D01*
X39880362Y-33632380D01*
X39885623Y-33635533D01*
X39890550Y-33639187D01*
X39895094Y-33643306D01*
X39899213Y-33647850D01*
X39902867Y-33652777D01*
X39906020Y-33658038D01*
X39908642Y-33663582D01*
X39910709Y-33669357D01*
X39912199Y-33675307D01*
X39913099Y-33681374D01*
X39913400Y-33687500D01*
X39913400Y-33812500D01*
X39913099Y-33818626D01*
X39912199Y-33824693D01*
X39910709Y-33830643D01*
X39908642Y-33836418D01*
X39906020Y-33841962D01*
X39902867Y-33847223D01*
X39899213Y-33852150D01*
X39895094Y-33856694D01*
X39890550Y-33860813D01*
X39885623Y-33864467D01*
X39880362Y-33867620D01*
X39874818Y-33870242D01*
X39869043Y-33872309D01*
X39863093Y-33873799D01*
X39857026Y-33874699D01*
X39850900Y-33875000D01*
X39100900Y-33875000D01*
X39094774Y-33874699D01*
X39088707Y-33873799D01*
X39082757Y-33872309D01*
X39076982Y-33870242D01*
X39071438Y-33867620D01*
X39066177Y-33864467D01*
X39061250Y-33860813D01*
X39056706Y-33856694D01*
X39052587Y-33852150D01*
X39048933Y-33847223D01*
X39045780Y-33841962D01*
X39043158Y-33836418D01*
X39041091Y-33830643D01*
X39039601Y-33824693D01*
X39038701Y-33818626D01*
X39038400Y-33812500D01*
X39038400Y-33687500D01*
X39038701Y-33681374D01*
X39039601Y-33675307D01*
X39041091Y-33669357D01*
X39043158Y-33663582D01*
X39045780Y-33658038D01*
X39048933Y-33652777D01*
X39052587Y-33647850D01*
X39056706Y-33643306D01*
X39061250Y-33639187D01*
X39066177Y-33635533D01*
X39071438Y-33632380D01*
X39076982Y-33629758D01*
X39082757Y-33627691D01*
X39088707Y-33626201D01*
X39094774Y-33625301D01*
X39100900Y-33625000D01*
X39850900Y-33625000D01*
X39857026Y-33625301D01*
X39857026Y-33625301D01*
G37*
D13*
X39475900Y-33750000D03*
D10*
G36*
X39857026Y-34125301D02*
G01*
X39863093Y-34126201D01*
X39869043Y-34127691D01*
X39874818Y-34129758D01*
X39880362Y-34132380D01*
X39885623Y-34135533D01*
X39890550Y-34139187D01*
X39895094Y-34143306D01*
X39899213Y-34147850D01*
X39902867Y-34152777D01*
X39906020Y-34158038D01*
X39908642Y-34163582D01*
X39910709Y-34169357D01*
X39912199Y-34175307D01*
X39913099Y-34181374D01*
X39913400Y-34187500D01*
X39913400Y-34312500D01*
X39913099Y-34318626D01*
X39912199Y-34324693D01*
X39910709Y-34330643D01*
X39908642Y-34336418D01*
X39906020Y-34341962D01*
X39902867Y-34347223D01*
X39899213Y-34352150D01*
X39895094Y-34356694D01*
X39890550Y-34360813D01*
X39885623Y-34364467D01*
X39880362Y-34367620D01*
X39874818Y-34370242D01*
X39869043Y-34372309D01*
X39863093Y-34373799D01*
X39857026Y-34374699D01*
X39850900Y-34375000D01*
X39100900Y-34375000D01*
X39094774Y-34374699D01*
X39088707Y-34373799D01*
X39082757Y-34372309D01*
X39076982Y-34370242D01*
X39071438Y-34367620D01*
X39066177Y-34364467D01*
X39061250Y-34360813D01*
X39056706Y-34356694D01*
X39052587Y-34352150D01*
X39048933Y-34347223D01*
X39045780Y-34341962D01*
X39043158Y-34336418D01*
X39041091Y-34330643D01*
X39039601Y-34324693D01*
X39038701Y-34318626D01*
X39038400Y-34312500D01*
X39038400Y-34187500D01*
X39038701Y-34181374D01*
X39039601Y-34175307D01*
X39041091Y-34169357D01*
X39043158Y-34163582D01*
X39045780Y-34158038D01*
X39048933Y-34152777D01*
X39052587Y-34147850D01*
X39056706Y-34143306D01*
X39061250Y-34139187D01*
X39066177Y-34135533D01*
X39071438Y-34132380D01*
X39076982Y-34129758D01*
X39082757Y-34127691D01*
X39088707Y-34126201D01*
X39094774Y-34125301D01*
X39100900Y-34125000D01*
X39850900Y-34125000D01*
X39857026Y-34125301D01*
X39857026Y-34125301D01*
G37*
D13*
X39475900Y-34250000D03*
D10*
G36*
X39857026Y-34625301D02*
G01*
X39863093Y-34626201D01*
X39869043Y-34627691D01*
X39874818Y-34629758D01*
X39880362Y-34632380D01*
X39885623Y-34635533D01*
X39890550Y-34639187D01*
X39895094Y-34643306D01*
X39899213Y-34647850D01*
X39902867Y-34652777D01*
X39906020Y-34658038D01*
X39908642Y-34663582D01*
X39910709Y-34669357D01*
X39912199Y-34675307D01*
X39913099Y-34681374D01*
X39913400Y-34687500D01*
X39913400Y-34812500D01*
X39913099Y-34818626D01*
X39912199Y-34824693D01*
X39910709Y-34830643D01*
X39908642Y-34836418D01*
X39906020Y-34841962D01*
X39902867Y-34847223D01*
X39899213Y-34852150D01*
X39895094Y-34856694D01*
X39890550Y-34860813D01*
X39885623Y-34864467D01*
X39880362Y-34867620D01*
X39874818Y-34870242D01*
X39869043Y-34872309D01*
X39863093Y-34873799D01*
X39857026Y-34874699D01*
X39850900Y-34875000D01*
X39100900Y-34875000D01*
X39094774Y-34874699D01*
X39088707Y-34873799D01*
X39082757Y-34872309D01*
X39076982Y-34870242D01*
X39071438Y-34867620D01*
X39066177Y-34864467D01*
X39061250Y-34860813D01*
X39056706Y-34856694D01*
X39052587Y-34852150D01*
X39048933Y-34847223D01*
X39045780Y-34841962D01*
X39043158Y-34836418D01*
X39041091Y-34830643D01*
X39039601Y-34824693D01*
X39038701Y-34818626D01*
X39038400Y-34812500D01*
X39038400Y-34687500D01*
X39038701Y-34681374D01*
X39039601Y-34675307D01*
X39041091Y-34669357D01*
X39043158Y-34663582D01*
X39045780Y-34658038D01*
X39048933Y-34652777D01*
X39052587Y-34647850D01*
X39056706Y-34643306D01*
X39061250Y-34639187D01*
X39066177Y-34635533D01*
X39071438Y-34632380D01*
X39076982Y-34629758D01*
X39082757Y-34627691D01*
X39088707Y-34626201D01*
X39094774Y-34625301D01*
X39100900Y-34625000D01*
X39850900Y-34625000D01*
X39857026Y-34625301D01*
X39857026Y-34625301D01*
G37*
D13*
X39475900Y-34750000D03*
D10*
G36*
X39857026Y-35125301D02*
G01*
X39863093Y-35126201D01*
X39869043Y-35127691D01*
X39874818Y-35129758D01*
X39880362Y-35132380D01*
X39885623Y-35135533D01*
X39890550Y-35139187D01*
X39895094Y-35143306D01*
X39899213Y-35147850D01*
X39902867Y-35152777D01*
X39906020Y-35158038D01*
X39908642Y-35163582D01*
X39910709Y-35169357D01*
X39912199Y-35175307D01*
X39913099Y-35181374D01*
X39913400Y-35187500D01*
X39913400Y-35312500D01*
X39913099Y-35318626D01*
X39912199Y-35324693D01*
X39910709Y-35330643D01*
X39908642Y-35336418D01*
X39906020Y-35341962D01*
X39902867Y-35347223D01*
X39899213Y-35352150D01*
X39895094Y-35356694D01*
X39890550Y-35360813D01*
X39885623Y-35364467D01*
X39880362Y-35367620D01*
X39874818Y-35370242D01*
X39869043Y-35372309D01*
X39863093Y-35373799D01*
X39857026Y-35374699D01*
X39850900Y-35375000D01*
X39100900Y-35375000D01*
X39094774Y-35374699D01*
X39088707Y-35373799D01*
X39082757Y-35372309D01*
X39076982Y-35370242D01*
X39071438Y-35367620D01*
X39066177Y-35364467D01*
X39061250Y-35360813D01*
X39056706Y-35356694D01*
X39052587Y-35352150D01*
X39048933Y-35347223D01*
X39045780Y-35341962D01*
X39043158Y-35336418D01*
X39041091Y-35330643D01*
X39039601Y-35324693D01*
X39038701Y-35318626D01*
X39038400Y-35312500D01*
X39038400Y-35187500D01*
X39038701Y-35181374D01*
X39039601Y-35175307D01*
X39041091Y-35169357D01*
X39043158Y-35163582D01*
X39045780Y-35158038D01*
X39048933Y-35152777D01*
X39052587Y-35147850D01*
X39056706Y-35143306D01*
X39061250Y-35139187D01*
X39066177Y-35135533D01*
X39071438Y-35132380D01*
X39076982Y-35129758D01*
X39082757Y-35127691D01*
X39088707Y-35126201D01*
X39094774Y-35125301D01*
X39100900Y-35125000D01*
X39850900Y-35125000D01*
X39857026Y-35125301D01*
X39857026Y-35125301D01*
G37*
D13*
X39475900Y-35250000D03*
D10*
G36*
X39857026Y-35625301D02*
G01*
X39863093Y-35626201D01*
X39869043Y-35627691D01*
X39874818Y-35629758D01*
X39880362Y-35632380D01*
X39885623Y-35635533D01*
X39890550Y-35639187D01*
X39895094Y-35643306D01*
X39899213Y-35647850D01*
X39902867Y-35652777D01*
X39906020Y-35658038D01*
X39908642Y-35663582D01*
X39910709Y-35669357D01*
X39912199Y-35675307D01*
X39913099Y-35681374D01*
X39913400Y-35687500D01*
X39913400Y-35812500D01*
X39913099Y-35818626D01*
X39912199Y-35824693D01*
X39910709Y-35830643D01*
X39908642Y-35836418D01*
X39906020Y-35841962D01*
X39902867Y-35847223D01*
X39899213Y-35852150D01*
X39895094Y-35856694D01*
X39890550Y-35860813D01*
X39885623Y-35864467D01*
X39880362Y-35867620D01*
X39874818Y-35870242D01*
X39869043Y-35872309D01*
X39863093Y-35873799D01*
X39857026Y-35874699D01*
X39850900Y-35875000D01*
X39100900Y-35875000D01*
X39094774Y-35874699D01*
X39088707Y-35873799D01*
X39082757Y-35872309D01*
X39076982Y-35870242D01*
X39071438Y-35867620D01*
X39066177Y-35864467D01*
X39061250Y-35860813D01*
X39056706Y-35856694D01*
X39052587Y-35852150D01*
X39048933Y-35847223D01*
X39045780Y-35841962D01*
X39043158Y-35836418D01*
X39041091Y-35830643D01*
X39039601Y-35824693D01*
X39038701Y-35818626D01*
X39038400Y-35812500D01*
X39038400Y-35687500D01*
X39038701Y-35681374D01*
X39039601Y-35675307D01*
X39041091Y-35669357D01*
X39043158Y-35663582D01*
X39045780Y-35658038D01*
X39048933Y-35652777D01*
X39052587Y-35647850D01*
X39056706Y-35643306D01*
X39061250Y-35639187D01*
X39066177Y-35635533D01*
X39071438Y-35632380D01*
X39076982Y-35629758D01*
X39082757Y-35627691D01*
X39088707Y-35626201D01*
X39094774Y-35625301D01*
X39100900Y-35625000D01*
X39850900Y-35625000D01*
X39857026Y-35625301D01*
X39857026Y-35625301D01*
G37*
D13*
X39475900Y-35750000D03*
D10*
G36*
X39857026Y-36125301D02*
G01*
X39863093Y-36126201D01*
X39869043Y-36127691D01*
X39874818Y-36129758D01*
X39880362Y-36132380D01*
X39885623Y-36135533D01*
X39890550Y-36139187D01*
X39895094Y-36143306D01*
X39899213Y-36147850D01*
X39902867Y-36152777D01*
X39906020Y-36158038D01*
X39908642Y-36163582D01*
X39910709Y-36169357D01*
X39912199Y-36175307D01*
X39913099Y-36181374D01*
X39913400Y-36187500D01*
X39913400Y-36312500D01*
X39913099Y-36318626D01*
X39912199Y-36324693D01*
X39910709Y-36330643D01*
X39908642Y-36336418D01*
X39906020Y-36341962D01*
X39902867Y-36347223D01*
X39899213Y-36352150D01*
X39895094Y-36356694D01*
X39890550Y-36360813D01*
X39885623Y-36364467D01*
X39880362Y-36367620D01*
X39874818Y-36370242D01*
X39869043Y-36372309D01*
X39863093Y-36373799D01*
X39857026Y-36374699D01*
X39850900Y-36375000D01*
X39100900Y-36375000D01*
X39094774Y-36374699D01*
X39088707Y-36373799D01*
X39082757Y-36372309D01*
X39076982Y-36370242D01*
X39071438Y-36367620D01*
X39066177Y-36364467D01*
X39061250Y-36360813D01*
X39056706Y-36356694D01*
X39052587Y-36352150D01*
X39048933Y-36347223D01*
X39045780Y-36341962D01*
X39043158Y-36336418D01*
X39041091Y-36330643D01*
X39039601Y-36324693D01*
X39038701Y-36318626D01*
X39038400Y-36312500D01*
X39038400Y-36187500D01*
X39038701Y-36181374D01*
X39039601Y-36175307D01*
X39041091Y-36169357D01*
X39043158Y-36163582D01*
X39045780Y-36158038D01*
X39048933Y-36152777D01*
X39052587Y-36147850D01*
X39056706Y-36143306D01*
X39061250Y-36139187D01*
X39066177Y-36135533D01*
X39071438Y-36132380D01*
X39076982Y-36129758D01*
X39082757Y-36127691D01*
X39088707Y-36126201D01*
X39094774Y-36125301D01*
X39100900Y-36125000D01*
X39850900Y-36125000D01*
X39857026Y-36125301D01*
X39857026Y-36125301D01*
G37*
D13*
X39475900Y-36250000D03*
D10*
G36*
X39857026Y-36625301D02*
G01*
X39863093Y-36626201D01*
X39869043Y-36627691D01*
X39874818Y-36629758D01*
X39880362Y-36632380D01*
X39885623Y-36635533D01*
X39890550Y-36639187D01*
X39895094Y-36643306D01*
X39899213Y-36647850D01*
X39902867Y-36652777D01*
X39906020Y-36658038D01*
X39908642Y-36663582D01*
X39910709Y-36669357D01*
X39912199Y-36675307D01*
X39913099Y-36681374D01*
X39913400Y-36687500D01*
X39913400Y-36812500D01*
X39913099Y-36818626D01*
X39912199Y-36824693D01*
X39910709Y-36830643D01*
X39908642Y-36836418D01*
X39906020Y-36841962D01*
X39902867Y-36847223D01*
X39899213Y-36852150D01*
X39895094Y-36856694D01*
X39890550Y-36860813D01*
X39885623Y-36864467D01*
X39880362Y-36867620D01*
X39874818Y-36870242D01*
X39869043Y-36872309D01*
X39863093Y-36873799D01*
X39857026Y-36874699D01*
X39850900Y-36875000D01*
X39100900Y-36875000D01*
X39094774Y-36874699D01*
X39088707Y-36873799D01*
X39082757Y-36872309D01*
X39076982Y-36870242D01*
X39071438Y-36867620D01*
X39066177Y-36864467D01*
X39061250Y-36860813D01*
X39056706Y-36856694D01*
X39052587Y-36852150D01*
X39048933Y-36847223D01*
X39045780Y-36841962D01*
X39043158Y-36836418D01*
X39041091Y-36830643D01*
X39039601Y-36824693D01*
X39038701Y-36818626D01*
X39038400Y-36812500D01*
X39038400Y-36687500D01*
X39038701Y-36681374D01*
X39039601Y-36675307D01*
X39041091Y-36669357D01*
X39043158Y-36663582D01*
X39045780Y-36658038D01*
X39048933Y-36652777D01*
X39052587Y-36647850D01*
X39056706Y-36643306D01*
X39061250Y-36639187D01*
X39066177Y-36635533D01*
X39071438Y-36632380D01*
X39076982Y-36629758D01*
X39082757Y-36627691D01*
X39088707Y-36626201D01*
X39094774Y-36625301D01*
X39100900Y-36625000D01*
X39850900Y-36625000D01*
X39857026Y-36625301D01*
X39857026Y-36625301D01*
G37*
D13*
X39475900Y-36750000D03*
D10*
G36*
X39857026Y-37125301D02*
G01*
X39863093Y-37126201D01*
X39869043Y-37127691D01*
X39874818Y-37129758D01*
X39880362Y-37132380D01*
X39885623Y-37135533D01*
X39890550Y-37139187D01*
X39895094Y-37143306D01*
X39899213Y-37147850D01*
X39902867Y-37152777D01*
X39906020Y-37158038D01*
X39908642Y-37163582D01*
X39910709Y-37169357D01*
X39912199Y-37175307D01*
X39913099Y-37181374D01*
X39913400Y-37187500D01*
X39913400Y-37312500D01*
X39913099Y-37318626D01*
X39912199Y-37324693D01*
X39910709Y-37330643D01*
X39908642Y-37336418D01*
X39906020Y-37341962D01*
X39902867Y-37347223D01*
X39899213Y-37352150D01*
X39895094Y-37356694D01*
X39890550Y-37360813D01*
X39885623Y-37364467D01*
X39880362Y-37367620D01*
X39874818Y-37370242D01*
X39869043Y-37372309D01*
X39863093Y-37373799D01*
X39857026Y-37374699D01*
X39850900Y-37375000D01*
X39100900Y-37375000D01*
X39094774Y-37374699D01*
X39088707Y-37373799D01*
X39082757Y-37372309D01*
X39076982Y-37370242D01*
X39071438Y-37367620D01*
X39066177Y-37364467D01*
X39061250Y-37360813D01*
X39056706Y-37356694D01*
X39052587Y-37352150D01*
X39048933Y-37347223D01*
X39045780Y-37341962D01*
X39043158Y-37336418D01*
X39041091Y-37330643D01*
X39039601Y-37324693D01*
X39038701Y-37318626D01*
X39038400Y-37312500D01*
X39038400Y-37187500D01*
X39038701Y-37181374D01*
X39039601Y-37175307D01*
X39041091Y-37169357D01*
X39043158Y-37163582D01*
X39045780Y-37158038D01*
X39048933Y-37152777D01*
X39052587Y-37147850D01*
X39056706Y-37143306D01*
X39061250Y-37139187D01*
X39066177Y-37135533D01*
X39071438Y-37132380D01*
X39076982Y-37129758D01*
X39082757Y-37127691D01*
X39088707Y-37126201D01*
X39094774Y-37125301D01*
X39100900Y-37125000D01*
X39850900Y-37125000D01*
X39857026Y-37125301D01*
X39857026Y-37125301D01*
G37*
D13*
X39475900Y-37250000D03*
D10*
G36*
X39857026Y-37625301D02*
G01*
X39863093Y-37626201D01*
X39869043Y-37627691D01*
X39874818Y-37629758D01*
X39880362Y-37632380D01*
X39885623Y-37635533D01*
X39890550Y-37639187D01*
X39895094Y-37643306D01*
X39899213Y-37647850D01*
X39902867Y-37652777D01*
X39906020Y-37658038D01*
X39908642Y-37663582D01*
X39910709Y-37669357D01*
X39912199Y-37675307D01*
X39913099Y-37681374D01*
X39913400Y-37687500D01*
X39913400Y-37812500D01*
X39913099Y-37818626D01*
X39912199Y-37824693D01*
X39910709Y-37830643D01*
X39908642Y-37836418D01*
X39906020Y-37841962D01*
X39902867Y-37847223D01*
X39899213Y-37852150D01*
X39895094Y-37856694D01*
X39890550Y-37860813D01*
X39885623Y-37864467D01*
X39880362Y-37867620D01*
X39874818Y-37870242D01*
X39869043Y-37872309D01*
X39863093Y-37873799D01*
X39857026Y-37874699D01*
X39850900Y-37875000D01*
X39100900Y-37875000D01*
X39094774Y-37874699D01*
X39088707Y-37873799D01*
X39082757Y-37872309D01*
X39076982Y-37870242D01*
X39071438Y-37867620D01*
X39066177Y-37864467D01*
X39061250Y-37860813D01*
X39056706Y-37856694D01*
X39052587Y-37852150D01*
X39048933Y-37847223D01*
X39045780Y-37841962D01*
X39043158Y-37836418D01*
X39041091Y-37830643D01*
X39039601Y-37824693D01*
X39038701Y-37818626D01*
X39038400Y-37812500D01*
X39038400Y-37687500D01*
X39038701Y-37681374D01*
X39039601Y-37675307D01*
X39041091Y-37669357D01*
X39043158Y-37663582D01*
X39045780Y-37658038D01*
X39048933Y-37652777D01*
X39052587Y-37647850D01*
X39056706Y-37643306D01*
X39061250Y-37639187D01*
X39066177Y-37635533D01*
X39071438Y-37632380D01*
X39076982Y-37629758D01*
X39082757Y-37627691D01*
X39088707Y-37626201D01*
X39094774Y-37625301D01*
X39100900Y-37625000D01*
X39850900Y-37625000D01*
X39857026Y-37625301D01*
X39857026Y-37625301D01*
G37*
D13*
X39475900Y-37750000D03*
D10*
G36*
X39857026Y-38125301D02*
G01*
X39863093Y-38126201D01*
X39869043Y-38127691D01*
X39874818Y-38129758D01*
X39880362Y-38132380D01*
X39885623Y-38135533D01*
X39890550Y-38139187D01*
X39895094Y-38143306D01*
X39899213Y-38147850D01*
X39902867Y-38152777D01*
X39906020Y-38158038D01*
X39908642Y-38163582D01*
X39910709Y-38169357D01*
X39912199Y-38175307D01*
X39913099Y-38181374D01*
X39913400Y-38187500D01*
X39913400Y-38312500D01*
X39913099Y-38318626D01*
X39912199Y-38324693D01*
X39910709Y-38330643D01*
X39908642Y-38336418D01*
X39906020Y-38341962D01*
X39902867Y-38347223D01*
X39899213Y-38352150D01*
X39895094Y-38356694D01*
X39890550Y-38360813D01*
X39885623Y-38364467D01*
X39880362Y-38367620D01*
X39874818Y-38370242D01*
X39869043Y-38372309D01*
X39863093Y-38373799D01*
X39857026Y-38374699D01*
X39850900Y-38375000D01*
X39100900Y-38375000D01*
X39094774Y-38374699D01*
X39088707Y-38373799D01*
X39082757Y-38372309D01*
X39076982Y-38370242D01*
X39071438Y-38367620D01*
X39066177Y-38364467D01*
X39061250Y-38360813D01*
X39056706Y-38356694D01*
X39052587Y-38352150D01*
X39048933Y-38347223D01*
X39045780Y-38341962D01*
X39043158Y-38336418D01*
X39041091Y-38330643D01*
X39039601Y-38324693D01*
X39038701Y-38318626D01*
X39038400Y-38312500D01*
X39038400Y-38187500D01*
X39038701Y-38181374D01*
X39039601Y-38175307D01*
X39041091Y-38169357D01*
X39043158Y-38163582D01*
X39045780Y-38158038D01*
X39048933Y-38152777D01*
X39052587Y-38147850D01*
X39056706Y-38143306D01*
X39061250Y-38139187D01*
X39066177Y-38135533D01*
X39071438Y-38132380D01*
X39076982Y-38129758D01*
X39082757Y-38127691D01*
X39088707Y-38126201D01*
X39094774Y-38125301D01*
X39100900Y-38125000D01*
X39850900Y-38125000D01*
X39857026Y-38125301D01*
X39857026Y-38125301D01*
G37*
D13*
X39475900Y-38250000D03*
D10*
G36*
X39857026Y-38625301D02*
G01*
X39863093Y-38626201D01*
X39869043Y-38627691D01*
X39874818Y-38629758D01*
X39880362Y-38632380D01*
X39885623Y-38635533D01*
X39890550Y-38639187D01*
X39895094Y-38643306D01*
X39899213Y-38647850D01*
X39902867Y-38652777D01*
X39906020Y-38658038D01*
X39908642Y-38663582D01*
X39910709Y-38669357D01*
X39912199Y-38675307D01*
X39913099Y-38681374D01*
X39913400Y-38687500D01*
X39913400Y-38812500D01*
X39913099Y-38818626D01*
X39912199Y-38824693D01*
X39910709Y-38830643D01*
X39908642Y-38836418D01*
X39906020Y-38841962D01*
X39902867Y-38847223D01*
X39899213Y-38852150D01*
X39895094Y-38856694D01*
X39890550Y-38860813D01*
X39885623Y-38864467D01*
X39880362Y-38867620D01*
X39874818Y-38870242D01*
X39869043Y-38872309D01*
X39863093Y-38873799D01*
X39857026Y-38874699D01*
X39850900Y-38875000D01*
X39100900Y-38875000D01*
X39094774Y-38874699D01*
X39088707Y-38873799D01*
X39082757Y-38872309D01*
X39076982Y-38870242D01*
X39071438Y-38867620D01*
X39066177Y-38864467D01*
X39061250Y-38860813D01*
X39056706Y-38856694D01*
X39052587Y-38852150D01*
X39048933Y-38847223D01*
X39045780Y-38841962D01*
X39043158Y-38836418D01*
X39041091Y-38830643D01*
X39039601Y-38824693D01*
X39038701Y-38818626D01*
X39038400Y-38812500D01*
X39038400Y-38687500D01*
X39038701Y-38681374D01*
X39039601Y-38675307D01*
X39041091Y-38669357D01*
X39043158Y-38663582D01*
X39045780Y-38658038D01*
X39048933Y-38652777D01*
X39052587Y-38647850D01*
X39056706Y-38643306D01*
X39061250Y-38639187D01*
X39066177Y-38635533D01*
X39071438Y-38632380D01*
X39076982Y-38629758D01*
X39082757Y-38627691D01*
X39088707Y-38626201D01*
X39094774Y-38625301D01*
X39100900Y-38625000D01*
X39850900Y-38625000D01*
X39857026Y-38625301D01*
X39857026Y-38625301D01*
G37*
D13*
X39475900Y-38750000D03*
D10*
G36*
X38857026Y-39000301D02*
G01*
X38863093Y-39001201D01*
X38869043Y-39002691D01*
X38874818Y-39004758D01*
X38880362Y-39007380D01*
X38885623Y-39010533D01*
X38890550Y-39014187D01*
X38895094Y-39018306D01*
X38899213Y-39022850D01*
X38902867Y-39027777D01*
X38906020Y-39033038D01*
X38908642Y-39038582D01*
X38910709Y-39044357D01*
X38912199Y-39050307D01*
X38913099Y-39056374D01*
X38913400Y-39062500D01*
X38913400Y-39812500D01*
X38913099Y-39818626D01*
X38912199Y-39824693D01*
X38910709Y-39830643D01*
X38908642Y-39836418D01*
X38906020Y-39841962D01*
X38902867Y-39847223D01*
X38899213Y-39852150D01*
X38895094Y-39856694D01*
X38890550Y-39860813D01*
X38885623Y-39864467D01*
X38880362Y-39867620D01*
X38874818Y-39870242D01*
X38869043Y-39872309D01*
X38863093Y-39873799D01*
X38857026Y-39874699D01*
X38850900Y-39875000D01*
X38725900Y-39875000D01*
X38719774Y-39874699D01*
X38713707Y-39873799D01*
X38707757Y-39872309D01*
X38701982Y-39870242D01*
X38696438Y-39867620D01*
X38691177Y-39864467D01*
X38686250Y-39860813D01*
X38681706Y-39856694D01*
X38677587Y-39852150D01*
X38673933Y-39847223D01*
X38670780Y-39841962D01*
X38668158Y-39836418D01*
X38666091Y-39830643D01*
X38664601Y-39824693D01*
X38663701Y-39818626D01*
X38663400Y-39812500D01*
X38663400Y-39062500D01*
X38663701Y-39056374D01*
X38664601Y-39050307D01*
X38666091Y-39044357D01*
X38668158Y-39038582D01*
X38670780Y-39033038D01*
X38673933Y-39027777D01*
X38677587Y-39022850D01*
X38681706Y-39018306D01*
X38686250Y-39014187D01*
X38691177Y-39010533D01*
X38696438Y-39007380D01*
X38701982Y-39004758D01*
X38707757Y-39002691D01*
X38713707Y-39001201D01*
X38719774Y-39000301D01*
X38725900Y-39000000D01*
X38850900Y-39000000D01*
X38857026Y-39000301D01*
X38857026Y-39000301D01*
G37*
D13*
X38788400Y-39437500D03*
D10*
G36*
X38357026Y-39000301D02*
G01*
X38363093Y-39001201D01*
X38369043Y-39002691D01*
X38374818Y-39004758D01*
X38380362Y-39007380D01*
X38385623Y-39010533D01*
X38390550Y-39014187D01*
X38395094Y-39018306D01*
X38399213Y-39022850D01*
X38402867Y-39027777D01*
X38406020Y-39033038D01*
X38408642Y-39038582D01*
X38410709Y-39044357D01*
X38412199Y-39050307D01*
X38413099Y-39056374D01*
X38413400Y-39062500D01*
X38413400Y-39812500D01*
X38413099Y-39818626D01*
X38412199Y-39824693D01*
X38410709Y-39830643D01*
X38408642Y-39836418D01*
X38406020Y-39841962D01*
X38402867Y-39847223D01*
X38399213Y-39852150D01*
X38395094Y-39856694D01*
X38390550Y-39860813D01*
X38385623Y-39864467D01*
X38380362Y-39867620D01*
X38374818Y-39870242D01*
X38369043Y-39872309D01*
X38363093Y-39873799D01*
X38357026Y-39874699D01*
X38350900Y-39875000D01*
X38225900Y-39875000D01*
X38219774Y-39874699D01*
X38213707Y-39873799D01*
X38207757Y-39872309D01*
X38201982Y-39870242D01*
X38196438Y-39867620D01*
X38191177Y-39864467D01*
X38186250Y-39860813D01*
X38181706Y-39856694D01*
X38177587Y-39852150D01*
X38173933Y-39847223D01*
X38170780Y-39841962D01*
X38168158Y-39836418D01*
X38166091Y-39830643D01*
X38164601Y-39824693D01*
X38163701Y-39818626D01*
X38163400Y-39812500D01*
X38163400Y-39062500D01*
X38163701Y-39056374D01*
X38164601Y-39050307D01*
X38166091Y-39044357D01*
X38168158Y-39038582D01*
X38170780Y-39033038D01*
X38173933Y-39027777D01*
X38177587Y-39022850D01*
X38181706Y-39018306D01*
X38186250Y-39014187D01*
X38191177Y-39010533D01*
X38196438Y-39007380D01*
X38201982Y-39004758D01*
X38207757Y-39002691D01*
X38213707Y-39001201D01*
X38219774Y-39000301D01*
X38225900Y-39000000D01*
X38350900Y-39000000D01*
X38357026Y-39000301D01*
X38357026Y-39000301D01*
G37*
D13*
X38288400Y-39437500D03*
D10*
G36*
X37857026Y-39000301D02*
G01*
X37863093Y-39001201D01*
X37869043Y-39002691D01*
X37874818Y-39004758D01*
X37880362Y-39007380D01*
X37885623Y-39010533D01*
X37890550Y-39014187D01*
X37895094Y-39018306D01*
X37899213Y-39022850D01*
X37902867Y-39027777D01*
X37906020Y-39033038D01*
X37908642Y-39038582D01*
X37910709Y-39044357D01*
X37912199Y-39050307D01*
X37913099Y-39056374D01*
X37913400Y-39062500D01*
X37913400Y-39812500D01*
X37913099Y-39818626D01*
X37912199Y-39824693D01*
X37910709Y-39830643D01*
X37908642Y-39836418D01*
X37906020Y-39841962D01*
X37902867Y-39847223D01*
X37899213Y-39852150D01*
X37895094Y-39856694D01*
X37890550Y-39860813D01*
X37885623Y-39864467D01*
X37880362Y-39867620D01*
X37874818Y-39870242D01*
X37869043Y-39872309D01*
X37863093Y-39873799D01*
X37857026Y-39874699D01*
X37850900Y-39875000D01*
X37725900Y-39875000D01*
X37719774Y-39874699D01*
X37713707Y-39873799D01*
X37707757Y-39872309D01*
X37701982Y-39870242D01*
X37696438Y-39867620D01*
X37691177Y-39864467D01*
X37686250Y-39860813D01*
X37681706Y-39856694D01*
X37677587Y-39852150D01*
X37673933Y-39847223D01*
X37670780Y-39841962D01*
X37668158Y-39836418D01*
X37666091Y-39830643D01*
X37664601Y-39824693D01*
X37663701Y-39818626D01*
X37663400Y-39812500D01*
X37663400Y-39062500D01*
X37663701Y-39056374D01*
X37664601Y-39050307D01*
X37666091Y-39044357D01*
X37668158Y-39038582D01*
X37670780Y-39033038D01*
X37673933Y-39027777D01*
X37677587Y-39022850D01*
X37681706Y-39018306D01*
X37686250Y-39014187D01*
X37691177Y-39010533D01*
X37696438Y-39007380D01*
X37701982Y-39004758D01*
X37707757Y-39002691D01*
X37713707Y-39001201D01*
X37719774Y-39000301D01*
X37725900Y-39000000D01*
X37850900Y-39000000D01*
X37857026Y-39000301D01*
X37857026Y-39000301D01*
G37*
D13*
X37788400Y-39437500D03*
D10*
G36*
X37357026Y-39000301D02*
G01*
X37363093Y-39001201D01*
X37369043Y-39002691D01*
X37374818Y-39004758D01*
X37380362Y-39007380D01*
X37385623Y-39010533D01*
X37390550Y-39014187D01*
X37395094Y-39018306D01*
X37399213Y-39022850D01*
X37402867Y-39027777D01*
X37406020Y-39033038D01*
X37408642Y-39038582D01*
X37410709Y-39044357D01*
X37412199Y-39050307D01*
X37413099Y-39056374D01*
X37413400Y-39062500D01*
X37413400Y-39812500D01*
X37413099Y-39818626D01*
X37412199Y-39824693D01*
X37410709Y-39830643D01*
X37408642Y-39836418D01*
X37406020Y-39841962D01*
X37402867Y-39847223D01*
X37399213Y-39852150D01*
X37395094Y-39856694D01*
X37390550Y-39860813D01*
X37385623Y-39864467D01*
X37380362Y-39867620D01*
X37374818Y-39870242D01*
X37369043Y-39872309D01*
X37363093Y-39873799D01*
X37357026Y-39874699D01*
X37350900Y-39875000D01*
X37225900Y-39875000D01*
X37219774Y-39874699D01*
X37213707Y-39873799D01*
X37207757Y-39872309D01*
X37201982Y-39870242D01*
X37196438Y-39867620D01*
X37191177Y-39864467D01*
X37186250Y-39860813D01*
X37181706Y-39856694D01*
X37177587Y-39852150D01*
X37173933Y-39847223D01*
X37170780Y-39841962D01*
X37168158Y-39836418D01*
X37166091Y-39830643D01*
X37164601Y-39824693D01*
X37163701Y-39818626D01*
X37163400Y-39812500D01*
X37163400Y-39062500D01*
X37163701Y-39056374D01*
X37164601Y-39050307D01*
X37166091Y-39044357D01*
X37168158Y-39038582D01*
X37170780Y-39033038D01*
X37173933Y-39027777D01*
X37177587Y-39022850D01*
X37181706Y-39018306D01*
X37186250Y-39014187D01*
X37191177Y-39010533D01*
X37196438Y-39007380D01*
X37201982Y-39004758D01*
X37207757Y-39002691D01*
X37213707Y-39001201D01*
X37219774Y-39000301D01*
X37225900Y-39000000D01*
X37350900Y-39000000D01*
X37357026Y-39000301D01*
X37357026Y-39000301D01*
G37*
D13*
X37288400Y-39437500D03*
D10*
G36*
X36857026Y-39000301D02*
G01*
X36863093Y-39001201D01*
X36869043Y-39002691D01*
X36874818Y-39004758D01*
X36880362Y-39007380D01*
X36885623Y-39010533D01*
X36890550Y-39014187D01*
X36895094Y-39018306D01*
X36899213Y-39022850D01*
X36902867Y-39027777D01*
X36906020Y-39033038D01*
X36908642Y-39038582D01*
X36910709Y-39044357D01*
X36912199Y-39050307D01*
X36913099Y-39056374D01*
X36913400Y-39062500D01*
X36913400Y-39812500D01*
X36913099Y-39818626D01*
X36912199Y-39824693D01*
X36910709Y-39830643D01*
X36908642Y-39836418D01*
X36906020Y-39841962D01*
X36902867Y-39847223D01*
X36899213Y-39852150D01*
X36895094Y-39856694D01*
X36890550Y-39860813D01*
X36885623Y-39864467D01*
X36880362Y-39867620D01*
X36874818Y-39870242D01*
X36869043Y-39872309D01*
X36863093Y-39873799D01*
X36857026Y-39874699D01*
X36850900Y-39875000D01*
X36725900Y-39875000D01*
X36719774Y-39874699D01*
X36713707Y-39873799D01*
X36707757Y-39872309D01*
X36701982Y-39870242D01*
X36696438Y-39867620D01*
X36691177Y-39864467D01*
X36686250Y-39860813D01*
X36681706Y-39856694D01*
X36677587Y-39852150D01*
X36673933Y-39847223D01*
X36670780Y-39841962D01*
X36668158Y-39836418D01*
X36666091Y-39830643D01*
X36664601Y-39824693D01*
X36663701Y-39818626D01*
X36663400Y-39812500D01*
X36663400Y-39062500D01*
X36663701Y-39056374D01*
X36664601Y-39050307D01*
X36666091Y-39044357D01*
X36668158Y-39038582D01*
X36670780Y-39033038D01*
X36673933Y-39027777D01*
X36677587Y-39022850D01*
X36681706Y-39018306D01*
X36686250Y-39014187D01*
X36691177Y-39010533D01*
X36696438Y-39007380D01*
X36701982Y-39004758D01*
X36707757Y-39002691D01*
X36713707Y-39001201D01*
X36719774Y-39000301D01*
X36725900Y-39000000D01*
X36850900Y-39000000D01*
X36857026Y-39000301D01*
X36857026Y-39000301D01*
G37*
D13*
X36788400Y-39437500D03*
D10*
G36*
X36357026Y-39000301D02*
G01*
X36363093Y-39001201D01*
X36369043Y-39002691D01*
X36374818Y-39004758D01*
X36380362Y-39007380D01*
X36385623Y-39010533D01*
X36390550Y-39014187D01*
X36395094Y-39018306D01*
X36399213Y-39022850D01*
X36402867Y-39027777D01*
X36406020Y-39033038D01*
X36408642Y-39038582D01*
X36410709Y-39044357D01*
X36412199Y-39050307D01*
X36413099Y-39056374D01*
X36413400Y-39062500D01*
X36413400Y-39812500D01*
X36413099Y-39818626D01*
X36412199Y-39824693D01*
X36410709Y-39830643D01*
X36408642Y-39836418D01*
X36406020Y-39841962D01*
X36402867Y-39847223D01*
X36399213Y-39852150D01*
X36395094Y-39856694D01*
X36390550Y-39860813D01*
X36385623Y-39864467D01*
X36380362Y-39867620D01*
X36374818Y-39870242D01*
X36369043Y-39872309D01*
X36363093Y-39873799D01*
X36357026Y-39874699D01*
X36350900Y-39875000D01*
X36225900Y-39875000D01*
X36219774Y-39874699D01*
X36213707Y-39873799D01*
X36207757Y-39872309D01*
X36201982Y-39870242D01*
X36196438Y-39867620D01*
X36191177Y-39864467D01*
X36186250Y-39860813D01*
X36181706Y-39856694D01*
X36177587Y-39852150D01*
X36173933Y-39847223D01*
X36170780Y-39841962D01*
X36168158Y-39836418D01*
X36166091Y-39830643D01*
X36164601Y-39824693D01*
X36163701Y-39818626D01*
X36163400Y-39812500D01*
X36163400Y-39062500D01*
X36163701Y-39056374D01*
X36164601Y-39050307D01*
X36166091Y-39044357D01*
X36168158Y-39038582D01*
X36170780Y-39033038D01*
X36173933Y-39027777D01*
X36177587Y-39022850D01*
X36181706Y-39018306D01*
X36186250Y-39014187D01*
X36191177Y-39010533D01*
X36196438Y-39007380D01*
X36201982Y-39004758D01*
X36207757Y-39002691D01*
X36213707Y-39001201D01*
X36219774Y-39000301D01*
X36225900Y-39000000D01*
X36350900Y-39000000D01*
X36357026Y-39000301D01*
X36357026Y-39000301D01*
G37*
D13*
X36288400Y-39437500D03*
D10*
G36*
X35857026Y-39000301D02*
G01*
X35863093Y-39001201D01*
X35869043Y-39002691D01*
X35874818Y-39004758D01*
X35880362Y-39007380D01*
X35885623Y-39010533D01*
X35890550Y-39014187D01*
X35895094Y-39018306D01*
X35899213Y-39022850D01*
X35902867Y-39027777D01*
X35906020Y-39033038D01*
X35908642Y-39038582D01*
X35910709Y-39044357D01*
X35912199Y-39050307D01*
X35913099Y-39056374D01*
X35913400Y-39062500D01*
X35913400Y-39812500D01*
X35913099Y-39818626D01*
X35912199Y-39824693D01*
X35910709Y-39830643D01*
X35908642Y-39836418D01*
X35906020Y-39841962D01*
X35902867Y-39847223D01*
X35899213Y-39852150D01*
X35895094Y-39856694D01*
X35890550Y-39860813D01*
X35885623Y-39864467D01*
X35880362Y-39867620D01*
X35874818Y-39870242D01*
X35869043Y-39872309D01*
X35863093Y-39873799D01*
X35857026Y-39874699D01*
X35850900Y-39875000D01*
X35725900Y-39875000D01*
X35719774Y-39874699D01*
X35713707Y-39873799D01*
X35707757Y-39872309D01*
X35701982Y-39870242D01*
X35696438Y-39867620D01*
X35691177Y-39864467D01*
X35686250Y-39860813D01*
X35681706Y-39856694D01*
X35677587Y-39852150D01*
X35673933Y-39847223D01*
X35670780Y-39841962D01*
X35668158Y-39836418D01*
X35666091Y-39830643D01*
X35664601Y-39824693D01*
X35663701Y-39818626D01*
X35663400Y-39812500D01*
X35663400Y-39062500D01*
X35663701Y-39056374D01*
X35664601Y-39050307D01*
X35666091Y-39044357D01*
X35668158Y-39038582D01*
X35670780Y-39033038D01*
X35673933Y-39027777D01*
X35677587Y-39022850D01*
X35681706Y-39018306D01*
X35686250Y-39014187D01*
X35691177Y-39010533D01*
X35696438Y-39007380D01*
X35701982Y-39004758D01*
X35707757Y-39002691D01*
X35713707Y-39001201D01*
X35719774Y-39000301D01*
X35725900Y-39000000D01*
X35850900Y-39000000D01*
X35857026Y-39000301D01*
X35857026Y-39000301D01*
G37*
D13*
X35788400Y-39437500D03*
D10*
G36*
X35357026Y-39000301D02*
G01*
X35363093Y-39001201D01*
X35369043Y-39002691D01*
X35374818Y-39004758D01*
X35380362Y-39007380D01*
X35385623Y-39010533D01*
X35390550Y-39014187D01*
X35395094Y-39018306D01*
X35399213Y-39022850D01*
X35402867Y-39027777D01*
X35406020Y-39033038D01*
X35408642Y-39038582D01*
X35410709Y-39044357D01*
X35412199Y-39050307D01*
X35413099Y-39056374D01*
X35413400Y-39062500D01*
X35413400Y-39812500D01*
X35413099Y-39818626D01*
X35412199Y-39824693D01*
X35410709Y-39830643D01*
X35408642Y-39836418D01*
X35406020Y-39841962D01*
X35402867Y-39847223D01*
X35399213Y-39852150D01*
X35395094Y-39856694D01*
X35390550Y-39860813D01*
X35385623Y-39864467D01*
X35380362Y-39867620D01*
X35374818Y-39870242D01*
X35369043Y-39872309D01*
X35363093Y-39873799D01*
X35357026Y-39874699D01*
X35350900Y-39875000D01*
X35225900Y-39875000D01*
X35219774Y-39874699D01*
X35213707Y-39873799D01*
X35207757Y-39872309D01*
X35201982Y-39870242D01*
X35196438Y-39867620D01*
X35191177Y-39864467D01*
X35186250Y-39860813D01*
X35181706Y-39856694D01*
X35177587Y-39852150D01*
X35173933Y-39847223D01*
X35170780Y-39841962D01*
X35168158Y-39836418D01*
X35166091Y-39830643D01*
X35164601Y-39824693D01*
X35163701Y-39818626D01*
X35163400Y-39812500D01*
X35163400Y-39062500D01*
X35163701Y-39056374D01*
X35164601Y-39050307D01*
X35166091Y-39044357D01*
X35168158Y-39038582D01*
X35170780Y-39033038D01*
X35173933Y-39027777D01*
X35177587Y-39022850D01*
X35181706Y-39018306D01*
X35186250Y-39014187D01*
X35191177Y-39010533D01*
X35196438Y-39007380D01*
X35201982Y-39004758D01*
X35207757Y-39002691D01*
X35213707Y-39001201D01*
X35219774Y-39000301D01*
X35225900Y-39000000D01*
X35350900Y-39000000D01*
X35357026Y-39000301D01*
X35357026Y-39000301D01*
G37*
D13*
X35288400Y-39437500D03*
D10*
G36*
X34857026Y-39000301D02*
G01*
X34863093Y-39001201D01*
X34869043Y-39002691D01*
X34874818Y-39004758D01*
X34880362Y-39007380D01*
X34885623Y-39010533D01*
X34890550Y-39014187D01*
X34895094Y-39018306D01*
X34899213Y-39022850D01*
X34902867Y-39027777D01*
X34906020Y-39033038D01*
X34908642Y-39038582D01*
X34910709Y-39044357D01*
X34912199Y-39050307D01*
X34913099Y-39056374D01*
X34913400Y-39062500D01*
X34913400Y-39812500D01*
X34913099Y-39818626D01*
X34912199Y-39824693D01*
X34910709Y-39830643D01*
X34908642Y-39836418D01*
X34906020Y-39841962D01*
X34902867Y-39847223D01*
X34899213Y-39852150D01*
X34895094Y-39856694D01*
X34890550Y-39860813D01*
X34885623Y-39864467D01*
X34880362Y-39867620D01*
X34874818Y-39870242D01*
X34869043Y-39872309D01*
X34863093Y-39873799D01*
X34857026Y-39874699D01*
X34850900Y-39875000D01*
X34725900Y-39875000D01*
X34719774Y-39874699D01*
X34713707Y-39873799D01*
X34707757Y-39872309D01*
X34701982Y-39870242D01*
X34696438Y-39867620D01*
X34691177Y-39864467D01*
X34686250Y-39860813D01*
X34681706Y-39856694D01*
X34677587Y-39852150D01*
X34673933Y-39847223D01*
X34670780Y-39841962D01*
X34668158Y-39836418D01*
X34666091Y-39830643D01*
X34664601Y-39824693D01*
X34663701Y-39818626D01*
X34663400Y-39812500D01*
X34663400Y-39062500D01*
X34663701Y-39056374D01*
X34664601Y-39050307D01*
X34666091Y-39044357D01*
X34668158Y-39038582D01*
X34670780Y-39033038D01*
X34673933Y-39027777D01*
X34677587Y-39022850D01*
X34681706Y-39018306D01*
X34686250Y-39014187D01*
X34691177Y-39010533D01*
X34696438Y-39007380D01*
X34701982Y-39004758D01*
X34707757Y-39002691D01*
X34713707Y-39001201D01*
X34719774Y-39000301D01*
X34725900Y-39000000D01*
X34850900Y-39000000D01*
X34857026Y-39000301D01*
X34857026Y-39000301D01*
G37*
D13*
X34788400Y-39437500D03*
D10*
G36*
X34357026Y-39000301D02*
G01*
X34363093Y-39001201D01*
X34369043Y-39002691D01*
X34374818Y-39004758D01*
X34380362Y-39007380D01*
X34385623Y-39010533D01*
X34390550Y-39014187D01*
X34395094Y-39018306D01*
X34399213Y-39022850D01*
X34402867Y-39027777D01*
X34406020Y-39033038D01*
X34408642Y-39038582D01*
X34410709Y-39044357D01*
X34412199Y-39050307D01*
X34413099Y-39056374D01*
X34413400Y-39062500D01*
X34413400Y-39812500D01*
X34413099Y-39818626D01*
X34412199Y-39824693D01*
X34410709Y-39830643D01*
X34408642Y-39836418D01*
X34406020Y-39841962D01*
X34402867Y-39847223D01*
X34399213Y-39852150D01*
X34395094Y-39856694D01*
X34390550Y-39860813D01*
X34385623Y-39864467D01*
X34380362Y-39867620D01*
X34374818Y-39870242D01*
X34369043Y-39872309D01*
X34363093Y-39873799D01*
X34357026Y-39874699D01*
X34350900Y-39875000D01*
X34225900Y-39875000D01*
X34219774Y-39874699D01*
X34213707Y-39873799D01*
X34207757Y-39872309D01*
X34201982Y-39870242D01*
X34196438Y-39867620D01*
X34191177Y-39864467D01*
X34186250Y-39860813D01*
X34181706Y-39856694D01*
X34177587Y-39852150D01*
X34173933Y-39847223D01*
X34170780Y-39841962D01*
X34168158Y-39836418D01*
X34166091Y-39830643D01*
X34164601Y-39824693D01*
X34163701Y-39818626D01*
X34163400Y-39812500D01*
X34163400Y-39062500D01*
X34163701Y-39056374D01*
X34164601Y-39050307D01*
X34166091Y-39044357D01*
X34168158Y-39038582D01*
X34170780Y-39033038D01*
X34173933Y-39027777D01*
X34177587Y-39022850D01*
X34181706Y-39018306D01*
X34186250Y-39014187D01*
X34191177Y-39010533D01*
X34196438Y-39007380D01*
X34201982Y-39004758D01*
X34207757Y-39002691D01*
X34213707Y-39001201D01*
X34219774Y-39000301D01*
X34225900Y-39000000D01*
X34350900Y-39000000D01*
X34357026Y-39000301D01*
X34357026Y-39000301D01*
G37*
D13*
X34288400Y-39437500D03*
D10*
G36*
X33857026Y-39000301D02*
G01*
X33863093Y-39001201D01*
X33869043Y-39002691D01*
X33874818Y-39004758D01*
X33880362Y-39007380D01*
X33885623Y-39010533D01*
X33890550Y-39014187D01*
X33895094Y-39018306D01*
X33899213Y-39022850D01*
X33902867Y-39027777D01*
X33906020Y-39033038D01*
X33908642Y-39038582D01*
X33910709Y-39044357D01*
X33912199Y-39050307D01*
X33913099Y-39056374D01*
X33913400Y-39062500D01*
X33913400Y-39812500D01*
X33913099Y-39818626D01*
X33912199Y-39824693D01*
X33910709Y-39830643D01*
X33908642Y-39836418D01*
X33906020Y-39841962D01*
X33902867Y-39847223D01*
X33899213Y-39852150D01*
X33895094Y-39856694D01*
X33890550Y-39860813D01*
X33885623Y-39864467D01*
X33880362Y-39867620D01*
X33874818Y-39870242D01*
X33869043Y-39872309D01*
X33863093Y-39873799D01*
X33857026Y-39874699D01*
X33850900Y-39875000D01*
X33725900Y-39875000D01*
X33719774Y-39874699D01*
X33713707Y-39873799D01*
X33707757Y-39872309D01*
X33701982Y-39870242D01*
X33696438Y-39867620D01*
X33691177Y-39864467D01*
X33686250Y-39860813D01*
X33681706Y-39856694D01*
X33677587Y-39852150D01*
X33673933Y-39847223D01*
X33670780Y-39841962D01*
X33668158Y-39836418D01*
X33666091Y-39830643D01*
X33664601Y-39824693D01*
X33663701Y-39818626D01*
X33663400Y-39812500D01*
X33663400Y-39062500D01*
X33663701Y-39056374D01*
X33664601Y-39050307D01*
X33666091Y-39044357D01*
X33668158Y-39038582D01*
X33670780Y-39033038D01*
X33673933Y-39027777D01*
X33677587Y-39022850D01*
X33681706Y-39018306D01*
X33686250Y-39014187D01*
X33691177Y-39010533D01*
X33696438Y-39007380D01*
X33701982Y-39004758D01*
X33707757Y-39002691D01*
X33713707Y-39001201D01*
X33719774Y-39000301D01*
X33725900Y-39000000D01*
X33850900Y-39000000D01*
X33857026Y-39000301D01*
X33857026Y-39000301D01*
G37*
D13*
X33788400Y-39437500D03*
D10*
G36*
X33357026Y-39000301D02*
G01*
X33363093Y-39001201D01*
X33369043Y-39002691D01*
X33374818Y-39004758D01*
X33380362Y-39007380D01*
X33385623Y-39010533D01*
X33390550Y-39014187D01*
X33395094Y-39018306D01*
X33399213Y-39022850D01*
X33402867Y-39027777D01*
X33406020Y-39033038D01*
X33408642Y-39038582D01*
X33410709Y-39044357D01*
X33412199Y-39050307D01*
X33413099Y-39056374D01*
X33413400Y-39062500D01*
X33413400Y-39812500D01*
X33413099Y-39818626D01*
X33412199Y-39824693D01*
X33410709Y-39830643D01*
X33408642Y-39836418D01*
X33406020Y-39841962D01*
X33402867Y-39847223D01*
X33399213Y-39852150D01*
X33395094Y-39856694D01*
X33390550Y-39860813D01*
X33385623Y-39864467D01*
X33380362Y-39867620D01*
X33374818Y-39870242D01*
X33369043Y-39872309D01*
X33363093Y-39873799D01*
X33357026Y-39874699D01*
X33350900Y-39875000D01*
X33225900Y-39875000D01*
X33219774Y-39874699D01*
X33213707Y-39873799D01*
X33207757Y-39872309D01*
X33201982Y-39870242D01*
X33196438Y-39867620D01*
X33191177Y-39864467D01*
X33186250Y-39860813D01*
X33181706Y-39856694D01*
X33177587Y-39852150D01*
X33173933Y-39847223D01*
X33170780Y-39841962D01*
X33168158Y-39836418D01*
X33166091Y-39830643D01*
X33164601Y-39824693D01*
X33163701Y-39818626D01*
X33163400Y-39812500D01*
X33163400Y-39062500D01*
X33163701Y-39056374D01*
X33164601Y-39050307D01*
X33166091Y-39044357D01*
X33168158Y-39038582D01*
X33170780Y-39033038D01*
X33173933Y-39027777D01*
X33177587Y-39022850D01*
X33181706Y-39018306D01*
X33186250Y-39014187D01*
X33191177Y-39010533D01*
X33196438Y-39007380D01*
X33201982Y-39004758D01*
X33207757Y-39002691D01*
X33213707Y-39001201D01*
X33219774Y-39000301D01*
X33225900Y-39000000D01*
X33350900Y-39000000D01*
X33357026Y-39000301D01*
X33357026Y-39000301D01*
G37*
D13*
X33288400Y-39437500D03*
D10*
G36*
X32857026Y-39000301D02*
G01*
X32863093Y-39001201D01*
X32869043Y-39002691D01*
X32874818Y-39004758D01*
X32880362Y-39007380D01*
X32885623Y-39010533D01*
X32890550Y-39014187D01*
X32895094Y-39018306D01*
X32899213Y-39022850D01*
X32902867Y-39027777D01*
X32906020Y-39033038D01*
X32908642Y-39038582D01*
X32910709Y-39044357D01*
X32912199Y-39050307D01*
X32913099Y-39056374D01*
X32913400Y-39062500D01*
X32913400Y-39812500D01*
X32913099Y-39818626D01*
X32912199Y-39824693D01*
X32910709Y-39830643D01*
X32908642Y-39836418D01*
X32906020Y-39841962D01*
X32902867Y-39847223D01*
X32899213Y-39852150D01*
X32895094Y-39856694D01*
X32890550Y-39860813D01*
X32885623Y-39864467D01*
X32880362Y-39867620D01*
X32874818Y-39870242D01*
X32869043Y-39872309D01*
X32863093Y-39873799D01*
X32857026Y-39874699D01*
X32850900Y-39875000D01*
X32725900Y-39875000D01*
X32719774Y-39874699D01*
X32713707Y-39873799D01*
X32707757Y-39872309D01*
X32701982Y-39870242D01*
X32696438Y-39867620D01*
X32691177Y-39864467D01*
X32686250Y-39860813D01*
X32681706Y-39856694D01*
X32677587Y-39852150D01*
X32673933Y-39847223D01*
X32670780Y-39841962D01*
X32668158Y-39836418D01*
X32666091Y-39830643D01*
X32664601Y-39824693D01*
X32663701Y-39818626D01*
X32663400Y-39812500D01*
X32663400Y-39062500D01*
X32663701Y-39056374D01*
X32664601Y-39050307D01*
X32666091Y-39044357D01*
X32668158Y-39038582D01*
X32670780Y-39033038D01*
X32673933Y-39027777D01*
X32677587Y-39022850D01*
X32681706Y-39018306D01*
X32686250Y-39014187D01*
X32691177Y-39010533D01*
X32696438Y-39007380D01*
X32701982Y-39004758D01*
X32707757Y-39002691D01*
X32713707Y-39001201D01*
X32719774Y-39000301D01*
X32725900Y-39000000D01*
X32850900Y-39000000D01*
X32857026Y-39000301D01*
X32857026Y-39000301D01*
G37*
D13*
X32788400Y-39437500D03*
D10*
G36*
X32357026Y-39000301D02*
G01*
X32363093Y-39001201D01*
X32369043Y-39002691D01*
X32374818Y-39004758D01*
X32380362Y-39007380D01*
X32385623Y-39010533D01*
X32390550Y-39014187D01*
X32395094Y-39018306D01*
X32399213Y-39022850D01*
X32402867Y-39027777D01*
X32406020Y-39033038D01*
X32408642Y-39038582D01*
X32410709Y-39044357D01*
X32412199Y-39050307D01*
X32413099Y-39056374D01*
X32413400Y-39062500D01*
X32413400Y-39812500D01*
X32413099Y-39818626D01*
X32412199Y-39824693D01*
X32410709Y-39830643D01*
X32408642Y-39836418D01*
X32406020Y-39841962D01*
X32402867Y-39847223D01*
X32399213Y-39852150D01*
X32395094Y-39856694D01*
X32390550Y-39860813D01*
X32385623Y-39864467D01*
X32380362Y-39867620D01*
X32374818Y-39870242D01*
X32369043Y-39872309D01*
X32363093Y-39873799D01*
X32357026Y-39874699D01*
X32350900Y-39875000D01*
X32225900Y-39875000D01*
X32219774Y-39874699D01*
X32213707Y-39873799D01*
X32207757Y-39872309D01*
X32201982Y-39870242D01*
X32196438Y-39867620D01*
X32191177Y-39864467D01*
X32186250Y-39860813D01*
X32181706Y-39856694D01*
X32177587Y-39852150D01*
X32173933Y-39847223D01*
X32170780Y-39841962D01*
X32168158Y-39836418D01*
X32166091Y-39830643D01*
X32164601Y-39824693D01*
X32163701Y-39818626D01*
X32163400Y-39812500D01*
X32163400Y-39062500D01*
X32163701Y-39056374D01*
X32164601Y-39050307D01*
X32166091Y-39044357D01*
X32168158Y-39038582D01*
X32170780Y-39033038D01*
X32173933Y-39027777D01*
X32177587Y-39022850D01*
X32181706Y-39018306D01*
X32186250Y-39014187D01*
X32191177Y-39010533D01*
X32196438Y-39007380D01*
X32201982Y-39004758D01*
X32207757Y-39002691D01*
X32213707Y-39001201D01*
X32219774Y-39000301D01*
X32225900Y-39000000D01*
X32350900Y-39000000D01*
X32357026Y-39000301D01*
X32357026Y-39000301D01*
G37*
D13*
X32288400Y-39437500D03*
D10*
G36*
X31857026Y-39000301D02*
G01*
X31863093Y-39001201D01*
X31869043Y-39002691D01*
X31874818Y-39004758D01*
X31880362Y-39007380D01*
X31885623Y-39010533D01*
X31890550Y-39014187D01*
X31895094Y-39018306D01*
X31899213Y-39022850D01*
X31902867Y-39027777D01*
X31906020Y-39033038D01*
X31908642Y-39038582D01*
X31910709Y-39044357D01*
X31912199Y-39050307D01*
X31913099Y-39056374D01*
X31913400Y-39062500D01*
X31913400Y-39812500D01*
X31913099Y-39818626D01*
X31912199Y-39824693D01*
X31910709Y-39830643D01*
X31908642Y-39836418D01*
X31906020Y-39841962D01*
X31902867Y-39847223D01*
X31899213Y-39852150D01*
X31895094Y-39856694D01*
X31890550Y-39860813D01*
X31885623Y-39864467D01*
X31880362Y-39867620D01*
X31874818Y-39870242D01*
X31869043Y-39872309D01*
X31863093Y-39873799D01*
X31857026Y-39874699D01*
X31850900Y-39875000D01*
X31725900Y-39875000D01*
X31719774Y-39874699D01*
X31713707Y-39873799D01*
X31707757Y-39872309D01*
X31701982Y-39870242D01*
X31696438Y-39867620D01*
X31691177Y-39864467D01*
X31686250Y-39860813D01*
X31681706Y-39856694D01*
X31677587Y-39852150D01*
X31673933Y-39847223D01*
X31670780Y-39841962D01*
X31668158Y-39836418D01*
X31666091Y-39830643D01*
X31664601Y-39824693D01*
X31663701Y-39818626D01*
X31663400Y-39812500D01*
X31663400Y-39062500D01*
X31663701Y-39056374D01*
X31664601Y-39050307D01*
X31666091Y-39044357D01*
X31668158Y-39038582D01*
X31670780Y-39033038D01*
X31673933Y-39027777D01*
X31677587Y-39022850D01*
X31681706Y-39018306D01*
X31686250Y-39014187D01*
X31691177Y-39010533D01*
X31696438Y-39007380D01*
X31701982Y-39004758D01*
X31707757Y-39002691D01*
X31713707Y-39001201D01*
X31719774Y-39000301D01*
X31725900Y-39000000D01*
X31850900Y-39000000D01*
X31857026Y-39000301D01*
X31857026Y-39000301D01*
G37*
D13*
X31788400Y-39437500D03*
D10*
G36*
X31357026Y-39000301D02*
G01*
X31363093Y-39001201D01*
X31369043Y-39002691D01*
X31374818Y-39004758D01*
X31380362Y-39007380D01*
X31385623Y-39010533D01*
X31390550Y-39014187D01*
X31395094Y-39018306D01*
X31399213Y-39022850D01*
X31402867Y-39027777D01*
X31406020Y-39033038D01*
X31408642Y-39038582D01*
X31410709Y-39044357D01*
X31412199Y-39050307D01*
X31413099Y-39056374D01*
X31413400Y-39062500D01*
X31413400Y-39812500D01*
X31413099Y-39818626D01*
X31412199Y-39824693D01*
X31410709Y-39830643D01*
X31408642Y-39836418D01*
X31406020Y-39841962D01*
X31402867Y-39847223D01*
X31399213Y-39852150D01*
X31395094Y-39856694D01*
X31390550Y-39860813D01*
X31385623Y-39864467D01*
X31380362Y-39867620D01*
X31374818Y-39870242D01*
X31369043Y-39872309D01*
X31363093Y-39873799D01*
X31357026Y-39874699D01*
X31350900Y-39875000D01*
X31225900Y-39875000D01*
X31219774Y-39874699D01*
X31213707Y-39873799D01*
X31207757Y-39872309D01*
X31201982Y-39870242D01*
X31196438Y-39867620D01*
X31191177Y-39864467D01*
X31186250Y-39860813D01*
X31181706Y-39856694D01*
X31177587Y-39852150D01*
X31173933Y-39847223D01*
X31170780Y-39841962D01*
X31168158Y-39836418D01*
X31166091Y-39830643D01*
X31164601Y-39824693D01*
X31163701Y-39818626D01*
X31163400Y-39812500D01*
X31163400Y-39062500D01*
X31163701Y-39056374D01*
X31164601Y-39050307D01*
X31166091Y-39044357D01*
X31168158Y-39038582D01*
X31170780Y-39033038D01*
X31173933Y-39027777D01*
X31177587Y-39022850D01*
X31181706Y-39018306D01*
X31186250Y-39014187D01*
X31191177Y-39010533D01*
X31196438Y-39007380D01*
X31201982Y-39004758D01*
X31207757Y-39002691D01*
X31213707Y-39001201D01*
X31219774Y-39000301D01*
X31225900Y-39000000D01*
X31350900Y-39000000D01*
X31357026Y-39000301D01*
X31357026Y-39000301D01*
G37*
D13*
X31288400Y-39437500D03*
D10*
G36*
X30982026Y-38625301D02*
G01*
X30988093Y-38626201D01*
X30994043Y-38627691D01*
X30999818Y-38629758D01*
X31005362Y-38632380D01*
X31010623Y-38635533D01*
X31015550Y-38639187D01*
X31020094Y-38643306D01*
X31024213Y-38647850D01*
X31027867Y-38652777D01*
X31031020Y-38658038D01*
X31033642Y-38663582D01*
X31035709Y-38669357D01*
X31037199Y-38675307D01*
X31038099Y-38681374D01*
X31038400Y-38687500D01*
X31038400Y-38812500D01*
X31038099Y-38818626D01*
X31037199Y-38824693D01*
X31035709Y-38830643D01*
X31033642Y-38836418D01*
X31031020Y-38841962D01*
X31027867Y-38847223D01*
X31024213Y-38852150D01*
X31020094Y-38856694D01*
X31015550Y-38860813D01*
X31010623Y-38864467D01*
X31005362Y-38867620D01*
X30999818Y-38870242D01*
X30994043Y-38872309D01*
X30988093Y-38873799D01*
X30982026Y-38874699D01*
X30975900Y-38875000D01*
X30225900Y-38875000D01*
X30219774Y-38874699D01*
X30213707Y-38873799D01*
X30207757Y-38872309D01*
X30201982Y-38870242D01*
X30196438Y-38867620D01*
X30191177Y-38864467D01*
X30186250Y-38860813D01*
X30181706Y-38856694D01*
X30177587Y-38852150D01*
X30173933Y-38847223D01*
X30170780Y-38841962D01*
X30168158Y-38836418D01*
X30166091Y-38830643D01*
X30164601Y-38824693D01*
X30163701Y-38818626D01*
X30163400Y-38812500D01*
X30163400Y-38687500D01*
X30163701Y-38681374D01*
X30164601Y-38675307D01*
X30166091Y-38669357D01*
X30168158Y-38663582D01*
X30170780Y-38658038D01*
X30173933Y-38652777D01*
X30177587Y-38647850D01*
X30181706Y-38643306D01*
X30186250Y-38639187D01*
X30191177Y-38635533D01*
X30196438Y-38632380D01*
X30201982Y-38629758D01*
X30207757Y-38627691D01*
X30213707Y-38626201D01*
X30219774Y-38625301D01*
X30225900Y-38625000D01*
X30975900Y-38625000D01*
X30982026Y-38625301D01*
X30982026Y-38625301D01*
G37*
D13*
X30600900Y-38750000D03*
D10*
G36*
X30982026Y-38125301D02*
G01*
X30988093Y-38126201D01*
X30994043Y-38127691D01*
X30999818Y-38129758D01*
X31005362Y-38132380D01*
X31010623Y-38135533D01*
X31015550Y-38139187D01*
X31020094Y-38143306D01*
X31024213Y-38147850D01*
X31027867Y-38152777D01*
X31031020Y-38158038D01*
X31033642Y-38163582D01*
X31035709Y-38169357D01*
X31037199Y-38175307D01*
X31038099Y-38181374D01*
X31038400Y-38187500D01*
X31038400Y-38312500D01*
X31038099Y-38318626D01*
X31037199Y-38324693D01*
X31035709Y-38330643D01*
X31033642Y-38336418D01*
X31031020Y-38341962D01*
X31027867Y-38347223D01*
X31024213Y-38352150D01*
X31020094Y-38356694D01*
X31015550Y-38360813D01*
X31010623Y-38364467D01*
X31005362Y-38367620D01*
X30999818Y-38370242D01*
X30994043Y-38372309D01*
X30988093Y-38373799D01*
X30982026Y-38374699D01*
X30975900Y-38375000D01*
X30225900Y-38375000D01*
X30219774Y-38374699D01*
X30213707Y-38373799D01*
X30207757Y-38372309D01*
X30201982Y-38370242D01*
X30196438Y-38367620D01*
X30191177Y-38364467D01*
X30186250Y-38360813D01*
X30181706Y-38356694D01*
X30177587Y-38352150D01*
X30173933Y-38347223D01*
X30170780Y-38341962D01*
X30168158Y-38336418D01*
X30166091Y-38330643D01*
X30164601Y-38324693D01*
X30163701Y-38318626D01*
X30163400Y-38312500D01*
X30163400Y-38187500D01*
X30163701Y-38181374D01*
X30164601Y-38175307D01*
X30166091Y-38169357D01*
X30168158Y-38163582D01*
X30170780Y-38158038D01*
X30173933Y-38152777D01*
X30177587Y-38147850D01*
X30181706Y-38143306D01*
X30186250Y-38139187D01*
X30191177Y-38135533D01*
X30196438Y-38132380D01*
X30201982Y-38129758D01*
X30207757Y-38127691D01*
X30213707Y-38126201D01*
X30219774Y-38125301D01*
X30225900Y-38125000D01*
X30975900Y-38125000D01*
X30982026Y-38125301D01*
X30982026Y-38125301D01*
G37*
D13*
X30600900Y-38250000D03*
D10*
G36*
X30982026Y-37625301D02*
G01*
X30988093Y-37626201D01*
X30994043Y-37627691D01*
X30999818Y-37629758D01*
X31005362Y-37632380D01*
X31010623Y-37635533D01*
X31015550Y-37639187D01*
X31020094Y-37643306D01*
X31024213Y-37647850D01*
X31027867Y-37652777D01*
X31031020Y-37658038D01*
X31033642Y-37663582D01*
X31035709Y-37669357D01*
X31037199Y-37675307D01*
X31038099Y-37681374D01*
X31038400Y-37687500D01*
X31038400Y-37812500D01*
X31038099Y-37818626D01*
X31037199Y-37824693D01*
X31035709Y-37830643D01*
X31033642Y-37836418D01*
X31031020Y-37841962D01*
X31027867Y-37847223D01*
X31024213Y-37852150D01*
X31020094Y-37856694D01*
X31015550Y-37860813D01*
X31010623Y-37864467D01*
X31005362Y-37867620D01*
X30999818Y-37870242D01*
X30994043Y-37872309D01*
X30988093Y-37873799D01*
X30982026Y-37874699D01*
X30975900Y-37875000D01*
X30225900Y-37875000D01*
X30219774Y-37874699D01*
X30213707Y-37873799D01*
X30207757Y-37872309D01*
X30201982Y-37870242D01*
X30196438Y-37867620D01*
X30191177Y-37864467D01*
X30186250Y-37860813D01*
X30181706Y-37856694D01*
X30177587Y-37852150D01*
X30173933Y-37847223D01*
X30170780Y-37841962D01*
X30168158Y-37836418D01*
X30166091Y-37830643D01*
X30164601Y-37824693D01*
X30163701Y-37818626D01*
X30163400Y-37812500D01*
X30163400Y-37687500D01*
X30163701Y-37681374D01*
X30164601Y-37675307D01*
X30166091Y-37669357D01*
X30168158Y-37663582D01*
X30170780Y-37658038D01*
X30173933Y-37652777D01*
X30177587Y-37647850D01*
X30181706Y-37643306D01*
X30186250Y-37639187D01*
X30191177Y-37635533D01*
X30196438Y-37632380D01*
X30201982Y-37629758D01*
X30207757Y-37627691D01*
X30213707Y-37626201D01*
X30219774Y-37625301D01*
X30225900Y-37625000D01*
X30975900Y-37625000D01*
X30982026Y-37625301D01*
X30982026Y-37625301D01*
G37*
D13*
X30600900Y-37750000D03*
D10*
G36*
X30982026Y-37125301D02*
G01*
X30988093Y-37126201D01*
X30994043Y-37127691D01*
X30999818Y-37129758D01*
X31005362Y-37132380D01*
X31010623Y-37135533D01*
X31015550Y-37139187D01*
X31020094Y-37143306D01*
X31024213Y-37147850D01*
X31027867Y-37152777D01*
X31031020Y-37158038D01*
X31033642Y-37163582D01*
X31035709Y-37169357D01*
X31037199Y-37175307D01*
X31038099Y-37181374D01*
X31038400Y-37187500D01*
X31038400Y-37312500D01*
X31038099Y-37318626D01*
X31037199Y-37324693D01*
X31035709Y-37330643D01*
X31033642Y-37336418D01*
X31031020Y-37341962D01*
X31027867Y-37347223D01*
X31024213Y-37352150D01*
X31020094Y-37356694D01*
X31015550Y-37360813D01*
X31010623Y-37364467D01*
X31005362Y-37367620D01*
X30999818Y-37370242D01*
X30994043Y-37372309D01*
X30988093Y-37373799D01*
X30982026Y-37374699D01*
X30975900Y-37375000D01*
X30225900Y-37375000D01*
X30219774Y-37374699D01*
X30213707Y-37373799D01*
X30207757Y-37372309D01*
X30201982Y-37370242D01*
X30196438Y-37367620D01*
X30191177Y-37364467D01*
X30186250Y-37360813D01*
X30181706Y-37356694D01*
X30177587Y-37352150D01*
X30173933Y-37347223D01*
X30170780Y-37341962D01*
X30168158Y-37336418D01*
X30166091Y-37330643D01*
X30164601Y-37324693D01*
X30163701Y-37318626D01*
X30163400Y-37312500D01*
X30163400Y-37187500D01*
X30163701Y-37181374D01*
X30164601Y-37175307D01*
X30166091Y-37169357D01*
X30168158Y-37163582D01*
X30170780Y-37158038D01*
X30173933Y-37152777D01*
X30177587Y-37147850D01*
X30181706Y-37143306D01*
X30186250Y-37139187D01*
X30191177Y-37135533D01*
X30196438Y-37132380D01*
X30201982Y-37129758D01*
X30207757Y-37127691D01*
X30213707Y-37126201D01*
X30219774Y-37125301D01*
X30225900Y-37125000D01*
X30975900Y-37125000D01*
X30982026Y-37125301D01*
X30982026Y-37125301D01*
G37*
D13*
X30600900Y-37250000D03*
D10*
G36*
X30982026Y-36625301D02*
G01*
X30988093Y-36626201D01*
X30994043Y-36627691D01*
X30999818Y-36629758D01*
X31005362Y-36632380D01*
X31010623Y-36635533D01*
X31015550Y-36639187D01*
X31020094Y-36643306D01*
X31024213Y-36647850D01*
X31027867Y-36652777D01*
X31031020Y-36658038D01*
X31033642Y-36663582D01*
X31035709Y-36669357D01*
X31037199Y-36675307D01*
X31038099Y-36681374D01*
X31038400Y-36687500D01*
X31038400Y-36812500D01*
X31038099Y-36818626D01*
X31037199Y-36824693D01*
X31035709Y-36830643D01*
X31033642Y-36836418D01*
X31031020Y-36841962D01*
X31027867Y-36847223D01*
X31024213Y-36852150D01*
X31020094Y-36856694D01*
X31015550Y-36860813D01*
X31010623Y-36864467D01*
X31005362Y-36867620D01*
X30999818Y-36870242D01*
X30994043Y-36872309D01*
X30988093Y-36873799D01*
X30982026Y-36874699D01*
X30975900Y-36875000D01*
X30225900Y-36875000D01*
X30219774Y-36874699D01*
X30213707Y-36873799D01*
X30207757Y-36872309D01*
X30201982Y-36870242D01*
X30196438Y-36867620D01*
X30191177Y-36864467D01*
X30186250Y-36860813D01*
X30181706Y-36856694D01*
X30177587Y-36852150D01*
X30173933Y-36847223D01*
X30170780Y-36841962D01*
X30168158Y-36836418D01*
X30166091Y-36830643D01*
X30164601Y-36824693D01*
X30163701Y-36818626D01*
X30163400Y-36812500D01*
X30163400Y-36687500D01*
X30163701Y-36681374D01*
X30164601Y-36675307D01*
X30166091Y-36669357D01*
X30168158Y-36663582D01*
X30170780Y-36658038D01*
X30173933Y-36652777D01*
X30177587Y-36647850D01*
X30181706Y-36643306D01*
X30186250Y-36639187D01*
X30191177Y-36635533D01*
X30196438Y-36632380D01*
X30201982Y-36629758D01*
X30207757Y-36627691D01*
X30213707Y-36626201D01*
X30219774Y-36625301D01*
X30225900Y-36625000D01*
X30975900Y-36625000D01*
X30982026Y-36625301D01*
X30982026Y-36625301D01*
G37*
D13*
X30600900Y-36750000D03*
D10*
G36*
X30982026Y-36125301D02*
G01*
X30988093Y-36126201D01*
X30994043Y-36127691D01*
X30999818Y-36129758D01*
X31005362Y-36132380D01*
X31010623Y-36135533D01*
X31015550Y-36139187D01*
X31020094Y-36143306D01*
X31024213Y-36147850D01*
X31027867Y-36152777D01*
X31031020Y-36158038D01*
X31033642Y-36163582D01*
X31035709Y-36169357D01*
X31037199Y-36175307D01*
X31038099Y-36181374D01*
X31038400Y-36187500D01*
X31038400Y-36312500D01*
X31038099Y-36318626D01*
X31037199Y-36324693D01*
X31035709Y-36330643D01*
X31033642Y-36336418D01*
X31031020Y-36341962D01*
X31027867Y-36347223D01*
X31024213Y-36352150D01*
X31020094Y-36356694D01*
X31015550Y-36360813D01*
X31010623Y-36364467D01*
X31005362Y-36367620D01*
X30999818Y-36370242D01*
X30994043Y-36372309D01*
X30988093Y-36373799D01*
X30982026Y-36374699D01*
X30975900Y-36375000D01*
X30225900Y-36375000D01*
X30219774Y-36374699D01*
X30213707Y-36373799D01*
X30207757Y-36372309D01*
X30201982Y-36370242D01*
X30196438Y-36367620D01*
X30191177Y-36364467D01*
X30186250Y-36360813D01*
X30181706Y-36356694D01*
X30177587Y-36352150D01*
X30173933Y-36347223D01*
X30170780Y-36341962D01*
X30168158Y-36336418D01*
X30166091Y-36330643D01*
X30164601Y-36324693D01*
X30163701Y-36318626D01*
X30163400Y-36312500D01*
X30163400Y-36187500D01*
X30163701Y-36181374D01*
X30164601Y-36175307D01*
X30166091Y-36169357D01*
X30168158Y-36163582D01*
X30170780Y-36158038D01*
X30173933Y-36152777D01*
X30177587Y-36147850D01*
X30181706Y-36143306D01*
X30186250Y-36139187D01*
X30191177Y-36135533D01*
X30196438Y-36132380D01*
X30201982Y-36129758D01*
X30207757Y-36127691D01*
X30213707Y-36126201D01*
X30219774Y-36125301D01*
X30225900Y-36125000D01*
X30975900Y-36125000D01*
X30982026Y-36125301D01*
X30982026Y-36125301D01*
G37*
D13*
X30600900Y-36250000D03*
D10*
G36*
X30982026Y-35625301D02*
G01*
X30988093Y-35626201D01*
X30994043Y-35627691D01*
X30999818Y-35629758D01*
X31005362Y-35632380D01*
X31010623Y-35635533D01*
X31015550Y-35639187D01*
X31020094Y-35643306D01*
X31024213Y-35647850D01*
X31027867Y-35652777D01*
X31031020Y-35658038D01*
X31033642Y-35663582D01*
X31035709Y-35669357D01*
X31037199Y-35675307D01*
X31038099Y-35681374D01*
X31038400Y-35687500D01*
X31038400Y-35812500D01*
X31038099Y-35818626D01*
X31037199Y-35824693D01*
X31035709Y-35830643D01*
X31033642Y-35836418D01*
X31031020Y-35841962D01*
X31027867Y-35847223D01*
X31024213Y-35852150D01*
X31020094Y-35856694D01*
X31015550Y-35860813D01*
X31010623Y-35864467D01*
X31005362Y-35867620D01*
X30999818Y-35870242D01*
X30994043Y-35872309D01*
X30988093Y-35873799D01*
X30982026Y-35874699D01*
X30975900Y-35875000D01*
X30225900Y-35875000D01*
X30219774Y-35874699D01*
X30213707Y-35873799D01*
X30207757Y-35872309D01*
X30201982Y-35870242D01*
X30196438Y-35867620D01*
X30191177Y-35864467D01*
X30186250Y-35860813D01*
X30181706Y-35856694D01*
X30177587Y-35852150D01*
X30173933Y-35847223D01*
X30170780Y-35841962D01*
X30168158Y-35836418D01*
X30166091Y-35830643D01*
X30164601Y-35824693D01*
X30163701Y-35818626D01*
X30163400Y-35812500D01*
X30163400Y-35687500D01*
X30163701Y-35681374D01*
X30164601Y-35675307D01*
X30166091Y-35669357D01*
X30168158Y-35663582D01*
X30170780Y-35658038D01*
X30173933Y-35652777D01*
X30177587Y-35647850D01*
X30181706Y-35643306D01*
X30186250Y-35639187D01*
X30191177Y-35635533D01*
X30196438Y-35632380D01*
X30201982Y-35629758D01*
X30207757Y-35627691D01*
X30213707Y-35626201D01*
X30219774Y-35625301D01*
X30225900Y-35625000D01*
X30975900Y-35625000D01*
X30982026Y-35625301D01*
X30982026Y-35625301D01*
G37*
D13*
X30600900Y-35750000D03*
D10*
G36*
X30982026Y-35125301D02*
G01*
X30988093Y-35126201D01*
X30994043Y-35127691D01*
X30999818Y-35129758D01*
X31005362Y-35132380D01*
X31010623Y-35135533D01*
X31015550Y-35139187D01*
X31020094Y-35143306D01*
X31024213Y-35147850D01*
X31027867Y-35152777D01*
X31031020Y-35158038D01*
X31033642Y-35163582D01*
X31035709Y-35169357D01*
X31037199Y-35175307D01*
X31038099Y-35181374D01*
X31038400Y-35187500D01*
X31038400Y-35312500D01*
X31038099Y-35318626D01*
X31037199Y-35324693D01*
X31035709Y-35330643D01*
X31033642Y-35336418D01*
X31031020Y-35341962D01*
X31027867Y-35347223D01*
X31024213Y-35352150D01*
X31020094Y-35356694D01*
X31015550Y-35360813D01*
X31010623Y-35364467D01*
X31005362Y-35367620D01*
X30999818Y-35370242D01*
X30994043Y-35372309D01*
X30988093Y-35373799D01*
X30982026Y-35374699D01*
X30975900Y-35375000D01*
X30225900Y-35375000D01*
X30219774Y-35374699D01*
X30213707Y-35373799D01*
X30207757Y-35372309D01*
X30201982Y-35370242D01*
X30196438Y-35367620D01*
X30191177Y-35364467D01*
X30186250Y-35360813D01*
X30181706Y-35356694D01*
X30177587Y-35352150D01*
X30173933Y-35347223D01*
X30170780Y-35341962D01*
X30168158Y-35336418D01*
X30166091Y-35330643D01*
X30164601Y-35324693D01*
X30163701Y-35318626D01*
X30163400Y-35312500D01*
X30163400Y-35187500D01*
X30163701Y-35181374D01*
X30164601Y-35175307D01*
X30166091Y-35169357D01*
X30168158Y-35163582D01*
X30170780Y-35158038D01*
X30173933Y-35152777D01*
X30177587Y-35147850D01*
X30181706Y-35143306D01*
X30186250Y-35139187D01*
X30191177Y-35135533D01*
X30196438Y-35132380D01*
X30201982Y-35129758D01*
X30207757Y-35127691D01*
X30213707Y-35126201D01*
X30219774Y-35125301D01*
X30225900Y-35125000D01*
X30975900Y-35125000D01*
X30982026Y-35125301D01*
X30982026Y-35125301D01*
G37*
D13*
X30600900Y-35250000D03*
D10*
G36*
X30982026Y-34625301D02*
G01*
X30988093Y-34626201D01*
X30994043Y-34627691D01*
X30999818Y-34629758D01*
X31005362Y-34632380D01*
X31010623Y-34635533D01*
X31015550Y-34639187D01*
X31020094Y-34643306D01*
X31024213Y-34647850D01*
X31027867Y-34652777D01*
X31031020Y-34658038D01*
X31033642Y-34663582D01*
X31035709Y-34669357D01*
X31037199Y-34675307D01*
X31038099Y-34681374D01*
X31038400Y-34687500D01*
X31038400Y-34812500D01*
X31038099Y-34818626D01*
X31037199Y-34824693D01*
X31035709Y-34830643D01*
X31033642Y-34836418D01*
X31031020Y-34841962D01*
X31027867Y-34847223D01*
X31024213Y-34852150D01*
X31020094Y-34856694D01*
X31015550Y-34860813D01*
X31010623Y-34864467D01*
X31005362Y-34867620D01*
X30999818Y-34870242D01*
X30994043Y-34872309D01*
X30988093Y-34873799D01*
X30982026Y-34874699D01*
X30975900Y-34875000D01*
X30225900Y-34875000D01*
X30219774Y-34874699D01*
X30213707Y-34873799D01*
X30207757Y-34872309D01*
X30201982Y-34870242D01*
X30196438Y-34867620D01*
X30191177Y-34864467D01*
X30186250Y-34860813D01*
X30181706Y-34856694D01*
X30177587Y-34852150D01*
X30173933Y-34847223D01*
X30170780Y-34841962D01*
X30168158Y-34836418D01*
X30166091Y-34830643D01*
X30164601Y-34824693D01*
X30163701Y-34818626D01*
X30163400Y-34812500D01*
X30163400Y-34687500D01*
X30163701Y-34681374D01*
X30164601Y-34675307D01*
X30166091Y-34669357D01*
X30168158Y-34663582D01*
X30170780Y-34658038D01*
X30173933Y-34652777D01*
X30177587Y-34647850D01*
X30181706Y-34643306D01*
X30186250Y-34639187D01*
X30191177Y-34635533D01*
X30196438Y-34632380D01*
X30201982Y-34629758D01*
X30207757Y-34627691D01*
X30213707Y-34626201D01*
X30219774Y-34625301D01*
X30225900Y-34625000D01*
X30975900Y-34625000D01*
X30982026Y-34625301D01*
X30982026Y-34625301D01*
G37*
D13*
X30600900Y-34750000D03*
D10*
G36*
X30982026Y-34125301D02*
G01*
X30988093Y-34126201D01*
X30994043Y-34127691D01*
X30999818Y-34129758D01*
X31005362Y-34132380D01*
X31010623Y-34135533D01*
X31015550Y-34139187D01*
X31020094Y-34143306D01*
X31024213Y-34147850D01*
X31027867Y-34152777D01*
X31031020Y-34158038D01*
X31033642Y-34163582D01*
X31035709Y-34169357D01*
X31037199Y-34175307D01*
X31038099Y-34181374D01*
X31038400Y-34187500D01*
X31038400Y-34312500D01*
X31038099Y-34318626D01*
X31037199Y-34324693D01*
X31035709Y-34330643D01*
X31033642Y-34336418D01*
X31031020Y-34341962D01*
X31027867Y-34347223D01*
X31024213Y-34352150D01*
X31020094Y-34356694D01*
X31015550Y-34360813D01*
X31010623Y-34364467D01*
X31005362Y-34367620D01*
X30999818Y-34370242D01*
X30994043Y-34372309D01*
X30988093Y-34373799D01*
X30982026Y-34374699D01*
X30975900Y-34375000D01*
X30225900Y-34375000D01*
X30219774Y-34374699D01*
X30213707Y-34373799D01*
X30207757Y-34372309D01*
X30201982Y-34370242D01*
X30196438Y-34367620D01*
X30191177Y-34364467D01*
X30186250Y-34360813D01*
X30181706Y-34356694D01*
X30177587Y-34352150D01*
X30173933Y-34347223D01*
X30170780Y-34341962D01*
X30168158Y-34336418D01*
X30166091Y-34330643D01*
X30164601Y-34324693D01*
X30163701Y-34318626D01*
X30163400Y-34312500D01*
X30163400Y-34187500D01*
X30163701Y-34181374D01*
X30164601Y-34175307D01*
X30166091Y-34169357D01*
X30168158Y-34163582D01*
X30170780Y-34158038D01*
X30173933Y-34152777D01*
X30177587Y-34147850D01*
X30181706Y-34143306D01*
X30186250Y-34139187D01*
X30191177Y-34135533D01*
X30196438Y-34132380D01*
X30201982Y-34129758D01*
X30207757Y-34127691D01*
X30213707Y-34126201D01*
X30219774Y-34125301D01*
X30225900Y-34125000D01*
X30975900Y-34125000D01*
X30982026Y-34125301D01*
X30982026Y-34125301D01*
G37*
D13*
X30600900Y-34250000D03*
D10*
G36*
X30982026Y-33625301D02*
G01*
X30988093Y-33626201D01*
X30994043Y-33627691D01*
X30999818Y-33629758D01*
X31005362Y-33632380D01*
X31010623Y-33635533D01*
X31015550Y-33639187D01*
X31020094Y-33643306D01*
X31024213Y-33647850D01*
X31027867Y-33652777D01*
X31031020Y-33658038D01*
X31033642Y-33663582D01*
X31035709Y-33669357D01*
X31037199Y-33675307D01*
X31038099Y-33681374D01*
X31038400Y-33687500D01*
X31038400Y-33812500D01*
X31038099Y-33818626D01*
X31037199Y-33824693D01*
X31035709Y-33830643D01*
X31033642Y-33836418D01*
X31031020Y-33841962D01*
X31027867Y-33847223D01*
X31024213Y-33852150D01*
X31020094Y-33856694D01*
X31015550Y-33860813D01*
X31010623Y-33864467D01*
X31005362Y-33867620D01*
X30999818Y-33870242D01*
X30994043Y-33872309D01*
X30988093Y-33873799D01*
X30982026Y-33874699D01*
X30975900Y-33875000D01*
X30225900Y-33875000D01*
X30219774Y-33874699D01*
X30213707Y-33873799D01*
X30207757Y-33872309D01*
X30201982Y-33870242D01*
X30196438Y-33867620D01*
X30191177Y-33864467D01*
X30186250Y-33860813D01*
X30181706Y-33856694D01*
X30177587Y-33852150D01*
X30173933Y-33847223D01*
X30170780Y-33841962D01*
X30168158Y-33836418D01*
X30166091Y-33830643D01*
X30164601Y-33824693D01*
X30163701Y-33818626D01*
X30163400Y-33812500D01*
X30163400Y-33687500D01*
X30163701Y-33681374D01*
X30164601Y-33675307D01*
X30166091Y-33669357D01*
X30168158Y-33663582D01*
X30170780Y-33658038D01*
X30173933Y-33652777D01*
X30177587Y-33647850D01*
X30181706Y-33643306D01*
X30186250Y-33639187D01*
X30191177Y-33635533D01*
X30196438Y-33632380D01*
X30201982Y-33629758D01*
X30207757Y-33627691D01*
X30213707Y-33626201D01*
X30219774Y-33625301D01*
X30225900Y-33625000D01*
X30975900Y-33625000D01*
X30982026Y-33625301D01*
X30982026Y-33625301D01*
G37*
D13*
X30600900Y-33750000D03*
D10*
G36*
X30982026Y-33125301D02*
G01*
X30988093Y-33126201D01*
X30994043Y-33127691D01*
X30999818Y-33129758D01*
X31005362Y-33132380D01*
X31010623Y-33135533D01*
X31015550Y-33139187D01*
X31020094Y-33143306D01*
X31024213Y-33147850D01*
X31027867Y-33152777D01*
X31031020Y-33158038D01*
X31033642Y-33163582D01*
X31035709Y-33169357D01*
X31037199Y-33175307D01*
X31038099Y-33181374D01*
X31038400Y-33187500D01*
X31038400Y-33312500D01*
X31038099Y-33318626D01*
X31037199Y-33324693D01*
X31035709Y-33330643D01*
X31033642Y-33336418D01*
X31031020Y-33341962D01*
X31027867Y-33347223D01*
X31024213Y-33352150D01*
X31020094Y-33356694D01*
X31015550Y-33360813D01*
X31010623Y-33364467D01*
X31005362Y-33367620D01*
X30999818Y-33370242D01*
X30994043Y-33372309D01*
X30988093Y-33373799D01*
X30982026Y-33374699D01*
X30975900Y-33375000D01*
X30225900Y-33375000D01*
X30219774Y-33374699D01*
X30213707Y-33373799D01*
X30207757Y-33372309D01*
X30201982Y-33370242D01*
X30196438Y-33367620D01*
X30191177Y-33364467D01*
X30186250Y-33360813D01*
X30181706Y-33356694D01*
X30177587Y-33352150D01*
X30173933Y-33347223D01*
X30170780Y-33341962D01*
X30168158Y-33336418D01*
X30166091Y-33330643D01*
X30164601Y-33324693D01*
X30163701Y-33318626D01*
X30163400Y-33312500D01*
X30163400Y-33187500D01*
X30163701Y-33181374D01*
X30164601Y-33175307D01*
X30166091Y-33169357D01*
X30168158Y-33163582D01*
X30170780Y-33158038D01*
X30173933Y-33152777D01*
X30177587Y-33147850D01*
X30181706Y-33143306D01*
X30186250Y-33139187D01*
X30191177Y-33135533D01*
X30196438Y-33132380D01*
X30201982Y-33129758D01*
X30207757Y-33127691D01*
X30213707Y-33126201D01*
X30219774Y-33125301D01*
X30225900Y-33125000D01*
X30975900Y-33125000D01*
X30982026Y-33125301D01*
X30982026Y-33125301D01*
G37*
D13*
X30600900Y-33250000D03*
D10*
G36*
X30982026Y-32625301D02*
G01*
X30988093Y-32626201D01*
X30994043Y-32627691D01*
X30999818Y-32629758D01*
X31005362Y-32632380D01*
X31010623Y-32635533D01*
X31015550Y-32639187D01*
X31020094Y-32643306D01*
X31024213Y-32647850D01*
X31027867Y-32652777D01*
X31031020Y-32658038D01*
X31033642Y-32663582D01*
X31035709Y-32669357D01*
X31037199Y-32675307D01*
X31038099Y-32681374D01*
X31038400Y-32687500D01*
X31038400Y-32812500D01*
X31038099Y-32818626D01*
X31037199Y-32824693D01*
X31035709Y-32830643D01*
X31033642Y-32836418D01*
X31031020Y-32841962D01*
X31027867Y-32847223D01*
X31024213Y-32852150D01*
X31020094Y-32856694D01*
X31015550Y-32860813D01*
X31010623Y-32864467D01*
X31005362Y-32867620D01*
X30999818Y-32870242D01*
X30994043Y-32872309D01*
X30988093Y-32873799D01*
X30982026Y-32874699D01*
X30975900Y-32875000D01*
X30225900Y-32875000D01*
X30219774Y-32874699D01*
X30213707Y-32873799D01*
X30207757Y-32872309D01*
X30201982Y-32870242D01*
X30196438Y-32867620D01*
X30191177Y-32864467D01*
X30186250Y-32860813D01*
X30181706Y-32856694D01*
X30177587Y-32852150D01*
X30173933Y-32847223D01*
X30170780Y-32841962D01*
X30168158Y-32836418D01*
X30166091Y-32830643D01*
X30164601Y-32824693D01*
X30163701Y-32818626D01*
X30163400Y-32812500D01*
X30163400Y-32687500D01*
X30163701Y-32681374D01*
X30164601Y-32675307D01*
X30166091Y-32669357D01*
X30168158Y-32663582D01*
X30170780Y-32658038D01*
X30173933Y-32652777D01*
X30177587Y-32647850D01*
X30181706Y-32643306D01*
X30186250Y-32639187D01*
X30191177Y-32635533D01*
X30196438Y-32632380D01*
X30201982Y-32629758D01*
X30207757Y-32627691D01*
X30213707Y-32626201D01*
X30219774Y-32625301D01*
X30225900Y-32625000D01*
X30975900Y-32625000D01*
X30982026Y-32625301D01*
X30982026Y-32625301D01*
G37*
D13*
X30600900Y-32750000D03*
D10*
G36*
X30982026Y-32125301D02*
G01*
X30988093Y-32126201D01*
X30994043Y-32127691D01*
X30999818Y-32129758D01*
X31005362Y-32132380D01*
X31010623Y-32135533D01*
X31015550Y-32139187D01*
X31020094Y-32143306D01*
X31024213Y-32147850D01*
X31027867Y-32152777D01*
X31031020Y-32158038D01*
X31033642Y-32163582D01*
X31035709Y-32169357D01*
X31037199Y-32175307D01*
X31038099Y-32181374D01*
X31038400Y-32187500D01*
X31038400Y-32312500D01*
X31038099Y-32318626D01*
X31037199Y-32324693D01*
X31035709Y-32330643D01*
X31033642Y-32336418D01*
X31031020Y-32341962D01*
X31027867Y-32347223D01*
X31024213Y-32352150D01*
X31020094Y-32356694D01*
X31015550Y-32360813D01*
X31010623Y-32364467D01*
X31005362Y-32367620D01*
X30999818Y-32370242D01*
X30994043Y-32372309D01*
X30988093Y-32373799D01*
X30982026Y-32374699D01*
X30975900Y-32375000D01*
X30225900Y-32375000D01*
X30219774Y-32374699D01*
X30213707Y-32373799D01*
X30207757Y-32372309D01*
X30201982Y-32370242D01*
X30196438Y-32367620D01*
X30191177Y-32364467D01*
X30186250Y-32360813D01*
X30181706Y-32356694D01*
X30177587Y-32352150D01*
X30173933Y-32347223D01*
X30170780Y-32341962D01*
X30168158Y-32336418D01*
X30166091Y-32330643D01*
X30164601Y-32324693D01*
X30163701Y-32318626D01*
X30163400Y-32312500D01*
X30163400Y-32187500D01*
X30163701Y-32181374D01*
X30164601Y-32175307D01*
X30166091Y-32169357D01*
X30168158Y-32163582D01*
X30170780Y-32158038D01*
X30173933Y-32152777D01*
X30177587Y-32147850D01*
X30181706Y-32143306D01*
X30186250Y-32139187D01*
X30191177Y-32135533D01*
X30196438Y-32132380D01*
X30201982Y-32129758D01*
X30207757Y-32127691D01*
X30213707Y-32126201D01*
X30219774Y-32125301D01*
X30225900Y-32125000D01*
X30975900Y-32125000D01*
X30982026Y-32125301D01*
X30982026Y-32125301D01*
G37*
D13*
X30600900Y-32250000D03*
D10*
G36*
X30982026Y-31625301D02*
G01*
X30988093Y-31626201D01*
X30994043Y-31627691D01*
X30999818Y-31629758D01*
X31005362Y-31632380D01*
X31010623Y-31635533D01*
X31015550Y-31639187D01*
X31020094Y-31643306D01*
X31024213Y-31647850D01*
X31027867Y-31652777D01*
X31031020Y-31658038D01*
X31033642Y-31663582D01*
X31035709Y-31669357D01*
X31037199Y-31675307D01*
X31038099Y-31681374D01*
X31038400Y-31687500D01*
X31038400Y-31812500D01*
X31038099Y-31818626D01*
X31037199Y-31824693D01*
X31035709Y-31830643D01*
X31033642Y-31836418D01*
X31031020Y-31841962D01*
X31027867Y-31847223D01*
X31024213Y-31852150D01*
X31020094Y-31856694D01*
X31015550Y-31860813D01*
X31010623Y-31864467D01*
X31005362Y-31867620D01*
X30999818Y-31870242D01*
X30994043Y-31872309D01*
X30988093Y-31873799D01*
X30982026Y-31874699D01*
X30975900Y-31875000D01*
X30225900Y-31875000D01*
X30219774Y-31874699D01*
X30213707Y-31873799D01*
X30207757Y-31872309D01*
X30201982Y-31870242D01*
X30196438Y-31867620D01*
X30191177Y-31864467D01*
X30186250Y-31860813D01*
X30181706Y-31856694D01*
X30177587Y-31852150D01*
X30173933Y-31847223D01*
X30170780Y-31841962D01*
X30168158Y-31836418D01*
X30166091Y-31830643D01*
X30164601Y-31824693D01*
X30163701Y-31818626D01*
X30163400Y-31812500D01*
X30163400Y-31687500D01*
X30163701Y-31681374D01*
X30164601Y-31675307D01*
X30166091Y-31669357D01*
X30168158Y-31663582D01*
X30170780Y-31658038D01*
X30173933Y-31652777D01*
X30177587Y-31647850D01*
X30181706Y-31643306D01*
X30186250Y-31639187D01*
X30191177Y-31635533D01*
X30196438Y-31632380D01*
X30201982Y-31629758D01*
X30207757Y-31627691D01*
X30213707Y-31626201D01*
X30219774Y-31625301D01*
X30225900Y-31625000D01*
X30975900Y-31625000D01*
X30982026Y-31625301D01*
X30982026Y-31625301D01*
G37*
D13*
X30600900Y-31750000D03*
D10*
G36*
X30982026Y-31125301D02*
G01*
X30988093Y-31126201D01*
X30994043Y-31127691D01*
X30999818Y-31129758D01*
X31005362Y-31132380D01*
X31010623Y-31135533D01*
X31015550Y-31139187D01*
X31020094Y-31143306D01*
X31024213Y-31147850D01*
X31027867Y-31152777D01*
X31031020Y-31158038D01*
X31033642Y-31163582D01*
X31035709Y-31169357D01*
X31037199Y-31175307D01*
X31038099Y-31181374D01*
X31038400Y-31187500D01*
X31038400Y-31312500D01*
X31038099Y-31318626D01*
X31037199Y-31324693D01*
X31035709Y-31330643D01*
X31033642Y-31336418D01*
X31031020Y-31341962D01*
X31027867Y-31347223D01*
X31024213Y-31352150D01*
X31020094Y-31356694D01*
X31015550Y-31360813D01*
X31010623Y-31364467D01*
X31005362Y-31367620D01*
X30999818Y-31370242D01*
X30994043Y-31372309D01*
X30988093Y-31373799D01*
X30982026Y-31374699D01*
X30975900Y-31375000D01*
X30225900Y-31375000D01*
X30219774Y-31374699D01*
X30213707Y-31373799D01*
X30207757Y-31372309D01*
X30201982Y-31370242D01*
X30196438Y-31367620D01*
X30191177Y-31364467D01*
X30186250Y-31360813D01*
X30181706Y-31356694D01*
X30177587Y-31352150D01*
X30173933Y-31347223D01*
X30170780Y-31341962D01*
X30168158Y-31336418D01*
X30166091Y-31330643D01*
X30164601Y-31324693D01*
X30163701Y-31318626D01*
X30163400Y-31312500D01*
X30163400Y-31187500D01*
X30163701Y-31181374D01*
X30164601Y-31175307D01*
X30166091Y-31169357D01*
X30168158Y-31163582D01*
X30170780Y-31158038D01*
X30173933Y-31152777D01*
X30177587Y-31147850D01*
X30181706Y-31143306D01*
X30186250Y-31139187D01*
X30191177Y-31135533D01*
X30196438Y-31132380D01*
X30201982Y-31129758D01*
X30207757Y-31127691D01*
X30213707Y-31126201D01*
X30219774Y-31125301D01*
X30225900Y-31125000D01*
X30975900Y-31125000D01*
X30982026Y-31125301D01*
X30982026Y-31125301D01*
G37*
D13*
X30600900Y-31250000D03*
D10*
G36*
X31357026Y-30125301D02*
G01*
X31363093Y-30126201D01*
X31369043Y-30127691D01*
X31374818Y-30129758D01*
X31380362Y-30132380D01*
X31385623Y-30135533D01*
X31390550Y-30139187D01*
X31395094Y-30143306D01*
X31399213Y-30147850D01*
X31402867Y-30152777D01*
X31406020Y-30158038D01*
X31408642Y-30163582D01*
X31410709Y-30169357D01*
X31412199Y-30175307D01*
X31413099Y-30181374D01*
X31413400Y-30187500D01*
X31413400Y-30937500D01*
X31413099Y-30943626D01*
X31412199Y-30949693D01*
X31410709Y-30955643D01*
X31408642Y-30961418D01*
X31406020Y-30966962D01*
X31402867Y-30972223D01*
X31399213Y-30977150D01*
X31395094Y-30981694D01*
X31390550Y-30985813D01*
X31385623Y-30989467D01*
X31380362Y-30992620D01*
X31374818Y-30995242D01*
X31369043Y-30997309D01*
X31363093Y-30998799D01*
X31357026Y-30999699D01*
X31350900Y-31000000D01*
X31225900Y-31000000D01*
X31219774Y-30999699D01*
X31213707Y-30998799D01*
X31207757Y-30997309D01*
X31201982Y-30995242D01*
X31196438Y-30992620D01*
X31191177Y-30989467D01*
X31186250Y-30985813D01*
X31181706Y-30981694D01*
X31177587Y-30977150D01*
X31173933Y-30972223D01*
X31170780Y-30966962D01*
X31168158Y-30961418D01*
X31166091Y-30955643D01*
X31164601Y-30949693D01*
X31163701Y-30943626D01*
X31163400Y-30937500D01*
X31163400Y-30187500D01*
X31163701Y-30181374D01*
X31164601Y-30175307D01*
X31166091Y-30169357D01*
X31168158Y-30163582D01*
X31170780Y-30158038D01*
X31173933Y-30152777D01*
X31177587Y-30147850D01*
X31181706Y-30143306D01*
X31186250Y-30139187D01*
X31191177Y-30135533D01*
X31196438Y-30132380D01*
X31201982Y-30129758D01*
X31207757Y-30127691D01*
X31213707Y-30126201D01*
X31219774Y-30125301D01*
X31225900Y-30125000D01*
X31350900Y-30125000D01*
X31357026Y-30125301D01*
X31357026Y-30125301D01*
G37*
D13*
X31288400Y-30562500D03*
D10*
G36*
X31857026Y-30125301D02*
G01*
X31863093Y-30126201D01*
X31869043Y-30127691D01*
X31874818Y-30129758D01*
X31880362Y-30132380D01*
X31885623Y-30135533D01*
X31890550Y-30139187D01*
X31895094Y-30143306D01*
X31899213Y-30147850D01*
X31902867Y-30152777D01*
X31906020Y-30158038D01*
X31908642Y-30163582D01*
X31910709Y-30169357D01*
X31912199Y-30175307D01*
X31913099Y-30181374D01*
X31913400Y-30187500D01*
X31913400Y-30937500D01*
X31913099Y-30943626D01*
X31912199Y-30949693D01*
X31910709Y-30955643D01*
X31908642Y-30961418D01*
X31906020Y-30966962D01*
X31902867Y-30972223D01*
X31899213Y-30977150D01*
X31895094Y-30981694D01*
X31890550Y-30985813D01*
X31885623Y-30989467D01*
X31880362Y-30992620D01*
X31874818Y-30995242D01*
X31869043Y-30997309D01*
X31863093Y-30998799D01*
X31857026Y-30999699D01*
X31850900Y-31000000D01*
X31725900Y-31000000D01*
X31719774Y-30999699D01*
X31713707Y-30998799D01*
X31707757Y-30997309D01*
X31701982Y-30995242D01*
X31696438Y-30992620D01*
X31691177Y-30989467D01*
X31686250Y-30985813D01*
X31681706Y-30981694D01*
X31677587Y-30977150D01*
X31673933Y-30972223D01*
X31670780Y-30966962D01*
X31668158Y-30961418D01*
X31666091Y-30955643D01*
X31664601Y-30949693D01*
X31663701Y-30943626D01*
X31663400Y-30937500D01*
X31663400Y-30187500D01*
X31663701Y-30181374D01*
X31664601Y-30175307D01*
X31666091Y-30169357D01*
X31668158Y-30163582D01*
X31670780Y-30158038D01*
X31673933Y-30152777D01*
X31677587Y-30147850D01*
X31681706Y-30143306D01*
X31686250Y-30139187D01*
X31691177Y-30135533D01*
X31696438Y-30132380D01*
X31701982Y-30129758D01*
X31707757Y-30127691D01*
X31713707Y-30126201D01*
X31719774Y-30125301D01*
X31725900Y-30125000D01*
X31850900Y-30125000D01*
X31857026Y-30125301D01*
X31857026Y-30125301D01*
G37*
D13*
X31788400Y-30562500D03*
D10*
G36*
X32357026Y-30125301D02*
G01*
X32363093Y-30126201D01*
X32369043Y-30127691D01*
X32374818Y-30129758D01*
X32380362Y-30132380D01*
X32385623Y-30135533D01*
X32390550Y-30139187D01*
X32395094Y-30143306D01*
X32399213Y-30147850D01*
X32402867Y-30152777D01*
X32406020Y-30158038D01*
X32408642Y-30163582D01*
X32410709Y-30169357D01*
X32412199Y-30175307D01*
X32413099Y-30181374D01*
X32413400Y-30187500D01*
X32413400Y-30937500D01*
X32413099Y-30943626D01*
X32412199Y-30949693D01*
X32410709Y-30955643D01*
X32408642Y-30961418D01*
X32406020Y-30966962D01*
X32402867Y-30972223D01*
X32399213Y-30977150D01*
X32395094Y-30981694D01*
X32390550Y-30985813D01*
X32385623Y-30989467D01*
X32380362Y-30992620D01*
X32374818Y-30995242D01*
X32369043Y-30997309D01*
X32363093Y-30998799D01*
X32357026Y-30999699D01*
X32350900Y-31000000D01*
X32225900Y-31000000D01*
X32219774Y-30999699D01*
X32213707Y-30998799D01*
X32207757Y-30997309D01*
X32201982Y-30995242D01*
X32196438Y-30992620D01*
X32191177Y-30989467D01*
X32186250Y-30985813D01*
X32181706Y-30981694D01*
X32177587Y-30977150D01*
X32173933Y-30972223D01*
X32170780Y-30966962D01*
X32168158Y-30961418D01*
X32166091Y-30955643D01*
X32164601Y-30949693D01*
X32163701Y-30943626D01*
X32163400Y-30937500D01*
X32163400Y-30187500D01*
X32163701Y-30181374D01*
X32164601Y-30175307D01*
X32166091Y-30169357D01*
X32168158Y-30163582D01*
X32170780Y-30158038D01*
X32173933Y-30152777D01*
X32177587Y-30147850D01*
X32181706Y-30143306D01*
X32186250Y-30139187D01*
X32191177Y-30135533D01*
X32196438Y-30132380D01*
X32201982Y-30129758D01*
X32207757Y-30127691D01*
X32213707Y-30126201D01*
X32219774Y-30125301D01*
X32225900Y-30125000D01*
X32350900Y-30125000D01*
X32357026Y-30125301D01*
X32357026Y-30125301D01*
G37*
D13*
X32288400Y-30562500D03*
D10*
G36*
X32857026Y-30125301D02*
G01*
X32863093Y-30126201D01*
X32869043Y-30127691D01*
X32874818Y-30129758D01*
X32880362Y-30132380D01*
X32885623Y-30135533D01*
X32890550Y-30139187D01*
X32895094Y-30143306D01*
X32899213Y-30147850D01*
X32902867Y-30152777D01*
X32906020Y-30158038D01*
X32908642Y-30163582D01*
X32910709Y-30169357D01*
X32912199Y-30175307D01*
X32913099Y-30181374D01*
X32913400Y-30187500D01*
X32913400Y-30937500D01*
X32913099Y-30943626D01*
X32912199Y-30949693D01*
X32910709Y-30955643D01*
X32908642Y-30961418D01*
X32906020Y-30966962D01*
X32902867Y-30972223D01*
X32899213Y-30977150D01*
X32895094Y-30981694D01*
X32890550Y-30985813D01*
X32885623Y-30989467D01*
X32880362Y-30992620D01*
X32874818Y-30995242D01*
X32869043Y-30997309D01*
X32863093Y-30998799D01*
X32857026Y-30999699D01*
X32850900Y-31000000D01*
X32725900Y-31000000D01*
X32719774Y-30999699D01*
X32713707Y-30998799D01*
X32707757Y-30997309D01*
X32701982Y-30995242D01*
X32696438Y-30992620D01*
X32691177Y-30989467D01*
X32686250Y-30985813D01*
X32681706Y-30981694D01*
X32677587Y-30977150D01*
X32673933Y-30972223D01*
X32670780Y-30966962D01*
X32668158Y-30961418D01*
X32666091Y-30955643D01*
X32664601Y-30949693D01*
X32663701Y-30943626D01*
X32663400Y-30937500D01*
X32663400Y-30187500D01*
X32663701Y-30181374D01*
X32664601Y-30175307D01*
X32666091Y-30169357D01*
X32668158Y-30163582D01*
X32670780Y-30158038D01*
X32673933Y-30152777D01*
X32677587Y-30147850D01*
X32681706Y-30143306D01*
X32686250Y-30139187D01*
X32691177Y-30135533D01*
X32696438Y-30132380D01*
X32701982Y-30129758D01*
X32707757Y-30127691D01*
X32713707Y-30126201D01*
X32719774Y-30125301D01*
X32725900Y-30125000D01*
X32850900Y-30125000D01*
X32857026Y-30125301D01*
X32857026Y-30125301D01*
G37*
D13*
X32788400Y-30562500D03*
D10*
G36*
X33357026Y-30125301D02*
G01*
X33363093Y-30126201D01*
X33369043Y-30127691D01*
X33374818Y-30129758D01*
X33380362Y-30132380D01*
X33385623Y-30135533D01*
X33390550Y-30139187D01*
X33395094Y-30143306D01*
X33399213Y-30147850D01*
X33402867Y-30152777D01*
X33406020Y-30158038D01*
X33408642Y-30163582D01*
X33410709Y-30169357D01*
X33412199Y-30175307D01*
X33413099Y-30181374D01*
X33413400Y-30187500D01*
X33413400Y-30937500D01*
X33413099Y-30943626D01*
X33412199Y-30949693D01*
X33410709Y-30955643D01*
X33408642Y-30961418D01*
X33406020Y-30966962D01*
X33402867Y-30972223D01*
X33399213Y-30977150D01*
X33395094Y-30981694D01*
X33390550Y-30985813D01*
X33385623Y-30989467D01*
X33380362Y-30992620D01*
X33374818Y-30995242D01*
X33369043Y-30997309D01*
X33363093Y-30998799D01*
X33357026Y-30999699D01*
X33350900Y-31000000D01*
X33225900Y-31000000D01*
X33219774Y-30999699D01*
X33213707Y-30998799D01*
X33207757Y-30997309D01*
X33201982Y-30995242D01*
X33196438Y-30992620D01*
X33191177Y-30989467D01*
X33186250Y-30985813D01*
X33181706Y-30981694D01*
X33177587Y-30977150D01*
X33173933Y-30972223D01*
X33170780Y-30966962D01*
X33168158Y-30961418D01*
X33166091Y-30955643D01*
X33164601Y-30949693D01*
X33163701Y-30943626D01*
X33163400Y-30937500D01*
X33163400Y-30187500D01*
X33163701Y-30181374D01*
X33164601Y-30175307D01*
X33166091Y-30169357D01*
X33168158Y-30163582D01*
X33170780Y-30158038D01*
X33173933Y-30152777D01*
X33177587Y-30147850D01*
X33181706Y-30143306D01*
X33186250Y-30139187D01*
X33191177Y-30135533D01*
X33196438Y-30132380D01*
X33201982Y-30129758D01*
X33207757Y-30127691D01*
X33213707Y-30126201D01*
X33219774Y-30125301D01*
X33225900Y-30125000D01*
X33350900Y-30125000D01*
X33357026Y-30125301D01*
X33357026Y-30125301D01*
G37*
D13*
X33288400Y-30562500D03*
D10*
G36*
X33857026Y-30125301D02*
G01*
X33863093Y-30126201D01*
X33869043Y-30127691D01*
X33874818Y-30129758D01*
X33880362Y-30132380D01*
X33885623Y-30135533D01*
X33890550Y-30139187D01*
X33895094Y-30143306D01*
X33899213Y-30147850D01*
X33902867Y-30152777D01*
X33906020Y-30158038D01*
X33908642Y-30163582D01*
X33910709Y-30169357D01*
X33912199Y-30175307D01*
X33913099Y-30181374D01*
X33913400Y-30187500D01*
X33913400Y-30937500D01*
X33913099Y-30943626D01*
X33912199Y-30949693D01*
X33910709Y-30955643D01*
X33908642Y-30961418D01*
X33906020Y-30966962D01*
X33902867Y-30972223D01*
X33899213Y-30977150D01*
X33895094Y-30981694D01*
X33890550Y-30985813D01*
X33885623Y-30989467D01*
X33880362Y-30992620D01*
X33874818Y-30995242D01*
X33869043Y-30997309D01*
X33863093Y-30998799D01*
X33857026Y-30999699D01*
X33850900Y-31000000D01*
X33725900Y-31000000D01*
X33719774Y-30999699D01*
X33713707Y-30998799D01*
X33707757Y-30997309D01*
X33701982Y-30995242D01*
X33696438Y-30992620D01*
X33691177Y-30989467D01*
X33686250Y-30985813D01*
X33681706Y-30981694D01*
X33677587Y-30977150D01*
X33673933Y-30972223D01*
X33670780Y-30966962D01*
X33668158Y-30961418D01*
X33666091Y-30955643D01*
X33664601Y-30949693D01*
X33663701Y-30943626D01*
X33663400Y-30937500D01*
X33663400Y-30187500D01*
X33663701Y-30181374D01*
X33664601Y-30175307D01*
X33666091Y-30169357D01*
X33668158Y-30163582D01*
X33670780Y-30158038D01*
X33673933Y-30152777D01*
X33677587Y-30147850D01*
X33681706Y-30143306D01*
X33686250Y-30139187D01*
X33691177Y-30135533D01*
X33696438Y-30132380D01*
X33701982Y-30129758D01*
X33707757Y-30127691D01*
X33713707Y-30126201D01*
X33719774Y-30125301D01*
X33725900Y-30125000D01*
X33850900Y-30125000D01*
X33857026Y-30125301D01*
X33857026Y-30125301D01*
G37*
D13*
X33788400Y-30562500D03*
D10*
G36*
X34357026Y-30125301D02*
G01*
X34363093Y-30126201D01*
X34369043Y-30127691D01*
X34374818Y-30129758D01*
X34380362Y-30132380D01*
X34385623Y-30135533D01*
X34390550Y-30139187D01*
X34395094Y-30143306D01*
X34399213Y-30147850D01*
X34402867Y-30152777D01*
X34406020Y-30158038D01*
X34408642Y-30163582D01*
X34410709Y-30169357D01*
X34412199Y-30175307D01*
X34413099Y-30181374D01*
X34413400Y-30187500D01*
X34413400Y-30937500D01*
X34413099Y-30943626D01*
X34412199Y-30949693D01*
X34410709Y-30955643D01*
X34408642Y-30961418D01*
X34406020Y-30966962D01*
X34402867Y-30972223D01*
X34399213Y-30977150D01*
X34395094Y-30981694D01*
X34390550Y-30985813D01*
X34385623Y-30989467D01*
X34380362Y-30992620D01*
X34374818Y-30995242D01*
X34369043Y-30997309D01*
X34363093Y-30998799D01*
X34357026Y-30999699D01*
X34350900Y-31000000D01*
X34225900Y-31000000D01*
X34219774Y-30999699D01*
X34213707Y-30998799D01*
X34207757Y-30997309D01*
X34201982Y-30995242D01*
X34196438Y-30992620D01*
X34191177Y-30989467D01*
X34186250Y-30985813D01*
X34181706Y-30981694D01*
X34177587Y-30977150D01*
X34173933Y-30972223D01*
X34170780Y-30966962D01*
X34168158Y-30961418D01*
X34166091Y-30955643D01*
X34164601Y-30949693D01*
X34163701Y-30943626D01*
X34163400Y-30937500D01*
X34163400Y-30187500D01*
X34163701Y-30181374D01*
X34164601Y-30175307D01*
X34166091Y-30169357D01*
X34168158Y-30163582D01*
X34170780Y-30158038D01*
X34173933Y-30152777D01*
X34177587Y-30147850D01*
X34181706Y-30143306D01*
X34186250Y-30139187D01*
X34191177Y-30135533D01*
X34196438Y-30132380D01*
X34201982Y-30129758D01*
X34207757Y-30127691D01*
X34213707Y-30126201D01*
X34219774Y-30125301D01*
X34225900Y-30125000D01*
X34350900Y-30125000D01*
X34357026Y-30125301D01*
X34357026Y-30125301D01*
G37*
D13*
X34288400Y-30562500D03*
D10*
G36*
X34857026Y-30125301D02*
G01*
X34863093Y-30126201D01*
X34869043Y-30127691D01*
X34874818Y-30129758D01*
X34880362Y-30132380D01*
X34885623Y-30135533D01*
X34890550Y-30139187D01*
X34895094Y-30143306D01*
X34899213Y-30147850D01*
X34902867Y-30152777D01*
X34906020Y-30158038D01*
X34908642Y-30163582D01*
X34910709Y-30169357D01*
X34912199Y-30175307D01*
X34913099Y-30181374D01*
X34913400Y-30187500D01*
X34913400Y-30937500D01*
X34913099Y-30943626D01*
X34912199Y-30949693D01*
X34910709Y-30955643D01*
X34908642Y-30961418D01*
X34906020Y-30966962D01*
X34902867Y-30972223D01*
X34899213Y-30977150D01*
X34895094Y-30981694D01*
X34890550Y-30985813D01*
X34885623Y-30989467D01*
X34880362Y-30992620D01*
X34874818Y-30995242D01*
X34869043Y-30997309D01*
X34863093Y-30998799D01*
X34857026Y-30999699D01*
X34850900Y-31000000D01*
X34725900Y-31000000D01*
X34719774Y-30999699D01*
X34713707Y-30998799D01*
X34707757Y-30997309D01*
X34701982Y-30995242D01*
X34696438Y-30992620D01*
X34691177Y-30989467D01*
X34686250Y-30985813D01*
X34681706Y-30981694D01*
X34677587Y-30977150D01*
X34673933Y-30972223D01*
X34670780Y-30966962D01*
X34668158Y-30961418D01*
X34666091Y-30955643D01*
X34664601Y-30949693D01*
X34663701Y-30943626D01*
X34663400Y-30937500D01*
X34663400Y-30187500D01*
X34663701Y-30181374D01*
X34664601Y-30175307D01*
X34666091Y-30169357D01*
X34668158Y-30163582D01*
X34670780Y-30158038D01*
X34673933Y-30152777D01*
X34677587Y-30147850D01*
X34681706Y-30143306D01*
X34686250Y-30139187D01*
X34691177Y-30135533D01*
X34696438Y-30132380D01*
X34701982Y-30129758D01*
X34707757Y-30127691D01*
X34713707Y-30126201D01*
X34719774Y-30125301D01*
X34725900Y-30125000D01*
X34850900Y-30125000D01*
X34857026Y-30125301D01*
X34857026Y-30125301D01*
G37*
D13*
X34788400Y-30562500D03*
D10*
G36*
X35357026Y-30125301D02*
G01*
X35363093Y-30126201D01*
X35369043Y-30127691D01*
X35374818Y-30129758D01*
X35380362Y-30132380D01*
X35385623Y-30135533D01*
X35390550Y-30139187D01*
X35395094Y-30143306D01*
X35399213Y-30147850D01*
X35402867Y-30152777D01*
X35406020Y-30158038D01*
X35408642Y-30163582D01*
X35410709Y-30169357D01*
X35412199Y-30175307D01*
X35413099Y-30181374D01*
X35413400Y-30187500D01*
X35413400Y-30937500D01*
X35413099Y-30943626D01*
X35412199Y-30949693D01*
X35410709Y-30955643D01*
X35408642Y-30961418D01*
X35406020Y-30966962D01*
X35402867Y-30972223D01*
X35399213Y-30977150D01*
X35395094Y-30981694D01*
X35390550Y-30985813D01*
X35385623Y-30989467D01*
X35380362Y-30992620D01*
X35374818Y-30995242D01*
X35369043Y-30997309D01*
X35363093Y-30998799D01*
X35357026Y-30999699D01*
X35350900Y-31000000D01*
X35225900Y-31000000D01*
X35219774Y-30999699D01*
X35213707Y-30998799D01*
X35207757Y-30997309D01*
X35201982Y-30995242D01*
X35196438Y-30992620D01*
X35191177Y-30989467D01*
X35186250Y-30985813D01*
X35181706Y-30981694D01*
X35177587Y-30977150D01*
X35173933Y-30972223D01*
X35170780Y-30966962D01*
X35168158Y-30961418D01*
X35166091Y-30955643D01*
X35164601Y-30949693D01*
X35163701Y-30943626D01*
X35163400Y-30937500D01*
X35163400Y-30187500D01*
X35163701Y-30181374D01*
X35164601Y-30175307D01*
X35166091Y-30169357D01*
X35168158Y-30163582D01*
X35170780Y-30158038D01*
X35173933Y-30152777D01*
X35177587Y-30147850D01*
X35181706Y-30143306D01*
X35186250Y-30139187D01*
X35191177Y-30135533D01*
X35196438Y-30132380D01*
X35201982Y-30129758D01*
X35207757Y-30127691D01*
X35213707Y-30126201D01*
X35219774Y-30125301D01*
X35225900Y-30125000D01*
X35350900Y-30125000D01*
X35357026Y-30125301D01*
X35357026Y-30125301D01*
G37*
D13*
X35288400Y-30562500D03*
D10*
G36*
X35857026Y-30125301D02*
G01*
X35863093Y-30126201D01*
X35869043Y-30127691D01*
X35874818Y-30129758D01*
X35880362Y-30132380D01*
X35885623Y-30135533D01*
X35890550Y-30139187D01*
X35895094Y-30143306D01*
X35899213Y-30147850D01*
X35902867Y-30152777D01*
X35906020Y-30158038D01*
X35908642Y-30163582D01*
X35910709Y-30169357D01*
X35912199Y-30175307D01*
X35913099Y-30181374D01*
X35913400Y-30187500D01*
X35913400Y-30937500D01*
X35913099Y-30943626D01*
X35912199Y-30949693D01*
X35910709Y-30955643D01*
X35908642Y-30961418D01*
X35906020Y-30966962D01*
X35902867Y-30972223D01*
X35899213Y-30977150D01*
X35895094Y-30981694D01*
X35890550Y-30985813D01*
X35885623Y-30989467D01*
X35880362Y-30992620D01*
X35874818Y-30995242D01*
X35869043Y-30997309D01*
X35863093Y-30998799D01*
X35857026Y-30999699D01*
X35850900Y-31000000D01*
X35725900Y-31000000D01*
X35719774Y-30999699D01*
X35713707Y-30998799D01*
X35707757Y-30997309D01*
X35701982Y-30995242D01*
X35696438Y-30992620D01*
X35691177Y-30989467D01*
X35686250Y-30985813D01*
X35681706Y-30981694D01*
X35677587Y-30977150D01*
X35673933Y-30972223D01*
X35670780Y-30966962D01*
X35668158Y-30961418D01*
X35666091Y-30955643D01*
X35664601Y-30949693D01*
X35663701Y-30943626D01*
X35663400Y-30937500D01*
X35663400Y-30187500D01*
X35663701Y-30181374D01*
X35664601Y-30175307D01*
X35666091Y-30169357D01*
X35668158Y-30163582D01*
X35670780Y-30158038D01*
X35673933Y-30152777D01*
X35677587Y-30147850D01*
X35681706Y-30143306D01*
X35686250Y-30139187D01*
X35691177Y-30135533D01*
X35696438Y-30132380D01*
X35701982Y-30129758D01*
X35707757Y-30127691D01*
X35713707Y-30126201D01*
X35719774Y-30125301D01*
X35725900Y-30125000D01*
X35850900Y-30125000D01*
X35857026Y-30125301D01*
X35857026Y-30125301D01*
G37*
D13*
X35788400Y-30562500D03*
D10*
G36*
X36357026Y-30125301D02*
G01*
X36363093Y-30126201D01*
X36369043Y-30127691D01*
X36374818Y-30129758D01*
X36380362Y-30132380D01*
X36385623Y-30135533D01*
X36390550Y-30139187D01*
X36395094Y-30143306D01*
X36399213Y-30147850D01*
X36402867Y-30152777D01*
X36406020Y-30158038D01*
X36408642Y-30163582D01*
X36410709Y-30169357D01*
X36412199Y-30175307D01*
X36413099Y-30181374D01*
X36413400Y-30187500D01*
X36413400Y-30937500D01*
X36413099Y-30943626D01*
X36412199Y-30949693D01*
X36410709Y-30955643D01*
X36408642Y-30961418D01*
X36406020Y-30966962D01*
X36402867Y-30972223D01*
X36399213Y-30977150D01*
X36395094Y-30981694D01*
X36390550Y-30985813D01*
X36385623Y-30989467D01*
X36380362Y-30992620D01*
X36374818Y-30995242D01*
X36369043Y-30997309D01*
X36363093Y-30998799D01*
X36357026Y-30999699D01*
X36350900Y-31000000D01*
X36225900Y-31000000D01*
X36219774Y-30999699D01*
X36213707Y-30998799D01*
X36207757Y-30997309D01*
X36201982Y-30995242D01*
X36196438Y-30992620D01*
X36191177Y-30989467D01*
X36186250Y-30985813D01*
X36181706Y-30981694D01*
X36177587Y-30977150D01*
X36173933Y-30972223D01*
X36170780Y-30966962D01*
X36168158Y-30961418D01*
X36166091Y-30955643D01*
X36164601Y-30949693D01*
X36163701Y-30943626D01*
X36163400Y-30937500D01*
X36163400Y-30187500D01*
X36163701Y-30181374D01*
X36164601Y-30175307D01*
X36166091Y-30169357D01*
X36168158Y-30163582D01*
X36170780Y-30158038D01*
X36173933Y-30152777D01*
X36177587Y-30147850D01*
X36181706Y-30143306D01*
X36186250Y-30139187D01*
X36191177Y-30135533D01*
X36196438Y-30132380D01*
X36201982Y-30129758D01*
X36207757Y-30127691D01*
X36213707Y-30126201D01*
X36219774Y-30125301D01*
X36225900Y-30125000D01*
X36350900Y-30125000D01*
X36357026Y-30125301D01*
X36357026Y-30125301D01*
G37*
D13*
X36288400Y-30562500D03*
D10*
G36*
X36857026Y-30125301D02*
G01*
X36863093Y-30126201D01*
X36869043Y-30127691D01*
X36874818Y-30129758D01*
X36880362Y-30132380D01*
X36885623Y-30135533D01*
X36890550Y-30139187D01*
X36895094Y-30143306D01*
X36899213Y-30147850D01*
X36902867Y-30152777D01*
X36906020Y-30158038D01*
X36908642Y-30163582D01*
X36910709Y-30169357D01*
X36912199Y-30175307D01*
X36913099Y-30181374D01*
X36913400Y-30187500D01*
X36913400Y-30937500D01*
X36913099Y-30943626D01*
X36912199Y-30949693D01*
X36910709Y-30955643D01*
X36908642Y-30961418D01*
X36906020Y-30966962D01*
X36902867Y-30972223D01*
X36899213Y-30977150D01*
X36895094Y-30981694D01*
X36890550Y-30985813D01*
X36885623Y-30989467D01*
X36880362Y-30992620D01*
X36874818Y-30995242D01*
X36869043Y-30997309D01*
X36863093Y-30998799D01*
X36857026Y-30999699D01*
X36850900Y-31000000D01*
X36725900Y-31000000D01*
X36719774Y-30999699D01*
X36713707Y-30998799D01*
X36707757Y-30997309D01*
X36701982Y-30995242D01*
X36696438Y-30992620D01*
X36691177Y-30989467D01*
X36686250Y-30985813D01*
X36681706Y-30981694D01*
X36677587Y-30977150D01*
X36673933Y-30972223D01*
X36670780Y-30966962D01*
X36668158Y-30961418D01*
X36666091Y-30955643D01*
X36664601Y-30949693D01*
X36663701Y-30943626D01*
X36663400Y-30937500D01*
X36663400Y-30187500D01*
X36663701Y-30181374D01*
X36664601Y-30175307D01*
X36666091Y-30169357D01*
X36668158Y-30163582D01*
X36670780Y-30158038D01*
X36673933Y-30152777D01*
X36677587Y-30147850D01*
X36681706Y-30143306D01*
X36686250Y-30139187D01*
X36691177Y-30135533D01*
X36696438Y-30132380D01*
X36701982Y-30129758D01*
X36707757Y-30127691D01*
X36713707Y-30126201D01*
X36719774Y-30125301D01*
X36725900Y-30125000D01*
X36850900Y-30125000D01*
X36857026Y-30125301D01*
X36857026Y-30125301D01*
G37*
D13*
X36788400Y-30562500D03*
D10*
G36*
X37357026Y-30125301D02*
G01*
X37363093Y-30126201D01*
X37369043Y-30127691D01*
X37374818Y-30129758D01*
X37380362Y-30132380D01*
X37385623Y-30135533D01*
X37390550Y-30139187D01*
X37395094Y-30143306D01*
X37399213Y-30147850D01*
X37402867Y-30152777D01*
X37406020Y-30158038D01*
X37408642Y-30163582D01*
X37410709Y-30169357D01*
X37412199Y-30175307D01*
X37413099Y-30181374D01*
X37413400Y-30187500D01*
X37413400Y-30937500D01*
X37413099Y-30943626D01*
X37412199Y-30949693D01*
X37410709Y-30955643D01*
X37408642Y-30961418D01*
X37406020Y-30966962D01*
X37402867Y-30972223D01*
X37399213Y-30977150D01*
X37395094Y-30981694D01*
X37390550Y-30985813D01*
X37385623Y-30989467D01*
X37380362Y-30992620D01*
X37374818Y-30995242D01*
X37369043Y-30997309D01*
X37363093Y-30998799D01*
X37357026Y-30999699D01*
X37350900Y-31000000D01*
X37225900Y-31000000D01*
X37219774Y-30999699D01*
X37213707Y-30998799D01*
X37207757Y-30997309D01*
X37201982Y-30995242D01*
X37196438Y-30992620D01*
X37191177Y-30989467D01*
X37186250Y-30985813D01*
X37181706Y-30981694D01*
X37177587Y-30977150D01*
X37173933Y-30972223D01*
X37170780Y-30966962D01*
X37168158Y-30961418D01*
X37166091Y-30955643D01*
X37164601Y-30949693D01*
X37163701Y-30943626D01*
X37163400Y-30937500D01*
X37163400Y-30187500D01*
X37163701Y-30181374D01*
X37164601Y-30175307D01*
X37166091Y-30169357D01*
X37168158Y-30163582D01*
X37170780Y-30158038D01*
X37173933Y-30152777D01*
X37177587Y-30147850D01*
X37181706Y-30143306D01*
X37186250Y-30139187D01*
X37191177Y-30135533D01*
X37196438Y-30132380D01*
X37201982Y-30129758D01*
X37207757Y-30127691D01*
X37213707Y-30126201D01*
X37219774Y-30125301D01*
X37225900Y-30125000D01*
X37350900Y-30125000D01*
X37357026Y-30125301D01*
X37357026Y-30125301D01*
G37*
D13*
X37288400Y-30562500D03*
D10*
G36*
X37857026Y-30125301D02*
G01*
X37863093Y-30126201D01*
X37869043Y-30127691D01*
X37874818Y-30129758D01*
X37880362Y-30132380D01*
X37885623Y-30135533D01*
X37890550Y-30139187D01*
X37895094Y-30143306D01*
X37899213Y-30147850D01*
X37902867Y-30152777D01*
X37906020Y-30158038D01*
X37908642Y-30163582D01*
X37910709Y-30169357D01*
X37912199Y-30175307D01*
X37913099Y-30181374D01*
X37913400Y-30187500D01*
X37913400Y-30937500D01*
X37913099Y-30943626D01*
X37912199Y-30949693D01*
X37910709Y-30955643D01*
X37908642Y-30961418D01*
X37906020Y-30966962D01*
X37902867Y-30972223D01*
X37899213Y-30977150D01*
X37895094Y-30981694D01*
X37890550Y-30985813D01*
X37885623Y-30989467D01*
X37880362Y-30992620D01*
X37874818Y-30995242D01*
X37869043Y-30997309D01*
X37863093Y-30998799D01*
X37857026Y-30999699D01*
X37850900Y-31000000D01*
X37725900Y-31000000D01*
X37719774Y-30999699D01*
X37713707Y-30998799D01*
X37707757Y-30997309D01*
X37701982Y-30995242D01*
X37696438Y-30992620D01*
X37691177Y-30989467D01*
X37686250Y-30985813D01*
X37681706Y-30981694D01*
X37677587Y-30977150D01*
X37673933Y-30972223D01*
X37670780Y-30966962D01*
X37668158Y-30961418D01*
X37666091Y-30955643D01*
X37664601Y-30949693D01*
X37663701Y-30943626D01*
X37663400Y-30937500D01*
X37663400Y-30187500D01*
X37663701Y-30181374D01*
X37664601Y-30175307D01*
X37666091Y-30169357D01*
X37668158Y-30163582D01*
X37670780Y-30158038D01*
X37673933Y-30152777D01*
X37677587Y-30147850D01*
X37681706Y-30143306D01*
X37686250Y-30139187D01*
X37691177Y-30135533D01*
X37696438Y-30132380D01*
X37701982Y-30129758D01*
X37707757Y-30127691D01*
X37713707Y-30126201D01*
X37719774Y-30125301D01*
X37725900Y-30125000D01*
X37850900Y-30125000D01*
X37857026Y-30125301D01*
X37857026Y-30125301D01*
G37*
D13*
X37788400Y-30562500D03*
D10*
G36*
X38357026Y-30125301D02*
G01*
X38363093Y-30126201D01*
X38369043Y-30127691D01*
X38374818Y-30129758D01*
X38380362Y-30132380D01*
X38385623Y-30135533D01*
X38390550Y-30139187D01*
X38395094Y-30143306D01*
X38399213Y-30147850D01*
X38402867Y-30152777D01*
X38406020Y-30158038D01*
X38408642Y-30163582D01*
X38410709Y-30169357D01*
X38412199Y-30175307D01*
X38413099Y-30181374D01*
X38413400Y-30187500D01*
X38413400Y-30937500D01*
X38413099Y-30943626D01*
X38412199Y-30949693D01*
X38410709Y-30955643D01*
X38408642Y-30961418D01*
X38406020Y-30966962D01*
X38402867Y-30972223D01*
X38399213Y-30977150D01*
X38395094Y-30981694D01*
X38390550Y-30985813D01*
X38385623Y-30989467D01*
X38380362Y-30992620D01*
X38374818Y-30995242D01*
X38369043Y-30997309D01*
X38363093Y-30998799D01*
X38357026Y-30999699D01*
X38350900Y-31000000D01*
X38225900Y-31000000D01*
X38219774Y-30999699D01*
X38213707Y-30998799D01*
X38207757Y-30997309D01*
X38201982Y-30995242D01*
X38196438Y-30992620D01*
X38191177Y-30989467D01*
X38186250Y-30985813D01*
X38181706Y-30981694D01*
X38177587Y-30977150D01*
X38173933Y-30972223D01*
X38170780Y-30966962D01*
X38168158Y-30961418D01*
X38166091Y-30955643D01*
X38164601Y-30949693D01*
X38163701Y-30943626D01*
X38163400Y-30937500D01*
X38163400Y-30187500D01*
X38163701Y-30181374D01*
X38164601Y-30175307D01*
X38166091Y-30169357D01*
X38168158Y-30163582D01*
X38170780Y-30158038D01*
X38173933Y-30152777D01*
X38177587Y-30147850D01*
X38181706Y-30143306D01*
X38186250Y-30139187D01*
X38191177Y-30135533D01*
X38196438Y-30132380D01*
X38201982Y-30129758D01*
X38207757Y-30127691D01*
X38213707Y-30126201D01*
X38219774Y-30125301D01*
X38225900Y-30125000D01*
X38350900Y-30125000D01*
X38357026Y-30125301D01*
X38357026Y-30125301D01*
G37*
D13*
X38288400Y-30562500D03*
D10*
G36*
X38857026Y-30125301D02*
G01*
X38863093Y-30126201D01*
X38869043Y-30127691D01*
X38874818Y-30129758D01*
X38880362Y-30132380D01*
X38885623Y-30135533D01*
X38890550Y-30139187D01*
X38895094Y-30143306D01*
X38899213Y-30147850D01*
X38902867Y-30152777D01*
X38906020Y-30158038D01*
X38908642Y-30163582D01*
X38910709Y-30169357D01*
X38912199Y-30175307D01*
X38913099Y-30181374D01*
X38913400Y-30187500D01*
X38913400Y-30937500D01*
X38913099Y-30943626D01*
X38912199Y-30949693D01*
X38910709Y-30955643D01*
X38908642Y-30961418D01*
X38906020Y-30966962D01*
X38902867Y-30972223D01*
X38899213Y-30977150D01*
X38895094Y-30981694D01*
X38890550Y-30985813D01*
X38885623Y-30989467D01*
X38880362Y-30992620D01*
X38874818Y-30995242D01*
X38869043Y-30997309D01*
X38863093Y-30998799D01*
X38857026Y-30999699D01*
X38850900Y-31000000D01*
X38725900Y-31000000D01*
X38719774Y-30999699D01*
X38713707Y-30998799D01*
X38707757Y-30997309D01*
X38701982Y-30995242D01*
X38696438Y-30992620D01*
X38691177Y-30989467D01*
X38686250Y-30985813D01*
X38681706Y-30981694D01*
X38677587Y-30977150D01*
X38673933Y-30972223D01*
X38670780Y-30966962D01*
X38668158Y-30961418D01*
X38666091Y-30955643D01*
X38664601Y-30949693D01*
X38663701Y-30943626D01*
X38663400Y-30937500D01*
X38663400Y-30187500D01*
X38663701Y-30181374D01*
X38664601Y-30175307D01*
X38666091Y-30169357D01*
X38668158Y-30163582D01*
X38670780Y-30158038D01*
X38673933Y-30152777D01*
X38677587Y-30147850D01*
X38681706Y-30143306D01*
X38686250Y-30139187D01*
X38691177Y-30135533D01*
X38696438Y-30132380D01*
X38701982Y-30129758D01*
X38707757Y-30127691D01*
X38713707Y-30126201D01*
X38719774Y-30125301D01*
X38725900Y-30125000D01*
X38850900Y-30125000D01*
X38857026Y-30125301D01*
X38857026Y-30125301D01*
G37*
D13*
X38788400Y-30562500D03*
D10*
G36*
X38462902Y-31351204D02*
G01*
X38487170Y-31354804D01*
X38510969Y-31360765D01*
X38534069Y-31369030D01*
X38556248Y-31379520D01*
X38577291Y-31392133D01*
X38596997Y-31406748D01*
X38615176Y-31423224D01*
X38631652Y-31441403D01*
X38646267Y-31461109D01*
X38658880Y-31482152D01*
X38669370Y-31504331D01*
X38677635Y-31527431D01*
X38683596Y-31551230D01*
X38687196Y-31575498D01*
X38688400Y-31600003D01*
X38688400Y-38399997D01*
X38687196Y-38424502D01*
X38683596Y-38448770D01*
X38677635Y-38472569D01*
X38669370Y-38495669D01*
X38658880Y-38517848D01*
X38646267Y-38538891D01*
X38631652Y-38558597D01*
X38615176Y-38576776D01*
X38596997Y-38593252D01*
X38577291Y-38607867D01*
X38556248Y-38620480D01*
X38534069Y-38630970D01*
X38510969Y-38639235D01*
X38487170Y-38645196D01*
X38462902Y-38648796D01*
X38438397Y-38650000D01*
X31638403Y-38650000D01*
X31613898Y-38648796D01*
X31589630Y-38645196D01*
X31565831Y-38639235D01*
X31542731Y-38630970D01*
X31520552Y-38620480D01*
X31499509Y-38607867D01*
X31479803Y-38593252D01*
X31461624Y-38576776D01*
X31445148Y-38558597D01*
X31430533Y-38538891D01*
X31417920Y-38517848D01*
X31407430Y-38495669D01*
X31399165Y-38472569D01*
X31393204Y-38448770D01*
X31389604Y-38424502D01*
X31388400Y-38399997D01*
X31388400Y-31600003D01*
X31389604Y-31575498D01*
X31393204Y-31551230D01*
X31399165Y-31527431D01*
X31407430Y-31504331D01*
X31417920Y-31482152D01*
X31430533Y-31461109D01*
X31445148Y-31441403D01*
X31461624Y-31423224D01*
X31479803Y-31406748D01*
X31499509Y-31392133D01*
X31520552Y-31379520D01*
X31542731Y-31369030D01*
X31565831Y-31360765D01*
X31589630Y-31354804D01*
X31613898Y-31351204D01*
X31638403Y-31350000D01*
X38438397Y-31350000D01*
X38462902Y-31351204D01*
X38462902Y-31351204D01*
G37*
D14*
X35038400Y-35000000D03*
D10*
G36*
X34770858Y-40871710D02*
G01*
X34785176Y-40873834D01*
X34799217Y-40877351D01*
X34812846Y-40882228D01*
X34825931Y-40888417D01*
X34838347Y-40895858D01*
X34849973Y-40904481D01*
X34860698Y-40914202D01*
X34870419Y-40924927D01*
X34879042Y-40936553D01*
X34886483Y-40948969D01*
X34892672Y-40962054D01*
X34897549Y-40975683D01*
X34901066Y-40989724D01*
X34903190Y-41004042D01*
X34903900Y-41018500D01*
X34903900Y-41363500D01*
X34903190Y-41377958D01*
X34901066Y-41392276D01*
X34897549Y-41406317D01*
X34892672Y-41419946D01*
X34886483Y-41433031D01*
X34879042Y-41445447D01*
X34870419Y-41457073D01*
X34860698Y-41467798D01*
X34849973Y-41477519D01*
X34838347Y-41486142D01*
X34825931Y-41493583D01*
X34812846Y-41499772D01*
X34799217Y-41504649D01*
X34785176Y-41508166D01*
X34770858Y-41510290D01*
X34756400Y-41511000D01*
X34461400Y-41511000D01*
X34446942Y-41510290D01*
X34432624Y-41508166D01*
X34418583Y-41504649D01*
X34404954Y-41499772D01*
X34391869Y-41493583D01*
X34379453Y-41486142D01*
X34367827Y-41477519D01*
X34357102Y-41467798D01*
X34347381Y-41457073D01*
X34338758Y-41445447D01*
X34331317Y-41433031D01*
X34325128Y-41419946D01*
X34320251Y-41406317D01*
X34316734Y-41392276D01*
X34314610Y-41377958D01*
X34313900Y-41363500D01*
X34313900Y-41018500D01*
X34314610Y-41004042D01*
X34316734Y-40989724D01*
X34320251Y-40975683D01*
X34325128Y-40962054D01*
X34331317Y-40948969D01*
X34338758Y-40936553D01*
X34347381Y-40924927D01*
X34357102Y-40914202D01*
X34367827Y-40904481D01*
X34379453Y-40895858D01*
X34391869Y-40888417D01*
X34404954Y-40882228D01*
X34418583Y-40877351D01*
X34432624Y-40873834D01*
X34446942Y-40871710D01*
X34461400Y-40871000D01*
X34756400Y-40871000D01*
X34770858Y-40871710D01*
X34770858Y-40871710D01*
G37*
D11*
X34608900Y-41191000D03*
D10*
G36*
X35740858Y-40871710D02*
G01*
X35755176Y-40873834D01*
X35769217Y-40877351D01*
X35782846Y-40882228D01*
X35795931Y-40888417D01*
X35808347Y-40895858D01*
X35819973Y-40904481D01*
X35830698Y-40914202D01*
X35840419Y-40924927D01*
X35849042Y-40936553D01*
X35856483Y-40948969D01*
X35862672Y-40962054D01*
X35867549Y-40975683D01*
X35871066Y-40989724D01*
X35873190Y-41004042D01*
X35873900Y-41018500D01*
X35873900Y-41363500D01*
X35873190Y-41377958D01*
X35871066Y-41392276D01*
X35867549Y-41406317D01*
X35862672Y-41419946D01*
X35856483Y-41433031D01*
X35849042Y-41445447D01*
X35840419Y-41457073D01*
X35830698Y-41467798D01*
X35819973Y-41477519D01*
X35808347Y-41486142D01*
X35795931Y-41493583D01*
X35782846Y-41499772D01*
X35769217Y-41504649D01*
X35755176Y-41508166D01*
X35740858Y-41510290D01*
X35726400Y-41511000D01*
X35431400Y-41511000D01*
X35416942Y-41510290D01*
X35402624Y-41508166D01*
X35388583Y-41504649D01*
X35374954Y-41499772D01*
X35361869Y-41493583D01*
X35349453Y-41486142D01*
X35337827Y-41477519D01*
X35327102Y-41467798D01*
X35317381Y-41457073D01*
X35308758Y-41445447D01*
X35301317Y-41433031D01*
X35295128Y-41419946D01*
X35290251Y-41406317D01*
X35286734Y-41392276D01*
X35284610Y-41377958D01*
X35283900Y-41363500D01*
X35283900Y-41018500D01*
X35284610Y-41004042D01*
X35286734Y-40989724D01*
X35290251Y-40975683D01*
X35295128Y-40962054D01*
X35301317Y-40948969D01*
X35308758Y-40936553D01*
X35317381Y-40924927D01*
X35327102Y-40914202D01*
X35337827Y-40904481D01*
X35349453Y-40895858D01*
X35361869Y-40888417D01*
X35374954Y-40882228D01*
X35388583Y-40877351D01*
X35402624Y-40873834D01*
X35416942Y-40871710D01*
X35431400Y-40871000D01*
X35726400Y-40871000D01*
X35740858Y-40871710D01*
X35740858Y-40871710D01*
G37*
D11*
X35578900Y-41191000D03*
D10*
G36*
X41227589Y-36783989D02*
G01*
X41241907Y-36786113D01*
X41255948Y-36789630D01*
X41269577Y-36794507D01*
X41282662Y-36800696D01*
X41295078Y-36808137D01*
X41306704Y-36816760D01*
X41317429Y-36826481D01*
X41526025Y-37035077D01*
X41535746Y-37045802D01*
X41544369Y-37057428D01*
X41551810Y-37069844D01*
X41557999Y-37082929D01*
X41562876Y-37096558D01*
X41566393Y-37110599D01*
X41568517Y-37124917D01*
X41569227Y-37139375D01*
X41568517Y-37153833D01*
X41566393Y-37168151D01*
X41562876Y-37182192D01*
X41557999Y-37195821D01*
X41551810Y-37208906D01*
X41544369Y-37221322D01*
X41535746Y-37232948D01*
X41526025Y-37243673D01*
X41282073Y-37487625D01*
X41271348Y-37497346D01*
X41259722Y-37505969D01*
X41247306Y-37513410D01*
X41234221Y-37519599D01*
X41220592Y-37524476D01*
X41206551Y-37527993D01*
X41192233Y-37530117D01*
X41177775Y-37530827D01*
X41163317Y-37530117D01*
X41148999Y-37527993D01*
X41134958Y-37524476D01*
X41121329Y-37519599D01*
X41108244Y-37513410D01*
X41095828Y-37505969D01*
X41084202Y-37497346D01*
X41073477Y-37487625D01*
X40864881Y-37279029D01*
X40855160Y-37268304D01*
X40846537Y-37256678D01*
X40839096Y-37244262D01*
X40832907Y-37231177D01*
X40828030Y-37217548D01*
X40824513Y-37203507D01*
X40822389Y-37189189D01*
X40821679Y-37174731D01*
X40822389Y-37160273D01*
X40824513Y-37145955D01*
X40828030Y-37131914D01*
X40832907Y-37118285D01*
X40839096Y-37105200D01*
X40846537Y-37092784D01*
X40855160Y-37081158D01*
X40864881Y-37070433D01*
X41108833Y-36826481D01*
X41119558Y-36816760D01*
X41131184Y-36808137D01*
X41143600Y-36800696D01*
X41156685Y-36794507D01*
X41170314Y-36789630D01*
X41184355Y-36786113D01*
X41198673Y-36783989D01*
X41213131Y-36783279D01*
X41227589Y-36783989D01*
X41227589Y-36783989D01*
G37*
D11*
X41195453Y-37157053D03*
D10*
G36*
X41913483Y-37469883D02*
G01*
X41927801Y-37472007D01*
X41941842Y-37475524D01*
X41955471Y-37480401D01*
X41968556Y-37486590D01*
X41980972Y-37494031D01*
X41992598Y-37502654D01*
X42003323Y-37512375D01*
X42211919Y-37720971D01*
X42221640Y-37731696D01*
X42230263Y-37743322D01*
X42237704Y-37755738D01*
X42243893Y-37768823D01*
X42248770Y-37782452D01*
X42252287Y-37796493D01*
X42254411Y-37810811D01*
X42255121Y-37825269D01*
X42254411Y-37839727D01*
X42252287Y-37854045D01*
X42248770Y-37868086D01*
X42243893Y-37881715D01*
X42237704Y-37894800D01*
X42230263Y-37907216D01*
X42221640Y-37918842D01*
X42211919Y-37929567D01*
X41967967Y-38173519D01*
X41957242Y-38183240D01*
X41945616Y-38191863D01*
X41933200Y-38199304D01*
X41920115Y-38205493D01*
X41906486Y-38210370D01*
X41892445Y-38213887D01*
X41878127Y-38216011D01*
X41863669Y-38216721D01*
X41849211Y-38216011D01*
X41834893Y-38213887D01*
X41820852Y-38210370D01*
X41807223Y-38205493D01*
X41794138Y-38199304D01*
X41781722Y-38191863D01*
X41770096Y-38183240D01*
X41759371Y-38173519D01*
X41550775Y-37964923D01*
X41541054Y-37954198D01*
X41532431Y-37942572D01*
X41524990Y-37930156D01*
X41518801Y-37917071D01*
X41513924Y-37903442D01*
X41510407Y-37889401D01*
X41508283Y-37875083D01*
X41507573Y-37860625D01*
X41508283Y-37846167D01*
X41510407Y-37831849D01*
X41513924Y-37817808D01*
X41518801Y-37804179D01*
X41524990Y-37791094D01*
X41532431Y-37778678D01*
X41541054Y-37767052D01*
X41550775Y-37756327D01*
X41794727Y-37512375D01*
X41805452Y-37502654D01*
X41817078Y-37494031D01*
X41829494Y-37486590D01*
X41842579Y-37480401D01*
X41856208Y-37475524D01*
X41870249Y-37472007D01*
X41884567Y-37469883D01*
X41899025Y-37469173D01*
X41913483Y-37469883D01*
X41913483Y-37469883D01*
G37*
D11*
X41881347Y-37842947D03*
D10*
G36*
X40733089Y-38549989D02*
G01*
X40747407Y-38552113D01*
X40761448Y-38555630D01*
X40775077Y-38560507D01*
X40788162Y-38566696D01*
X40800578Y-38574137D01*
X40812204Y-38582760D01*
X40822929Y-38592481D01*
X41031525Y-38801077D01*
X41041246Y-38811802D01*
X41049869Y-38823428D01*
X41057310Y-38835844D01*
X41063499Y-38848929D01*
X41068376Y-38862558D01*
X41071893Y-38876599D01*
X41074017Y-38890917D01*
X41074727Y-38905375D01*
X41074017Y-38919833D01*
X41071893Y-38934151D01*
X41068376Y-38948192D01*
X41063499Y-38961821D01*
X41057310Y-38974906D01*
X41049869Y-38987322D01*
X41041246Y-38998948D01*
X41031525Y-39009673D01*
X40787573Y-39253625D01*
X40776848Y-39263346D01*
X40765222Y-39271969D01*
X40752806Y-39279410D01*
X40739721Y-39285599D01*
X40726092Y-39290476D01*
X40712051Y-39293993D01*
X40697733Y-39296117D01*
X40683275Y-39296827D01*
X40668817Y-39296117D01*
X40654499Y-39293993D01*
X40640458Y-39290476D01*
X40626829Y-39285599D01*
X40613744Y-39279410D01*
X40601328Y-39271969D01*
X40589702Y-39263346D01*
X40578977Y-39253625D01*
X40370381Y-39045029D01*
X40360660Y-39034304D01*
X40352037Y-39022678D01*
X40344596Y-39010262D01*
X40338407Y-38997177D01*
X40333530Y-38983548D01*
X40330013Y-38969507D01*
X40327889Y-38955189D01*
X40327179Y-38940731D01*
X40327889Y-38926273D01*
X40330013Y-38911955D01*
X40333530Y-38897914D01*
X40338407Y-38884285D01*
X40344596Y-38871200D01*
X40352037Y-38858784D01*
X40360660Y-38847158D01*
X40370381Y-38836433D01*
X40614333Y-38592481D01*
X40625058Y-38582760D01*
X40636684Y-38574137D01*
X40649100Y-38566696D01*
X40662185Y-38560507D01*
X40675814Y-38555630D01*
X40689855Y-38552113D01*
X40704173Y-38549989D01*
X40718631Y-38549279D01*
X40733089Y-38549989D01*
X40733089Y-38549989D01*
G37*
D11*
X40700953Y-38923053D03*
D10*
G36*
X41418983Y-39235883D02*
G01*
X41433301Y-39238007D01*
X41447342Y-39241524D01*
X41460971Y-39246401D01*
X41474056Y-39252590D01*
X41486472Y-39260031D01*
X41498098Y-39268654D01*
X41508823Y-39278375D01*
X41717419Y-39486971D01*
X41727140Y-39497696D01*
X41735763Y-39509322D01*
X41743204Y-39521738D01*
X41749393Y-39534823D01*
X41754270Y-39548452D01*
X41757787Y-39562493D01*
X41759911Y-39576811D01*
X41760621Y-39591269D01*
X41759911Y-39605727D01*
X41757787Y-39620045D01*
X41754270Y-39634086D01*
X41749393Y-39647715D01*
X41743204Y-39660800D01*
X41735763Y-39673216D01*
X41727140Y-39684842D01*
X41717419Y-39695567D01*
X41473467Y-39939519D01*
X41462742Y-39949240D01*
X41451116Y-39957863D01*
X41438700Y-39965304D01*
X41425615Y-39971493D01*
X41411986Y-39976370D01*
X41397945Y-39979887D01*
X41383627Y-39982011D01*
X41369169Y-39982721D01*
X41354711Y-39982011D01*
X41340393Y-39979887D01*
X41326352Y-39976370D01*
X41312723Y-39971493D01*
X41299638Y-39965304D01*
X41287222Y-39957863D01*
X41275596Y-39949240D01*
X41264871Y-39939519D01*
X41056275Y-39730923D01*
X41046554Y-39720198D01*
X41037931Y-39708572D01*
X41030490Y-39696156D01*
X41024301Y-39683071D01*
X41019424Y-39669442D01*
X41015907Y-39655401D01*
X41013783Y-39641083D01*
X41013073Y-39626625D01*
X41013783Y-39612167D01*
X41015907Y-39597849D01*
X41019424Y-39583808D01*
X41024301Y-39570179D01*
X41030490Y-39557094D01*
X41037931Y-39544678D01*
X41046554Y-39533052D01*
X41056275Y-39522327D01*
X41300227Y-39278375D01*
X41310952Y-39268654D01*
X41322578Y-39260031D01*
X41334994Y-39252590D01*
X41348079Y-39246401D01*
X41361708Y-39241524D01*
X41375749Y-39238007D01*
X41390067Y-39235883D01*
X41404525Y-39235173D01*
X41418983Y-39235883D01*
X41418983Y-39235883D01*
G37*
D11*
X41386847Y-39608947D03*
D10*
G36*
X35570858Y-41921710D02*
G01*
X35585176Y-41923834D01*
X35599217Y-41927351D01*
X35612846Y-41932228D01*
X35625931Y-41938417D01*
X35638347Y-41945858D01*
X35649973Y-41954481D01*
X35660698Y-41964202D01*
X35670419Y-41974927D01*
X35679042Y-41986553D01*
X35686483Y-41998969D01*
X35692672Y-42012054D01*
X35697549Y-42025683D01*
X35701066Y-42039724D01*
X35703190Y-42054042D01*
X35703900Y-42068500D01*
X35703900Y-42413500D01*
X35703190Y-42427958D01*
X35701066Y-42442276D01*
X35697549Y-42456317D01*
X35692672Y-42469946D01*
X35686483Y-42483031D01*
X35679042Y-42495447D01*
X35670419Y-42507073D01*
X35660698Y-42517798D01*
X35649973Y-42527519D01*
X35638347Y-42536142D01*
X35625931Y-42543583D01*
X35612846Y-42549772D01*
X35599217Y-42554649D01*
X35585176Y-42558166D01*
X35570858Y-42560290D01*
X35556400Y-42561000D01*
X35261400Y-42561000D01*
X35246942Y-42560290D01*
X35232624Y-42558166D01*
X35218583Y-42554649D01*
X35204954Y-42549772D01*
X35191869Y-42543583D01*
X35179453Y-42536142D01*
X35167827Y-42527519D01*
X35157102Y-42517798D01*
X35147381Y-42507073D01*
X35138758Y-42495447D01*
X35131317Y-42483031D01*
X35125128Y-42469946D01*
X35120251Y-42456317D01*
X35116734Y-42442276D01*
X35114610Y-42427958D01*
X35113900Y-42413500D01*
X35113900Y-42068500D01*
X35114610Y-42054042D01*
X35116734Y-42039724D01*
X35120251Y-42025683D01*
X35125128Y-42012054D01*
X35131317Y-41998969D01*
X35138758Y-41986553D01*
X35147381Y-41974927D01*
X35157102Y-41964202D01*
X35167827Y-41954481D01*
X35179453Y-41945858D01*
X35191869Y-41938417D01*
X35204954Y-41932228D01*
X35218583Y-41927351D01*
X35232624Y-41923834D01*
X35246942Y-41921710D01*
X35261400Y-41921000D01*
X35556400Y-41921000D01*
X35570858Y-41921710D01*
X35570858Y-41921710D01*
G37*
D11*
X35408900Y-42241000D03*
D10*
G36*
X36540858Y-41921710D02*
G01*
X36555176Y-41923834D01*
X36569217Y-41927351D01*
X36582846Y-41932228D01*
X36595931Y-41938417D01*
X36608347Y-41945858D01*
X36619973Y-41954481D01*
X36630698Y-41964202D01*
X36640419Y-41974927D01*
X36649042Y-41986553D01*
X36656483Y-41998969D01*
X36662672Y-42012054D01*
X36667549Y-42025683D01*
X36671066Y-42039724D01*
X36673190Y-42054042D01*
X36673900Y-42068500D01*
X36673900Y-42413500D01*
X36673190Y-42427958D01*
X36671066Y-42442276D01*
X36667549Y-42456317D01*
X36662672Y-42469946D01*
X36656483Y-42483031D01*
X36649042Y-42495447D01*
X36640419Y-42507073D01*
X36630698Y-42517798D01*
X36619973Y-42527519D01*
X36608347Y-42536142D01*
X36595931Y-42543583D01*
X36582846Y-42549772D01*
X36569217Y-42554649D01*
X36555176Y-42558166D01*
X36540858Y-42560290D01*
X36526400Y-42561000D01*
X36231400Y-42561000D01*
X36216942Y-42560290D01*
X36202624Y-42558166D01*
X36188583Y-42554649D01*
X36174954Y-42549772D01*
X36161869Y-42543583D01*
X36149453Y-42536142D01*
X36137827Y-42527519D01*
X36127102Y-42517798D01*
X36117381Y-42507073D01*
X36108758Y-42495447D01*
X36101317Y-42483031D01*
X36095128Y-42469946D01*
X36090251Y-42456317D01*
X36086734Y-42442276D01*
X36084610Y-42427958D01*
X36083900Y-42413500D01*
X36083900Y-42068500D01*
X36084610Y-42054042D01*
X36086734Y-42039724D01*
X36090251Y-42025683D01*
X36095128Y-42012054D01*
X36101317Y-41998969D01*
X36108758Y-41986553D01*
X36117381Y-41974927D01*
X36127102Y-41964202D01*
X36137827Y-41954481D01*
X36149453Y-41945858D01*
X36161869Y-41938417D01*
X36174954Y-41932228D01*
X36188583Y-41927351D01*
X36202624Y-41923834D01*
X36216942Y-41921710D01*
X36231400Y-41921000D01*
X36526400Y-41921000D01*
X36540858Y-41921710D01*
X36540858Y-41921710D01*
G37*
D11*
X36378900Y-42241000D03*
D10*
G36*
X44734858Y-29419710D02*
G01*
X44749176Y-29421834D01*
X44763217Y-29425351D01*
X44776846Y-29430228D01*
X44789931Y-29436417D01*
X44802347Y-29443858D01*
X44813973Y-29452481D01*
X44824698Y-29462202D01*
X44834419Y-29472927D01*
X44843042Y-29484553D01*
X44850483Y-29496969D01*
X44856672Y-29510054D01*
X44861549Y-29523683D01*
X44865066Y-29537724D01*
X44867190Y-29552042D01*
X44867900Y-29566500D01*
X44867900Y-29911500D01*
X44867190Y-29925958D01*
X44865066Y-29940276D01*
X44861549Y-29954317D01*
X44856672Y-29967946D01*
X44850483Y-29981031D01*
X44843042Y-29993447D01*
X44834419Y-30005073D01*
X44824698Y-30015798D01*
X44813973Y-30025519D01*
X44802347Y-30034142D01*
X44789931Y-30041583D01*
X44776846Y-30047772D01*
X44763217Y-30052649D01*
X44749176Y-30056166D01*
X44734858Y-30058290D01*
X44720400Y-30059000D01*
X44425400Y-30059000D01*
X44410942Y-30058290D01*
X44396624Y-30056166D01*
X44382583Y-30052649D01*
X44368954Y-30047772D01*
X44355869Y-30041583D01*
X44343453Y-30034142D01*
X44331827Y-30025519D01*
X44321102Y-30015798D01*
X44311381Y-30005073D01*
X44302758Y-29993447D01*
X44295317Y-29981031D01*
X44289128Y-29967946D01*
X44284251Y-29954317D01*
X44280734Y-29940276D01*
X44278610Y-29925958D01*
X44277900Y-29911500D01*
X44277900Y-29566500D01*
X44278610Y-29552042D01*
X44280734Y-29537724D01*
X44284251Y-29523683D01*
X44289128Y-29510054D01*
X44295317Y-29496969D01*
X44302758Y-29484553D01*
X44311381Y-29472927D01*
X44321102Y-29462202D01*
X44331827Y-29452481D01*
X44343453Y-29443858D01*
X44355869Y-29436417D01*
X44368954Y-29430228D01*
X44382583Y-29425351D01*
X44396624Y-29421834D01*
X44410942Y-29419710D01*
X44425400Y-29419000D01*
X44720400Y-29419000D01*
X44734858Y-29419710D01*
X44734858Y-29419710D01*
G37*
D11*
X44572900Y-29739000D03*
D10*
G36*
X45704858Y-29419710D02*
G01*
X45719176Y-29421834D01*
X45733217Y-29425351D01*
X45746846Y-29430228D01*
X45759931Y-29436417D01*
X45772347Y-29443858D01*
X45783973Y-29452481D01*
X45794698Y-29462202D01*
X45804419Y-29472927D01*
X45813042Y-29484553D01*
X45820483Y-29496969D01*
X45826672Y-29510054D01*
X45831549Y-29523683D01*
X45835066Y-29537724D01*
X45837190Y-29552042D01*
X45837900Y-29566500D01*
X45837900Y-29911500D01*
X45837190Y-29925958D01*
X45835066Y-29940276D01*
X45831549Y-29954317D01*
X45826672Y-29967946D01*
X45820483Y-29981031D01*
X45813042Y-29993447D01*
X45804419Y-30005073D01*
X45794698Y-30015798D01*
X45783973Y-30025519D01*
X45772347Y-30034142D01*
X45759931Y-30041583D01*
X45746846Y-30047772D01*
X45733217Y-30052649D01*
X45719176Y-30056166D01*
X45704858Y-30058290D01*
X45690400Y-30059000D01*
X45395400Y-30059000D01*
X45380942Y-30058290D01*
X45366624Y-30056166D01*
X45352583Y-30052649D01*
X45338954Y-30047772D01*
X45325869Y-30041583D01*
X45313453Y-30034142D01*
X45301827Y-30025519D01*
X45291102Y-30015798D01*
X45281381Y-30005073D01*
X45272758Y-29993447D01*
X45265317Y-29981031D01*
X45259128Y-29967946D01*
X45254251Y-29954317D01*
X45250734Y-29940276D01*
X45248610Y-29925958D01*
X45247900Y-29911500D01*
X45247900Y-29566500D01*
X45248610Y-29552042D01*
X45250734Y-29537724D01*
X45254251Y-29523683D01*
X45259128Y-29510054D01*
X45265317Y-29496969D01*
X45272758Y-29484553D01*
X45281381Y-29472927D01*
X45291102Y-29462202D01*
X45301827Y-29452481D01*
X45313453Y-29443858D01*
X45325869Y-29436417D01*
X45338954Y-29430228D01*
X45352583Y-29425351D01*
X45366624Y-29421834D01*
X45380942Y-29419710D01*
X45395400Y-29419000D01*
X45690400Y-29419000D01*
X45704858Y-29419710D01*
X45704858Y-29419710D01*
G37*
D11*
X45542900Y-29739000D03*
D10*
G36*
X45219858Y-33483710D02*
G01*
X45234176Y-33485834D01*
X45248217Y-33489351D01*
X45261846Y-33494228D01*
X45274931Y-33500417D01*
X45287347Y-33507858D01*
X45298973Y-33516481D01*
X45309698Y-33526202D01*
X45319419Y-33536927D01*
X45328042Y-33548553D01*
X45335483Y-33560969D01*
X45341672Y-33574054D01*
X45346549Y-33587683D01*
X45350066Y-33601724D01*
X45352190Y-33616042D01*
X45352900Y-33630500D01*
X45352900Y-33975500D01*
X45352190Y-33989958D01*
X45350066Y-34004276D01*
X45346549Y-34018317D01*
X45341672Y-34031946D01*
X45335483Y-34045031D01*
X45328042Y-34057447D01*
X45319419Y-34069073D01*
X45309698Y-34079798D01*
X45298973Y-34089519D01*
X45287347Y-34098142D01*
X45274931Y-34105583D01*
X45261846Y-34111772D01*
X45248217Y-34116649D01*
X45234176Y-34120166D01*
X45219858Y-34122290D01*
X45205400Y-34123000D01*
X44910400Y-34123000D01*
X44895942Y-34122290D01*
X44881624Y-34120166D01*
X44867583Y-34116649D01*
X44853954Y-34111772D01*
X44840869Y-34105583D01*
X44828453Y-34098142D01*
X44816827Y-34089519D01*
X44806102Y-34079798D01*
X44796381Y-34069073D01*
X44787758Y-34057447D01*
X44780317Y-34045031D01*
X44774128Y-34031946D01*
X44769251Y-34018317D01*
X44765734Y-34004276D01*
X44763610Y-33989958D01*
X44762900Y-33975500D01*
X44762900Y-33630500D01*
X44763610Y-33616042D01*
X44765734Y-33601724D01*
X44769251Y-33587683D01*
X44774128Y-33574054D01*
X44780317Y-33560969D01*
X44787758Y-33548553D01*
X44796381Y-33536927D01*
X44806102Y-33526202D01*
X44816827Y-33516481D01*
X44828453Y-33507858D01*
X44840869Y-33500417D01*
X44853954Y-33494228D01*
X44867583Y-33489351D01*
X44881624Y-33485834D01*
X44895942Y-33483710D01*
X44910400Y-33483000D01*
X45205400Y-33483000D01*
X45219858Y-33483710D01*
X45219858Y-33483710D01*
G37*
D11*
X45057900Y-33803000D03*
D10*
G36*
X44249858Y-33483710D02*
G01*
X44264176Y-33485834D01*
X44278217Y-33489351D01*
X44291846Y-33494228D01*
X44304931Y-33500417D01*
X44317347Y-33507858D01*
X44328973Y-33516481D01*
X44339698Y-33526202D01*
X44349419Y-33536927D01*
X44358042Y-33548553D01*
X44365483Y-33560969D01*
X44371672Y-33574054D01*
X44376549Y-33587683D01*
X44380066Y-33601724D01*
X44382190Y-33616042D01*
X44382900Y-33630500D01*
X44382900Y-33975500D01*
X44382190Y-33989958D01*
X44380066Y-34004276D01*
X44376549Y-34018317D01*
X44371672Y-34031946D01*
X44365483Y-34045031D01*
X44358042Y-34057447D01*
X44349419Y-34069073D01*
X44339698Y-34079798D01*
X44328973Y-34089519D01*
X44317347Y-34098142D01*
X44304931Y-34105583D01*
X44291846Y-34111772D01*
X44278217Y-34116649D01*
X44264176Y-34120166D01*
X44249858Y-34122290D01*
X44235400Y-34123000D01*
X43940400Y-34123000D01*
X43925942Y-34122290D01*
X43911624Y-34120166D01*
X43897583Y-34116649D01*
X43883954Y-34111772D01*
X43870869Y-34105583D01*
X43858453Y-34098142D01*
X43846827Y-34089519D01*
X43836102Y-34079798D01*
X43826381Y-34069073D01*
X43817758Y-34057447D01*
X43810317Y-34045031D01*
X43804128Y-34031946D01*
X43799251Y-34018317D01*
X43795734Y-34004276D01*
X43793610Y-33989958D01*
X43792900Y-33975500D01*
X43792900Y-33630500D01*
X43793610Y-33616042D01*
X43795734Y-33601724D01*
X43799251Y-33587683D01*
X43804128Y-33574054D01*
X43810317Y-33560969D01*
X43817758Y-33548553D01*
X43826381Y-33536927D01*
X43836102Y-33526202D01*
X43846827Y-33516481D01*
X43858453Y-33507858D01*
X43870869Y-33500417D01*
X43883954Y-33494228D01*
X43897583Y-33489351D01*
X43911624Y-33485834D01*
X43925942Y-33483710D01*
X43940400Y-33483000D01*
X44235400Y-33483000D01*
X44249858Y-33483710D01*
X44249858Y-33483710D01*
G37*
D11*
X44087900Y-33803000D03*
D10*
G36*
X46768858Y-31707710D02*
G01*
X46783176Y-31709834D01*
X46797217Y-31713351D01*
X46810846Y-31718228D01*
X46823931Y-31724417D01*
X46836347Y-31731858D01*
X46847973Y-31740481D01*
X46858698Y-31750202D01*
X46868419Y-31760927D01*
X46877042Y-31772553D01*
X46884483Y-31784969D01*
X46890672Y-31798054D01*
X46895549Y-31811683D01*
X46899066Y-31825724D01*
X46901190Y-31840042D01*
X46901900Y-31854500D01*
X46901900Y-32149500D01*
X46901190Y-32163958D01*
X46899066Y-32178276D01*
X46895549Y-32192317D01*
X46890672Y-32205946D01*
X46884483Y-32219031D01*
X46877042Y-32231447D01*
X46868419Y-32243073D01*
X46858698Y-32253798D01*
X46847973Y-32263519D01*
X46836347Y-32272142D01*
X46823931Y-32279583D01*
X46810846Y-32285772D01*
X46797217Y-32290649D01*
X46783176Y-32294166D01*
X46768858Y-32296290D01*
X46754400Y-32297000D01*
X46409400Y-32297000D01*
X46394942Y-32296290D01*
X46380624Y-32294166D01*
X46366583Y-32290649D01*
X46352954Y-32285772D01*
X46339869Y-32279583D01*
X46327453Y-32272142D01*
X46315827Y-32263519D01*
X46305102Y-32253798D01*
X46295381Y-32243073D01*
X46286758Y-32231447D01*
X46279317Y-32219031D01*
X46273128Y-32205946D01*
X46268251Y-32192317D01*
X46264734Y-32178276D01*
X46262610Y-32163958D01*
X46261900Y-32149500D01*
X46261900Y-31854500D01*
X46262610Y-31840042D01*
X46264734Y-31825724D01*
X46268251Y-31811683D01*
X46273128Y-31798054D01*
X46279317Y-31784969D01*
X46286758Y-31772553D01*
X46295381Y-31760927D01*
X46305102Y-31750202D01*
X46315827Y-31740481D01*
X46327453Y-31731858D01*
X46339869Y-31724417D01*
X46352954Y-31718228D01*
X46366583Y-31713351D01*
X46380624Y-31709834D01*
X46394942Y-31707710D01*
X46409400Y-31707000D01*
X46754400Y-31707000D01*
X46768858Y-31707710D01*
X46768858Y-31707710D01*
G37*
D11*
X46581900Y-32002000D03*
D10*
G36*
X46768858Y-30737710D02*
G01*
X46783176Y-30739834D01*
X46797217Y-30743351D01*
X46810846Y-30748228D01*
X46823931Y-30754417D01*
X46836347Y-30761858D01*
X46847973Y-30770481D01*
X46858698Y-30780202D01*
X46868419Y-30790927D01*
X46877042Y-30802553D01*
X46884483Y-30814969D01*
X46890672Y-30828054D01*
X46895549Y-30841683D01*
X46899066Y-30855724D01*
X46901190Y-30870042D01*
X46901900Y-30884500D01*
X46901900Y-31179500D01*
X46901190Y-31193958D01*
X46899066Y-31208276D01*
X46895549Y-31222317D01*
X46890672Y-31235946D01*
X46884483Y-31249031D01*
X46877042Y-31261447D01*
X46868419Y-31273073D01*
X46858698Y-31283798D01*
X46847973Y-31293519D01*
X46836347Y-31302142D01*
X46823931Y-31309583D01*
X46810846Y-31315772D01*
X46797217Y-31320649D01*
X46783176Y-31324166D01*
X46768858Y-31326290D01*
X46754400Y-31327000D01*
X46409400Y-31327000D01*
X46394942Y-31326290D01*
X46380624Y-31324166D01*
X46366583Y-31320649D01*
X46352954Y-31315772D01*
X46339869Y-31309583D01*
X46327453Y-31302142D01*
X46315827Y-31293519D01*
X46305102Y-31283798D01*
X46295381Y-31273073D01*
X46286758Y-31261447D01*
X46279317Y-31249031D01*
X46273128Y-31235946D01*
X46268251Y-31222317D01*
X46264734Y-31208276D01*
X46262610Y-31193958D01*
X46261900Y-31179500D01*
X46261900Y-30884500D01*
X46262610Y-30870042D01*
X46264734Y-30855724D01*
X46268251Y-30841683D01*
X46273128Y-30828054D01*
X46279317Y-30814969D01*
X46286758Y-30802553D01*
X46295381Y-30790927D01*
X46305102Y-30780202D01*
X46315827Y-30770481D01*
X46327453Y-30761858D01*
X46339869Y-30754417D01*
X46352954Y-30748228D01*
X46366583Y-30743351D01*
X46380624Y-30739834D01*
X46394942Y-30737710D01*
X46409400Y-30737000D01*
X46754400Y-30737000D01*
X46768858Y-30737710D01*
X46768858Y-30737710D01*
G37*
D11*
X46581900Y-31032000D03*
D15*
X45053900Y-32533500D03*
X44553900Y-32533500D03*
X44553900Y-31008500D03*
X45053900Y-31008500D03*
D16*
X44041400Y-32521000D03*
X45566400Y-32521000D03*
X44041400Y-31021000D03*
X45566400Y-31021000D03*
X44041400Y-31521000D03*
X44041400Y-32021000D03*
X45566400Y-31521000D03*
X45566400Y-32021000D03*
D17*
X25868400Y-27410000D03*
X26570400Y-27410000D03*
X27272400Y-27410000D03*
X27974400Y-27410000D03*
X28676400Y-27410000D03*
X29378400Y-27410000D03*
X30080400Y-27410000D03*
X30782400Y-27410000D03*
X31484400Y-27410000D03*
X32186400Y-27410000D03*
X32888400Y-27410000D03*
X33590400Y-27410000D03*
X34292400Y-27410000D03*
X34994400Y-27410000D03*
X35696400Y-27410000D03*
X36398400Y-27410000D03*
X37100400Y-27410000D03*
X37802400Y-27410000D03*
X38504400Y-27410000D03*
X39206400Y-27410000D03*
X39908400Y-27410000D03*
X40610400Y-27410000D03*
X41312400Y-27410000D03*
X42014400Y-27410000D03*
X42716400Y-27410000D03*
X43418400Y-27410000D03*
X44120400Y-27410000D03*
D18*
X47238400Y-38600000D03*
D19*
X43808400Y-41440000D03*
D20*
X41538400Y-43041000D03*
X41538400Y-44040000D03*
D21*
X33418400Y-43290000D03*
X28338400Y-43290000D03*
D19*
X26108400Y-41390000D03*
D18*
X22638400Y-38400000D03*
D22*
X23538400Y-35100000D03*
X23538400Y-32050000D03*
D18*
X22638400Y-28800000D03*
D19*
X30538400Y-22250000D03*
X32288400Y-22250000D03*
X34998400Y-25100000D03*
D23*
X28663400Y-38800000D03*
X25663400Y-38800000D03*
X28663400Y-35250000D03*
X25663400Y-35250000D03*
D24*
X36193900Y-40391000D03*
X36443900Y-29391000D03*
D25*
X34993900Y-35791000D03*
D26*
X30443900Y-40441000D03*
X32282150Y-37756250D03*
D24*
X35957150Y-32243750D03*
D26*
X36293900Y-25741000D03*
D24*
X33619650Y-32243750D03*
D26*
X46581900Y-29993000D03*
X46581900Y-33041000D03*
D24*
X24838400Y-30900000D03*
X25538409Y-29500000D03*
X26543900Y-28641000D03*
X29543900Y-38841000D03*
X29693900Y-39441000D03*
X25843900Y-28641000D03*
X29793900Y-38241000D03*
X27243900Y-28641000D03*
X27943900Y-28941000D03*
X29393900Y-37741000D03*
X29393900Y-36741000D03*
X29293900Y-28641000D03*
X29793900Y-37241000D03*
X28593900Y-28791000D03*
X35043900Y-29591000D03*
X32954592Y-29709160D03*
X35593900Y-28541000D03*
X32342250Y-29700018D03*
X34893900Y-28541000D03*
X31638400Y-29700000D03*
X34193900Y-28541000D03*
X31025997Y-29700000D03*
X33590400Y-26294500D03*
X29779365Y-35250006D03*
X32888400Y-26296500D03*
X29425762Y-35750005D03*
X32186400Y-26298500D03*
X29779365Y-36250006D03*
D19*
X28873900Y-44821000D03*
D24*
X23538400Y-32050000D03*
X25588399Y-30267768D03*
X29268900Y-40991000D03*
X36943900Y-41591000D03*
X24493900Y-35791000D03*
X27643900Y-39491000D03*
X43193900Y-40766000D03*
X39843900Y-41841000D03*
D26*
X26943900Y-40441000D03*
D24*
X30668422Y-30291000D03*
D26*
X39893900Y-30491000D03*
X30343900Y-41691000D03*
X39488400Y-39396500D03*
X35343900Y-40391000D03*
D24*
X42517900Y-31009000D03*
X40993900Y-34819000D03*
X42732791Y-37319891D03*
X40165059Y-39709231D03*
X40643900Y-40091000D03*
X44549900Y-33142600D03*
X40159698Y-42365698D03*
X27403721Y-34630000D03*
X27805990Y-31000000D03*
X28921439Y-39632099D03*
X24643900Y-35191000D03*
D27*
X36393900Y-40591000D02*
X36193900Y-40391000D01*
X36393900Y-42041000D02*
X36393900Y-40591000D01*
X36443900Y-42091000D02*
X36393900Y-42041000D01*
X36443900Y-42241000D02*
X36443900Y-42091000D01*
X36288400Y-29546500D02*
X36443900Y-29391000D01*
X36288400Y-30550000D02*
X36288400Y-29546500D01*
X35093900Y-36091000D02*
X35784900Y-36091000D01*
X35784900Y-36091000D02*
X35957150Y-35918750D01*
X35957150Y-35918750D02*
X34119650Y-35918750D01*
X30443900Y-40441000D02*
X29016386Y-40441000D01*
X29016386Y-40441000D02*
X28288400Y-39713014D01*
X28288400Y-39713014D02*
X28288400Y-39400000D01*
X28288400Y-39400000D02*
X28663400Y-39025000D01*
X28663400Y-39025000D02*
X28663400Y-38800000D01*
D28*
X27893900Y-38800000D02*
X28293900Y-38800000D01*
X27338400Y-38800000D02*
X27893900Y-38800000D01*
D27*
X32593900Y-40691000D02*
X32093900Y-40691000D01*
X31996310Y-40593410D02*
X30596310Y-40593410D01*
X30596310Y-40593410D02*
X30443900Y-40441000D01*
X32093900Y-40691000D02*
X31996310Y-40593410D01*
D28*
X39488400Y-38250000D02*
X40302900Y-38250000D01*
X40302900Y-38250000D02*
X40654991Y-38602091D01*
X40654991Y-38602091D02*
X40654991Y-38877091D01*
D27*
X30588400Y-31250000D02*
X30639400Y-31301000D01*
X30639400Y-31301000D02*
X31339400Y-31301000D01*
X31339400Y-31301000D02*
X32282150Y-32243750D01*
D28*
X30443900Y-40441000D02*
X30443900Y-40491000D01*
X34288400Y-39450000D02*
X34288400Y-40935500D01*
X34288400Y-40935500D02*
X34543900Y-41191000D01*
X34543900Y-41191000D02*
X34543900Y-41341000D01*
X34543900Y-41341000D02*
X35343900Y-42141000D01*
X35343900Y-42141000D02*
X35343900Y-42241000D01*
X35652900Y-25100000D02*
X36293900Y-25741000D01*
X34998400Y-25100000D02*
X35652900Y-25100000D01*
X27338400Y-38800000D02*
X25663400Y-38800000D01*
X28293900Y-38800000D02*
X28663400Y-38800000D01*
X39488400Y-38250000D02*
X38288400Y-38250000D01*
X38288400Y-38250000D02*
X38288400Y-37087500D01*
X38288400Y-37087500D02*
X38625900Y-36750000D01*
X38625900Y-36750000D02*
X39488400Y-36750000D01*
X38288400Y-38250000D02*
X37794650Y-37756250D01*
X39488400Y-36750000D02*
X38625900Y-36750000D01*
X38625900Y-36750000D02*
X37794650Y-35918750D01*
X34119650Y-37756250D02*
X32282150Y-37756250D01*
X32282150Y-35918750D02*
X32282150Y-37756250D01*
X34119650Y-34081250D02*
X34119650Y-32243750D01*
X32282150Y-34081250D02*
X34119650Y-34081250D01*
X32282150Y-35918750D02*
X32282150Y-34081250D01*
X34119650Y-35918750D02*
X32282150Y-35918750D01*
X35957150Y-35918750D02*
X35957150Y-37756250D01*
X37794650Y-35918750D02*
X35957150Y-35918750D01*
X35957150Y-34081250D02*
X35957150Y-35918750D01*
X37794650Y-34081250D02*
X35957150Y-34081250D01*
X37794650Y-32243750D02*
X37794650Y-34081250D01*
X35957150Y-32243750D02*
X35957150Y-34081250D01*
X32282150Y-32243750D02*
X32282150Y-34081250D01*
X33606400Y-37944000D02*
X33437650Y-37775250D01*
X33619650Y-37756250D02*
X33788400Y-37925000D01*
X35457150Y-32243750D02*
X33619650Y-32243750D01*
X35281400Y-32269000D02*
X35275150Y-32262750D01*
X38288400Y-38250000D02*
X37794650Y-37756250D01*
X40788400Y-36750000D02*
X39488400Y-36750000D01*
X41149491Y-37111091D02*
X40788400Y-36750000D01*
X39488400Y-32250000D02*
X37300900Y-32250000D01*
X38463400Y-35250000D02*
X37794650Y-35918750D01*
X39488400Y-35250000D02*
X38463400Y-35250000D01*
X38625900Y-36750000D02*
X37794650Y-35918750D01*
X34288400Y-37925000D02*
X34119650Y-37756250D01*
X34288400Y-39450000D02*
X34288400Y-37925000D01*
X45053900Y-32046000D02*
X45053900Y-32533500D01*
X45078900Y-32021000D02*
X45053900Y-32046000D01*
X45566400Y-32021000D02*
X45078900Y-32021000D01*
X45566400Y-32021000D02*
X45566400Y-31521000D01*
X46562900Y-32021000D02*
X46581900Y-32002000D01*
X45566400Y-32021000D02*
X46562900Y-32021000D01*
X45542900Y-29739000D02*
X46327900Y-29739000D01*
X46327900Y-29739000D02*
X46581900Y-29993000D01*
X46581900Y-33041000D02*
X46581900Y-32002000D01*
X45057900Y-33383000D02*
X45159500Y-33281400D01*
X45057900Y-33803000D02*
X45057900Y-33383000D01*
X45053900Y-32890401D02*
X45053900Y-32533500D01*
X45159500Y-32996001D02*
X45053900Y-32890401D01*
X45159500Y-33281400D02*
X45159500Y-32996001D01*
X44723732Y-34137168D02*
X45057900Y-33803000D01*
X42071010Y-36789890D02*
X44723732Y-34137168D01*
X41562616Y-36789890D02*
X42071010Y-36789890D01*
X41195453Y-37157053D02*
X41562616Y-36789890D01*
D27*
X25793900Y-33442767D02*
X25686709Y-33442767D01*
X30270801Y-25517599D02*
X31288400Y-24500000D01*
X31288400Y-24500000D02*
X31288400Y-23000000D01*
X31288400Y-23000000D02*
X30538400Y-22250000D01*
X24985990Y-26224036D02*
X25692427Y-25517599D01*
X25069953Y-30417599D02*
X24985990Y-30333636D01*
X25692427Y-25517599D02*
X30270801Y-25517599D01*
X25320801Y-32982401D02*
X25320801Y-30714124D01*
X24985990Y-30333636D02*
X24985990Y-26224036D01*
X25320801Y-30714124D02*
X25069953Y-30417599D01*
X25320801Y-33076859D02*
X25320801Y-32982401D01*
X25686709Y-33442767D02*
X25320801Y-33076859D01*
X30588400Y-32250000D02*
X28560402Y-32250000D01*
X28560402Y-32250000D02*
X27367635Y-33442767D01*
X27367635Y-33442767D02*
X25793900Y-33442767D01*
X25793900Y-33442767D02*
X25781167Y-33442767D01*
X25538409Y-29500000D02*
X25338400Y-29299991D01*
X25338400Y-29299991D02*
X25338400Y-26370009D01*
X25338400Y-26370009D02*
X25838400Y-25870009D01*
X24825991Y-33080421D02*
X24825991Y-30979999D01*
X25540748Y-33795178D02*
X24825991Y-33080421D01*
X28558786Y-32750000D02*
X27513608Y-33795178D01*
X27513608Y-33795178D02*
X25540748Y-33795178D01*
X30588400Y-32750000D02*
X28558786Y-32750000D01*
X24825991Y-30912409D02*
X24838400Y-30900000D01*
X24825991Y-30979999D02*
X24825991Y-30912409D01*
X26338400Y-29750000D02*
X25788409Y-29750000D01*
X25788409Y-29750000D02*
X25538409Y-29500000D01*
X31640810Y-22897590D02*
X32288400Y-22250000D01*
X25838400Y-25870009D02*
X30416774Y-25870009D01*
X30416774Y-25870009D02*
X31640810Y-24645973D01*
X31640810Y-24645973D02*
X31640810Y-22897590D01*
X26543900Y-28641000D02*
X26570400Y-28614500D01*
X26570400Y-28614500D02*
X26570400Y-27410000D01*
X29534900Y-38750000D02*
X29543900Y-38759000D01*
X29543900Y-38759000D02*
X29543900Y-38841000D01*
X30588400Y-38750000D02*
X29534900Y-38750000D01*
X29693900Y-39441000D02*
X31279400Y-39441000D01*
X31279400Y-39441000D02*
X31288400Y-39450000D01*
X25868400Y-28616500D02*
X25868400Y-27410000D01*
X25843900Y-28641000D02*
X25868400Y-28616500D01*
X30588400Y-38250000D02*
X29802900Y-38250000D01*
X29802900Y-38250000D02*
X29793900Y-38241000D01*
X27272400Y-28612500D02*
X27272400Y-27410000D01*
X27243900Y-28641000D02*
X27272400Y-28612500D01*
X27974400Y-28910500D02*
X27974400Y-27410000D01*
X27943900Y-28941000D02*
X27974400Y-28910500D01*
X29402900Y-37750000D02*
X29393900Y-37741000D01*
X30588400Y-37750000D02*
X29402900Y-37750000D01*
X30588400Y-36750000D02*
X29402900Y-36750000D01*
X29402900Y-36750000D02*
X29393900Y-36741000D01*
X29378400Y-28556500D02*
X29378400Y-27410000D01*
X29293900Y-28641000D02*
X29378400Y-28556500D01*
X29366925Y-27421475D02*
X29378400Y-27410000D01*
X28593900Y-28791000D02*
X28676400Y-28708500D01*
X28676400Y-28708500D02*
X28676400Y-27410000D01*
X30588400Y-37250000D02*
X29802900Y-37250000D01*
X29802900Y-37250000D02*
X29793900Y-37241000D01*
X34288400Y-29925000D02*
X34288400Y-30550000D01*
X34288400Y-29363956D02*
X34288400Y-29925000D01*
X31632676Y-28512776D02*
X33437220Y-28512776D01*
X33437220Y-28512776D02*
X34288400Y-29363956D01*
X31484400Y-27410000D02*
X31484400Y-28364500D01*
X31484400Y-28364500D02*
X31632676Y-28512776D01*
X33798193Y-29372133D02*
X33291247Y-28865187D01*
X30782400Y-28364500D02*
X30782400Y-27410000D01*
X33291247Y-28865187D02*
X31283087Y-28865187D01*
X31283087Y-28865187D02*
X30782400Y-28364500D01*
X33798193Y-30540207D02*
X33798193Y-29372133D01*
X33788400Y-30550000D02*
X33798193Y-30540207D01*
X33288400Y-30089327D02*
X33445782Y-29931945D01*
X30933498Y-29217598D02*
X30080400Y-28364500D01*
X33288400Y-30550000D02*
X33288400Y-30089327D01*
X33145275Y-29217599D02*
X30933498Y-29217598D01*
X30080400Y-28364500D02*
X30080400Y-27410000D01*
X33445782Y-29518106D02*
X33145275Y-29217599D01*
X33445782Y-29931945D02*
X33445782Y-29518106D01*
X36398400Y-27410000D02*
X36398400Y-28436500D01*
X36398400Y-28436500D02*
X35243900Y-29591000D01*
X35243900Y-29591000D02*
X35043900Y-29591000D01*
X32788400Y-30550000D02*
X32788400Y-29925000D01*
X32788400Y-29925000D02*
X32954592Y-29758808D01*
X32954592Y-29758808D02*
X32954592Y-29709160D01*
X35696400Y-27410000D02*
X35696400Y-28438500D01*
X35696400Y-28438500D02*
X35593900Y-28541000D01*
X32288400Y-29753868D02*
X32342250Y-29700018D01*
X32288400Y-30550000D02*
X32288400Y-29753868D01*
X34994400Y-27410000D02*
X34994400Y-28440500D01*
X34994400Y-28440500D02*
X34893900Y-28541000D01*
X31788400Y-30550000D02*
X31788400Y-29850000D01*
X31788400Y-30550000D02*
X31788406Y-30549994D01*
X31788406Y-30549994D02*
X31788406Y-30296208D01*
X31788400Y-29850000D02*
X31638400Y-29700000D01*
X34292400Y-27410000D02*
X34292400Y-28442500D01*
X34292400Y-28442500D02*
X34193900Y-28541000D01*
X31288400Y-30550000D02*
X31288400Y-30063954D01*
X31288400Y-30063954D02*
X31025997Y-29801551D01*
X31025997Y-29801551D02*
X31025997Y-29700000D01*
X31288400Y-30550000D02*
X31288400Y-30350000D01*
X33590400Y-27410000D02*
X33590400Y-26294500D01*
X30588400Y-35250000D02*
X29779371Y-35250000D01*
X29779371Y-35250000D02*
X29779365Y-35250006D01*
X32888400Y-27410000D02*
X32888400Y-26296500D01*
X30588400Y-35750000D02*
X29425767Y-35750000D01*
X29425767Y-35750000D02*
X29425762Y-35750005D01*
X32186400Y-27410000D02*
X32186400Y-26298500D01*
X30588400Y-36250000D02*
X29779371Y-36250000D01*
X29779371Y-36250000D02*
X29779365Y-36250006D01*
X38788400Y-30550000D02*
X38788400Y-29446500D01*
X39908400Y-28326500D02*
X39908400Y-27410000D01*
X38788400Y-29446500D02*
X39908400Y-28326500D01*
X36788400Y-30550000D02*
X36788400Y-29796500D01*
X36788400Y-29796500D02*
X37100400Y-29484500D01*
X37100400Y-29484500D02*
X37100400Y-27410000D01*
X37288400Y-30550000D02*
X37288400Y-29794872D01*
X37288400Y-29794872D02*
X37452802Y-29630470D01*
X37802400Y-28332500D02*
X37802400Y-27410000D01*
X37452802Y-28682098D02*
X37802400Y-28332500D01*
X37452802Y-29630470D02*
X37452802Y-28682098D01*
X37788400Y-30550000D02*
X37788400Y-30146500D01*
X37788400Y-30146500D02*
X37805204Y-30129696D01*
X37805204Y-30129696D02*
X37805204Y-29029696D01*
X37805204Y-29029696D02*
X38504400Y-28330500D01*
X38504400Y-28330500D02*
X38504400Y-27410000D01*
X38504400Y-28128872D02*
X38504400Y-27410000D01*
X38504400Y-28128872D02*
X38504400Y-27410000D01*
X38288400Y-30550000D02*
X38288400Y-29246500D01*
X39206400Y-28328500D02*
X39206400Y-27410000D01*
X38288400Y-29246500D02*
X39206400Y-28328500D01*
X39488400Y-31250000D02*
X39488400Y-31135500D01*
X39488400Y-31135500D02*
X39243900Y-30891000D01*
X40610400Y-28324500D02*
X40610400Y-27410000D01*
X39243900Y-29691000D02*
X40610400Y-28324500D01*
X39243900Y-30891000D02*
X39243900Y-29691000D01*
X39488400Y-31250000D02*
X39488400Y-31235500D01*
X39488400Y-34750000D02*
X40228388Y-34750000D01*
X44120400Y-28314500D02*
X44120400Y-27410000D01*
X41955910Y-30478990D02*
X44120400Y-28314500D01*
X41955910Y-33022478D02*
X41955910Y-30478990D01*
X40228388Y-34750000D02*
X41955910Y-33022478D01*
X39488400Y-34250000D02*
X40230016Y-34250000D01*
X43418400Y-28316500D02*
X43418400Y-27410000D01*
X41603508Y-30131392D02*
X43418400Y-28316500D01*
X41603508Y-32876508D02*
X41603508Y-30131392D01*
X40230016Y-34250000D02*
X41603508Y-32876508D01*
X39488400Y-33750000D02*
X40231644Y-33750000D01*
X42716400Y-28318500D02*
X42716400Y-27410000D01*
X41251106Y-29783794D02*
X42716400Y-28318500D01*
X41251106Y-32730538D02*
X41251106Y-29783794D01*
X40231644Y-33750000D02*
X41251106Y-32730538D01*
X39488400Y-33250000D02*
X40233272Y-33250000D01*
X42014400Y-28270500D02*
X42014400Y-27410000D01*
X40898704Y-29386196D02*
X42014400Y-28270500D01*
X40898704Y-32584568D02*
X40898704Y-29386196D01*
X40233272Y-33250000D02*
X40898704Y-32584568D01*
X41312400Y-28322500D02*
X41312400Y-27410000D01*
X40546302Y-29088598D02*
X41312400Y-28322500D01*
X39488400Y-32750000D02*
X40234900Y-32750000D01*
X40234900Y-32750000D02*
X40546302Y-32438598D01*
X40546302Y-32438598D02*
X40546302Y-29088598D01*
X32593900Y-41691000D02*
X33193900Y-41691000D01*
X33193900Y-41691000D02*
X33543900Y-41341000D01*
X33288400Y-39450000D02*
X33288400Y-40185500D01*
X33288400Y-40185500D02*
X33543900Y-40441000D01*
X30696302Y-41093402D02*
X30793900Y-41191000D01*
X30793900Y-41191000D02*
X31293900Y-41191000D01*
X28493900Y-42541000D02*
X29941498Y-41093402D01*
X29941498Y-41093402D02*
X30696302Y-41093402D01*
X28338400Y-43290000D02*
X28338400Y-44285500D01*
X28338400Y-44285500D02*
X28873900Y-44821000D01*
X28338400Y-43290000D02*
X28338400Y-42696500D01*
X28338400Y-42696500D02*
X28493900Y-42541000D01*
X28493900Y-42541000D02*
X28338400Y-43290000D01*
X31193900Y-41341000D02*
X31191498Y-41341000D01*
X28493900Y-42541000D02*
X28338400Y-43290000D01*
X30588400Y-34750000D02*
X29565417Y-34750000D01*
X29565417Y-34750000D02*
X29065417Y-35250000D01*
X29065417Y-35250000D02*
X28663400Y-35250000D01*
X25588399Y-30267768D02*
X25818398Y-30497767D01*
X25818398Y-30497767D02*
X25818398Y-30879998D01*
X25818398Y-30879998D02*
X25938400Y-31000000D01*
X26338400Y-31000000D02*
X25938400Y-31000000D01*
X23538400Y-32000000D02*
X23538400Y-32920678D01*
X28893900Y-40816897D02*
X29068003Y-40991000D01*
X36788400Y-41435500D02*
X36788400Y-39450000D01*
X36788400Y-41435500D02*
X36943900Y-41591000D01*
X29068003Y-40991000D02*
X29268900Y-40991000D01*
X27643900Y-39491000D02*
X27643900Y-39566897D01*
X27643900Y-39566897D02*
X27935990Y-39858987D01*
X28870413Y-40793410D02*
X28893900Y-40816897D01*
X28893900Y-40816897D02*
X27935990Y-39858987D01*
X24493900Y-35791000D02*
X24229400Y-35791000D01*
X23538400Y-35100000D02*
X24229400Y-35791000D01*
X23652900Y-35100000D02*
X23538400Y-35100000D01*
X43193900Y-40766000D02*
X43808400Y-41380500D01*
X43808400Y-41380500D02*
X43808400Y-41440000D01*
X43808400Y-41355500D02*
X43808400Y-41440000D01*
X39493900Y-41841000D02*
X39843900Y-41841000D01*
X38793900Y-41141000D02*
X39493900Y-41841000D01*
X37788400Y-40135500D02*
X38793900Y-41141000D01*
X37788400Y-39450000D02*
X37788400Y-40135500D01*
X37793900Y-39455500D02*
X37788400Y-39450000D01*
X43808400Y-41440000D02*
X43742900Y-41440000D01*
X43692900Y-41440000D02*
X43808400Y-41440000D01*
X43808400Y-41440000D02*
X44098400Y-41440000D01*
D28*
X26108400Y-41276500D02*
X26943900Y-40441000D01*
X33418400Y-43290000D02*
X31942900Y-43290000D01*
X31942900Y-43290000D02*
X30343900Y-41691000D01*
X30668422Y-30291000D02*
X29982900Y-30291000D01*
X29982900Y-30291000D02*
X29932900Y-30341000D01*
D27*
X40034900Y-31750000D02*
X40193892Y-31591008D01*
X40193892Y-31591008D02*
X40193892Y-30790992D01*
X39488400Y-31750000D02*
X40034900Y-31750000D01*
X40193892Y-30790992D02*
X39893900Y-30491000D01*
D28*
X29932900Y-30341000D02*
X29538400Y-30735500D01*
X29538400Y-30750000D02*
X29538400Y-30735500D01*
X29538400Y-30735500D02*
X28552900Y-29750000D01*
X28552900Y-29750000D02*
X27238400Y-29750000D01*
X29538400Y-30750000D02*
X29538400Y-30696500D01*
X33418400Y-43290000D02*
X32942900Y-43290000D01*
X30343900Y-41641000D02*
X30343900Y-41691000D01*
X26108400Y-41390000D02*
X26108400Y-41276500D01*
X34788400Y-40335500D02*
X35093900Y-40641000D01*
X35093900Y-40641000D02*
X35643900Y-41191000D01*
X35343900Y-40391000D02*
X35093900Y-40641000D01*
X34788400Y-39450000D02*
X34788400Y-40335500D01*
X39488400Y-38750000D02*
X39488400Y-39396500D01*
X29538400Y-30750000D02*
X29538400Y-31500000D01*
X29538400Y-31500000D02*
X29788400Y-31750000D01*
X29788400Y-31750000D02*
X30588400Y-31750000D01*
D27*
X45577400Y-31032000D02*
X45566400Y-31021000D01*
X46581900Y-31032000D02*
X45577400Y-31032000D01*
X40062900Y-35750000D02*
X39488400Y-35750000D01*
X44041400Y-31021000D02*
X42529900Y-31021000D01*
X42529900Y-31021000D02*
X42517900Y-31009000D01*
X40993900Y-34819000D02*
X40062900Y-35750000D01*
X42933194Y-37319891D02*
X42732791Y-37319891D01*
X45953900Y-34299185D02*
X42933194Y-37319891D01*
X45953900Y-32896000D02*
X45953900Y-34299185D01*
X45566400Y-32521000D02*
X45578900Y-32521000D01*
X45578900Y-32521000D02*
X45953900Y-32896000D01*
X40165059Y-39709231D02*
X39635700Y-40238590D01*
X38788400Y-39725000D02*
X38788400Y-39475000D01*
X39301990Y-40238590D02*
X38788400Y-39725000D01*
X39635700Y-40238590D02*
X39301990Y-40238590D01*
X40143900Y-40591000D02*
X40643900Y-40091000D01*
X40693900Y-40041000D02*
X40643900Y-40091000D01*
X38843900Y-40591000D02*
X40143900Y-40591000D01*
X38288400Y-40035500D02*
X38843900Y-40591000D01*
X38288400Y-39450000D02*
X38288400Y-40035500D01*
X44553900Y-32533500D02*
X44553900Y-33138600D01*
X44553900Y-33138600D02*
X44549900Y-33142600D01*
X40593900Y-40891000D02*
X41185322Y-40299578D01*
X41185322Y-40299578D02*
X41185322Y-39902396D01*
X41185322Y-39902396D02*
X41432809Y-39654909D01*
X39488400Y-37750000D02*
X40454518Y-37750000D01*
X40454518Y-37750000D02*
X41432809Y-38728291D01*
X41432809Y-38728291D02*
X41432809Y-39654909D01*
X41538400Y-43041000D02*
X41479400Y-43041000D01*
X41479400Y-43041000D02*
X40593900Y-42155500D01*
X41482809Y-39779909D02*
X41504991Y-39779909D01*
X40593900Y-40891000D02*
X40593900Y-42155500D01*
X41538400Y-44040000D02*
X42144900Y-44040000D01*
X42144900Y-44040000D02*
X42593900Y-43591000D01*
X42593900Y-43591000D02*
X42593900Y-39391000D01*
X42593900Y-39391000D02*
X42243900Y-39041000D01*
X42243900Y-39041000D02*
X41493900Y-38291000D01*
X41525218Y-38291000D02*
X41493900Y-38291000D01*
X41927309Y-37888909D02*
X41525218Y-38291000D01*
X40452900Y-37250000D02*
X41493900Y-38291000D01*
X39488400Y-37250000D02*
X40452900Y-37250000D01*
X42044900Y-44040000D02*
X41538400Y-44040000D01*
D28*
X44041400Y-32021000D02*
X44041400Y-32521000D01*
X44553900Y-31496000D02*
X44553900Y-31008500D01*
X44553900Y-31915322D02*
X44553900Y-31496000D01*
X44448222Y-32021000D02*
X44553900Y-31915322D01*
X44041400Y-32021000D02*
X44448222Y-32021000D01*
X44553900Y-29758000D02*
X44572900Y-29739000D01*
X44553900Y-31008500D02*
X44553900Y-29758000D01*
X44553900Y-31008500D02*
X45053900Y-31008500D01*
X44019899Y-33397001D02*
X44019899Y-32542501D01*
X44019899Y-32542501D02*
X44041400Y-32521000D01*
X44087900Y-33465002D02*
X44019899Y-33397001D01*
X44087900Y-33803000D02*
X44087900Y-33465002D01*
X41640900Y-36250000D02*
X44087900Y-33803000D01*
X39475900Y-36250000D02*
X41640900Y-36250000D01*
D27*
X22638400Y-28800000D02*
X24355999Y-30517599D01*
X24355999Y-30517599D02*
X24355999Y-33108812D01*
X24355999Y-33108812D02*
X25394776Y-34147589D01*
X25394776Y-34147589D02*
X27659581Y-34147589D01*
X27659581Y-34147589D02*
X28557170Y-33250000D01*
X28557170Y-33250000D02*
X30588400Y-33250000D01*
X30588400Y-34250000D02*
X28553933Y-34250000D01*
X28553933Y-34250000D02*
X24403933Y-38400000D01*
X24403933Y-38400000D02*
X22638400Y-38400000D01*
X23338400Y-37700000D02*
X22638400Y-38400000D01*
X22738400Y-38400000D02*
X23888400Y-37250000D01*
X40159698Y-42365698D02*
X39418598Y-42365698D01*
X39418598Y-42365698D02*
X37288400Y-40235500D01*
X37288400Y-40235500D02*
X37288400Y-39450000D01*
X40186499Y-42323401D02*
X40159698Y-42350202D01*
X40159698Y-42350202D02*
X40159698Y-42365698D01*
X27403721Y-34630000D02*
X27675551Y-34630000D01*
X27238400Y-31000000D02*
X27805990Y-31000000D01*
X27675551Y-34630000D02*
X28555551Y-33750000D01*
X28555551Y-33750000D02*
X28788400Y-33750000D01*
X28788400Y-33750000D02*
X30588400Y-33750000D01*
X29993900Y-39941000D02*
X29230340Y-39941000D01*
X29230340Y-39941000D02*
X28921439Y-39632099D01*
X30693900Y-39841000D02*
X31093900Y-40241000D01*
X31093900Y-40241000D02*
X31593900Y-40241000D01*
X30093900Y-39841000D02*
X30693900Y-39841000D01*
X29993900Y-39941000D02*
X30093900Y-39841000D01*
X31788400Y-40046500D02*
X31593900Y-40241000D01*
X31788400Y-40046500D02*
X31788400Y-39450000D01*
X25663400Y-35250000D02*
X24702900Y-35250000D01*
X24702900Y-35250000D02*
X24643900Y-35191000D01*
M02*
