M48
; DRILL file {KiCad 5.1.2-f72e74a~84~ubuntu18.04.1} date dim. 05 mai 2019 19:29:35 CEST
; FORMAT={-:-/ absolute / inch / decimal}
; #@! TF.CreationDate,2019-05-05T19:29:35+02:00
; #@! TF.GenerationSoftware,Kicad,Pcbnew,5.1.2-f72e74a~84~ubuntu18.04.1
; #@! TF.FileFunction,Plated,1,2,PTH
FMAT,2
INCH
T1C0.0118
T2C0.0157
T3C0.0335
T4C0.0787
T5C0.1102
%
G90
G05
T1
X0.9267Y-1.2618
X0.9643Y-1.4091
X0.9702Y-1.3855
X0.9779Y-1.2165
X1.0054Y-1.1614
X1.0074Y-1.1916
X1.0175Y-1.1276
X1.045Y-1.1276
X1.0726Y-1.1276
X1.0789Y-1.3634
X1.0883Y-1.5548
X1.0947Y-1.2205
X1.1002Y-1.1394
X1.1257Y-1.1335
X1.1386Y-1.5603
X1.1523Y-1.6138
X1.1533Y-1.1276
X1.1572Y-1.4465
X1.1572Y-1.4859
X1.1585Y-1.4075
X1.1631Y-1.5292
X1.1691Y-1.5528
X1.1724Y-1.3878
X1.1724Y-1.4272
X1.173Y-1.4662
X1.173Y-1.5056
X1.2074Y-1.1926
X1.2215Y-1.1693
X1.2456Y-1.1693
X1.2672Y-1.0354
X1.2733Y-1.1693
X1.2948Y-1.0353
X1.2974Y-1.1697
X1.3225Y-1.0352
X1.3236Y-1.2694
X1.3462Y-1.1237
X1.3738Y-1.1237
X1.3797Y-1.165
X1.4013Y-1.1237
X1.4156Y-1.2694
X1.425Y-1.5902
X1.4348Y-1.1571
X1.4545Y-1.6374
X1.5687Y-1.6473
X1.5811Y-1.6679
X1.5813Y-1.5634
X1.6002Y-1.5784
X1.6139Y-1.3708
X1.6739Y-1.2208
X1.6824Y-1.4693
X1.7005Y-1.605
X1.7539Y-1.3048
T2
X1.0608Y-1.5922
X1.1946Y-1.6414
X1.1986Y-1.5922
X1.271Y-1.4865
X1.3915Y-1.5902
X1.4289Y-1.0134
X1.5547Y-1.551
X1.5706Y-1.2004
X1.8339Y-1.1808
X1.8339Y-1.3008
T3
X1.1368Y-1.7646
T4
X1.3777Y-1.4091
T5
X1.8598Y-1.5197
X0.8913Y-1.1339
X0.8913Y-1.5118
T0
M30
