G04 #@! TF.GenerationSoftware,KiCad,Pcbnew,5.1.2-f72e74a~84~ubuntu18.04.1*
G04 #@! TF.CreationDate,2019-05-05T18:20:23+02:00*
G04 #@! TF.ProjectId,f-91w,662d3931-772e-46b6-9963-61645f706362,2*
G04 #@! TF.SameCoordinates,Original*
G04 #@! TF.FileFunction,Soldermask,Top*
G04 #@! TF.FilePolarity,Negative*
%FSLAX46Y46*%
G04 Gerber Fmt 4.6, Leading zero omitted, Abs format (unit mm)*
G04 Created by KiCad (PCBNEW 5.1.2-f72e74a~84~ubuntu18.04.1) date 2019-05-05 18:20:23*
%MOMM*%
%LPD*%
G04 APERTURE LIST*
%ADD10C,0.100000*%
G04 APERTURE END LIST*
D10*
G36*
X55803135Y-107865175D02*
G01*
X55803138Y-107865176D01*
X55803137Y-107865176D01*
X55898681Y-107904751D01*
X55984668Y-107962206D01*
X56057794Y-108035332D01*
X56115249Y-108121319D01*
X56148034Y-108200471D01*
X56154825Y-108216865D01*
X56175000Y-108318291D01*
X56175000Y-108421709D01*
X56154825Y-108523135D01*
X56154824Y-108523137D01*
X56115249Y-108618681D01*
X56057794Y-108704668D01*
X55984668Y-108777794D01*
X55898681Y-108835249D01*
X55819529Y-108868034D01*
X55803135Y-108874825D01*
X55701709Y-108895000D01*
X55598291Y-108895000D01*
X55496865Y-108874825D01*
X55480471Y-108868034D01*
X55401319Y-108835249D01*
X55315332Y-108777794D01*
X55242206Y-108704668D01*
X55184751Y-108618681D01*
X55145176Y-108523137D01*
X55145175Y-108523135D01*
X55125000Y-108421709D01*
X55125000Y-108318291D01*
X55145175Y-108216865D01*
X55151966Y-108200471D01*
X55184751Y-108121319D01*
X55242206Y-108035332D01*
X55315332Y-107962206D01*
X55401319Y-107904751D01*
X55496863Y-107865176D01*
X55496862Y-107865176D01*
X55496865Y-107865175D01*
X55598291Y-107845000D01*
X55701709Y-107845000D01*
X55803135Y-107865175D01*
X55803135Y-107865175D01*
G37*
G36*
X65200000Y-108040000D02*
G01*
X63800000Y-108040000D01*
X63800000Y-106041000D01*
X65200000Y-106041000D01*
X65200000Y-108040000D01*
X65200000Y-108040000D01*
G37*
G36*
X57030000Y-107640000D02*
G01*
X55730000Y-107640000D01*
X55730000Y-105940000D01*
X57030000Y-105940000D01*
X57030000Y-107640000D01*
X57030000Y-107640000D01*
G37*
G36*
X51950000Y-107640000D02*
G01*
X50650000Y-107640000D01*
X50650000Y-105940000D01*
X51950000Y-105940000D01*
X51950000Y-107640000D01*
X51950000Y-107640000D01*
G37*
G36*
X59596605Y-105324551D02*
G01*
X59628922Y-105334355D01*
X59658703Y-105350273D01*
X59684806Y-105371694D01*
X59706227Y-105397797D01*
X59722145Y-105427578D01*
X59731949Y-105459895D01*
X59735500Y-105495954D01*
X59735500Y-105986046D01*
X59731949Y-106022105D01*
X59722145Y-106054422D01*
X59706227Y-106084203D01*
X59684806Y-106110306D01*
X59658703Y-106131727D01*
X59628922Y-106147645D01*
X59596605Y-106157449D01*
X59560546Y-106161000D01*
X59120454Y-106161000D01*
X59084395Y-106157449D01*
X59052078Y-106147645D01*
X59022297Y-106131727D01*
X58996194Y-106110306D01*
X58974773Y-106084203D01*
X58958855Y-106054422D01*
X58949051Y-106022105D01*
X58945500Y-105986046D01*
X58945500Y-105495954D01*
X58949051Y-105459895D01*
X58958855Y-105427578D01*
X58974773Y-105397797D01*
X58996194Y-105371694D01*
X59022297Y-105350273D01*
X59052078Y-105334355D01*
X59084395Y-105324551D01*
X59120454Y-105321000D01*
X59560546Y-105321000D01*
X59596605Y-105324551D01*
X59596605Y-105324551D01*
G37*
G36*
X58626605Y-105324551D02*
G01*
X58658922Y-105334355D01*
X58688703Y-105350273D01*
X58714806Y-105371694D01*
X58736227Y-105397797D01*
X58752145Y-105427578D01*
X58761949Y-105459895D01*
X58765500Y-105495954D01*
X58765500Y-105986046D01*
X58761949Y-106022105D01*
X58752145Y-106054422D01*
X58736227Y-106084203D01*
X58714806Y-106110306D01*
X58688703Y-106131727D01*
X58658922Y-106147645D01*
X58626605Y-106157449D01*
X58590546Y-106161000D01*
X58150454Y-106161000D01*
X58114395Y-106157449D01*
X58082078Y-106147645D01*
X58052297Y-106131727D01*
X58026194Y-106110306D01*
X58004773Y-106084203D01*
X57988855Y-106054422D01*
X57979051Y-106022105D01*
X57975500Y-105986046D01*
X57975500Y-105495954D01*
X57979051Y-105459895D01*
X57988855Y-105427578D01*
X58004773Y-105397797D01*
X58026194Y-105371694D01*
X58052297Y-105350273D01*
X58082078Y-105334355D01*
X58114395Y-105324551D01*
X58150454Y-105321000D01*
X58590546Y-105321000D01*
X58626605Y-105324551D01*
X58626605Y-105324551D01*
G37*
G36*
X66974181Y-104266900D02*
G01*
X67101573Y-104319667D01*
X67115310Y-104328846D01*
X67216224Y-104396274D01*
X67313726Y-104493776D01*
X67345280Y-104541000D01*
X67390333Y-104608427D01*
X67443100Y-104735819D01*
X67470000Y-104871055D01*
X67470000Y-105008945D01*
X67443100Y-105144181D01*
X67390333Y-105271573D01*
X67390332Y-105271574D01*
X67313726Y-105386224D01*
X67216224Y-105483726D01*
X67139617Y-105534913D01*
X67101573Y-105560333D01*
X66974181Y-105613100D01*
X66838945Y-105640000D01*
X66701055Y-105640000D01*
X66565819Y-105613100D01*
X66438427Y-105560333D01*
X66400383Y-105534913D01*
X66323776Y-105483726D01*
X66226274Y-105386224D01*
X66149668Y-105271574D01*
X66149667Y-105271573D01*
X66096900Y-105144181D01*
X66070000Y-105008945D01*
X66070000Y-104871055D01*
X66096900Y-104735819D01*
X66149667Y-104608427D01*
X66194720Y-104541000D01*
X66226274Y-104493776D01*
X66323776Y-104396274D01*
X66424690Y-104328846D01*
X66438427Y-104319667D01*
X66565819Y-104266900D01*
X66701055Y-104240000D01*
X66838945Y-104240000D01*
X66974181Y-104266900D01*
X66974181Y-104266900D01*
G37*
G36*
X64773765Y-104164821D02*
G01*
X64910257Y-104221358D01*
X65033096Y-104303436D01*
X65137564Y-104407904D01*
X65219642Y-104530743D01*
X65276179Y-104667235D01*
X65305000Y-104812130D01*
X65305000Y-104959870D01*
X65276179Y-105104765D01*
X65219642Y-105241257D01*
X65137564Y-105364096D01*
X65033096Y-105468564D01*
X64910257Y-105550642D01*
X64773765Y-105607179D01*
X64628870Y-105636000D01*
X64481130Y-105636000D01*
X64336235Y-105607179D01*
X64199743Y-105550642D01*
X64076904Y-105468564D01*
X63972436Y-105364096D01*
X63890358Y-105241257D01*
X63833821Y-105104765D01*
X63805000Y-104959870D01*
X63805000Y-104812130D01*
X63833821Y-104667235D01*
X63890358Y-104530743D01*
X63972436Y-104407904D01*
X64076904Y-104303436D01*
X64199743Y-104221358D01*
X64336235Y-104164821D01*
X64481130Y-104136000D01*
X64628870Y-104136000D01*
X64773765Y-104164821D01*
X64773765Y-104164821D01*
G37*
G36*
X50972765Y-104124821D02*
G01*
X51109257Y-104181358D01*
X51232096Y-104263436D01*
X51336564Y-104367904D01*
X51418642Y-104490743D01*
X51475179Y-104627235D01*
X51504000Y-104772130D01*
X51504000Y-104919870D01*
X51475179Y-105064765D01*
X51418642Y-105201257D01*
X51336564Y-105324096D01*
X51232096Y-105428564D01*
X51109257Y-105510642D01*
X50972765Y-105567179D01*
X50827870Y-105596000D01*
X50680130Y-105596000D01*
X50535235Y-105567179D01*
X50398743Y-105510642D01*
X50275904Y-105428564D01*
X50171436Y-105324096D01*
X50089358Y-105201257D01*
X50032821Y-105064765D01*
X50004000Y-104919870D01*
X50004000Y-104772130D01*
X50032821Y-104627235D01*
X50089358Y-104490743D01*
X50171436Y-104367904D01*
X50275904Y-104263436D01*
X50398743Y-104181358D01*
X50535235Y-104124821D01*
X50680130Y-104096000D01*
X50827870Y-104096000D01*
X50972765Y-104124821D01*
X50972765Y-104124821D01*
G37*
G36*
X49274181Y-104216900D02*
G01*
X49401573Y-104269667D01*
X49423555Y-104284355D01*
X49516224Y-104346274D01*
X49613726Y-104443776D01*
X49648643Y-104496034D01*
X49690333Y-104558427D01*
X49743100Y-104685819D01*
X49770000Y-104821055D01*
X49770000Y-104958945D01*
X49743100Y-105094181D01*
X49690333Y-105221573D01*
X49677180Y-105241258D01*
X49613726Y-105336224D01*
X49516224Y-105433726D01*
X49447014Y-105479970D01*
X49401573Y-105510333D01*
X49274181Y-105563100D01*
X49138945Y-105590000D01*
X49001055Y-105590000D01*
X48865819Y-105563100D01*
X48738427Y-105510333D01*
X48692986Y-105479970D01*
X48623776Y-105433726D01*
X48526274Y-105336224D01*
X48462820Y-105241258D01*
X48449667Y-105221573D01*
X48396900Y-105094181D01*
X48370000Y-104958945D01*
X48370000Y-104821055D01*
X48396900Y-104685819D01*
X48449667Y-104558427D01*
X48491357Y-104496034D01*
X48526274Y-104443776D01*
X48623776Y-104346274D01*
X48716445Y-104284355D01*
X48738427Y-104269667D01*
X48865819Y-104216900D01*
X49001055Y-104190000D01*
X49138945Y-104190000D01*
X49274181Y-104216900D01*
X49274181Y-104216900D01*
G37*
G36*
X55955500Y-105541000D02*
G01*
X55155500Y-105541000D01*
X55155500Y-104841000D01*
X55955500Y-104841000D01*
X55955500Y-105541000D01*
X55955500Y-105541000D01*
G37*
G36*
X56786605Y-104484551D02*
G01*
X56818922Y-104494355D01*
X56848703Y-104510273D01*
X56874806Y-104531694D01*
X56896227Y-104557797D01*
X56912145Y-104587578D01*
X56921949Y-104619895D01*
X56925500Y-104655954D01*
X56925500Y-105096046D01*
X56921949Y-105132105D01*
X56912145Y-105164422D01*
X56896227Y-105194203D01*
X56874806Y-105220306D01*
X56848703Y-105241727D01*
X56818922Y-105257645D01*
X56786605Y-105267449D01*
X56750546Y-105271000D01*
X56260454Y-105271000D01*
X56224395Y-105267449D01*
X56192078Y-105257645D01*
X56162297Y-105241727D01*
X56136194Y-105220306D01*
X56114773Y-105194203D01*
X56098855Y-105164422D01*
X56089051Y-105132105D01*
X56085500Y-105096046D01*
X56085500Y-104655954D01*
X56089051Y-104619895D01*
X56098855Y-104587578D01*
X56114773Y-104557797D01*
X56136194Y-104531694D01*
X56162297Y-104510273D01*
X56192078Y-104494355D01*
X56224395Y-104484551D01*
X56260454Y-104481000D01*
X56750546Y-104481000D01*
X56786605Y-104484551D01*
X56786605Y-104484551D01*
G37*
G36*
X57826605Y-104274551D02*
G01*
X57858922Y-104284355D01*
X57888703Y-104300273D01*
X57914806Y-104321694D01*
X57936227Y-104347797D01*
X57952145Y-104377578D01*
X57961949Y-104409895D01*
X57965500Y-104445954D01*
X57965500Y-104936046D01*
X57961949Y-104972105D01*
X57952145Y-105004422D01*
X57936227Y-105034203D01*
X57914806Y-105060306D01*
X57888703Y-105081727D01*
X57858922Y-105097645D01*
X57826605Y-105107449D01*
X57790546Y-105111000D01*
X57350454Y-105111000D01*
X57314395Y-105107449D01*
X57282078Y-105097645D01*
X57252297Y-105081727D01*
X57226194Y-105060306D01*
X57204773Y-105034203D01*
X57188855Y-105004422D01*
X57179051Y-104972105D01*
X57175500Y-104936046D01*
X57175500Y-104445954D01*
X57179051Y-104409895D01*
X57188855Y-104377578D01*
X57204773Y-104347797D01*
X57226194Y-104321694D01*
X57252297Y-104300273D01*
X57282078Y-104284355D01*
X57314395Y-104274551D01*
X57350454Y-104271000D01*
X57790546Y-104271000D01*
X57826605Y-104274551D01*
X57826605Y-104274551D01*
G37*
G36*
X58796605Y-104274551D02*
G01*
X58828922Y-104284355D01*
X58858703Y-104300273D01*
X58884806Y-104321694D01*
X58906227Y-104347797D01*
X58922145Y-104377578D01*
X58931949Y-104409895D01*
X58935500Y-104445954D01*
X58935500Y-104936046D01*
X58931949Y-104972105D01*
X58922145Y-105004422D01*
X58906227Y-105034203D01*
X58884806Y-105060306D01*
X58858703Y-105081727D01*
X58828922Y-105097645D01*
X58796605Y-105107449D01*
X58760546Y-105111000D01*
X58320454Y-105111000D01*
X58284395Y-105107449D01*
X58252078Y-105097645D01*
X58222297Y-105081727D01*
X58196194Y-105060306D01*
X58174773Y-105034203D01*
X58158855Y-105004422D01*
X58149051Y-104972105D01*
X58145500Y-104936046D01*
X58145500Y-104445954D01*
X58149051Y-104409895D01*
X58158855Y-104377578D01*
X58174773Y-104347797D01*
X58196194Y-104321694D01*
X58222297Y-104300273D01*
X58252078Y-104284355D01*
X58284395Y-104274551D01*
X58320454Y-104271000D01*
X58760546Y-104271000D01*
X58796605Y-104274551D01*
X58796605Y-104274551D01*
G37*
G36*
X54655500Y-105041000D02*
G01*
X53855500Y-105041000D01*
X53855500Y-104341000D01*
X54655500Y-104341000D01*
X54655500Y-105041000D01*
X54655500Y-105041000D01*
G37*
G36*
X55955500Y-104541000D02*
G01*
X55155500Y-104541000D01*
X55155500Y-103841000D01*
X55955500Y-103841000D01*
X55955500Y-104541000D01*
X55955500Y-104541000D01*
G37*
G36*
X54404525Y-93526918D02*
G01*
X54420892Y-93531883D01*
X54435978Y-93539948D01*
X54449201Y-93550799D01*
X54461351Y-93565604D01*
X54468281Y-93572535D01*
X54476431Y-93577980D01*
X54485487Y-93581731D01*
X54495100Y-93583643D01*
X54504901Y-93583643D01*
X54514514Y-93581731D01*
X54523570Y-93577980D01*
X54531719Y-93572534D01*
X54538649Y-93565604D01*
X54550799Y-93550799D01*
X54564022Y-93539948D01*
X54579108Y-93531883D01*
X54595475Y-93526918D01*
X54614954Y-93525000D01*
X54885046Y-93525000D01*
X54904525Y-93526918D01*
X54920892Y-93531883D01*
X54935978Y-93539948D01*
X54949201Y-93550799D01*
X54961351Y-93565604D01*
X54968281Y-93572535D01*
X54976431Y-93577980D01*
X54985487Y-93581731D01*
X54995100Y-93583643D01*
X55004901Y-93583643D01*
X55014514Y-93581731D01*
X55023570Y-93577980D01*
X55031719Y-93572534D01*
X55038649Y-93565604D01*
X55050799Y-93550799D01*
X55064022Y-93539948D01*
X55079108Y-93531883D01*
X55095475Y-93526918D01*
X55114954Y-93525000D01*
X55385046Y-93525000D01*
X55404525Y-93526918D01*
X55420892Y-93531883D01*
X55435978Y-93539948D01*
X55449201Y-93550799D01*
X55461351Y-93565604D01*
X55468281Y-93572535D01*
X55476431Y-93577980D01*
X55485487Y-93581731D01*
X55495100Y-93583643D01*
X55504901Y-93583643D01*
X55514514Y-93581731D01*
X55523570Y-93577980D01*
X55531719Y-93572534D01*
X55538649Y-93565604D01*
X55550799Y-93550799D01*
X55564022Y-93539948D01*
X55579108Y-93531883D01*
X55595475Y-93526918D01*
X55614954Y-93525000D01*
X55885046Y-93525000D01*
X55904525Y-93526918D01*
X55920892Y-93531883D01*
X55935978Y-93539948D01*
X55949201Y-93550799D01*
X55961351Y-93565604D01*
X55968281Y-93572535D01*
X55976431Y-93577980D01*
X55985487Y-93581731D01*
X55995100Y-93583643D01*
X56004901Y-93583643D01*
X56014514Y-93581731D01*
X56023570Y-93577980D01*
X56031719Y-93572534D01*
X56038649Y-93565604D01*
X56050799Y-93550799D01*
X56064022Y-93539948D01*
X56079108Y-93531883D01*
X56095475Y-93526918D01*
X56114954Y-93525000D01*
X56385046Y-93525000D01*
X56404525Y-93526918D01*
X56420892Y-93531883D01*
X56435978Y-93539948D01*
X56449201Y-93550799D01*
X56461351Y-93565604D01*
X56468281Y-93572535D01*
X56476431Y-93577980D01*
X56485487Y-93581731D01*
X56495100Y-93583643D01*
X56504901Y-93583643D01*
X56514514Y-93581731D01*
X56523570Y-93577980D01*
X56531719Y-93572534D01*
X56538649Y-93565604D01*
X56550799Y-93550799D01*
X56564022Y-93539948D01*
X56579108Y-93531883D01*
X56595475Y-93526918D01*
X56614954Y-93525000D01*
X56885046Y-93525000D01*
X56904525Y-93526918D01*
X56920892Y-93531883D01*
X56935978Y-93539948D01*
X56949201Y-93550799D01*
X56961351Y-93565604D01*
X56968281Y-93572535D01*
X56976431Y-93577980D01*
X56985487Y-93581731D01*
X56995100Y-93583643D01*
X57004901Y-93583643D01*
X57014514Y-93581731D01*
X57023570Y-93577980D01*
X57031719Y-93572534D01*
X57038649Y-93565604D01*
X57050799Y-93550799D01*
X57064022Y-93539948D01*
X57079108Y-93531883D01*
X57095475Y-93526918D01*
X57114954Y-93525000D01*
X57385046Y-93525000D01*
X57404525Y-93526918D01*
X57420892Y-93531883D01*
X57435978Y-93539948D01*
X57449201Y-93550799D01*
X57461351Y-93565604D01*
X57468281Y-93572535D01*
X57476431Y-93577980D01*
X57485487Y-93581731D01*
X57495100Y-93583643D01*
X57504901Y-93583643D01*
X57514514Y-93581731D01*
X57523570Y-93577980D01*
X57531719Y-93572534D01*
X57538649Y-93565604D01*
X57550799Y-93550799D01*
X57564022Y-93539948D01*
X57579108Y-93531883D01*
X57595475Y-93526918D01*
X57614954Y-93525000D01*
X57885046Y-93525000D01*
X57904525Y-93526918D01*
X57920892Y-93531883D01*
X57935978Y-93539948D01*
X57949201Y-93550799D01*
X57961351Y-93565604D01*
X57968281Y-93572535D01*
X57976431Y-93577980D01*
X57985487Y-93581731D01*
X57995100Y-93583643D01*
X58004901Y-93583643D01*
X58014514Y-93581731D01*
X58023570Y-93577980D01*
X58031719Y-93572534D01*
X58038649Y-93565604D01*
X58050799Y-93550799D01*
X58064022Y-93539948D01*
X58079108Y-93531883D01*
X58095475Y-93526918D01*
X58114954Y-93525000D01*
X58385046Y-93525000D01*
X58404525Y-93526918D01*
X58420892Y-93531883D01*
X58435978Y-93539948D01*
X58449201Y-93550799D01*
X58461351Y-93565604D01*
X58468281Y-93572535D01*
X58476431Y-93577980D01*
X58485487Y-93581731D01*
X58495100Y-93583643D01*
X58504901Y-93583643D01*
X58514514Y-93581731D01*
X58523570Y-93577980D01*
X58531719Y-93572534D01*
X58538649Y-93565604D01*
X58550799Y-93550799D01*
X58564022Y-93539948D01*
X58579108Y-93531883D01*
X58595475Y-93526918D01*
X58614954Y-93525000D01*
X58885046Y-93525000D01*
X58904525Y-93526918D01*
X58920892Y-93531883D01*
X58935978Y-93539948D01*
X58949201Y-93550799D01*
X58961351Y-93565604D01*
X58968281Y-93572535D01*
X58976431Y-93577980D01*
X58985487Y-93581731D01*
X58995100Y-93583643D01*
X59004901Y-93583643D01*
X59014514Y-93581731D01*
X59023570Y-93577980D01*
X59031719Y-93572534D01*
X59038649Y-93565604D01*
X59050799Y-93550799D01*
X59064022Y-93539948D01*
X59079108Y-93531883D01*
X59095475Y-93526918D01*
X59114954Y-93525000D01*
X59385046Y-93525000D01*
X59404525Y-93526918D01*
X59420892Y-93531883D01*
X59435978Y-93539948D01*
X59449201Y-93550799D01*
X59461351Y-93565604D01*
X59468281Y-93572535D01*
X59476431Y-93577980D01*
X59485487Y-93581731D01*
X59495100Y-93583643D01*
X59504901Y-93583643D01*
X59514514Y-93581731D01*
X59523570Y-93577980D01*
X59531719Y-93572534D01*
X59538649Y-93565604D01*
X59550799Y-93550799D01*
X59564022Y-93539948D01*
X59579108Y-93531883D01*
X59595475Y-93526918D01*
X59614954Y-93525000D01*
X59885046Y-93525000D01*
X59904525Y-93526918D01*
X59920892Y-93531883D01*
X59935978Y-93539948D01*
X59949201Y-93550799D01*
X59961351Y-93565604D01*
X59968281Y-93572535D01*
X59976431Y-93577980D01*
X59985487Y-93581731D01*
X59995100Y-93583643D01*
X60004901Y-93583643D01*
X60014514Y-93581731D01*
X60023570Y-93577980D01*
X60031719Y-93572534D01*
X60038649Y-93565604D01*
X60050799Y-93550799D01*
X60064022Y-93539948D01*
X60079108Y-93531883D01*
X60095475Y-93526918D01*
X60114954Y-93525000D01*
X60385046Y-93525000D01*
X60404525Y-93526918D01*
X60420892Y-93531883D01*
X60435978Y-93539948D01*
X60449201Y-93550799D01*
X60461351Y-93565604D01*
X60468281Y-93572535D01*
X60476431Y-93577980D01*
X60485487Y-93581731D01*
X60495100Y-93583643D01*
X60504901Y-93583643D01*
X60514514Y-93581731D01*
X60523570Y-93577980D01*
X60531719Y-93572534D01*
X60538649Y-93565604D01*
X60550799Y-93550799D01*
X60564022Y-93539948D01*
X60579108Y-93531883D01*
X60595475Y-93526918D01*
X60614954Y-93525000D01*
X60885046Y-93525000D01*
X60904525Y-93526918D01*
X60920892Y-93531883D01*
X60935978Y-93539948D01*
X60949201Y-93550799D01*
X60961351Y-93565604D01*
X60968281Y-93572535D01*
X60976431Y-93577980D01*
X60985487Y-93581731D01*
X60995100Y-93583643D01*
X61004901Y-93583643D01*
X61014514Y-93581731D01*
X61023570Y-93577980D01*
X61031719Y-93572534D01*
X61038649Y-93565604D01*
X61050799Y-93550799D01*
X61064022Y-93539948D01*
X61079108Y-93531883D01*
X61095475Y-93526918D01*
X61114954Y-93525000D01*
X61385046Y-93525000D01*
X61404525Y-93526918D01*
X61420892Y-93531883D01*
X61435978Y-93539948D01*
X61449201Y-93550799D01*
X61461351Y-93565604D01*
X61468281Y-93572535D01*
X61476431Y-93577980D01*
X61485487Y-93581731D01*
X61495100Y-93583643D01*
X61504901Y-93583643D01*
X61514514Y-93581731D01*
X61523570Y-93577980D01*
X61531719Y-93572534D01*
X61538649Y-93565604D01*
X61550799Y-93550799D01*
X61564022Y-93539948D01*
X61579108Y-93531883D01*
X61595475Y-93526918D01*
X61614954Y-93525000D01*
X61885046Y-93525000D01*
X61904525Y-93526918D01*
X61920892Y-93531883D01*
X61935978Y-93539948D01*
X61949201Y-93550799D01*
X61960052Y-93564022D01*
X61968117Y-93579108D01*
X61973082Y-93595475D01*
X61975000Y-93614954D01*
X61975000Y-94475001D01*
X61975961Y-94484755D01*
X61978806Y-94494135D01*
X61983426Y-94502779D01*
X61989644Y-94510356D01*
X61997221Y-94516574D01*
X62005865Y-94521194D01*
X62015245Y-94524039D01*
X62024999Y-94525000D01*
X62885046Y-94525000D01*
X62904525Y-94526918D01*
X62920892Y-94531883D01*
X62935978Y-94539948D01*
X62949201Y-94550799D01*
X62960052Y-94564022D01*
X62968117Y-94579108D01*
X62973082Y-94595475D01*
X62975000Y-94614954D01*
X62975000Y-94885046D01*
X62973082Y-94904525D01*
X62968117Y-94920892D01*
X62960052Y-94935978D01*
X62949201Y-94949201D01*
X62934396Y-94961351D01*
X62927465Y-94968281D01*
X62922020Y-94976431D01*
X62918269Y-94985487D01*
X62916357Y-94995100D01*
X62916357Y-95004901D01*
X62918269Y-95014514D01*
X62922020Y-95023570D01*
X62927466Y-95031719D01*
X62934396Y-95038649D01*
X62949201Y-95050799D01*
X62960052Y-95064022D01*
X62968117Y-95079108D01*
X62973082Y-95095475D01*
X62975000Y-95114954D01*
X62975000Y-95385046D01*
X62973082Y-95404525D01*
X62968117Y-95420892D01*
X62960052Y-95435978D01*
X62949201Y-95449201D01*
X62934396Y-95461351D01*
X62927465Y-95468281D01*
X62922020Y-95476431D01*
X62918269Y-95485487D01*
X62916357Y-95495100D01*
X62916357Y-95504901D01*
X62918269Y-95514514D01*
X62922020Y-95523570D01*
X62927466Y-95531719D01*
X62934396Y-95538649D01*
X62949201Y-95550799D01*
X62960052Y-95564022D01*
X62968117Y-95579108D01*
X62973082Y-95595475D01*
X62975000Y-95614954D01*
X62975000Y-95885046D01*
X62973082Y-95904525D01*
X62968117Y-95920892D01*
X62960052Y-95935978D01*
X62949201Y-95949201D01*
X62934396Y-95961351D01*
X62927465Y-95968281D01*
X62922020Y-95976431D01*
X62918269Y-95985487D01*
X62916357Y-95995100D01*
X62916357Y-96004901D01*
X62918269Y-96014514D01*
X62922020Y-96023570D01*
X62927466Y-96031719D01*
X62934396Y-96038649D01*
X62949201Y-96050799D01*
X62960052Y-96064022D01*
X62968117Y-96079108D01*
X62973082Y-96095475D01*
X62975000Y-96114954D01*
X62975000Y-96385046D01*
X62973082Y-96404525D01*
X62968117Y-96420892D01*
X62960052Y-96435978D01*
X62949201Y-96449201D01*
X62934396Y-96461351D01*
X62927465Y-96468281D01*
X62922020Y-96476431D01*
X62918269Y-96485487D01*
X62916357Y-96495100D01*
X62916357Y-96504901D01*
X62918269Y-96514514D01*
X62922020Y-96523570D01*
X62927466Y-96531719D01*
X62934396Y-96538649D01*
X62949201Y-96550799D01*
X62960052Y-96564022D01*
X62968117Y-96579108D01*
X62973082Y-96595475D01*
X62975000Y-96614954D01*
X62975000Y-96885046D01*
X62973082Y-96904525D01*
X62968117Y-96920892D01*
X62960052Y-96935978D01*
X62949201Y-96949201D01*
X62934396Y-96961351D01*
X62927465Y-96968281D01*
X62922020Y-96976431D01*
X62918269Y-96985487D01*
X62916357Y-96995100D01*
X62916357Y-97004901D01*
X62918269Y-97014514D01*
X62922020Y-97023570D01*
X62927466Y-97031719D01*
X62934396Y-97038649D01*
X62949201Y-97050799D01*
X62960052Y-97064022D01*
X62968117Y-97079108D01*
X62973082Y-97095475D01*
X62975000Y-97114954D01*
X62975000Y-97385046D01*
X62973082Y-97404525D01*
X62968117Y-97420892D01*
X62960052Y-97435978D01*
X62949201Y-97449201D01*
X62934396Y-97461351D01*
X62927465Y-97468281D01*
X62922020Y-97476431D01*
X62918269Y-97485487D01*
X62916357Y-97495100D01*
X62916357Y-97504901D01*
X62918269Y-97514514D01*
X62922020Y-97523570D01*
X62927466Y-97531719D01*
X62934396Y-97538649D01*
X62949201Y-97550799D01*
X62960052Y-97564022D01*
X62968117Y-97579108D01*
X62973082Y-97595475D01*
X62975000Y-97614954D01*
X62975000Y-97885046D01*
X62973082Y-97904525D01*
X62968117Y-97920892D01*
X62960052Y-97935978D01*
X62949201Y-97949201D01*
X62934396Y-97961351D01*
X62927465Y-97968281D01*
X62922020Y-97976431D01*
X62918269Y-97985487D01*
X62916357Y-97995100D01*
X62916357Y-98004901D01*
X62918269Y-98014514D01*
X62922020Y-98023570D01*
X62927466Y-98031719D01*
X62934396Y-98038649D01*
X62949201Y-98050799D01*
X62960052Y-98064022D01*
X62968117Y-98079108D01*
X62973082Y-98095475D01*
X62975000Y-98114954D01*
X62975000Y-98385046D01*
X62973082Y-98404525D01*
X62968117Y-98420892D01*
X62960052Y-98435978D01*
X62949201Y-98449201D01*
X62934396Y-98461351D01*
X62927465Y-98468281D01*
X62922020Y-98476431D01*
X62918269Y-98485487D01*
X62916357Y-98495100D01*
X62916357Y-98504901D01*
X62918269Y-98514514D01*
X62922020Y-98523570D01*
X62927466Y-98531719D01*
X62934396Y-98538649D01*
X62949201Y-98550799D01*
X62960052Y-98564022D01*
X62968117Y-98579108D01*
X62973082Y-98595475D01*
X62975000Y-98614954D01*
X62975000Y-98885046D01*
X62973082Y-98904525D01*
X62968117Y-98920892D01*
X62960052Y-98935978D01*
X62949201Y-98949201D01*
X62934396Y-98961351D01*
X62927465Y-98968281D01*
X62922020Y-98976431D01*
X62918269Y-98985487D01*
X62916357Y-98995100D01*
X62916357Y-99004901D01*
X62918269Y-99014514D01*
X62922020Y-99023570D01*
X62927466Y-99031719D01*
X62934396Y-99038649D01*
X62949201Y-99050799D01*
X62960052Y-99064022D01*
X62968117Y-99079108D01*
X62973082Y-99095475D01*
X62975000Y-99114954D01*
X62975000Y-99385046D01*
X62973082Y-99404525D01*
X62968117Y-99420892D01*
X62960052Y-99435978D01*
X62949201Y-99449201D01*
X62934396Y-99461351D01*
X62927465Y-99468281D01*
X62922020Y-99476431D01*
X62918269Y-99485487D01*
X62916357Y-99495100D01*
X62916357Y-99504901D01*
X62918269Y-99514514D01*
X62922020Y-99523570D01*
X62927466Y-99531719D01*
X62934396Y-99538649D01*
X62949201Y-99550799D01*
X62960052Y-99564022D01*
X62968117Y-99579108D01*
X62973082Y-99595475D01*
X62975000Y-99614954D01*
X62975000Y-99885046D01*
X62973082Y-99904525D01*
X62968117Y-99920892D01*
X62960052Y-99935978D01*
X62949201Y-99949201D01*
X62934396Y-99961351D01*
X62927465Y-99968281D01*
X62922020Y-99976431D01*
X62918269Y-99985487D01*
X62916357Y-99995100D01*
X62916357Y-100004901D01*
X62918269Y-100014514D01*
X62922020Y-100023570D01*
X62927466Y-100031719D01*
X62934396Y-100038649D01*
X62949201Y-100050799D01*
X62960052Y-100064022D01*
X62968117Y-100079108D01*
X62973082Y-100095475D01*
X62975000Y-100114954D01*
X62975000Y-100385046D01*
X62973082Y-100404525D01*
X62968117Y-100420892D01*
X62960052Y-100435978D01*
X62949201Y-100449201D01*
X62934396Y-100461351D01*
X62927465Y-100468281D01*
X62922020Y-100476431D01*
X62918269Y-100485487D01*
X62916357Y-100495100D01*
X62916357Y-100504901D01*
X62918269Y-100514514D01*
X62922020Y-100523570D01*
X62927466Y-100531719D01*
X62934396Y-100538649D01*
X62949201Y-100550799D01*
X62960052Y-100564022D01*
X62968117Y-100579108D01*
X62973082Y-100595475D01*
X62975000Y-100614954D01*
X62975000Y-100885046D01*
X62973082Y-100904525D01*
X62968117Y-100920892D01*
X62960052Y-100935978D01*
X62949201Y-100949201D01*
X62934396Y-100961351D01*
X62927465Y-100968281D01*
X62922020Y-100976431D01*
X62918269Y-100985487D01*
X62916357Y-100995100D01*
X62916357Y-101004901D01*
X62918269Y-101014514D01*
X62922020Y-101023570D01*
X62927466Y-101031719D01*
X62934396Y-101038649D01*
X62949201Y-101050799D01*
X62960052Y-101064022D01*
X62968117Y-101079108D01*
X62973082Y-101095475D01*
X62975000Y-101114954D01*
X62975000Y-101385046D01*
X62973082Y-101404525D01*
X62968117Y-101420892D01*
X62960052Y-101435978D01*
X62949201Y-101449201D01*
X62934396Y-101461351D01*
X62927465Y-101468281D01*
X62922020Y-101476431D01*
X62918269Y-101485487D01*
X62916357Y-101495100D01*
X62916357Y-101504901D01*
X62918269Y-101514514D01*
X62922020Y-101523570D01*
X62927466Y-101531719D01*
X62934396Y-101538649D01*
X62949201Y-101550799D01*
X62960052Y-101564022D01*
X62968117Y-101579108D01*
X62973082Y-101595475D01*
X62975000Y-101614954D01*
X62975000Y-101885046D01*
X62973082Y-101904525D01*
X62968117Y-101920892D01*
X62960052Y-101935978D01*
X62949201Y-101949201D01*
X62934396Y-101961351D01*
X62927465Y-101968281D01*
X62922020Y-101976431D01*
X62918269Y-101985487D01*
X62916357Y-101995100D01*
X62916357Y-102004901D01*
X62918269Y-102014514D01*
X62922020Y-102023570D01*
X62927466Y-102031719D01*
X62934396Y-102038649D01*
X62949201Y-102050799D01*
X62960052Y-102064022D01*
X62968117Y-102079108D01*
X62973082Y-102095475D01*
X62975000Y-102114954D01*
X62975000Y-102385046D01*
X62973082Y-102404525D01*
X62968117Y-102420892D01*
X62960052Y-102435978D01*
X62949201Y-102449201D01*
X62935978Y-102460052D01*
X62920892Y-102468117D01*
X62904525Y-102473082D01*
X62885046Y-102475000D01*
X62024999Y-102475000D01*
X62015245Y-102475961D01*
X62005865Y-102478806D01*
X61997221Y-102483426D01*
X61989644Y-102489644D01*
X61983426Y-102497221D01*
X61978806Y-102505865D01*
X61975961Y-102515245D01*
X61975000Y-102524999D01*
X61975000Y-103385046D01*
X61973082Y-103404525D01*
X61968117Y-103420892D01*
X61960052Y-103435978D01*
X61949201Y-103449201D01*
X61935978Y-103460052D01*
X61920892Y-103468117D01*
X61904525Y-103473082D01*
X61885046Y-103475000D01*
X61614954Y-103475000D01*
X61595475Y-103473082D01*
X61579108Y-103468117D01*
X61564022Y-103460052D01*
X61550799Y-103449201D01*
X61538649Y-103434396D01*
X61531719Y-103427465D01*
X61523569Y-103422020D01*
X61514513Y-103418269D01*
X61504900Y-103416357D01*
X61495099Y-103416357D01*
X61485486Y-103418269D01*
X61476430Y-103422020D01*
X61468281Y-103427466D01*
X61461351Y-103434396D01*
X61449201Y-103449201D01*
X61435978Y-103460052D01*
X61420892Y-103468117D01*
X61404525Y-103473082D01*
X61385046Y-103475000D01*
X61114954Y-103475000D01*
X61095475Y-103473082D01*
X61079108Y-103468117D01*
X61064022Y-103460052D01*
X61050799Y-103449201D01*
X61038649Y-103434396D01*
X61031719Y-103427465D01*
X61023569Y-103422020D01*
X61014513Y-103418269D01*
X61004900Y-103416357D01*
X60995099Y-103416357D01*
X60985486Y-103418269D01*
X60976430Y-103422020D01*
X60968281Y-103427466D01*
X60961351Y-103434396D01*
X60949201Y-103449201D01*
X60935978Y-103460052D01*
X60920892Y-103468117D01*
X60904525Y-103473082D01*
X60885046Y-103475000D01*
X60614954Y-103475000D01*
X60595475Y-103473082D01*
X60579108Y-103468117D01*
X60564022Y-103460052D01*
X60550799Y-103449201D01*
X60538649Y-103434396D01*
X60531719Y-103427465D01*
X60523569Y-103422020D01*
X60514513Y-103418269D01*
X60504900Y-103416357D01*
X60495099Y-103416357D01*
X60485486Y-103418269D01*
X60476430Y-103422020D01*
X60468281Y-103427466D01*
X60461351Y-103434396D01*
X60449201Y-103449201D01*
X60435978Y-103460052D01*
X60420892Y-103468117D01*
X60404525Y-103473082D01*
X60385046Y-103475000D01*
X60114954Y-103475000D01*
X60095475Y-103473082D01*
X60079108Y-103468117D01*
X60064022Y-103460052D01*
X60050799Y-103449201D01*
X60038649Y-103434396D01*
X60031719Y-103427465D01*
X60023569Y-103422020D01*
X60014513Y-103418269D01*
X60004900Y-103416357D01*
X59995099Y-103416357D01*
X59985486Y-103418269D01*
X59976430Y-103422020D01*
X59968281Y-103427466D01*
X59961351Y-103434396D01*
X59949201Y-103449201D01*
X59935978Y-103460052D01*
X59920892Y-103468117D01*
X59904525Y-103473082D01*
X59885046Y-103475000D01*
X59614954Y-103475000D01*
X59595475Y-103473082D01*
X59579108Y-103468117D01*
X59564022Y-103460052D01*
X59550799Y-103449201D01*
X59538649Y-103434396D01*
X59531719Y-103427465D01*
X59523569Y-103422020D01*
X59514513Y-103418269D01*
X59504900Y-103416357D01*
X59495099Y-103416357D01*
X59485486Y-103418269D01*
X59476430Y-103422020D01*
X59468281Y-103427466D01*
X59461351Y-103434396D01*
X59449201Y-103449201D01*
X59435978Y-103460052D01*
X59420892Y-103468117D01*
X59404525Y-103473082D01*
X59385046Y-103475000D01*
X59114954Y-103475000D01*
X59095475Y-103473082D01*
X59079108Y-103468117D01*
X59064022Y-103460052D01*
X59050799Y-103449201D01*
X59038649Y-103434396D01*
X59031719Y-103427465D01*
X59023569Y-103422020D01*
X59014513Y-103418269D01*
X59004900Y-103416357D01*
X58995099Y-103416357D01*
X58985486Y-103418269D01*
X58976430Y-103422020D01*
X58968281Y-103427466D01*
X58961351Y-103434396D01*
X58949201Y-103449201D01*
X58935978Y-103460052D01*
X58920892Y-103468117D01*
X58904525Y-103473082D01*
X58885046Y-103475000D01*
X58614954Y-103475000D01*
X58595475Y-103473082D01*
X58579108Y-103468117D01*
X58564022Y-103460052D01*
X58550799Y-103449201D01*
X58538649Y-103434396D01*
X58531719Y-103427465D01*
X58523569Y-103422020D01*
X58514513Y-103418269D01*
X58504900Y-103416357D01*
X58495099Y-103416357D01*
X58485486Y-103418269D01*
X58476430Y-103422020D01*
X58468281Y-103427466D01*
X58461351Y-103434396D01*
X58449201Y-103449201D01*
X58435978Y-103460052D01*
X58420892Y-103468117D01*
X58404525Y-103473082D01*
X58385046Y-103475000D01*
X58114954Y-103475000D01*
X58095475Y-103473082D01*
X58079108Y-103468117D01*
X58064022Y-103460052D01*
X58050799Y-103449201D01*
X58038649Y-103434396D01*
X58031719Y-103427465D01*
X58023569Y-103422020D01*
X58014513Y-103418269D01*
X58004900Y-103416357D01*
X57995099Y-103416357D01*
X57985486Y-103418269D01*
X57976430Y-103422020D01*
X57968281Y-103427466D01*
X57961351Y-103434396D01*
X57949201Y-103449201D01*
X57935978Y-103460052D01*
X57920892Y-103468117D01*
X57904525Y-103473082D01*
X57885046Y-103475000D01*
X57614954Y-103475000D01*
X57595475Y-103473082D01*
X57579108Y-103468117D01*
X57564022Y-103460052D01*
X57550799Y-103449201D01*
X57538649Y-103434396D01*
X57531719Y-103427465D01*
X57523569Y-103422020D01*
X57514513Y-103418269D01*
X57504900Y-103416357D01*
X57495099Y-103416357D01*
X57485486Y-103418269D01*
X57476430Y-103422020D01*
X57468281Y-103427466D01*
X57461351Y-103434396D01*
X57449201Y-103449201D01*
X57435978Y-103460052D01*
X57420892Y-103468117D01*
X57404525Y-103473082D01*
X57385046Y-103475000D01*
X57114954Y-103475000D01*
X57095475Y-103473082D01*
X57079108Y-103468117D01*
X57064022Y-103460052D01*
X57050799Y-103449201D01*
X57038649Y-103434396D01*
X57031719Y-103427465D01*
X57023569Y-103422020D01*
X57014513Y-103418269D01*
X57004900Y-103416357D01*
X56995099Y-103416357D01*
X56985486Y-103418269D01*
X56976430Y-103422020D01*
X56968281Y-103427466D01*
X56961351Y-103434396D01*
X56949201Y-103449201D01*
X56935978Y-103460052D01*
X56920892Y-103468117D01*
X56904524Y-103473082D01*
X56901709Y-103473359D01*
X56892096Y-103475272D01*
X56883041Y-103479023D01*
X56874891Y-103484469D01*
X56867961Y-103491400D01*
X56862516Y-103499550D01*
X56858765Y-103508605D01*
X56856854Y-103518218D01*
X56856854Y-103528020D01*
X56858767Y-103537633D01*
X56862518Y-103546688D01*
X56867964Y-103554838D01*
X56874733Y-103561606D01*
X56896227Y-103587797D01*
X56912145Y-103617578D01*
X56921949Y-103649895D01*
X56925500Y-103685954D01*
X56925500Y-104126046D01*
X56921949Y-104162105D01*
X56912145Y-104194422D01*
X56896227Y-104224203D01*
X56874806Y-104250306D01*
X56848703Y-104271727D01*
X56818922Y-104287645D01*
X56786605Y-104297449D01*
X56750546Y-104301000D01*
X56260454Y-104301000D01*
X56224395Y-104297449D01*
X56192078Y-104287645D01*
X56162297Y-104271727D01*
X56136194Y-104250306D01*
X56114773Y-104224203D01*
X56098855Y-104194422D01*
X56089051Y-104162105D01*
X56085500Y-104126046D01*
X56085500Y-103685954D01*
X56089051Y-103649895D01*
X56098855Y-103617578D01*
X56114773Y-103587797D01*
X56137231Y-103560431D01*
X56141857Y-103555806D01*
X56147303Y-103547657D01*
X56151055Y-103538602D01*
X56152968Y-103528989D01*
X56152969Y-103519187D01*
X56151057Y-103509574D01*
X56147307Y-103500518D01*
X56141862Y-103492368D01*
X56134932Y-103485437D01*
X56126783Y-103479991D01*
X56117728Y-103476239D01*
X56108111Y-103474326D01*
X56095475Y-103473082D01*
X56079108Y-103468117D01*
X56064022Y-103460052D01*
X56050799Y-103449201D01*
X56038649Y-103434396D01*
X56031719Y-103427465D01*
X56023569Y-103422020D01*
X56014513Y-103418269D01*
X56004900Y-103416357D01*
X55995099Y-103416357D01*
X55985486Y-103418269D01*
X55976430Y-103422020D01*
X55968281Y-103427466D01*
X55961351Y-103434396D01*
X55949201Y-103449201D01*
X55935978Y-103460052D01*
X55920892Y-103468117D01*
X55904525Y-103473082D01*
X55885046Y-103475000D01*
X55614954Y-103475000D01*
X55595475Y-103473082D01*
X55579108Y-103468117D01*
X55564022Y-103460052D01*
X55550799Y-103449201D01*
X55538649Y-103434396D01*
X55531719Y-103427465D01*
X55523569Y-103422020D01*
X55514513Y-103418269D01*
X55504900Y-103416357D01*
X55495099Y-103416357D01*
X55485486Y-103418269D01*
X55476430Y-103422020D01*
X55468281Y-103427466D01*
X55461351Y-103434396D01*
X55449201Y-103449201D01*
X55435978Y-103460052D01*
X55420892Y-103468117D01*
X55404525Y-103473082D01*
X55385046Y-103475000D01*
X55114954Y-103475000D01*
X55095475Y-103473082D01*
X55079108Y-103468117D01*
X55064022Y-103460052D01*
X55050799Y-103449201D01*
X55038649Y-103434396D01*
X55031719Y-103427465D01*
X55023569Y-103422020D01*
X55014513Y-103418269D01*
X55004900Y-103416357D01*
X54995099Y-103416357D01*
X54985486Y-103418269D01*
X54976430Y-103422020D01*
X54968281Y-103427466D01*
X54961351Y-103434396D01*
X54949201Y-103449201D01*
X54935978Y-103460052D01*
X54920892Y-103468117D01*
X54904525Y-103473082D01*
X54885046Y-103475000D01*
X54614954Y-103475000D01*
X54595475Y-103473082D01*
X54579108Y-103468117D01*
X54564022Y-103460052D01*
X54550799Y-103449201D01*
X54538649Y-103434396D01*
X54531719Y-103427465D01*
X54523569Y-103422020D01*
X54514513Y-103418269D01*
X54504900Y-103416357D01*
X54495099Y-103416357D01*
X54485486Y-103418269D01*
X54476430Y-103422020D01*
X54468281Y-103427466D01*
X54461351Y-103434396D01*
X54449201Y-103449201D01*
X54435978Y-103460052D01*
X54420892Y-103468117D01*
X54404525Y-103473082D01*
X54385046Y-103475000D01*
X54114954Y-103475000D01*
X54095475Y-103473082D01*
X54079108Y-103468117D01*
X54064022Y-103460052D01*
X54050799Y-103449201D01*
X54039948Y-103435978D01*
X54031883Y-103420892D01*
X54026918Y-103404525D01*
X54025000Y-103385046D01*
X54025000Y-102524999D01*
X54024039Y-102515245D01*
X54021194Y-102505865D01*
X54016574Y-102497221D01*
X54010356Y-102489644D01*
X54002779Y-102483426D01*
X53994135Y-102478806D01*
X53984755Y-102475961D01*
X53975001Y-102475000D01*
X53114954Y-102475000D01*
X53095475Y-102473082D01*
X53079108Y-102468117D01*
X53064022Y-102460052D01*
X53050799Y-102449201D01*
X53039948Y-102435978D01*
X53031883Y-102420892D01*
X53026918Y-102404525D01*
X53025000Y-102385046D01*
X53025000Y-102114954D01*
X53026918Y-102095475D01*
X53031883Y-102079108D01*
X53039948Y-102064022D01*
X53050799Y-102050799D01*
X53065604Y-102038649D01*
X53072535Y-102031719D01*
X53077980Y-102023569D01*
X53081731Y-102014513D01*
X53083643Y-102004900D01*
X53083643Y-101995099D01*
X53081731Y-101985486D01*
X53077980Y-101976430D01*
X53072534Y-101968281D01*
X53065604Y-101961351D01*
X53050799Y-101949201D01*
X53039948Y-101935978D01*
X53031883Y-101920892D01*
X53026918Y-101904525D01*
X53025000Y-101885046D01*
X53025000Y-101614954D01*
X53026918Y-101595475D01*
X53031883Y-101579108D01*
X53039948Y-101564022D01*
X53050799Y-101550799D01*
X53065604Y-101538649D01*
X53072535Y-101531719D01*
X53077980Y-101523569D01*
X53081731Y-101514513D01*
X53083643Y-101504900D01*
X53083643Y-101495099D01*
X53081731Y-101485486D01*
X53077980Y-101476430D01*
X53072534Y-101468281D01*
X53065604Y-101461351D01*
X53050799Y-101449201D01*
X53039948Y-101435978D01*
X53031883Y-101420892D01*
X53026918Y-101404525D01*
X53025000Y-101385046D01*
X53025000Y-101114954D01*
X53026918Y-101095475D01*
X53031883Y-101079108D01*
X53039948Y-101064022D01*
X53050799Y-101050799D01*
X53065604Y-101038649D01*
X53072535Y-101031719D01*
X53077980Y-101023569D01*
X53081731Y-101014513D01*
X53083643Y-101004900D01*
X53083643Y-100995099D01*
X53081731Y-100985486D01*
X53077980Y-100976430D01*
X53072534Y-100968281D01*
X53065604Y-100961351D01*
X53050799Y-100949201D01*
X53039948Y-100935978D01*
X53031883Y-100920892D01*
X53026918Y-100904525D01*
X53025000Y-100885046D01*
X53025000Y-100614954D01*
X53026918Y-100595475D01*
X53031883Y-100579108D01*
X53039948Y-100564022D01*
X53050799Y-100550799D01*
X53065604Y-100538649D01*
X53072535Y-100531719D01*
X53077980Y-100523569D01*
X53081731Y-100514513D01*
X53083643Y-100504900D01*
X53083643Y-100495099D01*
X53081731Y-100485486D01*
X53077980Y-100476430D01*
X53072534Y-100468281D01*
X53065604Y-100461351D01*
X53050799Y-100449201D01*
X53039948Y-100435978D01*
X53031883Y-100420892D01*
X53026918Y-100404525D01*
X53025000Y-100385046D01*
X53025000Y-100114954D01*
X53026918Y-100095475D01*
X53031883Y-100079108D01*
X53039948Y-100064022D01*
X53050799Y-100050799D01*
X53065604Y-100038649D01*
X53072535Y-100031719D01*
X53077980Y-100023569D01*
X53081731Y-100014513D01*
X53083643Y-100004900D01*
X53083643Y-99995099D01*
X53081731Y-99985486D01*
X53077980Y-99976430D01*
X53072534Y-99968281D01*
X53065604Y-99961351D01*
X53050799Y-99949201D01*
X53039948Y-99935978D01*
X53031883Y-99920892D01*
X53026918Y-99904525D01*
X53025000Y-99885046D01*
X53025000Y-99614954D01*
X53026918Y-99595475D01*
X53031883Y-99579108D01*
X53039948Y-99564022D01*
X53050799Y-99550799D01*
X53065604Y-99538649D01*
X53072535Y-99531719D01*
X53077980Y-99523569D01*
X53081731Y-99514513D01*
X53083643Y-99504900D01*
X53083643Y-99495099D01*
X53081731Y-99485486D01*
X53077980Y-99476430D01*
X53072534Y-99468281D01*
X53065604Y-99461351D01*
X53050799Y-99449201D01*
X53039948Y-99435978D01*
X53031883Y-99420892D01*
X53026918Y-99404525D01*
X53025000Y-99385046D01*
X53025000Y-99114954D01*
X53026918Y-99095475D01*
X53031883Y-99079108D01*
X53039948Y-99064022D01*
X53050799Y-99050799D01*
X53065604Y-99038649D01*
X53072535Y-99031719D01*
X53077980Y-99023569D01*
X53081731Y-99014513D01*
X53083643Y-99004900D01*
X53083643Y-98995099D01*
X53081731Y-98985486D01*
X53077980Y-98976430D01*
X53072534Y-98968281D01*
X53065604Y-98961351D01*
X53050799Y-98949201D01*
X53039948Y-98935978D01*
X53031883Y-98920892D01*
X53026918Y-98904525D01*
X53025000Y-98885046D01*
X53025000Y-98614954D01*
X53026918Y-98595475D01*
X53031883Y-98579108D01*
X53039948Y-98564022D01*
X53050799Y-98550799D01*
X53065604Y-98538649D01*
X53072535Y-98531719D01*
X53077980Y-98523569D01*
X53081731Y-98514513D01*
X53083643Y-98504900D01*
X53083643Y-98495099D01*
X53081731Y-98485486D01*
X53077980Y-98476430D01*
X53072534Y-98468281D01*
X53065604Y-98461351D01*
X53050799Y-98449201D01*
X53039948Y-98435978D01*
X53031883Y-98420892D01*
X53026918Y-98404525D01*
X53025000Y-98385046D01*
X53025000Y-98114954D01*
X53026918Y-98095475D01*
X53031883Y-98079108D01*
X53039948Y-98064022D01*
X53050799Y-98050799D01*
X53065604Y-98038649D01*
X53072535Y-98031719D01*
X53077980Y-98023569D01*
X53081731Y-98014513D01*
X53083643Y-98004900D01*
X53083643Y-97995099D01*
X53081731Y-97985486D01*
X53077980Y-97976430D01*
X53072534Y-97968281D01*
X53065604Y-97961351D01*
X53050799Y-97949201D01*
X53039948Y-97935978D01*
X53031883Y-97920892D01*
X53026918Y-97904525D01*
X53025000Y-97885046D01*
X53025000Y-97614954D01*
X53026918Y-97595475D01*
X53031883Y-97579108D01*
X53039948Y-97564022D01*
X53050799Y-97550799D01*
X53065604Y-97538649D01*
X53072535Y-97531719D01*
X53077980Y-97523569D01*
X53081731Y-97514513D01*
X53083643Y-97504900D01*
X53083643Y-97495099D01*
X53081731Y-97485486D01*
X53077980Y-97476430D01*
X53072534Y-97468281D01*
X53065604Y-97461351D01*
X53050799Y-97449201D01*
X53039948Y-97435978D01*
X53031883Y-97420892D01*
X53026918Y-97404525D01*
X53025000Y-97385046D01*
X53025000Y-97114954D01*
X53026918Y-97095475D01*
X53031883Y-97079108D01*
X53039948Y-97064022D01*
X53050799Y-97050799D01*
X53065604Y-97038649D01*
X53072535Y-97031719D01*
X53077980Y-97023569D01*
X53081731Y-97014513D01*
X53083643Y-97004900D01*
X53083643Y-96995099D01*
X53081731Y-96985486D01*
X53077980Y-96976430D01*
X53072534Y-96968281D01*
X53065604Y-96961351D01*
X53050799Y-96949201D01*
X53039948Y-96935978D01*
X53031883Y-96920892D01*
X53026918Y-96904525D01*
X53025000Y-96885046D01*
X53025000Y-96614954D01*
X53026918Y-96595475D01*
X53031883Y-96579108D01*
X53039948Y-96564022D01*
X53050799Y-96550799D01*
X53065604Y-96538649D01*
X53072535Y-96531719D01*
X53077980Y-96523569D01*
X53081731Y-96514513D01*
X53083643Y-96504900D01*
X53083643Y-96495099D01*
X53081731Y-96485486D01*
X53077980Y-96476430D01*
X53072534Y-96468281D01*
X53065604Y-96461351D01*
X53050799Y-96449201D01*
X53039948Y-96435978D01*
X53031883Y-96420892D01*
X53026918Y-96404525D01*
X53025000Y-96385046D01*
X53025000Y-96114954D01*
X53026918Y-96095475D01*
X53031883Y-96079108D01*
X53039948Y-96064022D01*
X53050799Y-96050799D01*
X53065604Y-96038649D01*
X53072535Y-96031719D01*
X53077980Y-96023569D01*
X53081731Y-96014513D01*
X53083643Y-96004900D01*
X53083643Y-95995099D01*
X53081731Y-95985486D01*
X53077980Y-95976430D01*
X53072534Y-95968281D01*
X53065604Y-95961351D01*
X53050799Y-95949201D01*
X53039948Y-95935978D01*
X53031883Y-95920892D01*
X53026918Y-95904525D01*
X53025000Y-95885046D01*
X53025000Y-95614954D01*
X53026918Y-95595475D01*
X53031883Y-95579108D01*
X53039948Y-95564022D01*
X53050799Y-95550799D01*
X53065604Y-95538649D01*
X53072535Y-95531719D01*
X53077980Y-95523569D01*
X53081731Y-95514513D01*
X53083643Y-95504900D01*
X53083643Y-95495099D01*
X53081731Y-95485486D01*
X53077980Y-95476430D01*
X53072534Y-95468281D01*
X53065604Y-95461351D01*
X53050799Y-95449201D01*
X53039948Y-95435978D01*
X53031883Y-95420892D01*
X53026918Y-95404525D01*
X53025000Y-95385046D01*
X53025000Y-95114954D01*
X53026918Y-95095475D01*
X53031883Y-95079108D01*
X53039948Y-95064022D01*
X53050799Y-95050799D01*
X53065604Y-95038649D01*
X53072535Y-95031719D01*
X53077980Y-95023569D01*
X53081731Y-95014513D01*
X53083643Y-95004900D01*
X53083643Y-94995100D01*
X54041357Y-94995100D01*
X54041357Y-95004901D01*
X54043269Y-95014514D01*
X54047020Y-95023570D01*
X54052466Y-95031719D01*
X54059396Y-95038649D01*
X54074201Y-95050799D01*
X54085052Y-95064022D01*
X54093117Y-95079108D01*
X54098082Y-95095475D01*
X54100000Y-95114954D01*
X54100000Y-95385046D01*
X54098082Y-95404525D01*
X54093117Y-95420892D01*
X54085052Y-95435978D01*
X54074201Y-95449201D01*
X54059396Y-95461351D01*
X54052465Y-95468281D01*
X54047020Y-95476431D01*
X54043269Y-95485487D01*
X54041357Y-95495100D01*
X54041357Y-95504901D01*
X54043269Y-95514514D01*
X54047020Y-95523570D01*
X54052466Y-95531719D01*
X54059396Y-95538649D01*
X54074201Y-95550799D01*
X54085052Y-95564022D01*
X54093117Y-95579108D01*
X54098082Y-95595475D01*
X54100000Y-95614954D01*
X54100000Y-95885046D01*
X54098082Y-95904525D01*
X54093117Y-95920892D01*
X54085052Y-95935978D01*
X54074201Y-95949201D01*
X54059396Y-95961351D01*
X54052465Y-95968281D01*
X54047020Y-95976431D01*
X54043269Y-95985487D01*
X54041357Y-95995100D01*
X54041357Y-96004901D01*
X54043269Y-96014514D01*
X54047020Y-96023570D01*
X54052466Y-96031719D01*
X54059396Y-96038649D01*
X54074201Y-96050799D01*
X54085052Y-96064022D01*
X54093117Y-96079108D01*
X54098082Y-96095475D01*
X54100000Y-96114954D01*
X54100000Y-96385046D01*
X54098082Y-96404525D01*
X54093117Y-96420892D01*
X54085052Y-96435978D01*
X54074201Y-96449201D01*
X54059396Y-96461351D01*
X54052465Y-96468281D01*
X54047020Y-96476431D01*
X54043269Y-96485487D01*
X54041357Y-96495100D01*
X54041357Y-96504901D01*
X54043269Y-96514514D01*
X54047020Y-96523570D01*
X54052466Y-96531719D01*
X54059396Y-96538649D01*
X54074201Y-96550799D01*
X54085052Y-96564022D01*
X54093117Y-96579108D01*
X54098082Y-96595475D01*
X54100000Y-96614954D01*
X54100000Y-96885046D01*
X54098082Y-96904525D01*
X54093117Y-96920892D01*
X54085052Y-96935978D01*
X54074201Y-96949201D01*
X54059396Y-96961351D01*
X54052465Y-96968281D01*
X54047020Y-96976431D01*
X54043269Y-96985487D01*
X54041357Y-96995100D01*
X54041357Y-97004901D01*
X54043269Y-97014514D01*
X54047020Y-97023570D01*
X54052466Y-97031719D01*
X54059396Y-97038649D01*
X54074201Y-97050799D01*
X54085052Y-97064022D01*
X54093117Y-97079108D01*
X54098082Y-97095475D01*
X54100000Y-97114954D01*
X54100000Y-97385046D01*
X54098082Y-97404525D01*
X54093117Y-97420892D01*
X54085052Y-97435978D01*
X54074201Y-97449201D01*
X54059396Y-97461351D01*
X54052465Y-97468281D01*
X54047020Y-97476431D01*
X54043269Y-97485487D01*
X54041357Y-97495100D01*
X54041357Y-97504901D01*
X54043269Y-97514514D01*
X54047020Y-97523570D01*
X54052466Y-97531719D01*
X54059396Y-97538649D01*
X54074201Y-97550799D01*
X54085052Y-97564022D01*
X54093117Y-97579108D01*
X54098082Y-97595475D01*
X54100000Y-97614954D01*
X54100000Y-97885046D01*
X54098082Y-97904525D01*
X54093117Y-97920892D01*
X54085052Y-97935978D01*
X54074201Y-97949201D01*
X54059396Y-97961351D01*
X54052465Y-97968281D01*
X54047020Y-97976431D01*
X54043269Y-97985487D01*
X54041357Y-97995100D01*
X54041357Y-98004901D01*
X54043269Y-98014514D01*
X54047020Y-98023570D01*
X54052466Y-98031719D01*
X54059396Y-98038649D01*
X54074201Y-98050799D01*
X54085052Y-98064022D01*
X54093117Y-98079108D01*
X54098082Y-98095475D01*
X54100000Y-98114954D01*
X54100000Y-98385046D01*
X54098082Y-98404525D01*
X54093117Y-98420892D01*
X54085052Y-98435978D01*
X54074201Y-98449201D01*
X54059396Y-98461351D01*
X54052465Y-98468281D01*
X54047020Y-98476431D01*
X54043269Y-98485487D01*
X54041357Y-98495100D01*
X54041357Y-98504901D01*
X54043269Y-98514514D01*
X54047020Y-98523570D01*
X54052466Y-98531719D01*
X54059396Y-98538649D01*
X54074201Y-98550799D01*
X54085052Y-98564022D01*
X54093117Y-98579108D01*
X54098082Y-98595475D01*
X54100000Y-98614954D01*
X54100000Y-98885046D01*
X54098082Y-98904525D01*
X54093117Y-98920892D01*
X54085052Y-98935978D01*
X54074201Y-98949201D01*
X54059396Y-98961351D01*
X54052465Y-98968281D01*
X54047020Y-98976431D01*
X54043269Y-98985487D01*
X54041357Y-98995100D01*
X54041357Y-99004901D01*
X54043269Y-99014514D01*
X54047020Y-99023570D01*
X54052466Y-99031719D01*
X54059396Y-99038649D01*
X54074201Y-99050799D01*
X54085052Y-99064022D01*
X54093117Y-99079108D01*
X54098082Y-99095475D01*
X54100000Y-99114954D01*
X54100000Y-99385046D01*
X54098082Y-99404525D01*
X54093117Y-99420892D01*
X54085052Y-99435978D01*
X54074201Y-99449201D01*
X54059396Y-99461351D01*
X54052465Y-99468281D01*
X54047020Y-99476431D01*
X54043269Y-99485487D01*
X54041357Y-99495100D01*
X54041357Y-99504901D01*
X54043269Y-99514514D01*
X54047020Y-99523570D01*
X54052466Y-99531719D01*
X54059396Y-99538649D01*
X54074201Y-99550799D01*
X54085052Y-99564022D01*
X54093117Y-99579108D01*
X54098082Y-99595475D01*
X54100000Y-99614954D01*
X54100000Y-99885046D01*
X54098082Y-99904525D01*
X54093117Y-99920892D01*
X54085052Y-99935978D01*
X54074201Y-99949201D01*
X54059396Y-99961351D01*
X54052465Y-99968281D01*
X54047020Y-99976431D01*
X54043269Y-99985487D01*
X54041357Y-99995100D01*
X54041357Y-100004901D01*
X54043269Y-100014514D01*
X54047020Y-100023570D01*
X54052466Y-100031719D01*
X54059396Y-100038649D01*
X54074201Y-100050799D01*
X54085052Y-100064022D01*
X54093117Y-100079108D01*
X54098082Y-100095475D01*
X54100000Y-100114954D01*
X54100000Y-100385046D01*
X54098082Y-100404525D01*
X54093117Y-100420892D01*
X54085052Y-100435978D01*
X54074201Y-100449201D01*
X54059396Y-100461351D01*
X54052465Y-100468281D01*
X54047020Y-100476431D01*
X54043269Y-100485487D01*
X54041357Y-100495100D01*
X54041357Y-100504901D01*
X54043269Y-100514514D01*
X54047020Y-100523570D01*
X54052466Y-100531719D01*
X54059396Y-100538649D01*
X54074201Y-100550799D01*
X54085052Y-100564022D01*
X54093117Y-100579108D01*
X54098082Y-100595475D01*
X54100000Y-100614954D01*
X54100000Y-100885046D01*
X54098082Y-100904525D01*
X54093117Y-100920892D01*
X54085052Y-100935978D01*
X54074201Y-100949201D01*
X54059396Y-100961351D01*
X54052465Y-100968281D01*
X54047020Y-100976431D01*
X54043269Y-100985487D01*
X54041357Y-100995100D01*
X54041357Y-101004901D01*
X54043269Y-101014514D01*
X54047020Y-101023570D01*
X54052466Y-101031719D01*
X54059396Y-101038649D01*
X54074201Y-101050799D01*
X54085052Y-101064022D01*
X54093117Y-101079108D01*
X54098082Y-101095475D01*
X54100000Y-101114954D01*
X54100000Y-101385046D01*
X54098082Y-101404525D01*
X54093117Y-101420892D01*
X54085052Y-101435978D01*
X54074201Y-101449201D01*
X54059396Y-101461351D01*
X54052465Y-101468281D01*
X54047020Y-101476431D01*
X54043269Y-101485487D01*
X54041357Y-101495100D01*
X54041357Y-101504901D01*
X54043269Y-101514514D01*
X54047020Y-101523570D01*
X54052466Y-101531719D01*
X54059396Y-101538649D01*
X54074201Y-101550799D01*
X54085052Y-101564022D01*
X54093117Y-101579108D01*
X54098082Y-101595475D01*
X54100000Y-101614954D01*
X54100000Y-101885046D01*
X54098082Y-101904525D01*
X54093117Y-101920892D01*
X54085052Y-101935978D01*
X54074201Y-101949201D01*
X54059396Y-101961351D01*
X54052465Y-101968281D01*
X54047020Y-101976431D01*
X54043269Y-101985487D01*
X54041357Y-101995100D01*
X54041357Y-102004901D01*
X54043269Y-102014514D01*
X54047020Y-102023570D01*
X54052466Y-102031719D01*
X54059396Y-102038649D01*
X54074201Y-102050799D01*
X54085052Y-102064022D01*
X54093117Y-102079108D01*
X54098082Y-102095475D01*
X54100000Y-102114954D01*
X54100000Y-102350001D01*
X54100961Y-102359755D01*
X54103806Y-102369135D01*
X54108426Y-102377779D01*
X54114644Y-102385356D01*
X54122221Y-102391574D01*
X54130865Y-102396194D01*
X54140245Y-102399039D01*
X54149999Y-102400000D01*
X54385046Y-102400000D01*
X54404525Y-102401918D01*
X54420892Y-102406883D01*
X54435978Y-102414948D01*
X54449201Y-102425799D01*
X54461351Y-102440604D01*
X54468281Y-102447535D01*
X54476431Y-102452980D01*
X54485487Y-102456731D01*
X54495100Y-102458643D01*
X54504901Y-102458643D01*
X54514514Y-102456731D01*
X54523570Y-102452980D01*
X54531719Y-102447534D01*
X54538649Y-102440604D01*
X54550799Y-102425799D01*
X54564022Y-102414948D01*
X54579108Y-102406883D01*
X54595475Y-102401918D01*
X54614954Y-102400000D01*
X54885046Y-102400000D01*
X54904525Y-102401918D01*
X54920892Y-102406883D01*
X54935978Y-102414948D01*
X54949201Y-102425799D01*
X54961351Y-102440604D01*
X54968281Y-102447535D01*
X54976431Y-102452980D01*
X54985487Y-102456731D01*
X54995100Y-102458643D01*
X55004901Y-102458643D01*
X55014514Y-102456731D01*
X55023570Y-102452980D01*
X55031719Y-102447534D01*
X55038649Y-102440604D01*
X55050799Y-102425799D01*
X55064022Y-102414948D01*
X55079108Y-102406883D01*
X55095475Y-102401918D01*
X55114954Y-102400000D01*
X55385046Y-102400000D01*
X55404525Y-102401918D01*
X55420892Y-102406883D01*
X55435978Y-102414948D01*
X55449201Y-102425799D01*
X55461351Y-102440604D01*
X55468281Y-102447535D01*
X55476431Y-102452980D01*
X55485487Y-102456731D01*
X55495100Y-102458643D01*
X55504901Y-102458643D01*
X55514514Y-102456731D01*
X55523570Y-102452980D01*
X55531719Y-102447534D01*
X55538649Y-102440604D01*
X55550799Y-102425799D01*
X55564022Y-102414948D01*
X55579108Y-102406883D01*
X55595475Y-102401918D01*
X55614954Y-102400000D01*
X55885046Y-102400000D01*
X55904525Y-102401918D01*
X55920892Y-102406883D01*
X55935978Y-102414948D01*
X55949201Y-102425799D01*
X55961351Y-102440604D01*
X55968281Y-102447535D01*
X55976431Y-102452980D01*
X55985487Y-102456731D01*
X55995100Y-102458643D01*
X56004901Y-102458643D01*
X56014514Y-102456731D01*
X56023570Y-102452980D01*
X56031719Y-102447534D01*
X56038649Y-102440604D01*
X56050799Y-102425799D01*
X56064022Y-102414948D01*
X56079108Y-102406883D01*
X56095475Y-102401918D01*
X56114954Y-102400000D01*
X56385046Y-102400000D01*
X56404525Y-102401918D01*
X56420892Y-102406883D01*
X56435978Y-102414948D01*
X56449201Y-102425799D01*
X56461351Y-102440604D01*
X56468281Y-102447535D01*
X56476431Y-102452980D01*
X56485487Y-102456731D01*
X56495100Y-102458643D01*
X56504901Y-102458643D01*
X56514514Y-102456731D01*
X56523570Y-102452980D01*
X56531719Y-102447534D01*
X56538649Y-102440604D01*
X56550799Y-102425799D01*
X56564022Y-102414948D01*
X56579108Y-102406883D01*
X56595475Y-102401918D01*
X56614954Y-102400000D01*
X56885046Y-102400000D01*
X56904525Y-102401918D01*
X56920892Y-102406883D01*
X56935978Y-102414948D01*
X56949201Y-102425799D01*
X56961351Y-102440604D01*
X56968281Y-102447535D01*
X56976431Y-102452980D01*
X56985487Y-102456731D01*
X56995100Y-102458643D01*
X57004901Y-102458643D01*
X57014514Y-102456731D01*
X57023570Y-102452980D01*
X57031719Y-102447534D01*
X57038649Y-102440604D01*
X57050799Y-102425799D01*
X57064022Y-102414948D01*
X57079108Y-102406883D01*
X57095475Y-102401918D01*
X57114954Y-102400000D01*
X57385046Y-102400000D01*
X57404525Y-102401918D01*
X57420892Y-102406883D01*
X57435978Y-102414948D01*
X57449201Y-102425799D01*
X57461351Y-102440604D01*
X57468281Y-102447535D01*
X57476431Y-102452980D01*
X57485487Y-102456731D01*
X57495100Y-102458643D01*
X57504901Y-102458643D01*
X57514514Y-102456731D01*
X57523570Y-102452980D01*
X57531719Y-102447534D01*
X57538649Y-102440604D01*
X57550799Y-102425799D01*
X57564022Y-102414948D01*
X57579108Y-102406883D01*
X57595475Y-102401918D01*
X57614954Y-102400000D01*
X57885046Y-102400000D01*
X57904525Y-102401918D01*
X57920892Y-102406883D01*
X57935978Y-102414948D01*
X57949201Y-102425799D01*
X57961351Y-102440604D01*
X57968281Y-102447535D01*
X57976431Y-102452980D01*
X57985487Y-102456731D01*
X57995100Y-102458643D01*
X58004901Y-102458643D01*
X58014514Y-102456731D01*
X58023570Y-102452980D01*
X58031719Y-102447534D01*
X58038649Y-102440604D01*
X58050799Y-102425799D01*
X58064022Y-102414948D01*
X58079108Y-102406883D01*
X58095475Y-102401918D01*
X58114954Y-102400000D01*
X58385046Y-102400000D01*
X58404525Y-102401918D01*
X58420892Y-102406883D01*
X58435978Y-102414948D01*
X58449201Y-102425799D01*
X58461351Y-102440604D01*
X58468281Y-102447535D01*
X58476431Y-102452980D01*
X58485487Y-102456731D01*
X58495100Y-102458643D01*
X58504901Y-102458643D01*
X58514514Y-102456731D01*
X58523570Y-102452980D01*
X58531719Y-102447534D01*
X58538649Y-102440604D01*
X58550799Y-102425799D01*
X58564022Y-102414948D01*
X58579108Y-102406883D01*
X58595475Y-102401918D01*
X58614954Y-102400000D01*
X58885046Y-102400000D01*
X58904525Y-102401918D01*
X58920892Y-102406883D01*
X58935978Y-102414948D01*
X58949201Y-102425799D01*
X58961351Y-102440604D01*
X58968281Y-102447535D01*
X58976431Y-102452980D01*
X58985487Y-102456731D01*
X58995100Y-102458643D01*
X59004901Y-102458643D01*
X59014514Y-102456731D01*
X59023570Y-102452980D01*
X59031719Y-102447534D01*
X59038649Y-102440604D01*
X59050799Y-102425799D01*
X59064022Y-102414948D01*
X59079108Y-102406883D01*
X59095475Y-102401918D01*
X59114954Y-102400000D01*
X59385046Y-102400000D01*
X59404525Y-102401918D01*
X59420892Y-102406883D01*
X59435978Y-102414948D01*
X59449201Y-102425799D01*
X59461351Y-102440604D01*
X59468281Y-102447535D01*
X59476431Y-102452980D01*
X59485487Y-102456731D01*
X59495100Y-102458643D01*
X59504901Y-102458643D01*
X59514514Y-102456731D01*
X59523570Y-102452980D01*
X59531719Y-102447534D01*
X59538649Y-102440604D01*
X59550799Y-102425799D01*
X59564022Y-102414948D01*
X59579108Y-102406883D01*
X59595475Y-102401918D01*
X59614954Y-102400000D01*
X59885046Y-102400000D01*
X59904525Y-102401918D01*
X59920892Y-102406883D01*
X59935978Y-102414948D01*
X59949201Y-102425799D01*
X59961351Y-102440604D01*
X59968281Y-102447535D01*
X59976431Y-102452980D01*
X59985487Y-102456731D01*
X59995100Y-102458643D01*
X60004901Y-102458643D01*
X60014514Y-102456731D01*
X60023570Y-102452980D01*
X60031719Y-102447534D01*
X60038649Y-102440604D01*
X60050799Y-102425799D01*
X60064022Y-102414948D01*
X60079108Y-102406883D01*
X60095475Y-102401918D01*
X60114954Y-102400000D01*
X60385046Y-102400000D01*
X60404525Y-102401918D01*
X60420892Y-102406883D01*
X60435978Y-102414948D01*
X60449201Y-102425799D01*
X60461351Y-102440604D01*
X60468281Y-102447535D01*
X60476431Y-102452980D01*
X60485487Y-102456731D01*
X60495100Y-102458643D01*
X60504901Y-102458643D01*
X60514514Y-102456731D01*
X60523570Y-102452980D01*
X60531719Y-102447534D01*
X60538649Y-102440604D01*
X60550799Y-102425799D01*
X60564022Y-102414948D01*
X60579108Y-102406883D01*
X60595475Y-102401918D01*
X60614954Y-102400000D01*
X60885046Y-102400000D01*
X60904525Y-102401918D01*
X60920892Y-102406883D01*
X60935978Y-102414948D01*
X60949201Y-102425799D01*
X60961351Y-102440604D01*
X60968281Y-102447535D01*
X60976431Y-102452980D01*
X60985487Y-102456731D01*
X60995100Y-102458643D01*
X61004901Y-102458643D01*
X61014514Y-102456731D01*
X61023570Y-102452980D01*
X61031719Y-102447534D01*
X61038649Y-102440604D01*
X61050799Y-102425799D01*
X61064022Y-102414948D01*
X61079108Y-102406883D01*
X61095475Y-102401918D01*
X61114954Y-102400000D01*
X61385046Y-102400000D01*
X61404525Y-102401918D01*
X61420892Y-102406883D01*
X61435978Y-102414948D01*
X61449201Y-102425799D01*
X61461351Y-102440604D01*
X61468281Y-102447535D01*
X61476431Y-102452980D01*
X61485487Y-102456731D01*
X61495100Y-102458643D01*
X61504901Y-102458643D01*
X61514514Y-102456731D01*
X61523570Y-102452980D01*
X61531719Y-102447534D01*
X61538649Y-102440604D01*
X61550799Y-102425799D01*
X61564022Y-102414948D01*
X61579108Y-102406883D01*
X61595475Y-102401918D01*
X61614954Y-102400000D01*
X61850001Y-102400000D01*
X61859755Y-102399039D01*
X61869135Y-102396194D01*
X61877779Y-102391574D01*
X61885356Y-102385356D01*
X61891574Y-102377779D01*
X61896194Y-102369135D01*
X61899039Y-102359755D01*
X61900000Y-102350001D01*
X61900000Y-102114954D01*
X61901918Y-102095475D01*
X61906883Y-102079108D01*
X61914948Y-102064022D01*
X61925799Y-102050799D01*
X61940604Y-102038649D01*
X61947535Y-102031719D01*
X61952980Y-102023569D01*
X61956731Y-102014513D01*
X61958643Y-102004900D01*
X61958643Y-101995099D01*
X61956731Y-101985486D01*
X61952980Y-101976430D01*
X61947534Y-101968281D01*
X61940604Y-101961351D01*
X61925799Y-101949201D01*
X61914948Y-101935978D01*
X61906883Y-101920892D01*
X61901918Y-101904525D01*
X61900000Y-101885046D01*
X61900000Y-101614954D01*
X61901918Y-101595475D01*
X61906883Y-101579108D01*
X61914948Y-101564022D01*
X61925799Y-101550799D01*
X61940604Y-101538649D01*
X61947535Y-101531719D01*
X61952980Y-101523569D01*
X61956731Y-101514513D01*
X61958643Y-101504900D01*
X61958643Y-101495099D01*
X61956731Y-101485486D01*
X61952980Y-101476430D01*
X61947534Y-101468281D01*
X61940604Y-101461351D01*
X61925799Y-101449201D01*
X61914948Y-101435978D01*
X61906883Y-101420892D01*
X61901918Y-101404525D01*
X61900000Y-101385046D01*
X61900000Y-101114954D01*
X61901918Y-101095475D01*
X61906883Y-101079108D01*
X61914948Y-101064022D01*
X61925799Y-101050799D01*
X61940604Y-101038649D01*
X61947535Y-101031719D01*
X61952980Y-101023569D01*
X61956731Y-101014513D01*
X61958643Y-101004900D01*
X61958643Y-100995099D01*
X61956731Y-100985486D01*
X61952980Y-100976430D01*
X61947534Y-100968281D01*
X61940604Y-100961351D01*
X61925799Y-100949201D01*
X61914948Y-100935978D01*
X61906883Y-100920892D01*
X61901918Y-100904525D01*
X61900000Y-100885046D01*
X61900000Y-100614954D01*
X61901918Y-100595475D01*
X61906883Y-100579108D01*
X61914948Y-100564022D01*
X61925799Y-100550799D01*
X61940604Y-100538649D01*
X61947535Y-100531719D01*
X61952980Y-100523569D01*
X61956731Y-100514513D01*
X61958643Y-100504900D01*
X61958643Y-100495099D01*
X61956731Y-100485486D01*
X61952980Y-100476430D01*
X61947534Y-100468281D01*
X61940604Y-100461351D01*
X61925799Y-100449201D01*
X61914948Y-100435978D01*
X61906883Y-100420892D01*
X61901918Y-100404525D01*
X61900000Y-100385046D01*
X61900000Y-100114954D01*
X61901918Y-100095475D01*
X61906883Y-100079108D01*
X61914948Y-100064022D01*
X61925799Y-100050799D01*
X61940604Y-100038649D01*
X61947535Y-100031719D01*
X61952980Y-100023569D01*
X61956731Y-100014513D01*
X61958643Y-100004900D01*
X61958643Y-99995099D01*
X61956731Y-99985486D01*
X61952980Y-99976430D01*
X61947534Y-99968281D01*
X61940604Y-99961351D01*
X61925799Y-99949201D01*
X61914948Y-99935978D01*
X61906883Y-99920892D01*
X61901918Y-99904525D01*
X61900000Y-99885046D01*
X61900000Y-99614954D01*
X61901918Y-99595475D01*
X61906883Y-99579108D01*
X61914948Y-99564022D01*
X61925799Y-99550799D01*
X61940604Y-99538649D01*
X61947535Y-99531719D01*
X61952980Y-99523569D01*
X61956731Y-99514513D01*
X61958643Y-99504900D01*
X61958643Y-99495099D01*
X61956731Y-99485486D01*
X61952980Y-99476430D01*
X61947534Y-99468281D01*
X61940604Y-99461351D01*
X61925799Y-99449201D01*
X61914948Y-99435978D01*
X61906883Y-99420892D01*
X61901918Y-99404525D01*
X61900000Y-99385046D01*
X61900000Y-99114954D01*
X61901918Y-99095475D01*
X61906883Y-99079108D01*
X61914948Y-99064022D01*
X61925799Y-99050799D01*
X61940604Y-99038649D01*
X61947535Y-99031719D01*
X61952980Y-99023569D01*
X61956731Y-99014513D01*
X61958643Y-99004900D01*
X61958643Y-98995099D01*
X61956731Y-98985486D01*
X61952980Y-98976430D01*
X61947534Y-98968281D01*
X61940604Y-98961351D01*
X61925799Y-98949201D01*
X61914948Y-98935978D01*
X61906883Y-98920892D01*
X61901918Y-98904525D01*
X61900000Y-98885046D01*
X61900000Y-98614954D01*
X61901918Y-98595475D01*
X61906883Y-98579108D01*
X61914948Y-98564022D01*
X61925799Y-98550799D01*
X61940604Y-98538649D01*
X61947535Y-98531719D01*
X61952980Y-98523569D01*
X61956731Y-98514513D01*
X61958643Y-98504900D01*
X61958643Y-98495099D01*
X61956731Y-98485486D01*
X61952980Y-98476430D01*
X61947534Y-98468281D01*
X61940604Y-98461351D01*
X61925799Y-98449201D01*
X61914948Y-98435978D01*
X61906883Y-98420892D01*
X61901918Y-98404525D01*
X61900000Y-98385046D01*
X61900000Y-98114954D01*
X61901918Y-98095475D01*
X61906883Y-98079108D01*
X61914948Y-98064022D01*
X61925799Y-98050799D01*
X61940604Y-98038649D01*
X61947535Y-98031719D01*
X61952980Y-98023569D01*
X61956731Y-98014513D01*
X61958643Y-98004900D01*
X61958643Y-97995099D01*
X61956731Y-97985486D01*
X61952980Y-97976430D01*
X61947534Y-97968281D01*
X61940604Y-97961351D01*
X61925799Y-97949201D01*
X61914948Y-97935978D01*
X61906883Y-97920892D01*
X61901918Y-97904525D01*
X61900000Y-97885046D01*
X61900000Y-97614954D01*
X61901918Y-97595475D01*
X61906883Y-97579108D01*
X61914948Y-97564022D01*
X61925799Y-97550799D01*
X61940604Y-97538649D01*
X61947535Y-97531719D01*
X61952980Y-97523569D01*
X61956731Y-97514513D01*
X61958643Y-97504900D01*
X61958643Y-97495099D01*
X61956731Y-97485486D01*
X61952980Y-97476430D01*
X61947534Y-97468281D01*
X61940604Y-97461351D01*
X61925799Y-97449201D01*
X61914948Y-97435978D01*
X61906883Y-97420892D01*
X61901918Y-97404525D01*
X61900000Y-97385046D01*
X61900000Y-97114954D01*
X61901918Y-97095475D01*
X61906883Y-97079108D01*
X61914948Y-97064022D01*
X61925799Y-97050799D01*
X61940604Y-97038649D01*
X61947535Y-97031719D01*
X61952980Y-97023569D01*
X61956731Y-97014513D01*
X61958643Y-97004900D01*
X61958643Y-96995099D01*
X61956731Y-96985486D01*
X61952980Y-96976430D01*
X61947534Y-96968281D01*
X61940604Y-96961351D01*
X61925799Y-96949201D01*
X61914948Y-96935978D01*
X61906883Y-96920892D01*
X61901918Y-96904525D01*
X61900000Y-96885046D01*
X61900000Y-96614954D01*
X61901918Y-96595475D01*
X61906883Y-96579108D01*
X61914948Y-96564022D01*
X61925799Y-96550799D01*
X61940604Y-96538649D01*
X61947535Y-96531719D01*
X61952980Y-96523569D01*
X61956731Y-96514513D01*
X61958643Y-96504900D01*
X61958643Y-96495099D01*
X61956731Y-96485486D01*
X61952980Y-96476430D01*
X61947534Y-96468281D01*
X61940604Y-96461351D01*
X61925799Y-96449201D01*
X61914948Y-96435978D01*
X61906883Y-96420892D01*
X61901918Y-96404525D01*
X61900000Y-96385046D01*
X61900000Y-96114954D01*
X61901918Y-96095475D01*
X61906883Y-96079108D01*
X61914948Y-96064022D01*
X61925799Y-96050799D01*
X61940604Y-96038649D01*
X61947535Y-96031719D01*
X61952980Y-96023569D01*
X61956731Y-96014513D01*
X61958643Y-96004900D01*
X61958643Y-95995099D01*
X61956731Y-95985486D01*
X61952980Y-95976430D01*
X61947534Y-95968281D01*
X61940604Y-95961351D01*
X61925799Y-95949201D01*
X61914948Y-95935978D01*
X61906883Y-95920892D01*
X61901918Y-95904525D01*
X61900000Y-95885046D01*
X61900000Y-95614954D01*
X61901918Y-95595475D01*
X61906883Y-95579108D01*
X61914948Y-95564022D01*
X61925799Y-95550799D01*
X61940604Y-95538649D01*
X61947535Y-95531719D01*
X61952980Y-95523569D01*
X61956731Y-95514513D01*
X61958643Y-95504900D01*
X61958643Y-95495099D01*
X61956731Y-95485486D01*
X61952980Y-95476430D01*
X61947534Y-95468281D01*
X61940604Y-95461351D01*
X61925799Y-95449201D01*
X61914948Y-95435978D01*
X61906883Y-95420892D01*
X61901918Y-95404525D01*
X61900000Y-95385046D01*
X61900000Y-95114954D01*
X61901918Y-95095475D01*
X61906883Y-95079108D01*
X61914948Y-95064022D01*
X61925799Y-95050799D01*
X61940604Y-95038649D01*
X61947535Y-95031719D01*
X61952980Y-95023569D01*
X61956731Y-95014513D01*
X61958643Y-95004900D01*
X61958643Y-94995099D01*
X61956731Y-94985486D01*
X61952980Y-94976430D01*
X61947534Y-94968281D01*
X61940604Y-94961351D01*
X61925799Y-94949201D01*
X61914948Y-94935978D01*
X61906883Y-94920892D01*
X61901918Y-94904525D01*
X61900000Y-94885046D01*
X61900000Y-94649999D01*
X61899039Y-94640245D01*
X61896194Y-94630865D01*
X61891574Y-94622221D01*
X61885356Y-94614644D01*
X61877779Y-94608426D01*
X61869135Y-94603806D01*
X61859755Y-94600961D01*
X61850001Y-94600000D01*
X61614954Y-94600000D01*
X61595475Y-94598082D01*
X61579108Y-94593117D01*
X61564022Y-94585052D01*
X61550799Y-94574201D01*
X61538649Y-94559396D01*
X61531719Y-94552465D01*
X61523569Y-94547020D01*
X61514513Y-94543269D01*
X61504900Y-94541357D01*
X61495099Y-94541357D01*
X61485486Y-94543269D01*
X61476430Y-94547020D01*
X61468281Y-94552466D01*
X61461351Y-94559396D01*
X61449201Y-94574201D01*
X61435978Y-94585052D01*
X61420892Y-94593117D01*
X61404525Y-94598082D01*
X61385046Y-94600000D01*
X61114954Y-94600000D01*
X61095475Y-94598082D01*
X61079108Y-94593117D01*
X61064022Y-94585052D01*
X61050799Y-94574201D01*
X61038649Y-94559396D01*
X61031719Y-94552465D01*
X61023569Y-94547020D01*
X61014513Y-94543269D01*
X61004900Y-94541357D01*
X60995099Y-94541357D01*
X60985486Y-94543269D01*
X60976430Y-94547020D01*
X60968281Y-94552466D01*
X60961351Y-94559396D01*
X60949201Y-94574201D01*
X60935978Y-94585052D01*
X60920892Y-94593117D01*
X60904525Y-94598082D01*
X60885046Y-94600000D01*
X60614954Y-94600000D01*
X60595475Y-94598082D01*
X60579108Y-94593117D01*
X60564022Y-94585052D01*
X60550799Y-94574201D01*
X60538649Y-94559396D01*
X60531719Y-94552465D01*
X60523569Y-94547020D01*
X60514513Y-94543269D01*
X60504900Y-94541357D01*
X60495099Y-94541357D01*
X60485486Y-94543269D01*
X60476430Y-94547020D01*
X60468281Y-94552466D01*
X60461351Y-94559396D01*
X60449201Y-94574201D01*
X60435978Y-94585052D01*
X60420892Y-94593117D01*
X60404525Y-94598082D01*
X60385046Y-94600000D01*
X60114954Y-94600000D01*
X60095475Y-94598082D01*
X60079108Y-94593117D01*
X60064022Y-94585052D01*
X60050799Y-94574201D01*
X60038649Y-94559396D01*
X60031719Y-94552465D01*
X60023569Y-94547020D01*
X60014513Y-94543269D01*
X60004900Y-94541357D01*
X59995099Y-94541357D01*
X59985486Y-94543269D01*
X59976430Y-94547020D01*
X59968281Y-94552466D01*
X59961351Y-94559396D01*
X59949201Y-94574201D01*
X59935978Y-94585052D01*
X59920892Y-94593117D01*
X59904525Y-94598082D01*
X59885046Y-94600000D01*
X59614954Y-94600000D01*
X59595475Y-94598082D01*
X59579108Y-94593117D01*
X59564022Y-94585052D01*
X59550799Y-94574201D01*
X59538649Y-94559396D01*
X59531719Y-94552465D01*
X59523569Y-94547020D01*
X59514513Y-94543269D01*
X59504900Y-94541357D01*
X59495099Y-94541357D01*
X59485486Y-94543269D01*
X59476430Y-94547020D01*
X59468281Y-94552466D01*
X59461351Y-94559396D01*
X59449201Y-94574201D01*
X59435978Y-94585052D01*
X59420892Y-94593117D01*
X59404525Y-94598082D01*
X59385046Y-94600000D01*
X59114954Y-94600000D01*
X59095475Y-94598082D01*
X59079108Y-94593117D01*
X59064022Y-94585052D01*
X59050799Y-94574201D01*
X59038649Y-94559396D01*
X59031719Y-94552465D01*
X59023569Y-94547020D01*
X59014513Y-94543269D01*
X59004900Y-94541357D01*
X58995099Y-94541357D01*
X58985486Y-94543269D01*
X58976430Y-94547020D01*
X58968281Y-94552466D01*
X58961351Y-94559396D01*
X58949201Y-94574201D01*
X58935978Y-94585052D01*
X58920892Y-94593117D01*
X58904525Y-94598082D01*
X58885046Y-94600000D01*
X58614954Y-94600000D01*
X58595475Y-94598082D01*
X58579108Y-94593117D01*
X58564022Y-94585052D01*
X58550799Y-94574201D01*
X58538649Y-94559396D01*
X58531719Y-94552465D01*
X58523569Y-94547020D01*
X58514513Y-94543269D01*
X58504900Y-94541357D01*
X58495099Y-94541357D01*
X58485486Y-94543269D01*
X58476430Y-94547020D01*
X58468281Y-94552466D01*
X58461351Y-94559396D01*
X58449201Y-94574201D01*
X58435978Y-94585052D01*
X58420892Y-94593117D01*
X58404525Y-94598082D01*
X58385046Y-94600000D01*
X58114954Y-94600000D01*
X58095475Y-94598082D01*
X58079108Y-94593117D01*
X58064022Y-94585052D01*
X58050799Y-94574201D01*
X58038649Y-94559396D01*
X58031719Y-94552465D01*
X58023569Y-94547020D01*
X58014513Y-94543269D01*
X58004900Y-94541357D01*
X57995099Y-94541357D01*
X57985486Y-94543269D01*
X57976430Y-94547020D01*
X57968281Y-94552466D01*
X57961351Y-94559396D01*
X57949201Y-94574201D01*
X57935978Y-94585052D01*
X57920892Y-94593117D01*
X57904525Y-94598082D01*
X57885046Y-94600000D01*
X57614954Y-94600000D01*
X57595475Y-94598082D01*
X57579108Y-94593117D01*
X57564022Y-94585052D01*
X57550799Y-94574201D01*
X57538649Y-94559396D01*
X57531719Y-94552465D01*
X57523569Y-94547020D01*
X57514513Y-94543269D01*
X57504900Y-94541357D01*
X57495099Y-94541357D01*
X57485486Y-94543269D01*
X57476430Y-94547020D01*
X57468281Y-94552466D01*
X57461351Y-94559396D01*
X57449201Y-94574201D01*
X57435978Y-94585052D01*
X57420892Y-94593117D01*
X57404525Y-94598082D01*
X57385046Y-94600000D01*
X57114954Y-94600000D01*
X57095475Y-94598082D01*
X57079108Y-94593117D01*
X57064022Y-94585052D01*
X57050799Y-94574201D01*
X57038649Y-94559396D01*
X57031719Y-94552465D01*
X57023569Y-94547020D01*
X57014513Y-94543269D01*
X57004900Y-94541357D01*
X56995099Y-94541357D01*
X56985486Y-94543269D01*
X56976430Y-94547020D01*
X56968281Y-94552466D01*
X56961351Y-94559396D01*
X56949201Y-94574201D01*
X56935978Y-94585052D01*
X56920892Y-94593117D01*
X56904525Y-94598082D01*
X56885046Y-94600000D01*
X56614954Y-94600000D01*
X56595475Y-94598082D01*
X56579108Y-94593117D01*
X56564022Y-94585052D01*
X56550799Y-94574201D01*
X56538649Y-94559396D01*
X56531719Y-94552465D01*
X56523569Y-94547020D01*
X56514513Y-94543269D01*
X56504900Y-94541357D01*
X56495099Y-94541357D01*
X56485486Y-94543269D01*
X56476430Y-94547020D01*
X56468281Y-94552466D01*
X56461351Y-94559396D01*
X56449201Y-94574201D01*
X56435978Y-94585052D01*
X56420892Y-94593117D01*
X56404525Y-94598082D01*
X56385046Y-94600000D01*
X56114954Y-94600000D01*
X56095475Y-94598082D01*
X56079108Y-94593117D01*
X56064022Y-94585052D01*
X56050799Y-94574201D01*
X56038649Y-94559396D01*
X56031719Y-94552465D01*
X56023569Y-94547020D01*
X56014513Y-94543269D01*
X56004900Y-94541357D01*
X55995099Y-94541357D01*
X55985486Y-94543269D01*
X55976430Y-94547020D01*
X55968281Y-94552466D01*
X55961351Y-94559396D01*
X55949201Y-94574201D01*
X55935978Y-94585052D01*
X55920892Y-94593117D01*
X55904525Y-94598082D01*
X55885046Y-94600000D01*
X55614954Y-94600000D01*
X55595475Y-94598082D01*
X55579108Y-94593117D01*
X55564022Y-94585052D01*
X55550799Y-94574201D01*
X55538649Y-94559396D01*
X55531719Y-94552465D01*
X55523569Y-94547020D01*
X55514513Y-94543269D01*
X55504900Y-94541357D01*
X55495099Y-94541357D01*
X55485486Y-94543269D01*
X55476430Y-94547020D01*
X55468281Y-94552466D01*
X55461351Y-94559396D01*
X55449201Y-94574201D01*
X55435978Y-94585052D01*
X55420892Y-94593117D01*
X55404525Y-94598082D01*
X55385046Y-94600000D01*
X55114954Y-94600000D01*
X55095475Y-94598082D01*
X55079108Y-94593117D01*
X55064022Y-94585052D01*
X55050799Y-94574201D01*
X55038649Y-94559396D01*
X55031719Y-94552465D01*
X55023569Y-94547020D01*
X55014513Y-94543269D01*
X55004900Y-94541357D01*
X54995099Y-94541357D01*
X54985486Y-94543269D01*
X54976430Y-94547020D01*
X54968281Y-94552466D01*
X54961351Y-94559396D01*
X54949201Y-94574201D01*
X54935978Y-94585052D01*
X54920892Y-94593117D01*
X54904525Y-94598082D01*
X54885046Y-94600000D01*
X54614954Y-94600000D01*
X54595475Y-94598082D01*
X54579108Y-94593117D01*
X54564022Y-94585052D01*
X54550799Y-94574201D01*
X54538649Y-94559396D01*
X54531719Y-94552465D01*
X54523569Y-94547020D01*
X54514513Y-94543269D01*
X54504900Y-94541357D01*
X54495099Y-94541357D01*
X54485486Y-94543269D01*
X54476430Y-94547020D01*
X54468281Y-94552466D01*
X54461351Y-94559396D01*
X54449201Y-94574201D01*
X54435978Y-94585052D01*
X54420892Y-94593117D01*
X54404525Y-94598082D01*
X54385046Y-94600000D01*
X54149999Y-94600000D01*
X54140245Y-94600961D01*
X54130865Y-94603806D01*
X54122221Y-94608426D01*
X54114644Y-94614644D01*
X54108426Y-94622221D01*
X54103806Y-94630865D01*
X54100961Y-94640245D01*
X54100000Y-94649999D01*
X54100000Y-94885046D01*
X54098082Y-94904525D01*
X54093117Y-94920892D01*
X54085052Y-94935978D01*
X54074201Y-94949201D01*
X54059396Y-94961351D01*
X54052465Y-94968281D01*
X54047020Y-94976431D01*
X54043269Y-94985487D01*
X54041357Y-94995100D01*
X53083643Y-94995100D01*
X53083643Y-94995099D01*
X53081731Y-94985486D01*
X53077980Y-94976430D01*
X53072534Y-94968281D01*
X53065604Y-94961351D01*
X53050799Y-94949201D01*
X53039948Y-94935978D01*
X53031883Y-94920892D01*
X53026918Y-94904525D01*
X53025000Y-94885046D01*
X53025000Y-94614954D01*
X53026918Y-94595475D01*
X53031883Y-94579108D01*
X53039948Y-94564022D01*
X53050799Y-94550799D01*
X53064022Y-94539948D01*
X53079108Y-94531883D01*
X53095475Y-94526918D01*
X53114954Y-94525000D01*
X53975001Y-94525000D01*
X53984755Y-94524039D01*
X53994135Y-94521194D01*
X54002779Y-94516574D01*
X54010356Y-94510356D01*
X54016574Y-94502779D01*
X54021194Y-94494135D01*
X54024039Y-94484755D01*
X54025000Y-94475001D01*
X54025000Y-93614954D01*
X54026918Y-93595475D01*
X54031883Y-93579108D01*
X54039948Y-93564022D01*
X54050799Y-93550799D01*
X54064022Y-93539948D01*
X54079108Y-93531883D01*
X54095475Y-93526918D01*
X54114954Y-93525000D01*
X54385046Y-93525000D01*
X54404525Y-93526918D01*
X54404525Y-93526918D01*
G37*
G36*
X61580698Y-94754277D02*
G01*
X61620098Y-94766229D01*
X61656414Y-94785641D01*
X61688241Y-94811759D01*
X61714359Y-94843586D01*
X61733771Y-94879902D01*
X61745723Y-94919302D01*
X61750000Y-94962732D01*
X61750000Y-102037268D01*
X61745723Y-102080698D01*
X61733771Y-102120098D01*
X61714359Y-102156414D01*
X61688241Y-102188241D01*
X61656414Y-102214359D01*
X61620098Y-102233771D01*
X61580698Y-102245723D01*
X61537268Y-102250000D01*
X54462732Y-102250000D01*
X54419302Y-102245723D01*
X54379902Y-102233771D01*
X54343586Y-102214359D01*
X54311759Y-102188241D01*
X54285641Y-102156414D01*
X54266229Y-102120098D01*
X54254277Y-102080698D01*
X54250000Y-102037268D01*
X54250000Y-94962732D01*
X54254277Y-94919302D01*
X54266229Y-94879902D01*
X54285641Y-94843586D01*
X54311759Y-94811759D01*
X54343586Y-94785641D01*
X54379902Y-94766229D01*
X54419302Y-94754277D01*
X54462732Y-94750000D01*
X61537268Y-94750000D01*
X61580698Y-94754277D01*
X61580698Y-94754277D01*
G37*
G36*
X70812546Y-100080701D02*
G01*
X70896683Y-100115552D01*
X71194723Y-100239004D01*
X71538672Y-100468823D01*
X71831177Y-100761328D01*
X72060996Y-101105277D01*
X72150805Y-101322095D01*
X72219299Y-101487454D01*
X72300000Y-101893167D01*
X72300000Y-102306833D01*
X72219299Y-102712546D01*
X72183074Y-102800000D01*
X72060996Y-103094723D01*
X71831177Y-103438672D01*
X71538672Y-103731177D01*
X71194723Y-103960996D01*
X70970849Y-104053728D01*
X70812546Y-104119299D01*
X70406833Y-104200000D01*
X69993167Y-104200000D01*
X69587454Y-104119299D01*
X69429151Y-104053728D01*
X69205277Y-103960996D01*
X68861328Y-103731177D01*
X68568823Y-103438672D01*
X68339004Y-103094723D01*
X68216926Y-102800000D01*
X68180701Y-102712546D01*
X68100000Y-102306833D01*
X68100000Y-101893167D01*
X68180701Y-101487454D01*
X68249195Y-101322095D01*
X68339004Y-101105277D01*
X68568823Y-100761328D01*
X68861328Y-100468823D01*
X69205277Y-100239004D01*
X69503317Y-100115552D01*
X69587454Y-100080701D01*
X69993167Y-100000000D01*
X70406833Y-100000000D01*
X70812546Y-100080701D01*
X70812546Y-100080701D01*
G37*
G36*
X47100000Y-99825000D02*
G01*
X46329434Y-99825000D01*
X46319680Y-99825961D01*
X46310300Y-99828806D01*
X46301656Y-99833426D01*
X46294079Y-99839644D01*
X46287861Y-99847221D01*
X46283241Y-99855865D01*
X46280396Y-99865245D01*
X46279435Y-99874999D01*
X46280396Y-99884753D01*
X46283241Y-99894133D01*
X46287861Y-99902777D01*
X46294079Y-99910354D01*
X46301656Y-99916572D01*
X46310300Y-99921192D01*
X46360655Y-99942050D01*
X46594723Y-100039004D01*
X46938672Y-100268823D01*
X47231177Y-100561328D01*
X47460996Y-100905277D01*
X47532999Y-101079108D01*
X47619299Y-101287454D01*
X47700000Y-101693167D01*
X47700000Y-102106833D01*
X47619299Y-102512546D01*
X47553728Y-102670849D01*
X47460996Y-102894723D01*
X47231177Y-103238672D01*
X46938672Y-103531177D01*
X46594723Y-103760996D01*
X46370849Y-103853728D01*
X46212546Y-103919299D01*
X45806833Y-104000000D01*
X45393167Y-104000000D01*
X44987454Y-103919299D01*
X44829151Y-103853728D01*
X44605277Y-103760996D01*
X44261328Y-103531177D01*
X43968823Y-103238672D01*
X43739004Y-102894723D01*
X43646272Y-102670849D01*
X43580701Y-102512546D01*
X43500000Y-102106833D01*
X43500000Y-101693167D01*
X43580701Y-101287454D01*
X43667001Y-101079108D01*
X43739004Y-100905277D01*
X43968823Y-100561328D01*
X44261328Y-100268823D01*
X44605277Y-100039004D01*
X44839345Y-99942050D01*
X44987454Y-99880701D01*
X45393167Y-99800000D01*
X45806834Y-99800000D01*
X45840247Y-99806646D01*
X45850002Y-99807607D01*
X45859756Y-99806646D01*
X45869135Y-99803801D01*
X45877779Y-99799180D01*
X45885356Y-99792962D01*
X45891574Y-99785386D01*
X45896194Y-99776741D01*
X45899039Y-99767362D01*
X45900000Y-99757608D01*
X45900000Y-97375000D01*
X47100000Y-97375000D01*
X47100000Y-99825000D01*
X47100000Y-99825000D01*
G37*
G36*
X64399730Y-102607658D02*
G01*
X64432047Y-102617462D01*
X64461828Y-102633380D01*
X64489831Y-102656361D01*
X64505773Y-102672303D01*
X64505779Y-102672308D01*
X64785086Y-102951615D01*
X64785091Y-102951621D01*
X64801033Y-102967563D01*
X64824014Y-102995566D01*
X64839932Y-103025347D01*
X64849736Y-103057664D01*
X64853045Y-103091269D01*
X64849736Y-103124874D01*
X64839932Y-103157191D01*
X64824014Y-103186972D01*
X64801033Y-103214975D01*
X64785091Y-103230917D01*
X64785086Y-103230923D01*
X64470423Y-103545586D01*
X64470417Y-103545591D01*
X64454475Y-103561533D01*
X64426472Y-103584514D01*
X64396691Y-103600432D01*
X64364374Y-103610236D01*
X64330769Y-103613545D01*
X64297164Y-103610236D01*
X64264847Y-103600432D01*
X64235066Y-103584514D01*
X64207063Y-103561533D01*
X64191121Y-103545591D01*
X64191115Y-103545586D01*
X63911808Y-103266279D01*
X63911803Y-103266273D01*
X63895861Y-103250331D01*
X63872880Y-103222328D01*
X63856962Y-103192547D01*
X63847158Y-103160230D01*
X63843849Y-103126625D01*
X63847158Y-103093020D01*
X63856962Y-103060703D01*
X63872880Y-103030922D01*
X63895861Y-103002919D01*
X63911803Y-102986977D01*
X63911808Y-102986971D01*
X64226471Y-102672308D01*
X64226477Y-102672303D01*
X64242419Y-102656361D01*
X64270422Y-102633380D01*
X64300203Y-102617462D01*
X64332520Y-102607658D01*
X64366125Y-102604349D01*
X64399730Y-102607658D01*
X64399730Y-102607658D01*
G37*
G36*
X63713836Y-101921764D02*
G01*
X63746153Y-101931568D01*
X63775934Y-101947486D01*
X63803937Y-101970467D01*
X63819879Y-101986409D01*
X63819885Y-101986414D01*
X64099192Y-102265721D01*
X64099197Y-102265727D01*
X64115139Y-102281669D01*
X64138120Y-102309672D01*
X64154038Y-102339453D01*
X64163842Y-102371770D01*
X64167151Y-102405375D01*
X64163842Y-102438980D01*
X64154038Y-102471297D01*
X64138120Y-102501078D01*
X64115139Y-102529081D01*
X64099197Y-102545023D01*
X64099192Y-102545029D01*
X63784529Y-102859692D01*
X63784523Y-102859697D01*
X63768581Y-102875639D01*
X63740578Y-102898620D01*
X63710797Y-102914538D01*
X63678480Y-102924342D01*
X63644875Y-102927651D01*
X63611270Y-102924342D01*
X63578953Y-102914538D01*
X63549172Y-102898620D01*
X63521169Y-102875639D01*
X63505227Y-102859697D01*
X63505221Y-102859692D01*
X63225914Y-102580385D01*
X63225909Y-102580379D01*
X63209967Y-102564437D01*
X63186986Y-102536434D01*
X63171068Y-102506653D01*
X63161264Y-102474336D01*
X63157955Y-102440731D01*
X63161264Y-102407126D01*
X63171068Y-102374809D01*
X63186986Y-102345028D01*
X63209967Y-102317025D01*
X63225909Y-102301083D01*
X63225914Y-102301077D01*
X63540577Y-101986414D01*
X63540583Y-101986409D01*
X63556525Y-101970467D01*
X63584528Y-101947486D01*
X63614309Y-101931568D01*
X63646626Y-101921764D01*
X63680231Y-101918455D01*
X63713836Y-101921764D01*
X63713836Y-101921764D01*
G37*
G36*
X51900000Y-102800000D02*
G01*
X51350000Y-102800000D01*
X51350000Y-101800000D01*
X51900000Y-101800000D01*
X51900000Y-102800000D01*
X51900000Y-102800000D01*
G37*
G36*
X48900000Y-102800000D02*
G01*
X48350000Y-102800000D01*
X48350000Y-101800000D01*
X48900000Y-101800000D01*
X48900000Y-102800000D01*
X48900000Y-102800000D01*
G37*
G36*
X64894230Y-100841658D02*
G01*
X64926547Y-100851462D01*
X64956328Y-100867380D01*
X64984331Y-100890361D01*
X65000273Y-100906303D01*
X65000279Y-100906308D01*
X65279586Y-101185615D01*
X65279591Y-101185621D01*
X65295533Y-101201563D01*
X65318514Y-101229566D01*
X65334432Y-101259347D01*
X65344236Y-101291664D01*
X65347545Y-101325269D01*
X65344236Y-101358874D01*
X65334432Y-101391191D01*
X65318514Y-101420972D01*
X65295533Y-101448975D01*
X65279591Y-101464917D01*
X65279586Y-101464923D01*
X64964923Y-101779586D01*
X64964917Y-101779591D01*
X64948975Y-101795533D01*
X64920972Y-101818514D01*
X64891191Y-101834432D01*
X64858874Y-101844236D01*
X64825269Y-101847545D01*
X64791664Y-101844236D01*
X64759347Y-101834432D01*
X64729566Y-101818514D01*
X64701563Y-101795533D01*
X64685621Y-101779591D01*
X64685615Y-101779586D01*
X64406308Y-101500279D01*
X64406303Y-101500273D01*
X64390361Y-101484331D01*
X64367380Y-101456328D01*
X64351462Y-101426547D01*
X64341658Y-101394230D01*
X64338349Y-101360625D01*
X64341658Y-101327020D01*
X64351462Y-101294703D01*
X64367380Y-101264922D01*
X64390361Y-101236919D01*
X64406303Y-101220977D01*
X64406308Y-101220971D01*
X64720971Y-100906308D01*
X64720977Y-100906303D01*
X64736919Y-100890361D01*
X64764922Y-100867380D01*
X64794703Y-100851462D01*
X64827020Y-100841658D01*
X64860625Y-100838349D01*
X64894230Y-100841658D01*
X64894230Y-100841658D01*
G37*
G36*
X64208336Y-100155764D02*
G01*
X64240653Y-100165568D01*
X64270434Y-100181486D01*
X64298437Y-100204467D01*
X64314379Y-100220409D01*
X64314385Y-100220414D01*
X64593692Y-100499721D01*
X64593697Y-100499727D01*
X64609639Y-100515669D01*
X64632620Y-100543672D01*
X64648538Y-100573453D01*
X64658342Y-100605770D01*
X64661651Y-100639375D01*
X64658342Y-100672980D01*
X64648538Y-100705297D01*
X64632620Y-100735078D01*
X64609639Y-100763081D01*
X64593697Y-100779023D01*
X64593692Y-100779029D01*
X64279029Y-101093692D01*
X64279023Y-101093697D01*
X64263081Y-101109639D01*
X64235078Y-101132620D01*
X64205297Y-101148538D01*
X64172980Y-101158342D01*
X64139375Y-101161651D01*
X64105770Y-101158342D01*
X64073453Y-101148538D01*
X64043672Y-101132620D01*
X64015669Y-101109639D01*
X63999727Y-101093697D01*
X63999721Y-101093692D01*
X63720414Y-100814385D01*
X63720409Y-100814379D01*
X63704467Y-100798437D01*
X63681486Y-100770434D01*
X63665568Y-100740653D01*
X63655764Y-100708336D01*
X63652455Y-100674731D01*
X63655764Y-100641126D01*
X63665568Y-100608809D01*
X63681486Y-100579028D01*
X63704467Y-100551025D01*
X63720409Y-100535083D01*
X63720414Y-100535077D01*
X64035077Y-100220414D01*
X64035083Y-100220409D01*
X64051025Y-100204467D01*
X64079028Y-100181486D01*
X64108809Y-100165568D01*
X64141126Y-100155764D01*
X64174731Y-100152455D01*
X64208336Y-100155764D01*
X64208336Y-100155764D01*
G37*
G36*
X48900000Y-99250000D02*
G01*
X48350000Y-99250000D01*
X48350000Y-98250000D01*
X48900000Y-98250000D01*
X48900000Y-99250000D01*
X48900000Y-99250000D01*
G37*
G36*
X51900000Y-99250000D02*
G01*
X51350000Y-99250000D01*
X51350000Y-98250000D01*
X51900000Y-98250000D01*
X51900000Y-99250000D01*
X51900000Y-99250000D01*
G37*
G36*
X68275605Y-96886551D02*
G01*
X68307922Y-96896355D01*
X68337703Y-96912273D01*
X68363806Y-96933694D01*
X68385227Y-96959797D01*
X68401145Y-96989578D01*
X68410949Y-97021895D01*
X68414500Y-97057954D01*
X68414500Y-97548046D01*
X68410949Y-97584105D01*
X68401145Y-97616422D01*
X68385227Y-97646203D01*
X68363806Y-97672306D01*
X68337703Y-97693727D01*
X68307922Y-97709645D01*
X68275605Y-97719449D01*
X68239546Y-97723000D01*
X67799454Y-97723000D01*
X67763395Y-97719449D01*
X67731078Y-97709645D01*
X67701297Y-97693727D01*
X67675194Y-97672306D01*
X67653773Y-97646203D01*
X67637855Y-97616422D01*
X67628051Y-97584105D01*
X67624500Y-97548046D01*
X67624500Y-97057954D01*
X67628051Y-97021895D01*
X67637855Y-96989578D01*
X67653773Y-96959797D01*
X67675194Y-96933694D01*
X67701297Y-96912273D01*
X67731078Y-96896355D01*
X67763395Y-96886551D01*
X67799454Y-96883000D01*
X68239546Y-96883000D01*
X68275605Y-96886551D01*
X68275605Y-96886551D01*
G37*
G36*
X67305605Y-96886551D02*
G01*
X67337922Y-96896355D01*
X67367703Y-96912273D01*
X67393806Y-96933694D01*
X67415227Y-96959797D01*
X67431145Y-96989578D01*
X67440949Y-97021895D01*
X67444500Y-97057954D01*
X67444500Y-97548046D01*
X67440949Y-97584105D01*
X67431145Y-97616422D01*
X67415227Y-97646203D01*
X67393806Y-97672306D01*
X67367703Y-97693727D01*
X67337922Y-97709645D01*
X67305605Y-97719449D01*
X67269546Y-97723000D01*
X66829454Y-97723000D01*
X66793395Y-97719449D01*
X66761078Y-97709645D01*
X66731297Y-97693727D01*
X66705194Y-97672306D01*
X66683773Y-97646203D01*
X66667855Y-97616422D01*
X66658051Y-97584105D01*
X66654500Y-97548046D01*
X66654500Y-97057954D01*
X66658051Y-97021895D01*
X66667855Y-96989578D01*
X66683773Y-96959797D01*
X66705194Y-96933694D01*
X66731297Y-96912273D01*
X66761078Y-96896355D01*
X66793395Y-96886551D01*
X66829454Y-96883000D01*
X67269546Y-96883000D01*
X67305605Y-96886551D01*
X67305605Y-96886551D01*
G37*
G36*
X46212546Y-90280701D02*
G01*
X46370849Y-90346272D01*
X46594723Y-90439004D01*
X46938672Y-90668823D01*
X47231177Y-90961328D01*
X47460996Y-91305277D01*
X47553728Y-91529151D01*
X47619299Y-91687454D01*
X47700000Y-92093167D01*
X47700000Y-92506833D01*
X47619299Y-92912546D01*
X47571683Y-93027500D01*
X47460996Y-93294723D01*
X47231177Y-93638672D01*
X46938672Y-93931177D01*
X46594723Y-94160996D01*
X46454942Y-94218895D01*
X46431010Y-94228808D01*
X46422366Y-94233428D01*
X46414789Y-94239646D01*
X46408571Y-94247223D01*
X46403951Y-94255867D01*
X46401106Y-94265247D01*
X46400145Y-94275001D01*
X46401106Y-94284755D01*
X46403951Y-94294135D01*
X46408571Y-94302779D01*
X46414789Y-94310356D01*
X46422366Y-94316574D01*
X46431010Y-94321194D01*
X46440390Y-94324039D01*
X46450144Y-94325000D01*
X47100000Y-94325000D01*
X47100000Y-96775000D01*
X45900000Y-96775000D01*
X45900000Y-94442392D01*
X45899039Y-94432638D01*
X45896194Y-94423258D01*
X45891574Y-94414614D01*
X45885356Y-94407037D01*
X45877779Y-94400819D01*
X45869135Y-94396199D01*
X45859755Y-94393354D01*
X45850001Y-94392393D01*
X45840247Y-94393354D01*
X45806834Y-94400000D01*
X45393167Y-94400000D01*
X44987454Y-94319299D01*
X44813448Y-94247223D01*
X44605277Y-94160996D01*
X44261328Y-93931177D01*
X43968823Y-93638672D01*
X43739004Y-93294723D01*
X43628317Y-93027500D01*
X43580701Y-92912546D01*
X43500000Y-92506833D01*
X43500000Y-92093167D01*
X43580701Y-91687454D01*
X43646272Y-91529151D01*
X43739004Y-91305277D01*
X43968823Y-90961328D01*
X44261328Y-90668823D01*
X44605277Y-90439004D01*
X44829151Y-90346272D01*
X44987454Y-90280701D01*
X45393167Y-90200000D01*
X45806833Y-90200000D01*
X46212546Y-90280701D01*
X46212546Y-90280701D01*
G37*
G36*
X50136809Y-95292490D02*
G01*
X50199598Y-95304979D01*
X50268891Y-95333682D01*
X50317889Y-95353977D01*
X50363492Y-95384448D01*
X50424351Y-95425112D01*
X50514888Y-95515649D01*
X50538374Y-95550799D01*
X50586023Y-95622111D01*
X50592397Y-95637500D01*
X50635021Y-95740402D01*
X50646080Y-95796000D01*
X50660000Y-95865979D01*
X50660000Y-95994021D01*
X50654122Y-96023569D01*
X50635021Y-96119598D01*
X50606318Y-96188891D01*
X50586023Y-96237889D01*
X50586022Y-96237890D01*
X50514888Y-96344351D01*
X50424351Y-96434888D01*
X50392694Y-96456040D01*
X50317889Y-96506023D01*
X50275529Y-96523569D01*
X50199598Y-96555021D01*
X50136809Y-96567510D01*
X50074021Y-96580000D01*
X49945979Y-96580000D01*
X49883191Y-96567510D01*
X49820402Y-96555021D01*
X49744471Y-96523569D01*
X49702111Y-96506023D01*
X49627306Y-96456040D01*
X49595649Y-96434888D01*
X49505112Y-96344351D01*
X49433978Y-96237890D01*
X49433977Y-96237889D01*
X49413682Y-96188891D01*
X49384979Y-96119598D01*
X49365878Y-96023569D01*
X49360000Y-95994021D01*
X49360000Y-95865979D01*
X49373920Y-95796000D01*
X49384979Y-95740402D01*
X49427603Y-95637500D01*
X49433977Y-95622111D01*
X49481626Y-95550799D01*
X49505112Y-95515649D01*
X49595649Y-95425112D01*
X49656508Y-95384448D01*
X49702111Y-95353977D01*
X49751109Y-95333682D01*
X49820402Y-95304979D01*
X49883191Y-95292490D01*
X49945979Y-95280000D01*
X50074021Y-95280000D01*
X50136809Y-95292490D01*
X50136809Y-95292490D01*
G37*
G36*
X68298926Y-94223779D02*
G01*
X68305144Y-94231356D01*
X68312721Y-94237574D01*
X68321365Y-94242194D01*
X68330745Y-94245039D01*
X68340499Y-94246000D01*
X68815500Y-94246000D01*
X68815500Y-96296000D01*
X68340499Y-96296000D01*
X68330745Y-96296961D01*
X68321365Y-96299806D01*
X68312721Y-96304426D01*
X68305144Y-96310644D01*
X68298926Y-96318221D01*
X68297441Y-96321000D01*
X67233559Y-96321000D01*
X67232074Y-96318221D01*
X67225856Y-96310644D01*
X67218279Y-96304426D01*
X67209635Y-96299806D01*
X67200255Y-96296961D01*
X67190501Y-96296000D01*
X66715500Y-96296000D01*
X66715500Y-94845999D01*
X67290500Y-94845999D01*
X67290500Y-95696001D01*
X67291461Y-95705755D01*
X67294306Y-95715135D01*
X67298926Y-95723779D01*
X67305144Y-95731356D01*
X67312721Y-95737574D01*
X67321365Y-95742194D01*
X67330745Y-95745039D01*
X67340499Y-95746000D01*
X68190501Y-95746000D01*
X68200255Y-95745039D01*
X68209635Y-95742194D01*
X68218279Y-95737574D01*
X68225856Y-95731356D01*
X68232074Y-95723779D01*
X68236694Y-95715135D01*
X68239539Y-95705755D01*
X68240500Y-95696001D01*
X68240500Y-94845999D01*
X68239539Y-94836245D01*
X68236694Y-94826865D01*
X68232074Y-94818221D01*
X68225856Y-94810644D01*
X68218279Y-94804426D01*
X68209635Y-94799806D01*
X68200255Y-94796961D01*
X68190501Y-94796000D01*
X67340499Y-94796000D01*
X67330745Y-94796961D01*
X67321365Y-94799806D01*
X67312721Y-94804426D01*
X67305144Y-94810644D01*
X67298926Y-94818221D01*
X67294306Y-94826865D01*
X67291461Y-94836245D01*
X67290500Y-94845999D01*
X66715500Y-94845999D01*
X66715500Y-94246000D01*
X67190501Y-94246000D01*
X67200255Y-94245039D01*
X67209635Y-94242194D01*
X67218279Y-94237574D01*
X67225856Y-94231356D01*
X67232074Y-94223779D01*
X67233559Y-94221000D01*
X68297441Y-94221000D01*
X68298926Y-94223779D01*
X68298926Y-94223779D01*
G37*
G36*
X65890763Y-95004900D02*
G01*
X65971598Y-95020979D01*
X66014256Y-95038649D01*
X66089889Y-95069977D01*
X66142760Y-95105304D01*
X66196351Y-95141112D01*
X66286888Y-95231649D01*
X66296477Y-95246000D01*
X66358023Y-95338111D01*
X66364595Y-95353978D01*
X66407021Y-95456402D01*
X66407021Y-95456404D01*
X66432000Y-95581979D01*
X66432000Y-95710021D01*
X66425956Y-95740404D01*
X66407021Y-95835598D01*
X66383159Y-95893205D01*
X66358023Y-95953889D01*
X66342961Y-95976431D01*
X66286888Y-96060351D01*
X66196351Y-96150888D01*
X66142760Y-96186696D01*
X66089889Y-96222023D01*
X66051582Y-96237890D01*
X65971598Y-96271021D01*
X65908809Y-96283510D01*
X65846021Y-96296000D01*
X65717979Y-96296000D01*
X65655191Y-96283510D01*
X65592402Y-96271021D01*
X65512418Y-96237890D01*
X65474111Y-96222023D01*
X65421240Y-96186696D01*
X65367649Y-96150888D01*
X65277112Y-96060351D01*
X65221039Y-95976431D01*
X65205977Y-95953889D01*
X65180841Y-95893205D01*
X65156979Y-95835598D01*
X65138044Y-95740404D01*
X65132000Y-95710021D01*
X65132000Y-95581979D01*
X65156979Y-95456404D01*
X65156979Y-95456402D01*
X65199405Y-95353978D01*
X65205977Y-95338111D01*
X65267523Y-95246000D01*
X65277112Y-95231649D01*
X65367649Y-95141112D01*
X65421240Y-95105304D01*
X65474111Y-95069977D01*
X65549744Y-95038649D01*
X65592402Y-95020979D01*
X65673237Y-95004900D01*
X65717979Y-94996000D01*
X65846021Y-94996000D01*
X65890763Y-95004900D01*
X65890763Y-95004900D01*
G37*
G36*
X69824605Y-95110551D02*
G01*
X69856922Y-95120355D01*
X69886703Y-95136273D01*
X69912806Y-95157694D01*
X69934227Y-95183797D01*
X69950145Y-95213578D01*
X69959949Y-95245895D01*
X69963500Y-95281954D01*
X69963500Y-95722046D01*
X69959949Y-95758105D01*
X69950145Y-95790422D01*
X69934227Y-95820203D01*
X69912806Y-95846306D01*
X69886703Y-95867727D01*
X69856922Y-95883645D01*
X69824605Y-95893449D01*
X69788546Y-95897000D01*
X69298454Y-95897000D01*
X69262395Y-95893449D01*
X69230078Y-95883645D01*
X69200297Y-95867727D01*
X69174194Y-95846306D01*
X69152773Y-95820203D01*
X69136855Y-95790422D01*
X69127051Y-95758105D01*
X69123500Y-95722046D01*
X69123500Y-95281954D01*
X69127051Y-95245895D01*
X69136855Y-95213578D01*
X69152773Y-95183797D01*
X69174194Y-95157694D01*
X69200297Y-95136273D01*
X69230078Y-95120355D01*
X69262395Y-95110551D01*
X69298454Y-95107000D01*
X69788546Y-95107000D01*
X69824605Y-95110551D01*
X69824605Y-95110551D01*
G37*
G36*
X69824605Y-94140551D02*
G01*
X69856922Y-94150355D01*
X69886703Y-94166273D01*
X69912806Y-94187694D01*
X69934227Y-94213797D01*
X69950145Y-94243578D01*
X69959949Y-94275895D01*
X69963500Y-94311954D01*
X69963500Y-94752046D01*
X69959949Y-94788105D01*
X69950145Y-94820422D01*
X69934227Y-94850203D01*
X69912806Y-94876306D01*
X69886703Y-94897727D01*
X69856922Y-94913645D01*
X69824605Y-94923449D01*
X69788546Y-94927000D01*
X69298454Y-94927000D01*
X69262395Y-94923449D01*
X69230078Y-94913645D01*
X69200297Y-94897727D01*
X69174194Y-94876306D01*
X69152773Y-94850203D01*
X69136855Y-94820422D01*
X69127051Y-94788105D01*
X69123500Y-94752046D01*
X69123500Y-94311954D01*
X69127051Y-94275895D01*
X69136855Y-94243578D01*
X69152773Y-94213797D01*
X69174194Y-94187694D01*
X69200297Y-94166273D01*
X69230078Y-94150355D01*
X69262395Y-94140551D01*
X69298454Y-94137000D01*
X69788546Y-94137000D01*
X69824605Y-94140551D01*
X69824605Y-94140551D01*
G37*
G36*
X49521105Y-94083551D02*
G01*
X49553422Y-94093355D01*
X49583203Y-94109273D01*
X49609306Y-94130694D01*
X49630727Y-94156797D01*
X49646645Y-94186578D01*
X49656449Y-94218895D01*
X49660000Y-94254954D01*
X49660000Y-94745046D01*
X49656449Y-94781105D01*
X49646645Y-94813422D01*
X49630727Y-94843203D01*
X49609306Y-94869306D01*
X49583203Y-94890727D01*
X49553422Y-94906645D01*
X49521105Y-94916449D01*
X49485046Y-94920000D01*
X49044954Y-94920000D01*
X49008895Y-94916449D01*
X48976578Y-94906645D01*
X48946797Y-94890727D01*
X48920694Y-94869306D01*
X48899273Y-94843203D01*
X48883355Y-94813422D01*
X48873551Y-94781105D01*
X48870000Y-94745046D01*
X48870000Y-94254954D01*
X48873551Y-94218895D01*
X48883355Y-94186578D01*
X48899273Y-94156797D01*
X48920694Y-94130694D01*
X48946797Y-94109273D01*
X48976578Y-94093355D01*
X49008895Y-94083551D01*
X49044954Y-94080000D01*
X49485046Y-94080000D01*
X49521105Y-94083551D01*
X49521105Y-94083551D01*
G37*
G36*
X50491105Y-94083551D02*
G01*
X50523422Y-94093355D01*
X50553203Y-94109273D01*
X50579306Y-94130694D01*
X50600727Y-94156797D01*
X50616645Y-94186578D01*
X50626449Y-94218895D01*
X50630000Y-94254954D01*
X50630000Y-94745046D01*
X50626449Y-94781105D01*
X50616645Y-94813422D01*
X50600727Y-94843203D01*
X50579306Y-94869306D01*
X50553203Y-94890727D01*
X50523422Y-94906645D01*
X50491105Y-94916449D01*
X50455046Y-94920000D01*
X50014954Y-94920000D01*
X49978895Y-94916449D01*
X49946578Y-94906645D01*
X49916797Y-94890727D01*
X49890694Y-94869306D01*
X49869273Y-94843203D01*
X49853355Y-94813422D01*
X49843551Y-94781105D01*
X49840000Y-94745046D01*
X49840000Y-94254954D01*
X49843551Y-94218895D01*
X49853355Y-94186578D01*
X49869273Y-94156797D01*
X49890694Y-94130694D01*
X49916797Y-94109273D01*
X49946578Y-94093355D01*
X49978895Y-94083551D01*
X50014954Y-94080000D01*
X50455046Y-94080000D01*
X50491105Y-94083551D01*
X50491105Y-94083551D01*
G37*
G36*
X49521105Y-92833551D02*
G01*
X49553422Y-92843355D01*
X49583203Y-92859273D01*
X49609306Y-92880694D01*
X49630727Y-92906797D01*
X49646645Y-92936578D01*
X49656449Y-92968895D01*
X49660000Y-93004954D01*
X49660000Y-93495046D01*
X49656449Y-93531105D01*
X49646645Y-93563422D01*
X49630727Y-93593203D01*
X49609306Y-93619306D01*
X49583203Y-93640727D01*
X49553422Y-93656645D01*
X49521105Y-93666449D01*
X49485046Y-93670000D01*
X49044954Y-93670000D01*
X49008895Y-93666449D01*
X48976578Y-93656645D01*
X48946797Y-93640727D01*
X48920694Y-93619306D01*
X48899273Y-93593203D01*
X48883355Y-93563422D01*
X48873551Y-93531105D01*
X48870000Y-93495046D01*
X48870000Y-93004954D01*
X48873551Y-92968895D01*
X48883355Y-92936578D01*
X48899273Y-92906797D01*
X48920694Y-92880694D01*
X48946797Y-92859273D01*
X48976578Y-92843355D01*
X49008895Y-92833551D01*
X49044954Y-92830000D01*
X49485046Y-92830000D01*
X49521105Y-92833551D01*
X49521105Y-92833551D01*
G37*
G36*
X50491105Y-92833551D02*
G01*
X50523422Y-92843355D01*
X50553203Y-92859273D01*
X50579306Y-92880694D01*
X50600727Y-92906797D01*
X50616645Y-92936578D01*
X50626449Y-92968895D01*
X50630000Y-93004954D01*
X50630000Y-93495046D01*
X50626449Y-93531105D01*
X50616645Y-93563422D01*
X50600727Y-93593203D01*
X50579306Y-93619306D01*
X50553203Y-93640727D01*
X50523422Y-93656645D01*
X50491105Y-93666449D01*
X50455046Y-93670000D01*
X50014954Y-93670000D01*
X49978895Y-93666449D01*
X49946578Y-93656645D01*
X49916797Y-93640727D01*
X49890694Y-93619306D01*
X49869273Y-93593203D01*
X49853355Y-93563422D01*
X49843551Y-93531105D01*
X49840000Y-93495046D01*
X49840000Y-93004954D01*
X49843551Y-92968895D01*
X49853355Y-92936578D01*
X49869273Y-92906797D01*
X49890694Y-92880694D01*
X49916797Y-92859273D01*
X49946578Y-92843355D01*
X49978895Y-92833551D01*
X50014954Y-92830000D01*
X50455046Y-92830000D01*
X50491105Y-92833551D01*
X50491105Y-92833551D01*
G37*
G36*
X68760605Y-92822551D02*
G01*
X68792922Y-92832355D01*
X68822703Y-92848273D01*
X68848806Y-92869694D01*
X68870227Y-92895797D01*
X68886145Y-92925578D01*
X68895949Y-92957895D01*
X68899500Y-92993954D01*
X68899500Y-93484046D01*
X68895949Y-93520105D01*
X68886145Y-93552422D01*
X68870227Y-93582203D01*
X68848806Y-93608306D01*
X68822703Y-93629727D01*
X68792922Y-93645645D01*
X68760605Y-93655449D01*
X68724546Y-93659000D01*
X68284454Y-93659000D01*
X68248395Y-93655449D01*
X68216078Y-93645645D01*
X68186297Y-93629727D01*
X68160194Y-93608306D01*
X68138773Y-93582203D01*
X68122855Y-93552422D01*
X68113051Y-93520105D01*
X68109500Y-93484046D01*
X68109500Y-92993954D01*
X68113051Y-92957895D01*
X68122855Y-92925578D01*
X68138773Y-92895797D01*
X68160194Y-92869694D01*
X68186297Y-92848273D01*
X68216078Y-92832355D01*
X68248395Y-92822551D01*
X68284454Y-92819000D01*
X68724546Y-92819000D01*
X68760605Y-92822551D01*
X68760605Y-92822551D01*
G37*
G36*
X67790605Y-92822551D02*
G01*
X67822922Y-92832355D01*
X67852703Y-92848273D01*
X67878806Y-92869694D01*
X67900227Y-92895797D01*
X67916145Y-92925578D01*
X67925949Y-92957895D01*
X67929500Y-92993954D01*
X67929500Y-93484046D01*
X67925949Y-93520105D01*
X67916145Y-93552422D01*
X67900227Y-93582203D01*
X67878806Y-93608306D01*
X67852703Y-93629727D01*
X67822922Y-93645645D01*
X67790605Y-93655449D01*
X67754546Y-93659000D01*
X67314454Y-93659000D01*
X67278395Y-93655449D01*
X67246078Y-93645645D01*
X67216297Y-93629727D01*
X67190194Y-93608306D01*
X67168773Y-93582203D01*
X67152855Y-93552422D01*
X67143051Y-93520105D01*
X67139500Y-93484046D01*
X67139500Y-92993954D01*
X67143051Y-92957895D01*
X67152855Y-92925578D01*
X67168773Y-92895797D01*
X67190194Y-92869694D01*
X67216297Y-92848273D01*
X67246078Y-92832355D01*
X67278395Y-92822551D01*
X67314454Y-92819000D01*
X67754546Y-92819000D01*
X67790605Y-92822551D01*
X67790605Y-92822551D01*
G37*
G36*
X67468500Y-91864500D02*
G01*
X48443500Y-91864500D01*
X48443500Y-89955500D01*
X67468500Y-89955500D01*
X67468500Y-91864500D01*
X67468500Y-91864500D01*
G37*
G36*
X58164181Y-87926900D02*
G01*
X58291573Y-87979667D01*
X58291574Y-87979668D01*
X58406224Y-88056274D01*
X58503726Y-88153776D01*
X58554913Y-88230383D01*
X58580333Y-88268427D01*
X58633100Y-88395819D01*
X58660000Y-88531055D01*
X58660000Y-88668945D01*
X58633100Y-88804181D01*
X58580333Y-88931573D01*
X58580332Y-88931574D01*
X58503726Y-89046224D01*
X58406224Y-89143726D01*
X58329617Y-89194913D01*
X58291573Y-89220333D01*
X58164181Y-89273100D01*
X58028945Y-89300000D01*
X57891055Y-89300000D01*
X57755819Y-89273100D01*
X57628427Y-89220333D01*
X57590383Y-89194913D01*
X57513776Y-89143726D01*
X57416274Y-89046224D01*
X57339668Y-88931574D01*
X57339667Y-88931573D01*
X57286900Y-88804181D01*
X57260000Y-88668945D01*
X57260000Y-88531055D01*
X57286900Y-88395819D01*
X57339667Y-88268427D01*
X57365087Y-88230383D01*
X57416274Y-88153776D01*
X57513776Y-88056274D01*
X57628426Y-87979668D01*
X57628427Y-87979667D01*
X57755819Y-87926900D01*
X57891055Y-87900000D01*
X58028945Y-87900000D01*
X58164181Y-87926900D01*
X58164181Y-87926900D01*
G37*
G36*
X64640765Y-86597821D02*
G01*
X64777257Y-86654358D01*
X64900096Y-86736436D01*
X65004564Y-86840904D01*
X65086642Y-86963743D01*
X65143179Y-87100235D01*
X65172000Y-87245130D01*
X65172000Y-87392870D01*
X65143179Y-87537765D01*
X65086642Y-87674257D01*
X65004564Y-87797096D01*
X64900096Y-87901564D01*
X64777257Y-87983642D01*
X64640765Y-88040179D01*
X64495870Y-88069000D01*
X64348130Y-88069000D01*
X64203235Y-88040179D01*
X64066743Y-87983642D01*
X63943904Y-87901564D01*
X63839436Y-87797096D01*
X63757358Y-87674257D01*
X63700821Y-87537765D01*
X63672000Y-87392870D01*
X63672000Y-87245130D01*
X63700821Y-87100235D01*
X63757358Y-86963743D01*
X63839436Y-86840904D01*
X63943904Y-86736436D01*
X64066743Y-86654358D01*
X64203235Y-86597821D01*
X64348130Y-86569000D01*
X64495870Y-86569000D01*
X64640765Y-86597821D01*
X64640765Y-86597821D01*
G37*
G36*
X51666765Y-86528821D02*
G01*
X51803257Y-86585358D01*
X51926096Y-86667436D01*
X52030564Y-86771904D01*
X52112642Y-86894743D01*
X52169179Y-87031235D01*
X52198000Y-87176130D01*
X52198000Y-87323870D01*
X52169179Y-87468765D01*
X52112642Y-87605257D01*
X52030564Y-87728096D01*
X51926096Y-87832564D01*
X51803257Y-87914642D01*
X51666765Y-87971179D01*
X51521870Y-88000000D01*
X51374130Y-88000000D01*
X51229235Y-87971179D01*
X51092743Y-87914642D01*
X50969904Y-87832564D01*
X50865436Y-87728096D01*
X50783358Y-87605257D01*
X50726821Y-87468765D01*
X50698000Y-87323870D01*
X50698000Y-87176130D01*
X50726821Y-87031235D01*
X50783358Y-86894743D01*
X50865436Y-86771904D01*
X50969904Y-86667436D01*
X51092743Y-86585358D01*
X51229235Y-86528821D01*
X51374130Y-86500000D01*
X51521870Y-86500000D01*
X51666765Y-86528821D01*
X51666765Y-86528821D01*
G37*
G36*
X55454181Y-85076900D02*
G01*
X55581573Y-85129667D01*
X55581574Y-85129668D01*
X55696224Y-85206274D01*
X55793726Y-85303776D01*
X55844913Y-85380383D01*
X55870333Y-85418427D01*
X55923100Y-85545819D01*
X55950000Y-85681055D01*
X55950000Y-85818945D01*
X55923100Y-85954181D01*
X55870333Y-86081573D01*
X55870332Y-86081574D01*
X55793726Y-86196224D01*
X55696224Y-86293726D01*
X55619617Y-86344913D01*
X55581573Y-86370333D01*
X55454181Y-86423100D01*
X55318945Y-86450000D01*
X55181055Y-86450000D01*
X55045819Y-86423100D01*
X54918427Y-86370333D01*
X54880383Y-86344913D01*
X54803776Y-86293726D01*
X54706274Y-86196224D01*
X54629668Y-86081574D01*
X54629667Y-86081573D01*
X54576900Y-85954181D01*
X54550000Y-85818945D01*
X54550000Y-85681055D01*
X54576900Y-85545819D01*
X54629667Y-85418427D01*
X54655087Y-85380383D01*
X54706274Y-85303776D01*
X54803776Y-85206274D01*
X54918426Y-85129668D01*
X54918427Y-85129667D01*
X55045819Y-85076900D01*
X55181055Y-85050000D01*
X55318945Y-85050000D01*
X55454181Y-85076900D01*
X55454181Y-85076900D01*
G37*
G36*
X53704181Y-85076900D02*
G01*
X53831573Y-85129667D01*
X53831574Y-85129668D01*
X53946224Y-85206274D01*
X54043726Y-85303776D01*
X54094913Y-85380383D01*
X54120333Y-85418427D01*
X54173100Y-85545819D01*
X54200000Y-85681055D01*
X54200000Y-85818945D01*
X54173100Y-85954181D01*
X54120333Y-86081573D01*
X54120332Y-86081574D01*
X54043726Y-86196224D01*
X53946224Y-86293726D01*
X53869617Y-86344913D01*
X53831573Y-86370333D01*
X53704181Y-86423100D01*
X53568945Y-86450000D01*
X53431055Y-86450000D01*
X53295819Y-86423100D01*
X53168427Y-86370333D01*
X53130383Y-86344913D01*
X53053776Y-86293726D01*
X52956274Y-86196224D01*
X52879668Y-86081574D01*
X52879667Y-86081573D01*
X52826900Y-85954181D01*
X52800000Y-85818945D01*
X52800000Y-85681055D01*
X52826900Y-85545819D01*
X52879667Y-85418427D01*
X52905087Y-85380383D01*
X52956274Y-85303776D01*
X53053776Y-85206274D01*
X53168426Y-85129668D01*
X53168427Y-85129667D01*
X53295819Y-85076900D01*
X53431055Y-85050000D01*
X53568945Y-85050000D01*
X53704181Y-85076900D01*
X53704181Y-85076900D01*
G37*
M02*
