G04 #@! TF.GenerationSoftware,KiCad,Pcbnew,5.1.2-f72e74a~84~ubuntu18.04.1*
G04 #@! TF.CreationDate,2019-05-05T19:29:39+02:00*
G04 #@! TF.ProjectId,f-91w,662d3931-772e-46b6-9963-61645f706362,2*
G04 #@! TF.SameCoordinates,Original*
G04 #@! TF.FileFunction,Profile,NP*
%FSLAX46Y46*%
G04 Gerber Fmt 4.6, Leading zero omitted, Abs format (unit mm)*
G04 Created by KiCad (PCBNEW 5.1.2-f72e74a~84~ubuntu18.04.1) date 2019-05-05 19:29:39*
%MOMM*%
%LPD*%
G04 APERTURE LIST*
%ADD10C,0.100000*%
G04 APERTURE END LIST*
D10*
X23938917Y-26571576D02*
X23772699Y-26741801D01*
X29248752Y-45420457D02*
G75*
G02X28141500Y-44765627I-396052J593857D01*
G01*
X22757488Y-31186081D02*
G75*
G02X23772699Y-26741801I-102388J2361481D01*
G01*
X23763176Y-40402166D02*
G75*
G02X22756699Y-36139801I-1158876J1976366D01*
G01*
X45958826Y-40699223D02*
X46073900Y-40610199D01*
X47139153Y-36331248D02*
G75*
G02X46073901Y-40610199I103147J-2297752D01*
G01*
X34318900Y-42766000D02*
X40693900Y-42766000D01*
X34318900Y-44666000D02*
X34318900Y-42766000D01*
X40693900Y-42766000D02*
X40693900Y-44666000D01*
X40693900Y-44666000D02*
X34318900Y-44666000D01*
X30204577Y-21433148D02*
X29678143Y-21653208D01*
X45721251Y-40699223D02*
X45958826Y-40699223D01*
X43577576Y-43181345D02*
X45721251Y-40699223D01*
X43577576Y-43386396D02*
X43577576Y-43181345D01*
X43142011Y-43756974D02*
X43577576Y-43386396D01*
X42692950Y-44111563D02*
X43142011Y-43756974D01*
X42230089Y-44448548D02*
X42692950Y-44111563D01*
X41753122Y-44766316D02*
X42230089Y-44448548D01*
X29248207Y-45419861D02*
X29631807Y-45585232D01*
X27602313Y-44449166D02*
X28141500Y-44765627D01*
X27132038Y-44112241D02*
X27602313Y-44449166D01*
X26677641Y-43755546D02*
X27132038Y-44112241D01*
X43347189Y-23639031D02*
X42879465Y-23256267D01*
X43798604Y-24040396D02*
X43347189Y-23639031D01*
X43798604Y-24287340D02*
X43798604Y-24040396D01*
X45941729Y-26770012D02*
X43798604Y-24287340D01*
X46080636Y-26770012D02*
X45941729Y-26770012D01*
X46382244Y-27282658D02*
X46080636Y-26770012D01*
X46663111Y-27808666D02*
X46382244Y-27282658D01*
X46920492Y-28348789D02*
X46663111Y-27808666D01*
X47151646Y-28903768D02*
X46920492Y-28348789D01*
X47140775Y-36331175D02*
X47151646Y-28903768D01*
X41261748Y-45063245D02*
X41753122Y-44766316D01*
X40755658Y-45337720D02*
X41261748Y-45063245D01*
X40234549Y-45588127D02*
X40755658Y-45337720D01*
X39698121Y-45812847D02*
X40234549Y-45588127D01*
X30173671Y-45812847D02*
X39698121Y-45812847D01*
X29631807Y-45585232D02*
X30173671Y-45812847D01*
X22756630Y-31186119D02*
X22756699Y-36139801D01*
X26334495Y-24089454D02*
X24190823Y-26571576D01*
X26334495Y-23796206D02*
X26334495Y-24089454D01*
X24190823Y-26571576D02*
X23938917Y-26571576D01*
X28166473Y-22445885D02*
X27687429Y-22752870D01*
X39730082Y-21433148D02*
X30204532Y-21433148D01*
X40295867Y-21673243D02*
X39730082Y-21433148D01*
X40845284Y-21940815D02*
X40295867Y-21673243D01*
X41378342Y-22234380D02*
X40845284Y-21940815D01*
X41895051Y-22552464D02*
X41378342Y-22234380D01*
X42395420Y-22893586D02*
X41895051Y-22552464D01*
X42879465Y-23256267D02*
X42395420Y-22893586D01*
X26239649Y-43379781D02*
X26677641Y-43755546D01*
X26239649Y-43040784D02*
X26239649Y-43379781D01*
X24096526Y-40558662D02*
X26239649Y-43040784D01*
X23923996Y-40558662D02*
X24096526Y-40558662D01*
X23761703Y-40403029D02*
X23923996Y-40558662D01*
X29162520Y-21895634D02*
X28658400Y-22160000D01*
X29678143Y-21653208D02*
X29162520Y-21895634D01*
X26770748Y-23428453D02*
X26334495Y-23796206D01*
X27221957Y-23080533D02*
X26770748Y-23428453D01*
X27687429Y-22752870D02*
X27221957Y-23080533D01*
X28658400Y-22160000D02*
X28166473Y-22445885D01*
M02*
