G04 #@! TF.GenerationSoftware,KiCad,Pcbnew,5.1.2-f72e74a~84~ubuntu18.04.1*
G04 #@! TF.CreationDate,2019-05-05T18:20:23+02:00*
G04 #@! TF.ProjectId,f-91w,662d3931-772e-46b6-9963-61645f706362,2*
G04 #@! TF.SameCoordinates,Original*
G04 #@! TF.FileFunction,Soldermask,Bot*
G04 #@! TF.FilePolarity,Negative*
%FSLAX46Y46*%
G04 Gerber Fmt 4.6, Leading zero omitted, Abs format (unit mm)*
G04 Created by KiCad (PCBNEW 5.1.2-f72e74a~84~ubuntu18.04.1) date 2019-05-05 18:20:23*
%MOMM*%
%LPD*%
G04 APERTURE LIST*
%ADD10C,0.100000*%
G04 APERTURE END LIST*
D10*
G36*
X54700000Y-109000000D02*
G01*
X53000000Y-109000000D01*
X52500000Y-108700000D01*
X52500000Y-107649999D01*
X52499039Y-107640245D01*
X52496194Y-107630865D01*
X52491574Y-107622221D01*
X52485356Y-107614644D01*
X52477779Y-107608426D01*
X52469135Y-107603806D01*
X52459755Y-107600961D01*
X52450001Y-107600000D01*
X51900000Y-107600000D01*
X51900000Y-106100000D01*
X54700000Y-106100000D01*
X54700000Y-109000000D01*
X54700000Y-109000000D01*
G37*
G36*
X55803135Y-107865175D02*
G01*
X55803138Y-107865176D01*
X55803137Y-107865176D01*
X55898681Y-107904751D01*
X55984668Y-107962206D01*
X56057794Y-108035332D01*
X56115249Y-108121319D01*
X56148034Y-108200471D01*
X56154825Y-108216865D01*
X56175000Y-108318291D01*
X56175000Y-108421709D01*
X56154825Y-108523135D01*
X56154824Y-108523137D01*
X56115249Y-108618681D01*
X56057794Y-108704668D01*
X55984668Y-108777794D01*
X55898681Y-108835249D01*
X55819529Y-108868034D01*
X55803135Y-108874825D01*
X55701709Y-108895000D01*
X55598291Y-108895000D01*
X55496865Y-108874825D01*
X55480471Y-108868034D01*
X55401319Y-108835249D01*
X55315332Y-108777794D01*
X55242206Y-108704668D01*
X55184751Y-108618681D01*
X55145176Y-108523137D01*
X55145175Y-108523135D01*
X55125000Y-108421709D01*
X55125000Y-108318291D01*
X55145175Y-108216865D01*
X55151966Y-108200471D01*
X55184751Y-108121319D01*
X55242206Y-108035332D01*
X55315332Y-107962206D01*
X55401319Y-107904751D01*
X55496863Y-107865176D01*
X55496862Y-107865176D01*
X55496865Y-107865175D01*
X55598291Y-107845000D01*
X55701709Y-107845000D01*
X55803135Y-107865175D01*
X55803135Y-107865175D01*
G37*
G36*
X64773765Y-104164821D02*
G01*
X64910257Y-104221358D01*
X65033096Y-104303436D01*
X65137564Y-104407904D01*
X65219642Y-104530743D01*
X65276179Y-104667235D01*
X65305000Y-104812130D01*
X65305000Y-104959870D01*
X65276179Y-105104765D01*
X65219642Y-105241257D01*
X65137564Y-105364096D01*
X65033096Y-105468564D01*
X64910257Y-105550642D01*
X64773765Y-105607179D01*
X64628870Y-105636000D01*
X64481130Y-105636000D01*
X64336235Y-105607179D01*
X64199743Y-105550642D01*
X64076904Y-105468564D01*
X63972436Y-105364096D01*
X63890358Y-105241257D01*
X63833821Y-105104765D01*
X63805000Y-104959870D01*
X63805000Y-104812130D01*
X63833821Y-104667235D01*
X63890358Y-104530743D01*
X63972436Y-104407904D01*
X64076904Y-104303436D01*
X64199743Y-104221358D01*
X64336235Y-104164821D01*
X64481130Y-104136000D01*
X64628870Y-104136000D01*
X64773765Y-104164821D01*
X64773765Y-104164821D01*
G37*
G36*
X50972765Y-104124821D02*
G01*
X51109257Y-104181358D01*
X51232096Y-104263436D01*
X51336564Y-104367904D01*
X51418642Y-104490743D01*
X51475179Y-104627235D01*
X51504000Y-104772130D01*
X51504000Y-104919870D01*
X51475179Y-105064765D01*
X51418642Y-105201257D01*
X51336564Y-105324096D01*
X51232096Y-105428564D01*
X51109257Y-105510642D01*
X50972765Y-105567179D01*
X50827870Y-105596000D01*
X50680130Y-105596000D01*
X50535235Y-105567179D01*
X50398743Y-105510642D01*
X50275904Y-105428564D01*
X50171436Y-105324096D01*
X50089358Y-105201257D01*
X50032821Y-105064765D01*
X50004000Y-104919870D01*
X50004000Y-104772130D01*
X50032821Y-104627235D01*
X50089358Y-104490743D01*
X50171436Y-104367904D01*
X50275904Y-104263436D01*
X50398743Y-104181358D01*
X50535235Y-104124821D01*
X50680130Y-104096000D01*
X50827870Y-104096000D01*
X50972765Y-104124821D01*
X50972765Y-104124821D01*
G37*
G36*
X67162747Y-101306374D02*
G01*
X67171897Y-101309874D01*
X67178032Y-101311147D01*
X67347797Y-101335400D01*
X67520000Y-101360000D01*
X67521402Y-101360701D01*
X67817797Y-101508898D01*
X67817801Y-101508900D01*
X67820000Y-101510000D01*
X68070000Y-101760000D01*
X68070000Y-101810000D01*
X68041127Y-102012110D01*
X68020503Y-102156479D01*
X68020000Y-102163550D01*
X68020000Y-102450371D01*
X68020961Y-102460125D01*
X68023576Y-102468940D01*
X68199370Y-102908424D01*
X68218066Y-102955166D01*
X68222883Y-102964325D01*
X68320000Y-103110000D01*
X68220000Y-103360000D01*
X67920000Y-103710000D01*
X67620000Y-103910000D01*
X67502334Y-103949222D01*
X67172335Y-104059222D01*
X67172332Y-104059223D01*
X67170000Y-104060000D01*
X66920000Y-104060000D01*
X66918513Y-104059504D01*
X66918508Y-104059503D01*
X66769745Y-104009915D01*
X66620000Y-103960000D01*
X66270000Y-103810000D01*
X66020000Y-103560000D01*
X65941429Y-103450000D01*
X65771427Y-103211998D01*
X65771426Y-103211997D01*
X65770000Y-103210000D01*
X65699365Y-102998096D01*
X65670777Y-102912332D01*
X65670000Y-102910000D01*
X65670000Y-102360000D01*
X65674286Y-102350000D01*
X65819096Y-102012110D01*
X65820000Y-102010000D01*
X66020000Y-101710000D01*
X66022066Y-101708623D01*
X66022068Y-101708621D01*
X66319496Y-101510336D01*
X66320000Y-101510000D01*
X66570000Y-101360000D01*
X66571798Y-101359640D01*
X66571803Y-101359639D01*
X66838140Y-101306372D01*
X67070000Y-101260000D01*
X67162747Y-101306374D01*
X67162747Y-101306374D01*
G37*
G36*
X49150000Y-101250000D02*
G01*
X49400000Y-101400000D01*
X49700000Y-101600000D01*
X49701377Y-101602066D01*
X49701379Y-101602068D01*
X49733397Y-101650095D01*
X49900000Y-101900000D01*
X50050000Y-102250000D01*
X50050000Y-102800000D01*
X50049504Y-102801487D01*
X50049503Y-102801492D01*
X50012555Y-102912335D01*
X49950000Y-103100000D01*
X49949265Y-103101029D01*
X49949260Y-103101037D01*
X49764286Y-103360000D01*
X49700000Y-103450000D01*
X49450000Y-103700000D01*
X49447884Y-103700907D01*
X49447880Y-103700909D01*
X49274415Y-103775251D01*
X49100000Y-103850000D01*
X48950677Y-103899774D01*
X48802335Y-103949222D01*
X48802332Y-103949223D01*
X48800000Y-103950000D01*
X48550000Y-103950000D01*
X48548513Y-103949504D01*
X48548508Y-103949503D01*
X48248776Y-103849592D01*
X48100000Y-103800000D01*
X47800000Y-103600000D01*
X47500000Y-103250000D01*
X47400000Y-103000000D01*
X47497117Y-102854325D01*
X47501934Y-102845166D01*
X47519404Y-102801492D01*
X47696424Y-102358940D01*
X47699155Y-102349527D01*
X47700000Y-102340371D01*
X47700000Y-102053550D01*
X47699497Y-102046479D01*
X47678873Y-101902110D01*
X47650000Y-101700000D01*
X47650000Y-101650000D01*
X47900000Y-101400000D01*
X48200000Y-101250000D01*
X48286658Y-101237620D01*
X48541968Y-101201147D01*
X48551488Y-101198817D01*
X48557250Y-101196375D01*
X48650000Y-101150000D01*
X49150000Y-101250000D01*
X49150000Y-101250000D01*
G37*
G36*
X57300000Y-97200000D02*
G01*
X53900000Y-97200000D01*
X53900000Y-94300000D01*
X57300000Y-94300000D01*
X57300000Y-97200000D01*
X57300000Y-97200000D01*
G37*
G36*
X61800000Y-97200000D02*
G01*
X58400000Y-97200000D01*
X58400000Y-94300000D01*
X61800000Y-94300000D01*
X61800000Y-97200000D01*
X61800000Y-97200000D01*
G37*
G36*
X50136809Y-95292490D02*
G01*
X50199598Y-95304979D01*
X50268891Y-95333682D01*
X50317889Y-95353977D01*
X50317890Y-95353978D01*
X50424351Y-95425112D01*
X50514888Y-95515649D01*
X50514889Y-95515651D01*
X50586023Y-95622111D01*
X50606318Y-95671109D01*
X50635021Y-95740402D01*
X50635021Y-95740404D01*
X50653957Y-95835598D01*
X50660000Y-95865981D01*
X50660000Y-95994019D01*
X50635021Y-96119598D01*
X50606318Y-96188891D01*
X50586023Y-96237889D01*
X50586022Y-96237890D01*
X50514888Y-96344351D01*
X50424351Y-96434888D01*
X50370760Y-96470696D01*
X50317889Y-96506023D01*
X50268891Y-96526318D01*
X50199598Y-96555021D01*
X50136809Y-96567510D01*
X50074021Y-96580000D01*
X49945979Y-96580000D01*
X49883191Y-96567510D01*
X49820402Y-96555021D01*
X49751109Y-96526318D01*
X49702111Y-96506023D01*
X49649240Y-96470696D01*
X49595649Y-96434888D01*
X49505112Y-96344351D01*
X49433978Y-96237890D01*
X49433977Y-96237889D01*
X49413682Y-96188891D01*
X49384979Y-96119598D01*
X49360000Y-95994019D01*
X49360000Y-95865981D01*
X49366044Y-95835598D01*
X49384979Y-95740404D01*
X49384979Y-95740402D01*
X49413682Y-95671109D01*
X49433977Y-95622111D01*
X49505111Y-95515651D01*
X49505112Y-95515649D01*
X49595649Y-95425112D01*
X49702110Y-95353978D01*
X49702111Y-95353977D01*
X49751109Y-95333682D01*
X49820402Y-95304979D01*
X49883191Y-95292490D01*
X49945979Y-95280000D01*
X50074021Y-95280000D01*
X50136809Y-95292490D01*
X50136809Y-95292490D01*
G37*
G36*
X65908809Y-95008490D02*
G01*
X65971598Y-95020979D01*
X66040891Y-95049682D01*
X66089889Y-95069977D01*
X66089890Y-95069978D01*
X66196351Y-95141112D01*
X66286888Y-95231649D01*
X66286889Y-95231651D01*
X66358023Y-95338111D01*
X66364595Y-95353978D01*
X66407021Y-95456402D01*
X66407021Y-95456404D01*
X66432000Y-95581979D01*
X66432000Y-95710021D01*
X66425956Y-95740404D01*
X66407021Y-95835598D01*
X66378318Y-95904891D01*
X66358023Y-95953889D01*
X66358022Y-95953890D01*
X66286888Y-96060351D01*
X66196351Y-96150888D01*
X66142760Y-96186696D01*
X66089889Y-96222023D01*
X66051582Y-96237890D01*
X65971598Y-96271021D01*
X65908809Y-96283510D01*
X65846021Y-96296000D01*
X65717979Y-96296000D01*
X65655191Y-96283510D01*
X65592402Y-96271021D01*
X65512418Y-96237890D01*
X65474111Y-96222023D01*
X65421240Y-96186696D01*
X65367649Y-96150888D01*
X65277112Y-96060351D01*
X65205978Y-95953890D01*
X65205977Y-95953889D01*
X65185682Y-95904891D01*
X65156979Y-95835598D01*
X65138044Y-95740404D01*
X65132000Y-95710021D01*
X65132000Y-95581979D01*
X65156979Y-95456404D01*
X65156979Y-95456402D01*
X65199405Y-95353978D01*
X65205977Y-95338111D01*
X65277111Y-95231651D01*
X65277112Y-95231649D01*
X65367649Y-95141112D01*
X65474110Y-95069978D01*
X65474111Y-95069977D01*
X65523109Y-95049682D01*
X65592402Y-95020979D01*
X65655191Y-95008490D01*
X65717979Y-94996000D01*
X65846021Y-94996000D01*
X65908809Y-95008490D01*
X65908809Y-95008490D01*
G37*
G36*
X64640765Y-86597821D02*
G01*
X64777257Y-86654358D01*
X64900096Y-86736436D01*
X65004564Y-86840904D01*
X65086642Y-86963743D01*
X65143179Y-87100235D01*
X65172000Y-87245130D01*
X65172000Y-87392870D01*
X65143179Y-87537765D01*
X65086642Y-87674257D01*
X65004564Y-87797096D01*
X64900096Y-87901564D01*
X64777257Y-87983642D01*
X64640765Y-88040179D01*
X64495870Y-88069000D01*
X64348130Y-88069000D01*
X64203235Y-88040179D01*
X64066743Y-87983642D01*
X63943904Y-87901564D01*
X63839436Y-87797096D01*
X63757358Y-87674257D01*
X63700821Y-87537765D01*
X63672000Y-87392870D01*
X63672000Y-87245130D01*
X63700821Y-87100235D01*
X63757358Y-86963743D01*
X63839436Y-86840904D01*
X63943904Y-86736436D01*
X64066743Y-86654358D01*
X64203235Y-86597821D01*
X64348130Y-86569000D01*
X64495870Y-86569000D01*
X64640765Y-86597821D01*
X64640765Y-86597821D01*
G37*
G36*
X51666765Y-86528821D02*
G01*
X51803257Y-86585358D01*
X51926096Y-86667436D01*
X52030564Y-86771904D01*
X52112642Y-86894743D01*
X52169179Y-87031235D01*
X52198000Y-87176130D01*
X52198000Y-87323870D01*
X52169179Y-87468765D01*
X52112642Y-87605257D01*
X52030564Y-87728096D01*
X51926096Y-87832564D01*
X51803257Y-87914642D01*
X51666765Y-87971179D01*
X51521870Y-88000000D01*
X51374130Y-88000000D01*
X51229235Y-87971179D01*
X51092743Y-87914642D01*
X50969904Y-87832564D01*
X50865436Y-87728096D01*
X50783358Y-87605257D01*
X50726821Y-87468765D01*
X50698000Y-87323870D01*
X50698000Y-87176130D01*
X50726821Y-87031235D01*
X50783358Y-86894743D01*
X50865436Y-86771904D01*
X50969904Y-86667436D01*
X51092743Y-86585358D01*
X51229235Y-86528821D01*
X51374130Y-86500000D01*
X51521870Y-86500000D01*
X51666765Y-86528821D01*
X51666765Y-86528821D01*
G37*
M02*
