G04 #@! TF.GenerationSoftware,KiCad,Pcbnew,5.1.2-f72e74a~84~ubuntu18.04.1*
G04 #@! TF.CreationDate,2019-05-05T19:34:44+02:00*
G04 #@! TF.ProjectId,f-91w,662d3931-772e-46b6-9963-61645f706362,2*
G04 #@! TF.SameCoordinates,Original*
G04 #@! TF.FileFunction,Copper,L2,Bot*
G04 #@! TF.FilePolarity,Positive*
%FSLAX46Y46*%
G04 Gerber Fmt 4.6, Leading zero omitted, Abs format (unit mm)*
G04 Created by KiCad (PCBNEW 5.1.2-f72e74a~84~ubuntu18.04.1) date 2019-05-05 19:34:44*
%MOMM*%
%LPD*%
G04 APERTURE LIST*
%ADD10C,4.000000*%
%ADD11C,0.460000*%
%ADD12C,2.500000*%
%ADD13C,0.600000*%
%ADD14C,1.200000*%
%ADD15C,0.200000*%
%ADD16C,0.300000*%
%ADD17C,0.254000*%
G04 APERTURE END LIST*
D10*
X47238400Y-38600000D03*
X22638400Y-38400000D03*
X22638400Y-28800000D03*
D11*
X36193900Y-40391000D03*
X36443900Y-29391000D03*
D12*
X34993900Y-35791000D03*
D13*
X30443900Y-40441000D03*
X32282150Y-37756250D03*
D11*
X35957150Y-32243750D03*
D13*
X36293900Y-25741000D03*
D11*
X33619650Y-32243750D03*
D13*
X46581900Y-29993000D03*
X46581900Y-33041000D03*
D11*
X24838400Y-30900000D03*
X25538409Y-29500000D03*
X26543900Y-28641000D03*
X29543900Y-38841000D03*
X29693900Y-39441000D03*
X25843900Y-28641000D03*
X29793900Y-38241000D03*
X27243900Y-28641000D03*
X27943900Y-28941000D03*
X29393900Y-37741000D03*
X29393900Y-36741000D03*
X29293900Y-28641000D03*
X29793900Y-37241000D03*
X28593900Y-28791000D03*
X35043900Y-29591000D03*
X32954592Y-29709160D03*
X35593900Y-28541000D03*
X32342250Y-29700018D03*
X34893900Y-28541000D03*
X31638400Y-29700000D03*
X34193900Y-28541000D03*
X31025997Y-29700000D03*
X33590400Y-26294500D03*
X29779365Y-35250006D03*
X32888400Y-26296500D03*
X29425762Y-35750005D03*
X32186400Y-26298500D03*
X29779365Y-36250006D03*
D14*
X28873900Y-44821000D03*
D11*
X23538400Y-32050000D03*
X25588399Y-30267768D03*
X29268900Y-40991000D03*
X36943900Y-41591000D03*
X24493900Y-35791000D03*
X27643900Y-39491000D03*
X43193900Y-40766000D03*
X39843900Y-41841000D03*
D13*
X26943900Y-40441000D03*
D11*
X30668422Y-30291000D03*
D13*
X39893900Y-30491000D03*
X30343900Y-41691000D03*
X39488400Y-39396500D03*
X35343900Y-40391000D03*
D11*
X42517900Y-31009000D03*
X40993900Y-34819000D03*
X42732791Y-37319891D03*
X40165059Y-39709231D03*
X40643900Y-40091000D03*
X44549900Y-33142600D03*
X40159698Y-42365698D03*
X27403721Y-34630000D03*
X27805990Y-31000000D03*
X28921439Y-39632099D03*
X24643900Y-35191000D03*
D15*
X36193900Y-40391000D02*
X36643900Y-40391000D01*
X36643900Y-40391000D02*
X39243900Y-37791000D01*
X36443900Y-29391000D02*
X38143900Y-29391000D01*
X38143900Y-29391000D02*
X39243900Y-30491000D01*
X39243900Y-30491000D02*
X39243900Y-37791000D01*
X35093900Y-36091000D02*
X33893900Y-34891000D01*
X33619650Y-32716750D02*
X33893900Y-32991000D01*
X33893900Y-32991000D02*
X33893900Y-34891000D01*
X33619650Y-32243750D02*
X33619650Y-32716750D01*
X33619650Y-32243750D02*
X32282150Y-32243750D01*
D16*
X32282150Y-38602750D02*
X30443900Y-40441000D01*
X32282150Y-37756250D02*
X32282150Y-38602750D01*
X36293900Y-25691000D02*
X36293900Y-28691000D01*
X36293900Y-28691000D02*
X35793900Y-29191000D01*
X35793900Y-29191000D02*
X35793900Y-32030500D01*
X35793900Y-32080500D02*
X35957150Y-32243750D01*
X46581900Y-29993000D02*
X46581900Y-33041000D01*
D15*
X24838400Y-30900000D02*
X24838400Y-30200009D01*
X24838400Y-30200009D02*
X25538409Y-29500000D01*
X26693900Y-28816000D02*
X26543900Y-28666000D01*
X26543900Y-28666000D02*
X26543900Y-28641000D01*
X26693900Y-30746118D02*
X26693900Y-28816000D01*
X26593900Y-30846118D02*
X26693900Y-30746118D01*
X29543900Y-38841000D02*
X29310943Y-38841000D01*
X29310943Y-38841000D02*
X25490810Y-35020867D01*
X25490810Y-35020867D02*
X25490810Y-31949208D01*
X25490810Y-31949208D02*
X26593900Y-30846118D01*
X29412571Y-39441000D02*
X29693900Y-39441000D01*
X29312571Y-39341000D02*
X29412571Y-39441000D01*
X29312571Y-39341000D02*
X25138408Y-35166837D01*
X25138408Y-35166837D02*
X25138408Y-31803238D01*
X25138408Y-31803238D02*
X26147273Y-30794373D01*
X26147273Y-30794373D02*
X26147273Y-28944373D01*
X26147273Y-28944373D02*
X25843900Y-28641000D01*
X27243900Y-30691000D02*
X27243900Y-28641000D01*
X27120801Y-30817589D02*
X27120801Y-30814099D01*
X27120801Y-30814099D02*
X27243900Y-30691000D01*
X26720645Y-31217745D02*
X27120801Y-30817589D01*
X25843212Y-34874897D02*
X25843212Y-32095178D01*
X28451608Y-37483293D02*
X25843212Y-34874897D01*
X29209315Y-38241000D02*
X28451608Y-37483293D01*
X29793900Y-38241000D02*
X29209315Y-38241000D01*
X25843212Y-32095178D02*
X26720645Y-31217745D01*
X27886139Y-35291000D02*
X27886139Y-34326083D01*
X27886139Y-34326083D02*
X28332561Y-33879661D01*
X27886139Y-36419452D02*
X27886139Y-35291000D01*
X28425794Y-36959107D02*
X27886139Y-36419452D01*
X29207687Y-37741000D02*
X28425794Y-36959107D01*
X29393900Y-37741000D02*
X29207687Y-37741000D01*
X28332561Y-33879661D02*
X28423970Y-33788252D01*
X28423970Y-29421070D02*
X27943900Y-28941000D01*
X28423970Y-33788252D02*
X28423970Y-29421070D01*
X28332561Y-33879661D02*
X28282561Y-33929661D01*
X28930933Y-34278033D02*
X29128774Y-34080192D01*
X28590943Y-36127512D02*
X28590943Y-34941000D01*
X28590943Y-34941000D02*
X28590943Y-34618023D01*
X28590943Y-34618023D02*
X28930933Y-34278033D01*
X29204431Y-36741000D02*
X28724166Y-36260735D01*
X29393900Y-36741000D02*
X29204431Y-36741000D01*
X28724166Y-36260735D02*
X28590943Y-36127512D01*
X29128774Y-28806126D02*
X29293900Y-28641000D01*
X29128774Y-34080192D02*
X29128774Y-28806126D01*
X28606747Y-34103847D02*
X28776372Y-33934222D01*
X28776372Y-33934222D02*
X28776372Y-28973472D01*
X28776372Y-28973472D02*
X28593900Y-28791000D01*
X28624980Y-36659921D02*
X28238541Y-36273482D01*
X29793900Y-37241000D02*
X29206059Y-37241000D01*
X29206059Y-37241000D02*
X28624980Y-36659921D01*
X28238541Y-34472053D02*
X28606747Y-34103847D01*
X28238541Y-36273482D02*
X28238541Y-34472053D01*
X34906679Y-29728221D02*
X35043900Y-29591000D01*
X33670401Y-29728221D02*
X34906679Y-29728221D01*
X32954592Y-29709160D02*
X33651340Y-29709160D01*
X33651340Y-29709160D02*
X33670401Y-29728221D01*
X34892283Y-29041000D02*
X35093900Y-29041000D01*
X35093900Y-29041000D02*
X35593900Y-28541000D01*
X34557472Y-29375811D02*
X34892283Y-29041000D01*
X32342250Y-29700018D02*
X32342250Y-29374749D01*
X32342250Y-29374749D02*
X32557358Y-29159641D01*
X33600205Y-29159641D02*
X33816374Y-29375811D01*
X32557358Y-29159641D02*
X33600205Y-29159641D01*
X33816374Y-29375811D02*
X34557472Y-29375811D01*
X34411499Y-29023401D02*
X34893900Y-28541000D01*
X32205901Y-28807230D02*
X33746176Y-28807230D01*
X33746176Y-28807230D02*
X33962347Y-29023401D01*
X33962347Y-29023401D02*
X34411499Y-29023401D01*
X31638400Y-29700000D02*
X31638400Y-29374731D01*
X31638400Y-29374731D02*
X32205901Y-28807230D01*
X34107721Y-28454821D02*
X34193900Y-28541000D01*
X31883579Y-28454821D02*
X34107721Y-28454821D01*
X31025997Y-29700000D02*
X31025997Y-29312403D01*
X31025997Y-29312403D02*
X31883579Y-28454821D01*
X30186012Y-29648888D02*
X31732489Y-28102411D01*
X31732489Y-28102411D02*
X32935989Y-28102411D01*
X30186012Y-34518090D02*
X30186012Y-29648888D01*
X33590400Y-26294500D02*
X33590400Y-27448000D01*
X33590400Y-27448000D02*
X32935989Y-28102411D01*
X30186012Y-34518090D02*
X29779365Y-34924737D01*
X29779365Y-34924737D02*
X29779365Y-35250006D01*
X29833602Y-29501298D02*
X31584900Y-27750000D01*
X31584900Y-27750000D02*
X32384900Y-27750000D01*
X29833602Y-34372118D02*
X29833602Y-29501298D01*
X29425762Y-35750005D02*
X29296964Y-35621207D01*
X29296964Y-35621207D02*
X29296964Y-34908756D01*
X29296964Y-34908756D02*
X29833602Y-34372118D01*
X32888400Y-27235500D02*
X32888400Y-26296500D01*
X32384900Y-27750000D02*
X32893900Y-27241000D01*
X32893900Y-27241000D02*
X32888400Y-27235500D01*
X29481192Y-29353708D02*
X31437310Y-27397590D01*
X31437310Y-27397590D02*
X31890810Y-27397590D01*
X29481192Y-34226146D02*
X29481192Y-29353708D01*
X32186400Y-26298500D02*
X32186400Y-27102000D01*
X29481192Y-34226146D02*
X28943361Y-34763977D01*
X32186400Y-27102000D02*
X31890810Y-27397590D01*
X28943361Y-34763977D02*
X28943361Y-35981558D01*
X28943361Y-35981558D02*
X29211809Y-36250006D01*
X29211809Y-36250006D02*
X29779365Y-36250006D01*
X30003900Y-44821000D02*
X30203900Y-44621000D01*
X28873900Y-44821000D02*
X30003900Y-44821000D01*
X23538400Y-32050000D02*
X24393253Y-32050000D01*
X24393253Y-32050000D02*
X25588399Y-30854854D01*
X25588399Y-30854854D02*
X25588399Y-30267768D01*
X29791499Y-41956153D02*
X30078747Y-42243401D01*
X29474807Y-40991000D02*
X29791499Y-41307692D01*
X29791499Y-41307692D02*
X29791499Y-41956153D01*
X30078747Y-42243401D02*
X36291499Y-42243401D01*
X36291499Y-42243401D02*
X36943900Y-41591000D01*
X29268900Y-40991000D02*
X29474807Y-40991000D01*
X27643900Y-38669073D02*
X27643900Y-39491000D01*
X24765827Y-35791000D02*
X27643900Y-38669073D01*
X24493900Y-35791000D02*
X24765827Y-35791000D01*
X39843900Y-41841000D02*
X40643900Y-41841000D01*
X40643900Y-41841000D02*
X41216490Y-42413590D01*
X41216490Y-42413590D02*
X42396310Y-42413590D01*
X42396310Y-42413590D02*
X43168900Y-41641000D01*
X43168900Y-41641000D02*
X43168900Y-40791000D01*
X43168900Y-40791000D02*
X43193900Y-40766000D01*
D16*
X26943900Y-40441000D02*
X27193900Y-40191000D01*
X26693900Y-40191000D02*
X26093900Y-39591000D01*
X27193900Y-40191000D02*
X26693900Y-40191000D01*
X28443900Y-40191000D02*
X27193900Y-40191000D01*
X35343900Y-40391000D02*
X35343900Y-41041000D01*
X35343900Y-41041000D02*
X35393900Y-41091000D01*
X29243900Y-40191000D02*
X29743900Y-40191000D01*
X29743900Y-40191000D02*
X30588422Y-39346478D01*
X30588422Y-39346478D02*
X30588422Y-30371000D01*
X30588422Y-30371000D02*
X30668422Y-30291000D01*
X39693900Y-30691000D02*
X39893900Y-30491000D01*
X39693900Y-36941000D02*
X39693900Y-30691000D01*
X42443900Y-39091000D02*
X44093900Y-39091000D01*
X40893900Y-40641000D02*
X42443900Y-39091000D01*
X40343900Y-40641000D02*
X40893900Y-40641000D01*
X39488400Y-39785500D02*
X40343900Y-40641000D01*
X39488400Y-39396500D02*
X39488400Y-39785500D01*
X30343900Y-41691000D02*
X30343900Y-41291000D01*
X30343900Y-41291000D02*
X30143900Y-41091000D01*
X36593900Y-41091000D02*
X35393900Y-41091000D01*
X35393900Y-41091000D02*
X30143900Y-41091000D01*
X29243900Y-40191000D02*
X28443900Y-40191000D01*
X38843900Y-38841000D02*
X36593900Y-41091000D01*
X30143900Y-41091000D02*
X29243900Y-40191000D01*
X39488400Y-39396500D02*
X38932900Y-38841000D01*
X38932900Y-38841000D02*
X38843900Y-38841000D01*
X39693900Y-37991000D02*
X38843900Y-38841000D01*
X39693900Y-36941000D02*
X39693900Y-37991000D01*
D15*
X40993900Y-32533000D02*
X40993900Y-34819000D01*
X42517900Y-31009000D02*
X40993900Y-32533000D01*
X42732791Y-37319891D02*
X40343451Y-39709231D01*
X40343451Y-39709231D02*
X40165059Y-39709231D01*
X40693900Y-40041000D02*
X40643900Y-40091000D01*
X44549900Y-36185000D02*
X40643900Y-40091000D01*
X44549900Y-33142600D02*
X44549900Y-36185000D01*
X47238400Y-38600000D02*
X43072400Y-42766000D01*
X43072400Y-42766000D02*
X41070518Y-42766000D01*
X41070518Y-42766000D02*
X40670216Y-42365698D01*
X40670216Y-42365698D02*
X40159698Y-42365698D01*
X27403721Y-34630000D02*
X27408400Y-34630000D01*
X27408400Y-34630000D02*
X27533721Y-34504679D01*
X27533721Y-34504679D02*
X27533721Y-34180085D01*
X27533721Y-34180085D02*
X28071552Y-33642255D01*
X28071552Y-33642255D02*
X28071552Y-31265562D01*
X28071552Y-31265562D02*
X27805990Y-31000000D01*
X28921439Y-39632099D02*
X28893900Y-39604560D01*
X28893900Y-39604560D02*
X28893900Y-39420701D01*
X28893900Y-39420701D02*
X24664199Y-35191000D01*
X24664199Y-35191000D02*
X24643900Y-35191000D01*
X24664199Y-35191000D02*
X24643900Y-35191000D01*
D17*
G36*
X34211400Y-33573000D02*
G01*
X31065422Y-33573000D01*
X31065422Y-30927000D01*
X34211400Y-30927000D01*
X34211400Y-33573000D01*
X34211400Y-33573000D01*
G37*
X34211400Y-33573000D02*
X31065422Y-33573000D01*
X31065422Y-30927000D01*
X34211400Y-30927000D01*
X34211400Y-33573000D01*
G36*
X38508900Y-33573000D02*
G01*
X35565400Y-33573000D01*
X35565400Y-30927000D01*
X38508900Y-30927000D01*
X38508900Y-33573000D01*
X38508900Y-33573000D01*
G37*
X38508900Y-33573000D02*
X35565400Y-33573000D01*
X35565400Y-30927000D01*
X38508900Y-30927000D01*
X38508900Y-33573000D01*
G36*
X26114443Y-37860724D02*
G01*
X26373604Y-38002645D01*
X26777950Y-38406992D01*
X26888166Y-38595933D01*
X26970111Y-38996554D01*
X26934031Y-39357357D01*
X26770071Y-39730821D01*
X26499091Y-40037932D01*
X26122970Y-40230579D01*
X25880316Y-40293489D01*
X25585612Y-40302420D01*
X25231297Y-40193400D01*
X24920019Y-40001140D01*
X24713489Y-39776651D01*
X24628122Y-39610659D01*
X24700560Y-39502248D01*
X24875974Y-39078761D01*
X24965400Y-38629189D01*
X24965400Y-38170811D01*
X24944997Y-38068237D01*
X25204694Y-37895105D01*
X25470723Y-37806429D01*
X25797572Y-37797350D01*
X26114443Y-37860724D01*
X26114443Y-37860724D01*
G37*
X26114443Y-37860724D02*
X26373604Y-38002645D01*
X26777950Y-38406992D01*
X26888166Y-38595933D01*
X26970111Y-38996554D01*
X26934031Y-39357357D01*
X26770071Y-39730821D01*
X26499091Y-40037932D01*
X26122970Y-40230579D01*
X25880316Y-40293489D01*
X25585612Y-40302420D01*
X25231297Y-40193400D01*
X24920019Y-40001140D01*
X24713489Y-39776651D01*
X24628122Y-39610659D01*
X24700560Y-39502248D01*
X24875974Y-39078761D01*
X24965400Y-38629189D01*
X24965400Y-38170811D01*
X24944997Y-38068237D01*
X25204694Y-37895105D01*
X25470723Y-37806429D01*
X25797572Y-37797350D01*
X26114443Y-37860724D01*
G36*
X44316077Y-37926429D02*
G01*
X44582106Y-38015105D01*
X44856120Y-38197781D01*
X44930288Y-38275853D01*
X44911400Y-38370811D01*
X44911400Y-38829189D01*
X45000826Y-39278761D01*
X45174924Y-39699070D01*
X45073311Y-39896651D01*
X44866781Y-40121140D01*
X44555503Y-40313400D01*
X44201188Y-40422420D01*
X43906484Y-40413489D01*
X43663830Y-40350579D01*
X43287709Y-40157932D01*
X43016729Y-39850821D01*
X42852769Y-39477357D01*
X42816689Y-39116554D01*
X42898634Y-38715933D01*
X43089820Y-38388186D01*
X43285349Y-38192657D01*
X43672357Y-37980724D01*
X43989228Y-37917350D01*
X44316077Y-37926429D01*
X44316077Y-37926429D01*
G37*
X44316077Y-37926429D02*
X44582106Y-38015105D01*
X44856120Y-38197781D01*
X44930288Y-38275853D01*
X44911400Y-38370811D01*
X44911400Y-38829189D01*
X45000826Y-39278761D01*
X45174924Y-39699070D01*
X45073311Y-39896651D01*
X44866781Y-40121140D01*
X44555503Y-40313400D01*
X44201188Y-40422420D01*
X43906484Y-40413489D01*
X43663830Y-40350579D01*
X43287709Y-40157932D01*
X43016729Y-39850821D01*
X42852769Y-39477357D01*
X42816689Y-39116554D01*
X42898634Y-38715933D01*
X43089820Y-38388186D01*
X43285349Y-38192657D01*
X43672357Y-37980724D01*
X43989228Y-37917350D01*
X44316077Y-37926429D01*
G36*
X31611400Y-45373000D02*
G01*
X30100020Y-45373000D01*
X30011851Y-45335964D01*
X29665400Y-45128093D01*
X29665400Y-44100000D01*
X29662960Y-44075224D01*
X29655733Y-44051399D01*
X29643997Y-44029443D01*
X29628203Y-44010197D01*
X29608957Y-43994403D01*
X29587001Y-43982667D01*
X29563176Y-43975440D01*
X29538400Y-43973000D01*
X29065400Y-43973000D01*
X29065400Y-42727000D01*
X31611400Y-42727000D01*
X31611400Y-45373000D01*
X31611400Y-45373000D01*
G37*
X31611400Y-45373000D02*
X30100020Y-45373000D01*
X30011851Y-45335964D01*
X29665400Y-45128093D01*
X29665400Y-44100000D01*
X29662960Y-44075224D01*
X29655733Y-44051399D01*
X29643997Y-44029443D01*
X29628203Y-44010197D01*
X29608957Y-43994403D01*
X29587001Y-43982667D01*
X29563176Y-43975440D01*
X29538400Y-43973000D01*
X29065400Y-43973000D01*
X29065400Y-42727000D01*
X31611400Y-42727000D01*
X31611400Y-45373000D01*
G36*
X36566900Y-37164000D02*
G01*
X33420900Y-37164000D01*
X33420900Y-33518000D01*
X36566900Y-33518000D01*
X36566900Y-37164000D01*
X36566900Y-37164000D01*
G37*
X36566900Y-37164000D02*
X33420900Y-37164000D01*
X33420900Y-33518000D01*
X36566900Y-33518000D01*
X36566900Y-37164000D01*
M02*
