G04 #@! TF.GenerationSoftware,KiCad,Pcbnew,5.1.2-f72e74a~84~ubuntu18.04.1*
G04 #@! TF.CreationDate,2019-05-05T18:31:10+02:00*
G04 #@! TF.ProjectId,f-91w,662d3931-772e-46b6-9963-61645f706362,2*
G04 #@! TF.SameCoordinates,Original*
G04 #@! TF.FileFunction,Legend,Top*
G04 #@! TF.FilePolarity,Positive*
%FSLAX46Y46*%
G04 Gerber Fmt 4.6, Leading zero omitted, Abs format (unit mm)*
G04 Created by KiCad (PCBNEW 5.1.2-f72e74a~84~ubuntu18.04.1) date 2019-05-05 18:31:10*
%MOMM*%
%LPD*%
G04 APERTURE LIST*
%ADD10C,0.200000*%
%ADD11C,0.300000*%
%ADD12C,0.120000*%
%ADD13C,0.150000*%
G04 APERTURE END LIST*
D10*
X49767404Y-89293380D02*
X49291214Y-89293380D01*
X49291214Y-88293380D01*
X50100738Y-89293380D02*
X50100738Y-88293380D01*
X50672166Y-89293380D02*
X50243595Y-88721952D01*
X50672166Y-88293380D02*
X50100738Y-88864809D01*
X51338833Y-89626714D02*
X51338833Y-88198142D01*
X52005500Y-89245761D02*
X52148357Y-89293380D01*
X52386452Y-89293380D01*
X52481690Y-89245761D01*
X52529309Y-89198142D01*
X52576928Y-89102904D01*
X52576928Y-89007666D01*
X52529309Y-88912428D01*
X52481690Y-88864809D01*
X52386452Y-88817190D01*
X52195976Y-88769571D01*
X52100738Y-88721952D01*
X52053119Y-88674333D01*
X52005500Y-88579095D01*
X52005500Y-88483857D01*
X52053119Y-88388619D01*
X52100738Y-88341000D01*
X52195976Y-88293380D01*
X52434071Y-88293380D01*
X52576928Y-88341000D01*
X53195976Y-88293380D02*
X53386452Y-88293380D01*
X53481690Y-88341000D01*
X53576928Y-88436238D01*
X53624547Y-88626714D01*
X53624547Y-88960047D01*
X53576928Y-89150523D01*
X53481690Y-89245761D01*
X53386452Y-89293380D01*
X53195976Y-89293380D01*
X53100738Y-89245761D01*
X53005500Y-89150523D01*
X52957880Y-88960047D01*
X52957880Y-88626714D01*
X53005500Y-88436238D01*
X53100738Y-88341000D01*
X53195976Y-88293380D01*
X54862642Y-88293380D02*
X54767404Y-88483857D01*
X55815023Y-89293380D02*
X55243595Y-89293380D01*
X55529309Y-89293380D02*
X55529309Y-88293380D01*
X55434071Y-88436238D01*
X55338833Y-88531476D01*
X55243595Y-88579095D01*
X56672166Y-88293380D02*
X56481690Y-88293380D01*
X56386452Y-88341000D01*
X56338833Y-88388619D01*
X56243595Y-88531476D01*
X56195976Y-88721952D01*
X56195976Y-89102904D01*
X56243595Y-89198142D01*
X56291214Y-89245761D01*
X56386452Y-89293380D01*
X56576928Y-89293380D01*
X56672166Y-89245761D01*
X56719785Y-89198142D01*
X56767404Y-89102904D01*
X56767404Y-88864809D01*
X56719785Y-88769571D01*
X56672166Y-88721952D01*
X56576928Y-88674333D01*
X56386452Y-88674333D01*
X56291214Y-88721952D01*
X56243595Y-88769571D01*
X56195976Y-88864809D01*
D11*
X58514642Y-88319571D02*
X58514642Y-87319571D01*
X58514642Y-87605285D02*
X58586071Y-87462428D01*
X58657500Y-87391000D01*
X58800357Y-87319571D01*
X58943214Y-87319571D01*
X60014642Y-88248142D02*
X59871785Y-88319571D01*
X59586071Y-88319571D01*
X59443214Y-88248142D01*
X59371785Y-88105285D01*
X59371785Y-87533857D01*
X59443214Y-87391000D01*
X59586071Y-87319571D01*
X59871785Y-87319571D01*
X60014642Y-87391000D01*
X60086071Y-87533857D01*
X60086071Y-87676714D01*
X59371785Y-87819571D01*
X60586071Y-87319571D02*
X60943214Y-88319571D01*
X61300357Y-87319571D01*
X61871785Y-88176714D02*
X61943214Y-88248142D01*
X61871785Y-88319571D01*
X61800357Y-88248142D01*
X61871785Y-88176714D01*
X61871785Y-88319571D01*
X62514642Y-86962428D02*
X62586071Y-86891000D01*
X62728928Y-86819571D01*
X63086071Y-86819571D01*
X63228928Y-86891000D01*
X63300357Y-86962428D01*
X63371785Y-87105285D01*
X63371785Y-87248142D01*
X63300357Y-87462428D01*
X62443214Y-88319571D01*
X63371785Y-88319571D01*
X56455500Y-85819571D02*
X56455500Y-87319571D01*
X56455500Y-85891000D02*
X56598357Y-85819571D01*
X56884071Y-85819571D01*
X57026928Y-85891000D01*
X57098357Y-85962428D01*
X57169785Y-86105285D01*
X57169785Y-86533857D01*
X57098357Y-86676714D01*
X57026928Y-86748142D01*
X56884071Y-86819571D01*
X56598357Y-86819571D01*
X56455500Y-86748142D01*
X58026928Y-86819571D02*
X57884071Y-86748142D01*
X57812642Y-86605285D01*
X57812642Y-85319571D01*
X59241214Y-85819571D02*
X59241214Y-86819571D01*
X58598357Y-85819571D02*
X58598357Y-86605285D01*
X58669785Y-86748142D01*
X58812642Y-86819571D01*
X59026928Y-86819571D01*
X59169785Y-86748142D01*
X59241214Y-86676714D01*
X59741214Y-85819571D02*
X60312642Y-85819571D01*
X59955500Y-85319571D02*
X59955500Y-86605285D01*
X60026928Y-86748142D01*
X60169785Y-86819571D01*
X60312642Y-86819571D01*
X61026928Y-86819571D02*
X60884071Y-86748142D01*
X60812642Y-86676714D01*
X60741214Y-86533857D01*
X60741214Y-86105285D01*
X60812642Y-85962428D01*
X60884071Y-85891000D01*
X61026928Y-85819571D01*
X61241214Y-85819571D01*
X61384071Y-85891000D01*
X61455500Y-85962428D01*
X61526928Y-86105285D01*
X61526928Y-86533857D01*
X61455500Y-86676714D01*
X61384071Y-86748142D01*
X61241214Y-86819571D01*
X61026928Y-86819571D01*
D12*
X54395500Y-103731000D02*
X55555500Y-103731000D01*
X54395500Y-105651000D02*
X55805500Y-105651000D01*
X54395500Y-105651000D02*
X54395500Y-105341000D01*
X54395500Y-103731000D02*
X54395500Y-104041000D01*
X62610000Y-94365000D02*
X62610000Y-93890000D01*
X53390000Y-103110000D02*
X53865000Y-103110000D01*
X53390000Y-102635000D02*
X53390000Y-103110000D01*
X53390000Y-93890000D02*
X53865000Y-93890000D01*
X53390000Y-94365000D02*
X53390000Y-93890000D01*
X62610000Y-103110000D02*
X62135000Y-103110000D01*
X62610000Y-102635000D02*
X62610000Y-103110000D01*
X68865500Y-96371000D02*
X68865500Y-96371000D01*
X68365500Y-96371000D02*
X68865500Y-96371000D01*
X68865500Y-94671000D02*
X68865500Y-94671000D01*
X68865500Y-94171000D02*
X68865500Y-94671000D01*
X68365500Y-94171000D02*
X68865500Y-94171000D01*
X67165500Y-94171000D02*
X67165500Y-94171000D01*
X66665500Y-94171000D02*
X67165500Y-94171000D01*
X66665500Y-94671000D02*
X66665500Y-94171000D01*
X66665500Y-95871000D02*
X66665500Y-95871000D01*
X66665500Y-96371000D02*
X66665500Y-95871000D01*
X67165500Y-96371000D02*
X66665500Y-96371000D01*
D13*
X51125000Y-99475000D02*
X51125000Y-98550000D01*
X52075000Y-99475000D02*
X51125000Y-99475000D01*
X52100000Y-98550000D02*
X52100000Y-102500000D01*
X49125000Y-98550000D02*
X51125000Y-98550000D01*
X48150000Y-102500000D02*
X48150000Y-98550000D01*
X51125156Y-102500000D02*
X49124895Y-102500000D01*
X51698433Y-94961380D02*
X51365100Y-94485190D01*
X51127004Y-94961380D02*
X51127004Y-93961380D01*
X51507957Y-93961380D01*
X51603195Y-94009000D01*
X51650814Y-94056619D01*
X51698433Y-94151857D01*
X51698433Y-94294714D01*
X51650814Y-94389952D01*
X51603195Y-94437571D01*
X51507957Y-94485190D01*
X51127004Y-94485190D01*
X52031766Y-93961380D02*
X52650814Y-93961380D01*
X52317480Y-94342333D01*
X52460338Y-94342333D01*
X52555576Y-94389952D01*
X52603195Y-94437571D01*
X52650814Y-94532809D01*
X52650814Y-94770904D01*
X52603195Y-94866142D01*
X52555576Y-94913761D01*
X52460338Y-94961380D01*
X52174623Y-94961380D01*
X52079385Y-94913761D01*
X52031766Y-94866142D01*
X55467080Y-106918466D02*
X54990890Y-107251800D01*
X55467080Y-107489895D02*
X54467080Y-107489895D01*
X54467080Y-107108942D01*
X54514700Y-107013704D01*
X54562319Y-106966085D01*
X54657557Y-106918466D01*
X54800414Y-106918466D01*
X54895652Y-106966085D01*
X54943271Y-107013704D01*
X54990890Y-107108942D01*
X54990890Y-107489895D01*
X54562319Y-106537514D02*
X54514700Y-106489895D01*
X54467080Y-106394657D01*
X54467080Y-106156561D01*
X54514700Y-106061323D01*
X54562319Y-106013704D01*
X54657557Y-105966085D01*
X54752795Y-105966085D01*
X54895652Y-106013704D01*
X55467080Y-106585133D01*
X55467080Y-105966085D01*
X51698433Y-93742180D02*
X51365100Y-93265990D01*
X51127004Y-93742180D02*
X51127004Y-92742180D01*
X51507957Y-92742180D01*
X51603195Y-92789800D01*
X51650814Y-92837419D01*
X51698433Y-92932657D01*
X51698433Y-93075514D01*
X51650814Y-93170752D01*
X51603195Y-93218371D01*
X51507957Y-93265990D01*
X51127004Y-93265990D01*
X52650814Y-93742180D02*
X52079385Y-93742180D01*
X52365100Y-93742180D02*
X52365100Y-92742180D01*
X52269861Y-92885038D01*
X52174623Y-92980276D01*
X52079385Y-93027895D01*
X53141461Y-106537419D02*
X53046223Y-106489800D01*
X52950985Y-106394561D01*
X52808128Y-106251704D01*
X52712890Y-106204085D01*
X52617652Y-106204085D01*
X52665271Y-106442180D02*
X52570033Y-106394561D01*
X52474795Y-106299323D01*
X52427176Y-106108847D01*
X52427176Y-105775514D01*
X52474795Y-105585038D01*
X52570033Y-105489800D01*
X52665271Y-105442180D01*
X52855747Y-105442180D01*
X52950985Y-105489800D01*
X53046223Y-105585038D01*
X53093842Y-105775514D01*
X53093842Y-106108847D01*
X53046223Y-106299323D01*
X52950985Y-106394561D01*
X52855747Y-106442180D01*
X52665271Y-106442180D01*
X54046223Y-106442180D02*
X53474795Y-106442180D01*
X53760509Y-106442180D02*
X53760509Y-105442180D01*
X53665271Y-105585038D01*
X53570033Y-105680276D01*
X53474795Y-105727895D01*
X56284795Y-92335780D02*
X56284795Y-93145304D01*
X56332414Y-93240542D01*
X56380033Y-93288161D01*
X56475271Y-93335780D01*
X56665747Y-93335780D01*
X56760985Y-93288161D01*
X56808604Y-93240542D01*
X56856223Y-93145304D01*
X56856223Y-92335780D01*
X57856223Y-93335780D02*
X57284795Y-93335780D01*
X57570509Y-93335780D02*
X57570509Y-92335780D01*
X57475271Y-92478638D01*
X57380033Y-92573876D01*
X57284795Y-92621495D01*
X60690033Y-104619742D02*
X60642414Y-104667361D01*
X60499557Y-104714980D01*
X60404319Y-104714980D01*
X60261461Y-104667361D01*
X60166223Y-104572123D01*
X60118604Y-104476885D01*
X60070985Y-104286409D01*
X60070985Y-104143552D01*
X60118604Y-103953076D01*
X60166223Y-103857838D01*
X60261461Y-103762600D01*
X60404319Y-103714980D01*
X60499557Y-103714980D01*
X60642414Y-103762600D01*
X60690033Y-103810219D01*
X61547176Y-104048314D02*
X61547176Y-104714980D01*
X61309080Y-103667361D02*
X61070985Y-104381647D01*
X61690033Y-104381647D01*
X64448710Y-99926887D02*
X64381367Y-99926887D01*
X64246680Y-99859543D01*
X64179336Y-99792200D01*
X64111993Y-99657512D01*
X64111993Y-99522825D01*
X64145664Y-99421810D01*
X64246680Y-99253451D01*
X64347695Y-99152436D01*
X64516054Y-99051421D01*
X64617069Y-99017749D01*
X64751756Y-99017749D01*
X64886443Y-99085093D01*
X64953787Y-99152436D01*
X65021130Y-99287123D01*
X65021130Y-99354467D01*
X65324176Y-99522825D02*
X65761909Y-99960558D01*
X65256832Y-99994230D01*
X65357848Y-100095245D01*
X65391519Y-100196261D01*
X65391519Y-100263604D01*
X65357848Y-100364619D01*
X65189489Y-100532978D01*
X65088474Y-100566650D01*
X65021130Y-100566650D01*
X64920115Y-100532978D01*
X64718084Y-100330948D01*
X64684412Y-100229932D01*
X64684412Y-100162589D01*
X65261510Y-103076487D02*
X65194167Y-103076487D01*
X65059480Y-103009143D01*
X64992136Y-102941800D01*
X64924793Y-102807112D01*
X64924793Y-102672425D01*
X64958464Y-102571410D01*
X65059480Y-102403051D01*
X65160495Y-102302036D01*
X65328854Y-102201021D01*
X65429869Y-102167349D01*
X65564556Y-102167349D01*
X65699243Y-102234693D01*
X65766587Y-102302036D01*
X65833930Y-102436723D01*
X65833930Y-102504067D01*
X66103304Y-102773441D02*
X66170648Y-102773441D01*
X66271663Y-102807112D01*
X66440022Y-102975471D01*
X66473693Y-103076487D01*
X66473693Y-103143830D01*
X66440022Y-103244845D01*
X66372678Y-103312189D01*
X66237991Y-103379532D01*
X65429869Y-103379532D01*
X65867602Y-103817265D01*
X60944033Y-105940542D02*
X60896414Y-105988161D01*
X60753557Y-106035780D01*
X60658319Y-106035780D01*
X60515461Y-105988161D01*
X60420223Y-105892923D01*
X60372604Y-105797685D01*
X60324985Y-105607209D01*
X60324985Y-105464352D01*
X60372604Y-105273876D01*
X60420223Y-105178638D01*
X60515461Y-105083400D01*
X60658319Y-105035780D01*
X60753557Y-105035780D01*
X60896414Y-105083400D01*
X60944033Y-105131019D01*
X61896414Y-106035780D02*
X61324985Y-106035780D01*
X61610700Y-106035780D02*
X61610700Y-105035780D01*
X61515461Y-105178638D01*
X61420223Y-105273876D01*
X61324985Y-105321495D01*
X68106833Y-92580142D02*
X68059214Y-92627761D01*
X67916357Y-92675380D01*
X67821119Y-92675380D01*
X67678261Y-92627761D01*
X67583023Y-92532523D01*
X67535404Y-92437285D01*
X67487785Y-92246809D01*
X67487785Y-92103952D01*
X67535404Y-91913476D01*
X67583023Y-91818238D01*
X67678261Y-91723000D01*
X67821119Y-91675380D01*
X67916357Y-91675380D01*
X68059214Y-91723000D01*
X68106833Y-91770619D01*
X69011595Y-91675380D02*
X68535404Y-91675380D01*
X68487785Y-92151571D01*
X68535404Y-92103952D01*
X68630642Y-92056333D01*
X68868738Y-92056333D01*
X68963976Y-92103952D01*
X69011595Y-92151571D01*
X69059214Y-92246809D01*
X69059214Y-92484904D01*
X69011595Y-92580142D01*
X68963976Y-92627761D01*
X68868738Y-92675380D01*
X68630642Y-92675380D01*
X68535404Y-92627761D01*
X68487785Y-92580142D01*
X65335833Y-97660142D02*
X65288214Y-97707761D01*
X65145357Y-97755380D01*
X65050119Y-97755380D01*
X64907261Y-97707761D01*
X64812023Y-97612523D01*
X64764404Y-97517285D01*
X64716785Y-97326809D01*
X64716785Y-97183952D01*
X64764404Y-96993476D01*
X64812023Y-96898238D01*
X64907261Y-96803000D01*
X65050119Y-96755380D01*
X65145357Y-96755380D01*
X65288214Y-96803000D01*
X65335833Y-96850619D01*
X65669166Y-96755380D02*
X66335833Y-96755380D01*
X65907261Y-97755380D01*
X69900642Y-97977666D02*
X69948261Y-98025285D01*
X69995880Y-98168142D01*
X69995880Y-98263380D01*
X69948261Y-98406238D01*
X69853023Y-98501476D01*
X69757785Y-98549095D01*
X69567309Y-98596714D01*
X69424452Y-98596714D01*
X69233976Y-98549095D01*
X69138738Y-98501476D01*
X69043500Y-98406238D01*
X68995880Y-98263380D01*
X68995880Y-98168142D01*
X69043500Y-98025285D01*
X69091119Y-97977666D01*
X68995880Y-97120523D02*
X68995880Y-97311000D01*
X69043500Y-97406238D01*
X69091119Y-97453857D01*
X69233976Y-97549095D01*
X69424452Y-97596714D01*
X69805404Y-97596714D01*
X69900642Y-97549095D01*
X69948261Y-97501476D01*
X69995880Y-97406238D01*
X69995880Y-97215761D01*
X69948261Y-97120523D01*
X69900642Y-97072904D01*
X69805404Y-97025285D01*
X69567309Y-97025285D01*
X69472071Y-97072904D01*
X69424452Y-97120523D01*
X69376833Y-97215761D01*
X69376833Y-97406238D01*
X69424452Y-97501476D01*
X69472071Y-97549095D01*
X69567309Y-97596714D01*
X65225595Y-92945380D02*
X65225595Y-93754904D01*
X65273214Y-93850142D01*
X65320833Y-93897761D01*
X65416071Y-93945380D01*
X65606547Y-93945380D01*
X65701785Y-93897761D01*
X65749404Y-93850142D01*
X65797023Y-93754904D01*
X65797023Y-92945380D01*
X66701785Y-93278714D02*
X66701785Y-93945380D01*
X66463690Y-92897761D02*
X66225595Y-93612047D01*
X66844642Y-93612047D01*
X65543595Y-88843380D02*
X65543595Y-89652904D01*
X65591214Y-89748142D01*
X65638833Y-89795761D01*
X65734071Y-89843380D01*
X65924547Y-89843380D01*
X66019785Y-89795761D01*
X66067404Y-89748142D01*
X66115023Y-89652904D01*
X66115023Y-88843380D01*
X66543595Y-88938619D02*
X66591214Y-88891000D01*
X66686452Y-88843380D01*
X66924547Y-88843380D01*
X67019785Y-88891000D01*
X67067404Y-88938619D01*
X67115023Y-89033857D01*
X67115023Y-89129095D01*
X67067404Y-89271952D01*
X66495976Y-89843380D01*
X67115023Y-89843380D01*
X48493595Y-97143380D02*
X48493595Y-97952904D01*
X48541214Y-98048142D01*
X48588833Y-98095761D01*
X48684071Y-98143380D01*
X48874547Y-98143380D01*
X48969785Y-98095761D01*
X49017404Y-98048142D01*
X49065023Y-97952904D01*
X49065023Y-97143380D01*
X49445976Y-97143380D02*
X50065023Y-97143380D01*
X49731690Y-97524333D01*
X49874547Y-97524333D01*
X49969785Y-97571952D01*
X50017404Y-97619571D01*
X50065023Y-97714809D01*
X50065023Y-97952904D01*
X50017404Y-98048142D01*
X49969785Y-98095761D01*
X49874547Y-98143380D01*
X49588833Y-98143380D01*
X49493595Y-98095761D01*
X49445976Y-98048142D01*
M02*
