M48
; DRILL file {KiCad 5.1.2-f72e74a~84~ubuntu18.04.1} date dim. 05 mai 2019 18:20:26 CEST
; FORMAT={-:-/ absolute / inch / decimal}
; #@! TF.CreationDate,2019-05-05T18:20:26+02:00
; #@! TF.GenerationSoftware,Kicad,Pcbnew,5.1.2-f72e74a~84~ubuntu18.04.1
; #@! TF.FileFunction,Plated,1,2,PTH
FMAT,2
INCH
T1C0.0118
T2C0.0157
T3C0.0335
T4C0.0787
T5C0.1102
%
G90
G05
T1
X1.8307Y-3.7618
X1.8683Y-3.9091
X1.8742Y-3.8855
X1.8819Y-3.7165
X1.9094Y-3.6614
X1.9114Y-3.6916
X1.9215Y-3.6276
X1.949Y-3.6276
X1.9766Y-3.6276
X1.9829Y-3.8634
X1.9923Y-4.0548
X1.9987Y-3.7205
X2.0042Y-3.6394
X2.0297Y-3.6335
X2.0426Y-4.0603
X2.0563Y-4.1138
X2.0573Y-3.6276
X2.0612Y-3.9465
X2.0612Y-3.9859
X2.0625Y-3.9075
X2.0671Y-4.0292
X2.0731Y-4.0528
X2.0764Y-3.8878
X2.0764Y-3.9272
X2.077Y-3.9662
X2.077Y-4.0056
X2.1114Y-3.6926
X2.1255Y-3.6693
X2.1496Y-3.6693
X2.1712Y-3.5354
X2.1773Y-3.6693
X2.1988Y-3.5353
X2.2014Y-3.6697
X2.2265Y-3.5352
X2.2276Y-3.7694
X2.2502Y-3.6237
X2.2778Y-3.6237
X2.2837Y-3.665
X2.3053Y-3.6237
X2.3196Y-3.7694
X2.329Y-4.0902
X2.3388Y-3.6571
X2.3585Y-4.1374
X2.4727Y-4.1473
X2.4851Y-4.1679
X2.4853Y-4.0634
X2.5042Y-4.0784
X2.5179Y-3.8708
X2.5779Y-3.7208
X2.5864Y-3.9693
X2.6045Y-4.105
X2.6579Y-3.8048
T2
X1.9648Y-4.0922
X2.0986Y-4.1414
X2.1026Y-4.0922
X2.175Y-3.9865
X2.2955Y-4.0902
X2.3329Y-3.5134
X2.4587Y-4.051
X2.4746Y-3.7004
X2.7379Y-3.6808
X2.7379Y-3.8008
T3
X2.0408Y-4.2646
T4
X2.2817Y-3.9091
T5
X1.7953Y-4.0118
X1.7953Y-3.6339
X2.7638Y-4.0197
T0
M30
